<?xml version="1.0" encoding="UTF-8"?>
<svg id="Layer_1" xmlns="http://www.w3.org/2000/svg" version="1.1" viewBox="0 0 1273 2209.06">
  <!-- Generator: Adobe Illustrator 30.1.0, SVG Export Plug-In . SVG Version: 2.1.1 Build 136)  -->
  <defs>
    <style>
      .st0 {
        fill: #231f20;
      }

      .st1 {
        fill: #963734;
        fill-rule: evenodd;
      }
    </style>
  </defs>
  <g>
    <path class="st1" d="M915,482.06c-4.97,0-9-4.03-9-9s4.03-9,9-9h5c4.97,0,9,4.03,9,9s-4.03,9-9,9h-5Z"/>
    <path class="st0" d="M920,473.06h-5,5M920,455.06h-5c-9.94,0-18,8.06-18,18s8.06,18,18,18h5c9.94,0,18-8.06,18-18s-8.06-18-18-18h0Z"/>
  </g>
  <g>
    <path class="st1" d="M227,590.06c-1.88,0-3.77-.59-5.39-1.8l-4-3c-3.98-2.98-4.78-8.62-1.8-12.6,1.77-2.36,4.47-3.6,7.21-3.6,1.88,0,3.77.59,5.39,1.8l4,3c3.98,2.98,4.78,8.62,1.8,12.6-1.77,2.36-4.47,3.6-7.21,3.6Z"/>
    <path class="st0" d="M223,578.06c1.33,1,2.67,2,4,3-1.33-1-2.67-2-4-3M223.02,560.06c-5.47,0-10.88,2.49-14.41,7.2-5.96,7.95-4.35,19.24,3.6,25.2l4,3c3.24,2.43,7.03,3.6,10.79,3.6,5.47,0,10.88-2.49,14.41-7.2,5.96-7.95,4.35-19.24-3.6-25.2l-4-3c-3.24-2.43-7.03-3.6-10.79-3.6h0Z"/>
  </g>
  <g>
    <path class="st1" d="M157,773.06c-2.36,0-4.66-.93-6.36-2.64l-2-2c-1.93-1.92-2.88-4.62-2.58-7.33.29-2.71,1.79-5.14,4.08-6.61l14-9c1.48-.95,3.18-1.43,4.87-1.43s3.48.5,4.99,1.51c.33.22.6.4.84.55,1.51.97,2.63,1.93,3.47,2.95,2.01.07,3.95.81,5.51,2.13,2.02,1.71,3.18,4.22,3.18,6.87v1c0,2.77-1.27,5.38-3.45,7.08-5.15,4.04-12.1,4.92-18.23,5.7-2.33.3-4.54.58-6.28.98-.68.16-1.36.23-2.04.23Z"/>
    <path class="st0" d="M169,753.06c3.19,2.13,2.45,1.03,3,6,2-.33,4-.67,6-1v1c-4.73,3.71-14.23,3.42-21,5-.67-.67-1.33-1.33-2-2,4.67-3,9.33-6,14-9M169,735.06c-3.38,0-6.77.95-9.73,2.86l-9.33,6-4.67,3c-4.58,2.94-7.58,7.8-8.16,13.22-.58,5.41,1.32,10.8,5.17,14.65l1.33,1.33.67.67c3.41,3.41,8.01,5.27,12.73,5.27,1.36,0,2.73-.15,4.08-.47,1.3-.3,3.37-.57,5.38-.82,6.92-.88,15.54-1.97,22.65-7.55,4.35-3.41,6.89-8.64,6.89-14.17v-1c0-5.29-2.33-10.31-6.37-13.73-2.07-1.76-4.49-3-7.05-3.67-.88-.74-1.84-1.44-2.89-2.11-.2-.13-.43-.27-.7-.46-3.02-2.02-6.5-3.02-9.99-3.02h0Z"/>
  </g>
  <g>
    <path class="st1" d="M178,764.06c-3.12,0-6.02-1.62-7.66-4.27s-1.79-5.97-.39-8.76l1-2c1.29-2.59,3.75-4.39,6.61-4.86.48-.08.96-.12,1.44-.12,2.37,0,4.66.93,6.36,2.64l2,2c2.57,2.57,3.34,6.44,1.95,9.81-1.39,3.36-4.67,5.56-8.31,5.56h-3Z"/>
    <path class="st0" d="M179,753.06c.67.67,1.33,1.33,2,2h-3c.33-.67.67-1.33,1-2M179,735.06c-.96,0-1.92.08-2.88.23-5.71.93-10.63,4.54-13.22,9.72l-.33.67-.67,1.33c-2.79,5.58-2.49,12.21.79,17.51,3.28,5.31,9.07,8.54,15.31,8.54h3c7.28,0,13.84-4.39,16.63-11.11,2.79-6.73,1.25-14.47-3.9-19.62l-.67-.67-1.33-1.33c-3.4-3.4-7.99-5.27-12.73-5.27h0Z"/>
  </g>
  <g>
    <path class="st1" d="M145,791.06c-1.65,0-3.29-.45-4.73-1.34-2.65-1.64-4.27-4.54-4.27-7.66v-2c0-4.97,4.03-9,9-9h4c4.17,0,7.8,2.87,8.76,6.93.96,4.06-1,8.25-4.73,10.12l-4,2c-1.27.64-2.65.95-4.02.95Z"/>
    <path class="st0" d="M149,780.06c-1.33.67-2.67,1.33-4,2v-2h4M149,762.06h-4c-9.94,0-18,8.06-18,18v2c0,6.24,3.23,12.03,8.54,15.31,2.89,1.79,6.17,2.69,9.46,2.69,2.75,0,5.51-.63,8.05-1.9l1.33-.67,2.67-1.33c7.47-3.73,11.39-12.11,9.47-20.24-1.92-8.12-9.17-13.86-17.52-13.86h0Z"/>
  </g>
  <g>
    <path class="st1" d="M173,792.06c-3.87,0-7.31-2.48-8.54-6.15s.04-7.72,3.14-10.05l4-3c1.56-1.17,3.45-1.8,5.4-1.8h3c3.64,0,6.92,2.19,8.31,5.56,1.39,3.36.62,7.23-1.95,9.81l-3,3c-1.69,1.69-3.98,2.64-6.36,2.64h-4Z"/>
    <path class="st0" d="M180,780.06c-1,1-2,2-3,3h-4c1.33-1,2.67-2,4-3h3M180,762.06h-3c-3.89,0-7.68,1.26-10.8,3.6l-1.78,1.33-2.22,1.67c-6.2,4.65-8.73,12.74-6.28,20.09,2.45,7.35,9.33,12.31,17.08,12.31h4c4.77,0,9.35-1.9,12.73-5.27l2-2,1-1c5.15-5.15,6.69-12.89,3.9-19.62-2.79-6.73-9.35-11.11-16.63-11.11h0Z"/>
  </g>
  <g>
    <path class="st1" d="M174,829.06c-3.41,0-6.52-1.92-8.05-4.97l-1-2c-1.4-2.79-1.25-6.1.39-8.76s4.54-4.27,7.66-4.27h2c3.12,0,6.02,1.62,7.66,4.27s1.79,5.97.39,8.76l-1,2c-1.53,3.05-4.64,4.97-8.05,4.97Z"/>
    <path class="st0" d="M175,818.06c-.33.67-.67,1.33-1,2-.33-.67-.67-1.33-1-2h2M175,800.06h-2c-6.24,0-12.03,3.23-15.31,8.54-3.28,5.31-3.58,11.93-.79,17.51l.33.67.67,1.33c3.05,6.1,9.28,9.95,16.1,9.95s13.05-3.85,16.1-9.95l.67-1.33.33-.67c2.79-5.58,2.49-12.21-.79-17.51-3.28-5.31-9.07-8.54-15.31-8.54h0Z"/>
  </g>
  <g>
    <path class="st1" d="M178,829.06c-3.41,0-6.52-1.92-8.05-4.97l-1-2c-1.4-2.79-1.25-6.1.39-8.76s4.54-4.27,7.66-4.27h2c3.12,0,6.02,1.62,7.66,4.27s1.79,5.97.39,8.76l-1,2c-1.53,3.05-4.64,4.97-8.05,4.97Z"/>
    <path class="st0" d="M179,818.06c-.33.67-.67,1.33-1,2-.33-.67-.67-1.33-1-2h2M179,800.06h-2c-6.24,0-12.03,3.23-15.31,8.54-3.28,5.31-3.58,11.93-.79,17.51l.33.67.67,1.33c3.05,6.1,9.28,9.95,16.1,9.95s13.05-3.85,16.1-9.95l.67-1.33.33-.67c2.79-5.58,2.49-12.21-.79-17.51-3.28-5.31-9.07-8.54-15.31-8.54h0Z"/>
  </g>
  <g>
    <path class="st1" d="M776.71,2200.06c-8.21-.27-12.58-3.09-15.76-5.15-1.81-1.17-2.64-1.7-4.27-1.95-4.16-.62-8.3-.71-12.3-.8-9.11-.2-18.54-.41-28.18-6.49-3.84-2.42-6.34-5.59-8.55-8.39-1.79-2.26-3.33-4.22-4.92-4.84-44.47-17.3-63.67-43.22-87.97-76.03-1.66-2.24-2.19-5.12-1.43-7.81,7.45-26.32,1.38-50.82-5.05-76.75-2.69-10.85-5.47-22.07-7.19-33.45-3.43-22.69,5.81-48.32,13.96-70.93,3.53-9.79,6.88-19.06,8.85-27.12l-1.89-23.58c-.08-1.02.01-2.05.27-3.04l7.7-28.86v-20.82c0-.82.11-1.64.33-2.43,4.07-14.51,14.94-25.86,25.45-36.84,13.07-13.65,25.48-26.6,24.78-44.7-3.42-2.09-5.28-4.59-6.99-7.34-3.41.65-6.81.8-9.19.8-5.11,0-12.26-.68-17.29-3.94-3.31-2.15-4.84-6.21-3.76-10.01.76-2.67,1.29-9.64,1.17-14.37-2.08-.65-3.76-1.53-5.15-2.27-.6-.32-1.16-.61-1.73-.88l-4.23,3.17c-1.56,1.17-3.45,1.8-5.4,1.8h-1c-2.53,0-4.95-1.07-6.66-2.94-1.71-1.88-2.54-4.38-2.3-6.9.82-8.73-.06-9.36-4.98-12.86-2.4-1.7-5.38-3.82-8.49-7-2.37-2.43-4.13-5.05-5.6-7.6-.95,1.18-2.05,2.29-3.32,3.32-1.63,1.31-3.63,1.99-5.64,1.99-1.34,0-2.7-.3-3.95-.91-3.14-1.53-5.1-4.74-5.05-8.23.22-13.55-3.57-17.88-9.85-25.06-.99-1.13-2-2.28-3.03-3.51l-10.12-1.79c-9.21,7.08-17.62,22.35-24.49,34.84-2.01,3.65-3.91,7.11-5.76,10.24-1.35,2.29-3.64,3.87-6.27,4.3-3.39.57-6.44,1.09-9.21,1.57-11.66,2.02-18.7,3.23-26.32,3.23-8.76,0-17.32-1.66-31.04-4.93-.59-.14-1.16-.21-1.78-.21-1,0-2.08.17-3.33.37-1.58.25-3.37.53-5.4.53-3.53,0-6.75-.86-9.85-2.61-1.22-.69-2.26-1.66-3.04-2.83l-4.19-6.28c-.93,0-2.09.24-3.42.5-1.89.37-4.04.79-6.5.79-2.98,0-5.81-.65-8.4-1.94-2.43-1.2-4.18-3.44-4.78-6.08-.99-4.37-5.16-9.49-9.2-14.43-1.34-1.64-2.71-3.31-3.99-5.01l-6.15-.62-.89,80.17c-.01,1.06-.21,2.11-.59,3.09-6.09,16.05-12.7,32.91-20.53,47.14-.22.39-.46.77-.74,1.13l-12.42,16.24c-4.95,10.6-8.1,22.25-11.42,34.57-2.59,9.61-5.28,19.54-8.91,28.96-4.02,10.42-12.06,16.66-19.16,22.17-3.93,3.06-7.65,5.94-10.15,9.14-1.63,2.09-2.94,5.02-4.32,8.13-2.49,5.59-5.31,11.93-11.32,16.49-5.91,4.48-15.81,6.15-26.28,7.92-6.51,1.1-13.88,2.34-17.15,3.97-3.7,1.84-7.96,4.53-12.48,7.37-13.13,8.27-29.47,18.57-48.38,18.57-3.74,0-7.47-.41-11.1-1.22-5.49-1.22-9.65-4.47-13.33-7.34-1.16-.91-2.3-1.79-3.43-2.59-7.63,6.36-21.99,16.8-35.42,18.1-.29.03-.58.04-.87.04-1.39,0-2.77-.32-4.03-.95l-3.99-2c-2.2-1.1-3.86-3.05-4.58-5.41l-2.14-6.94c-11.48-.8-27.56-3.46-40.98-11.42-3.71,2.25-7.85,5.83-11.61,9.09-2.88,2.49-5.6,4.85-8.34,6.87-1.58,1.17-3.46,1.75-5.33,1.75s-3.61-.54-5.16-1.62c-5.61-3.92-14.7-12.71-18.78-17.64-1.31-1.59-2.04-3.58-2.06-5.64-.21-19.34,7.89-34.77,15.04-48.39,2.06-3.92,4.05-7.71,5.67-11.31-1.92-1.32-3.83-3.12-5.41-5.75-.45-.74-.78-1.54-1-2.38-6.25-23.96,10.59-34.68,21.73-41.78,1.56-1,3.06-1.95,4.42-2.88l7.07-10.61c.79-1.19,1.86-2.18,3.11-2.87,9.82-5.46,22.52-8.11,38.81-8.11,8.89,0,17.5.75,25.09,1.41,2.26.2,4.42.39,6.46.54l25.32-1.95c.23-.02.46-.03.69-.03.57,0,1.14.05,1.71.16,1.27.25,2.61.54,4.01.84,3.99.87,8.12,1.78,11.87,1.78,1.54,0,2.9-.16,4.06-.47,29.7-8.02,72.73-60.59,80.62-91.54,10.62-41.65.82-81.08-9.55-122.82-3.84-15.46-7.81-31.45-10.6-47.41-.04-.24-.07-.47-.1-.71l-3.87-41.57-19.43-44.68c-.19-.44-.34-.88-.46-1.34l-17-66c-4.95-18.65-3.93-37.4-2.95-55.53.85-15.67,1.65-30.47-1.17-45-3.31-17-9.62-28.08-16.31-39.8-3.43-6.02-6.98-12.24-10.09-19.28-.13-.3-.25-.6-.34-.91l-14.57-45.65-9.18-12.85c-.33-.46-.62-.96-.86-1.48-5.33-11.62-6.26-25.06-7.15-38.06-.96-13.91-1.86-27.04-7.95-35.4-1.68-2.31-2.17-5.29-1.3-8.01,5.85-18.48,8.29-38.53,10.66-57.92,2.32-19.01,4.71-38.66,10.32-56.99,2.11-6.91,7.85-18.23,14.49-31.34,6.68-13.19,18.95-37.41,19.4-44.38-.2-.3-.48-.67-.7-.97-1.64-2.24-4.04-5.53-5.2-10.82-2-.36-3.85-1.4-5.22-3-.24-.28-.46-.57-.66-.87-.17,0-.34.01-.51.01-2.94,0-5.72-1.44-7.41-3.89-1.86-2.7-2.1-6.2-.64-9.13l1-1.99c.87-1.74,2.28-3.16,4.03-4.03l.26-.13c-1.71-1.35-3.13-2.81-4.61-4.41-.87-.94-1.68-1.83-2.72-2.78-2.35-2.16-3.38-5.4-2.7-8.52s2.95-5.65,5.97-6.65c2.17-.72,4.2-1.09,5.97-1.32-.44-.21-.87-.45-1.27-.74-1.9-1.31-3.19-3.29-3.67-5.49-1.74.95-3.85,2.08-6.45,3.27-1.2.55-2.48.82-3.76.82-1.7,0-3.38-.48-4.86-1.42-2.58-1.65-4.14-4.51-4.14-7.58v-1c0-2.24.84-4.38,2.31-6.02-.55-.45-1.05-.97-1.49-1.55-1.46-1.94-2.06-4.34-1.74-6.67-2.07-2.48-2.68-5.93-1.47-9.04.39-1,.94-1.89,1.62-2.67-.16-.67-.24-1.36-.24-2.06v-1c0-2.39.95-4.68,2.64-6.36l7.98-7.98c1.04-1.9,2.22-3.38,3.44-4.56-.27-.13-.53-.28-.79-.44-2.65-1.64-4.27-4.54-4.27-7.66v-1c0-2.39.95-4.68,2.64-6.36l8.09-8.09c-1.14-2.65-.94-5.71.58-8.21-.1-.39-.18-.79-.23-1.2-.05-.38-.07-.76-.07-1.14l-.95-.21c-3.21-.71-5.77-3.12-6.69-6.27-.86-2.95-.15-6.11,1.84-8.41.83-3.85,4.12-6.81,8.2-7.08l3.63-.24c0-.1-.01-.19-.02-.29-1.67-.59-3.16-1.67-4.25-3.14-2.01-2.72-2.32-6.34-.81-9.37l2.15-4.31c-1.49-2.34-1.73-5.2-1.21-7.81.05-.26.12-.6.18-1.05.5-3.77,3.32-6.81,7.04-7.61,1.62-.35,3.49-1.34,5.17-2.56-.94-1.56-1.38-3.35-1.27-5.15-2.05-1.37-3.52-3.56-3.91-6.16-.66-4.4,2-8.63,6.25-9.94l1.12-.34c-.38-1.66-.54-3.46-.47-5.4.12-3.22,1.96-6.1,4.74-7.59.08-.89.22-1.9.47-3.03.86-3.86,4.13-6.67,8-7,.37-1.63,1.19-3.17,2.42-4.4h.01s-.87-1.98-.87-1.98c-.54-1.21-.8-2.51-.77-3.8-1.73-1.05-3.26-2.29-4.6-3.74-2.44-2.62-3.08-6.44-1.65-9.72s4.67-5.4,8.25-5.4h1.15l12.85-2.45v-2.55c0-3.11,1.58-5.87,4.01-7.49-.04-.77.01-1.56.17-2.33,1.07-5.14,2.62-10.01,4.12-14.72,1.89-5.93,3.68-11.54,3.69-15.49.01-2.71,1.24-5.27,3.36-6.97,1.61-1.3,3.61-1.99,5.64-1.99.63,0,1.26.07,1.89.2l3.64.78c.3-.45.65-.88,1.03-1.27l-7.55-14.57c-1.45-2.79-1.33-6.13.3-8.82.41-.68.9-1.28,1.46-1.82l-.03-.07-4.77-2.38c-2.71-1.35-4.56-3.98-4.91-6.99-.31-2.6.53-5.17,2.25-7.09h-.06c-3.68-.31-6.8-2.83-7.87-6.37-1.07-3.53.13-7.36,3.02-9.66,2.54-2.02,5.39-3.23,8.28-4.06-.67-.37-1.3-.82-1.87-1.36-1.8-1.7-2.81-4.06-2.81-6.54v-1c0-3.44,1.95-6.52,4.92-8.03-.6-1.23-.92-2.58-.92-3.97v-1c0-1.48.36-2.91,1.04-4.19-.02-.27-.04-.54-.04-.81v-1c0-4.78,3.73-8.72,8.5-8.99l.76-.04c-2.72-2.94-4.91-6.18-5.87-9.35-.74-2.43-.42-5.06.89-7.24,1.3-2.18,3.47-3.71,5.96-4.21l.76-.15c0-2.01.67-3.99,1.93-5.59-1.53-1.04-2.73-2.55-3.39-4.38-1.28-3.54-.22-7.51,2.66-9.94,4.96-4.19,12.11-4.89,18.58-5.37.2-.54.44-1.13.73-1.8l.23-.52c.58-1.33,1.45-2.47,2.51-3.36-.49-2.05-.24-4.21.71-6.11l.24-.49c-1.2-2.09-1.53-4.6-.84-6.98.91-3.16,3.48-5.58,6.69-6.29,1.95-.44,3.61-.91,4.96-1.44.05-2.05.79-3.96,2.02-5.47.08-1.02.33-2.04.76-2.99-2.26-1.67-4.64-4.14-6.17-8.03-12.2-31.08-28.54-54.07-45.84-78.4-4.26-6-8.67-12.19-13.08-18.61-.92-.87-4.08-2.53-6-3.53-4.14-2.17-8.43-4.42-11.41-7.73-1.65-1.84-2.48-4.29-2.27-6.75.17-2.02,1.01-3.9,2.36-5.37-1.53-3.62-2.51-7.41-3.47-11.13-.88-3.4-1.72-6.66-2.92-9.52l-5.77-3.61c-1.37-.85-2.48-2.06-3.22-3.49-4.03-7.76-8.16-19.21-10.57-26.28-2.37-.42-4.5-1.77-5.88-3.79-1.61-2.36-2-5.33-1.08-8.01-.55-.92-1.18-2.1-1.8-3.6-1.09-2.62-.88-5.6.56-8.04.83-1.4,1.59-2.97,2.39-4.62.55-1.14,1.14-2.36,1.81-3.62-1.53-1.62-2.41-3.76-2.45-6.03-.05-2.8,1.21-5.46,3.41-7.2l29-23c1.29-1.02,2.84-1.67,4.48-1.88l39.33-4.92,74.35-20.82c.6-.17,1.21-.27,1.83-.31l58.87-3.92c12.59-4.3,22.98-13.53,33.97-23.29,15.57-13.83,33.21-29.5,59.31-30.79,1.02-.05,2.03-.08,3.02-.08,24.56,0,37.34,14.74,47.3,31.04l8.75,7c1.25,1,2.21,2.31,2.78,3.81,2.04,5.33,2.2,9.85,2.31,13.15.03.8.06,1.83.14,2.48.15.08.35.17.61.28,6.96,2.9,15,4.31,24.59,4.31,10.32,0,21.44-1.62,32.19-3.19,11.16-1.63,22.69-3.32,33.87-3.32,6.48,0,12.28.56,17.73,1.7,21.53,4.51,47.52,11.16,70.45,17.03,5.54,1.42,10.88,2.78,15.91,4.06,1.85.47,3.73.7,5.73.7,3.51,0,6.98-.69,10.66-1.43,3.31-.66,6.71-1.34,10.31-1.55,8.76-9.3,17.71-12.21,26.39-15.03,5.41-1.76,10.51-3.42,16.14-6.72,1.63-.96,3.97-4.71,5.85-7.72,2.71-4.35,5.79-9.27,10.25-12.68,1.57-1.2,3.49-1.85,5.46-1.85h3c2.37,0,4.61.93,6.27,2.54l10.57-3.97c1.02-.38,2.09-.57,3.16-.57,1.2,0,2.39.24,3.5.71,1.1-.46,2.29-.71,3.5-.71h1c3.38,0,6.37,1.88,7.91,4.7l2.86-1.1c1.05-.4,2.14-.6,3.23-.6,2.13,0,4.24.76,5.9,2.21,2.51,2.18,3.62,5.57,2.87,8.82l-.67,2.91c2-.06,3.35-.31,5.21-1.14,1.19-.53,2.45-.79,3.69-.79,2.4,0,4.76.96,6.49,2.77,2.04,2.12,2.88,5.06,2.36,7.86,12.23,4.66,36.25,12,41.58,12.39.19-.01.38-.02.57-.02,1.98,0,3.92.66,5.51,1.88,1.89,1.47,3.13,3.63,3.42,6l.26,2.09c15.03,5.24,24.48,16.26,32.94,26.12,5.46,6.37,10.62,12.38,16.76,16.36,9.05,5.87,19.07,11.02,28.76,16,18.78,9.66,38.2,19.64,51.42,35.35,15.25,18.11,20.09,41.27,14.78,70.8-1.41,7.86-1.59,13.56-1.77,19.07-.29,9.2-.57,17.89-7.1,30.48-1.26,2.43-3.57,4.16-6.25,4.69-1.18.23-2.54.62-3.98,1.03-3.27.94-6.97,2-11.11,2-2.82,0-5.51-.51-8.01-1.51-.16-.07-.33-.14-.49-.21-14.83-7.01-28.53-22.95-39.33-36.53-9.41,15.95-22.86,26.34-35.93,36.45-11.98,9.26-23.29,18-31.27,30.72-1.43,2.27-3.79,3.79-6.45,4.14-12.52,1.64-19.06,3.64-23.23,7.57,1.4.48,2.68,1.31,3.71,2.44,2.06,2.26,2.83,5.4,2.05,8.35l-1.98,7.52c1.13.52,2.17,1.27,3.01,2.23,1.17,1.32,1.91,2.94,2.17,4.65.52.36,1.08.78,1.68,1.26,1.96,1.57,3.19,3.9,3.37,6.41.18,2.5-.68,4.98-2.4,6.81-.76.81-1.4,1.5-1.94,2.11,1.59.95,2.88,2.39,3.64,4.15,1.24,2.87.9,6.19-.9,8.75-.26.37-.5.72-.73,1.06,2.61.54,5.15,1.49,7.67,2.85,3.22,1.75,5.05,5.27,4.65,8.9l-1,9c-.26,2.35-1.42,4.42-3.11,5.86.07.04.14.07.21.11,2.66,1.34,4.48,3.9,4.87,6.85.2,1.5.01,3-.5,4.37.5.23,1.01.47,1.54.73,2.47,1.21,4.26,3.49,4.84,6.18.48,2.22.1,4.52-1.02,6.44-.04.92-.22,1.93-.61,3.01,1.17,1.53,1.84,3.43,1.84,5.45v1c0,1.81-.54,3.52-1.49,4.96.13.24.26.49.41.76,1.39,2.57,1.44,5.64.15,8.26-1.29,2.61-3.77,4.44-6.65,4.9l-4.44.71c-.08,1.18-.39,2.34-.93,3.43l-1,1.99c-.6,1.21-1.46,2.25-2.51,3.07.94,1.08,1.78,2.36,2.5,3.87,2.96,1.49,4.95,4.55,4.95,8.04v1c0,.71-.08,1.41-.25,2.09,1.44,1.28,2.92,2.87,4.07,4.99h.06c.37-.05.75-.08,1.12-.08,2.37,0,4.67.94,6.36,2.64,1.96,1.96,2.91,4.73,2.57,7.48l-.12.95c3.58,2.04,6.11,4.71,8.18,7.27,2.19,2.7,2.63,6.41,1.13,9.54-1.16,2.43-3.32,4.17-5.84,4.83.44.6.8,1.26,1.09,1.98.43,1.08.64,2.21.63,3.34,7.18.32,14.37,1.27,19.83,3.84,2.79,1.31,4.72,3.97,5.1,7.03l1,8c.14,1.1.07,2.22-.2,3.3l-1,4c-.93,3.74-4.14,6.46-7.98,6.79-3.15.27-6.48.48-10,.7-9.45.6-20.87,1.32-27.69,3.28-.95,2.1-2.01,3.69-3.08,5.05.52,2,.54,4.4-.32,7.44-.13.47-.3.93-.51,1.37-5.42,11.63-15.42,16.19-24.25,20.23-.2.09-.4.18-.6.28.49.63.96,1.31,1.41,2.06.84,1.4,1.28,3,1.28,4.63v8c0,3-1.48,5.68-3.77,7.32.27,1.55.43,2.99.57,4.32.02.21.05.42.07.62l2.24-.22c.3-.03.6-.04.9-.04,2.38,0,4.67.94,6.36,2.64,1.12,1.12,1.91,2.5,2.32,4,1.06-.42,2.19-.63,3.32-.63,1.69,0,3.39.48,4.87,1.43,2.83,1.82,4.4,5.07,4.09,8.4l1.88.63c2.96.99,5.2,3.44,5.91,6.47.58,2.46.1,5.01-1.28,7.07,0,0,0,0,0,.01,2.25,3.38,1.96,7.85-.71,10.91-1.79,2.05-3.57,3.65-5.16,5.06,2.06,1.65,3.38,4.18,3.38,7.03v5c0,3.29-1.8,6.32-4.69,7.9l-4.31,2.35c-.04,1.5-.46,2.99-1.24,4.32-1.55,2.63-4.33,4.29-7.38,4.42-2.84.12-3.78.15-4.91,1.09,3.49,22.54,19.37,60.72,29.68,70.33,2.48,2.31,6.32,4.85,10.38,7.53,7.13,4.71,14.51,9.58,18.89,15.95,19.53,28.41,40.71,55.4,61.25,78.05,7.68,8.47,13.22,28.43,19.66,53.64,1.68,6.58,3.13,12.27,4.23,15.61,1.71,5.21,4.87,11.75,8.23,18.67,4.16,8.58,8.45,17.45,10.85,25.59,2.85,9.69,4.92,22.32,7.1,35.68,1.71,10.47,3.48,21.28,5.59,30.03l9,12.6c.18.26.36.53.51.8,4.18,7.41,7.66,18.98,10.45,28.28.87,2.9,1.62,5.4,2.25,7.3.14.43.25.88.33,1.33l10.02,58.56c9.3-13.39,21.84-35.71,28.26-47.13,5.79-10.32,10.37-18.46,13.39-22.94.37-.55.8-1.06,1.29-1.52l52-49c.51-.48,1.08-.9,1.69-1.25,3.71-2.13,8.04-2.65,11.53-3.07.55-.07,1.22-.15,1.75-.22,3.42-2.67,6.35-6.01,9.44-9.53,4.78-5.45,10.19-11.63,18.35-16.22,1.38-.78,2.9-1.16,4.41-1.16,2.33,0,4.64.91,6.37,2.64l.99.99c3.15,3.15,3.53,8.13.89,11.71-12.21,16.57-13,34.1-13.92,54.41-.72,16-1.47,32.55-7.85,50.29-4.19,11.64-12.13,20.51-19.8,29.08-4.99,5.57-9.71,10.84-12.85,16.34-15.13,26.47-22.29,55.09-29.88,85.38-4.18,16.7-8.5,33.96-14.38,51.94-1.98,6.06-4.32,11.61-6.58,16.96-3.77,8.94-7.33,17.39-9.11,27.76-1.74,10.17.91,21.29,3.48,32.05,2,8.41,3.9,16.35,3.65,23.74-.22,6.39-2.1,13.37-4.08,20.76-2.38,8.84-4.84,17.98-3.98,24.81.4,3.14,4.23,8.48,7.04,12.38,1.86,2.58,3.61,5.02,4.92,7.39,14.59,26.45,39.19,89.2,27.88,137.4-8.42,35.89-68.38,77.81-123.93,114.28-4.04,2.65-7.69,5.05-10.83,7.15-6.87,4.59-14.42,7.1-21.72,9.53-6.45,2.15-12.55,4.18-17.13,7.37-7.27,5.06-13.62,17.23-19.22,27.96-6.59,12.64-12.29,23.56-21.02,27.76-1.23.59-2.56.89-3.9.89-.84,0-1.69-.12-2.51-.36-1.08-.32-2.1-.47-3.12-.47-3.21,0-6.57,1.64-10.46,3.54-5.18,2.52-11.62,5.67-19.75,5.67-1.9,0-3.83-.17-5.74-.51-3.79-.68-6.73-3.69-7.31-7.49l-.75-4.84c-4.77.82-9.87,1.26-14.92,1.26-6.83,0-16.51-.8-24.15-4.58-.56.42-1.13.84-1.7,1.27-2.74,2.05-5.57,4.18-8.92,6.21-1.42.87-3.04,1.31-4.68,1.31-.75,0-1.51-.09-2.25-.29-.55-.14-1-.25-1.36-.34-3.91-.93-5.7-2.1-8-5.2-.15-.2-.32-.43-.53-.71-.35-.46-.65-.94-.91-1.46-1.89-3.8-2.14-7.68-2.33-10.79-.06-1.03-.16-2.5-.32-3.27-.75-.6-1.82-1.04-3.53-1.41l-4.83,4.23c-1.66,1.45-3.77,2.23-5.93,2.23-.83,0-1.66-.11-2.47-.35l-7-2c-3.8-1.08-6.45-4.53-6.53-8.48-.08-4.02-.89-8.67-1.76-13.59-2.49-14.15-5.58-31.77,9.11-43.6,1.64-1.32,3.64-1.99,5.65-1.99.67,0,1.34.07,2,.22,3.16-5.47,6.89-10.72,10.53-15.84,4.05-5.71,8.25-11.6,11.57-17.7.73-1.34,1.75-2.42,2.95-3.21.3-1.31.82-2.47,1.6-3.62l-.88-2.42-2.41-1.2c-15.54,1.78-28.98,3.75-40.04,5.88-34.7,51.11-72.43,166.35-54.58,237.7,1.83,7.33,1.6,13.82,1.4,19.54-.2,5.64-.36,10.09,1.29,14.47.51,1.35,2.57,3.56,4.23,5.33,1.76,1.89,3.58,3.84,4.98,6.06,4.84,7.73,6.96,17.55,9.01,27.04,1.77,8.19,3.6,16.65,6.94,21.89,1.64,2.56,3.33,5.15,5.04,7.75,17.76,27.16,37.89,57.94,29.23,104.73-.44,2.36-1.8,4.44-3.78,5.8-1.5,1.03-3.28,1.57-5.07,1.57-.57,0-1.14-.05-1.7-.16-7.17-1.38-11.05-4.48-14.02-7.26-3.35,1.81-6.15,4.04-9.42,6.67-.85.68-1.72,1.37-2.61,2.07.05.78.11,1.56.16,2.33.61,8.49,1.24,17.26-3.37,26.41-1.53,3.04-4.65,4.94-8.03,4.94-.1,0-.2,0-.29,0ZM399.49,1473.95c-1.7,8.89-3.81,24.51-5.49,45.95-1.11,14.24-1.62,25.62-1.74,34.26,4.96-7.68,10.36-15.19,18.14-19.83,9.29-5.53,19.38-7.52,28.29-9.28,8.01-1.58,15.16-2.99,20.59-6.56-.44-1.28-.86-2.57-1.27-3.84-1.37-4.24-2.91-8.97-4.92-11.19l-17.84-3.57c-.57-.11-1.13-.28-1.67-.51-8.99-3.72-16.12-10.09-23.01-16.26-3.75-3.36-7.39-6.61-11.06-9.17Z"/>
    <path class="st0" d="M467.58,18c21.02,0,31.57,13.26,40.42,28.06,3.33,2.67,6.67,5.33,10,8,3.95,10.31-1.67,16.97,8,21,8.92,3.72,18.36,5.01,28.05,5.01,21.8,0,44.87-6.51,66.06-6.51,5.43,0,10.75.43,15.88,1.5,26.55,5.56,60.34,14.51,86,21,2.77.7,5.41.97,7.94.97,8.5,0,15.82-3.04,23.17-3.04.63,0,1.26.02,1.89.07,12.92-16.02,26-13.01,43-23,6.74-3.96,10.36-15.93,17-21h3c-1.33,2.33-2.67,4.67-4,7,8-3,16-6,24-9,.33,1.67.67,3.33,1,5,2-1.67,4-3.33,6-5h1c.33,2.67.67,5.33,1,8,4.33-1.67,8.67-3.33,13-5-1,4.33-2,8.67-3,13,.33.33.67.67,1,1,1.47-.07,2.8-.09,4.03-.09,1.79,0,3.36.05,4.83.05,3.47,0,6.37-.25,10.15-1.95-1,2-2,4-3,6,4.06,3.49,46.25,17.03,53.51,17.03.18,0,.35,0,.49-.03.33,2.67.67,5.33,1,8,25.79,5.58,34.27,30.87,53,43,44.51,28.84,104.56,37.57,91,113-3.99,22.2,1.06,29.53-8,47-4.37.86-8.88,2.86-13.35,2.86-1.56,0-3.11-.24-4.65-.86-16.68-7.89-32.82-29.88-44-44-.67.33-1.33.67-2,1-14.7,36.76-52.15,45.35-72,77-15.58,2.04-26.51,4.97-33,16,.67,3.33,1.33,6.67,2,10,2-.33,4-.67,6-1-1.67,6.33-3.33,12.67-5,19,2.38-.84,3.64-.96,4.89-.96.51,0,1.01.02,1.59.02.45,0,.95-.01,1.53-.06-.33,1.67-.67,3.33-1,5,4.03.4,3.91.33,6,2-4.41,4.69-7.28,8.04-7,15,2.33.33,4.67.67,7,1-4.31,6.13-4.94,8.75-8,16,3.49-.71,6.43-1.3,9.26-1.3,2.86,0,5.61.6,8.74,2.3-.33,3-.67,6-1,9-4.31.21-4.83.26-7,2h5c-.33.67-.67,1.33-1,2-5.23,2.47-7.31,2.82-13,5v1c7.35,1.63,10.6,1.27,18,5-3.56,3.19-5.45,5.69-8,10,2.38-.13,4.14-.22,5.58-.22,3.37,0,4.92.5,8.42,2.22-1.38,1.68-2.29,1.75-4,3,4.06,1.88,2.68-.18,2,4-2.33.67-4.67,1.33-7,2v1c3,1,6,2,9,3v1c-2,.67-4,1.33-6,2,3.98,3.1,3.23,2.87,6,8-8.33,1.33-16.67,2.67-25,4v7c4.33-.67,8.67-1.33,13-2-.33.67-.67,1.33-1,2-5.73,2.05-8.9,5.35-12,10,5.96.16,9.94.49,12,5-2.33.33-4.67.67-7,1,.33.67.67,1.33,1,2,3.33.33,6.67.67,10,1v1c-1,1.33-2,2.67-3,4,4.9,4.88,9.21,5.22,9,13,2.67-.33,5.33-.67,8-1-.33,2.67-.67,5.33-1,8,5.34.98,8.22,3.57,11,7h-13c.47,6.05-1.05,6.23-5,10,.33,1,.67,2,1,3,4,.33,8,.67,12,1-3.48,3.86-10.26,4.43-14,8v1c.47,0,.95,0,1.45,0,4.02,0,8.8-.14,13.68-.14,8.92,0,18.21.47,23.87,3.13.33,2.67.67,5.33,1,8-.33,1.33-.67,2.67-1,4-14.25,1.2-34.49,1.39-44,6-1.6,5.9-3.9,7.04-7,11,1.95,2.68,2.94,2.64,2,6-5.72,12.27-18.99,14.24-30,21v4c2.79,1.77,5.23,3.04,7,6v8c-4.03.4-3.91.33-6,2,4.01,7.41,1.75,12.5,5,20,3.33-.33,6.67-.67,10-1-.33,3.33-.67,6.67-1,10,6.35-.24,9.28-1.62,13-4-.33,2.33-.67,4.67-1,7,3,1,6,2,9,3-.67.67-1.33,1.33-2,2-3.33,4-6.67,8-10,12,4-1.33,8-2.67,12-4-5.08,5.82-10.91,7.85-13,17,.33.33.67.67,1,1h8v5c-3.67,2-7.33,4-11,6,.67,1.33,1.33,2.67,2,4-8.54.35-9.99,2.53-14,7,2.13,22.69,19.61,67.52,33,80,7.53,7.02,22.33,13.75,28,22,18.55,26.98,40.1,54.84,62,79,9.35,10.31,17.66,52.76,22,66,4.09,12.48,14.93,30.16,19,44,5.1,17.33,7.94,47.07,13,67,3.33,4.67,6.67,9.33,10,14,4.94,8.73,9.33,25.97,12,34,4.33,25.33,8.67,50.67,13,76,12.67-4.24,45.15-69.4,55-84,17.33-16.33,34.67-32.67,52-49,3.8-2.18,11.18-1.7,13-3,10.64-7.63,15.74-19.1,28-26,.33.33.67.67,1,1-24.01,32.58-9.03,68.17-23,107-6.2,17.25-23.4,28.96-32,44-24.15,42.26-28.41,88.23-45,139-5.11,15.64-12.93,28.06-16,46-3.49,20.37,7.51,41.99,7,57-.43,12.81-9.86,32.23-8,47,1,7.91,9.68,16.98,13,23,16.44,29.79,36.92,88.72,27,131-9.18,39.14-97.86,93.87-131,116-11.82,7.89-27.78,9.18-39,17-17.45,12.16-26.4,48.93-39,55-1.99-.58-3.85-.83-5.63-.83-10.82,0-18.37,9.2-30.2,9.2-1.33,0-2.72-.12-4.16-.37-.67-4.33-1.33-8.67-2-13-.67-.33-1.33-.67-2-1-6.01,1.8-13.41,2.79-20.56,2.79-7.84,0-15.37-1.19-20.44-3.79,1.14-3.83,1.97-1.57,0-5-7.54,4.16-12.3,8.92-19,13-3.89-1-3-.39-5-3-2.67-5.37.25-13.31-5-17-3.08-2.5-6.82-3.36-12-4-2.67,2.33-5.33,4.67-8,7-2.33-.67-4.67-1.33-7-2-.33-16.69-10.71-38.15,4-50,2.06,1.3,2.91,1.92,3.62,1.92.91,0,1.6-1.02,4.38-2.92,6.31-12.23,16.72-23.64,24-37,2.84,1.11,1.45.86,4,1-.46-7.34-1.15-6.29,3-10-1.33-3.67-2.67-7.33-4-11-2.67-1.33-5.33-2.67-8-4-13.14,1.46-31.3,3.79-47,7-34.87,49.01-77.35,170.61-58,248,3.24,12.97-1.31,23.56,3,35,1.88,4.98,7.62,9.2,10,13,8.1,12.92,7.65,35.94,16,49,18.06,28.24,41.81,58.39,33,106-7.52-1.45-9.18-5.2-14-9-10.07,3.58-15.16,9.44-23,15,.41,11.5,2.5,20.08-2,29-10.26-.33-10.98-5.81-19-7-14.02-2.09-25.65,1.16-37-6-5.77-3.64-8.12-11.32-15-14-41.97-16.33-59.56-40.01-84-73,11.43-40.39-6.31-76.38-12-114-4.58-30.26,16.71-68.64,23-96-.67-8.33-1.33-16.67-2-25,2.67-10,5.33-20,8-30v-22c8.62-30.77,56.53-48.28,50-90-7.79-2.56-6.36-5.59-12-12-2,1.56-7.26,2.49-12.61,2.49-4.82,0-9.71-.76-12.39-2.49,1.4-4.93,2.59-21.33,0-25-.53.06-1.03.08-1.5.08-5.42,0-7.23-3.46-14.5-5.08-2.67,2-5.33,4-8,6h-1c1.81-19.15-6.69-17.48-16-27-5.86-5.99-7.28-14.76-14-20-1.42,6.13-2.77,11.6-7,15,.34-21.04-8.28-25.83-17-37-5.67-1-11.33-2-17-3-15.34,8.99-26.87,34.52-36,50-17.13,2.87-25.49,4.68-34.05,4.68-7.49,0-15.14-1.39-28.95-4.68-1.39-.33-2.67-.45-3.87-.45-3.26,0-5.95.89-8.73.89-1.72,0-3.46-.34-5.4-1.44-2-3-4-6-6-9-2-.97-3.86-1.29-5.63-1.29-3.54,0-6.73,1.29-9.97,1.29-1.44,0-2.9-.26-4.4-1-2.16-9.53-11.95-18.22-17-26-6.67-.67-13.33-1.33-20-2-.33,30-.67,60-1,90-5.48,14.44-12.16,31.74-20,46-4.33,5.67-8.67,11.33-13,17-9.71,20.31-12.95,44.14-21,65-5.16,13.38-19.95,18.72-28,29-5.57,7.11-6.86,17.58-14,23-7.65,5.8-32.24,6.15-42,11-15.03,7.47-34.41,25-56.86,25-2.99,0-6.04-.31-9.14-1-6.82-1.52-11.79-8.99-20-12-7.52,7.09-22.96,18.84-35,20-1.33-.67-2.67-1.33-4-2-1.33-4.33-2.67-8.67-4-13-17.37-.32-35.2-4.4-47-13-8.96,3.07-18.26,13.3-26,19-4.7-3.29-13.27-11.48-17-16-.28-26.31,17.58-45.81,23-64-3.66-1.76-6.87-2.46-9-6-5.53-21.19,12.76-27.82,24-36,2.67-4,5.33-8,8-12,9.83-5.47,22.22-6.98,34.44-6.98,11.43,0,22.7,1.33,31.56,1.98,8.67-.67,17.33-1.33,26-2,5.06.98,11.4,2.78,17.59,2.78,2.18,0,4.33-.22,6.41-.78,33.29-8.99,78.27-63.78,87-98,15.37-60.26-9.99-116.59-20-174-1.33-14.33-2.67-28.67-4-43-6.67-15.33-13.33-30.67-20-46-5.67-22-11.33-44-17-66-8.69-32.74,2.46-66.8-4-100-5.37-27.6-18.16-41.02-27-61-5-15.67-10-31.33-15-47-3.33-4.67-6.67-9.33-10-14-10.24-22.32-2.07-55.86-16-75,11.91-37.62,9.98-78.95,21-115,5.04-16.48,37.69-70.04,34-81-1.15-3.43-4.94-5.57-6-12,2-3,4-6,6-9-4.33,1-8.67,2-13,3,.67-1.67,1.33-3.33,2-5-3.33.33-6.67.67-10,1,.33-.67.67-1.33,1-2,3.33-1.67,6.67-3.33,10-5h-3c2.12-2.61,2.66-2.07,4-6-10.38-3.06-10.7-6.12-16-11,7.49-2.47,13.28.72,16-7-1.33.67-2.67,1.33-4,2,1-5.33,2-10.67,3-16-2.67,1-5.33,2-8,3v-1c3-3,6-6,9-9v-1c-1.02-.03-1.98-.05-2.89-.05-13.43,0-15.07,3.44-25.11,8.05v-1c6.67-5.33,13.33-10.67,20-16v-1c-7,1.33-14,2.67-21,4,.67-1.33,1.33-2.67,2-4-1.33-1-2.67-2-4-3,3.96.4,8.26.87,12.32.87,8.12,0,15.25-1.87,16.68-9.87-9,.33-18,.67-27,1v-1c3-3,6-6,9-9,3.4-7.47,8.6-4.34,14-9-.65-.12-1.25-.14-1.78-.14-.41,0-.77.02-1.07.02-1.03,0-1.3-.19-.16-1.87l2-1c-1.33-.33-2.67-.67-4-1,4-3.6,7.13-2.74,9-9h-2c-.8-.2-1.49-.29-2.11-.29-2.62,0-4,1.61-6.89,3.29.33-1,.67-2,1-3-2.67,1.33-5.33,2.67-8,4v-1c4.33-4.33,8.67-8.67,13-13-1-1.67-2-3.33-3-5,2.07.14,3.06.37,3.86.37.89,0,1.53-.3,3.14-1.37-.67-1-1.33-2-2-3-1.33-1-2.67-2-4-3,1.33-1.67,2.67-3.33,4-5-1-.67-2-1.33-3-2-3-.67-6-1.33-9-2,.67-.67,1.33-1.33,2-2v-2c5-.33,10-.67,15-1,1-2.67,2-5.33,3-8-2-.33-4-.67-6-1,.8-4.95,1.92-6.34,0-9-2,.33-4,.67-6,1,2-4,4-8,6-12-5.45-1.51-4.53-.06-4-4,6.45-1.38,15.47-8.21,17-15-2-.33-4-.67-6-1,.67-2.67,1.33-5.33,2-8h-6c4.33-1.33,8.67-2.67,13-4-.33-.67-.67-1.33-1-2-4.42-1.93-5.13-4.63-5-8,6.42-2.27,3.86-3.89,5-9,.77.02,1.49.04,2.15.04,3.59,0,5.8-.4,7.85-2.04-.67-1.67-1.33-3.33-2-5,.67-.67,1.33-1.33,2-2h5c-.67-.33-1.33-.67-2-1-1.33-3-2.67-6-4-9h2c2.67-.67,5.33-1.33,8-2-.67-1-1.33-2-2-3-6.56-.07-11.8-1.55-15-5h2c7-1.33,14-2.67,21-4v-10c3.33-.33,6.67-.67,10-1v-1c-1.23-4.19-.34-5.56,1-9-2.33,1-4.67,2-7,3,2.41-11.59,7.96-23.07,8-32,4.67,1,9.33,2,14,3-.33-2-.67-4-1-6,2.87,1.08,4.56,2.16,6.62,2.16.44,0,.9-.05,1.38-.16-4.67-9-9.33-18-14-27h1c1.67.33,3.33.67,5,1-1.67-4.67-3.33-9.33-5-14-2.67-1.33-5.33-2.67-8-4,4.7-3.96,6.02-6.08,9-12-1-.67-2-1.33-3-2-4-.33-8-.67-12-1,4.35-3.45,11.68-3.34,18-5v-1c-2-3.33-4-6.67-6-10h2c3.62-1.48,8.49-1.41,11-4-6,.33-12,.67-18,1v-1c5.33-1.33,10.67-2.67,16-4-.67-1-1.33-2-2-3-5.82-.53-7.16-1.82-10-5v-1c3,.33,6,.67,9,1-.33-.67-.67-1.33-1-2-2.33-1.33-4.67-2.67-7-4v-1c6-.33,12-.67,18-1v-6c-4.76-1.75-13.49-9.05-15-14,6.67-1.33,13.33-2.67,20-4-1-1-2-2-3-3-.94-2.9-1.88-3.83-3.2-3.83s-3.17,1-5.8,1.83c3.67-2.67,7.33-5.33,11-8-.33-.67-.67-1.33-1-2-3.64-2.11-5.55-2.95-12-3,4.22-3.57,14.32-2.92,21-4,.05-5.1-.47-3.59,1-7,1.94.29,3.48.43,4.81.43,3.03,0,4.98-.77,8.19-2.43-.33-1-.67-2-1-3-3-1.33-6-2.67-9-4,.33-.67.67-1.33,1-2,4.33-.33,8.67-.67,13-1v-4c-1.7.11-3.47.2-5.16.2-3.69,0-7.07-.45-8.84-2.2,5.14-1.15,9.88-2.81,13-6-1.11-2.83-.87-1.45-1-4,2-.33,4-.67,6-1-.33-1-.67-2-1-3-1-.33-2-.67-3-1,.33-.67.67-1.33,1-2,1.67-.33,3.33-.67,5-1-2.48-7.04-9.4-5.37-12-12-15.67-39.93-37.48-66.26-60-99-2.99-4.35-14.04-7.59-18-12,1.67-1.33,3.33-2.67,5-4-6.12-7.34-5.91-19.37-11-29-2.67-1.67-5.33-3.33-8-5-4.42-8.52-9.51-23.11-12-31h-5c2.32-5.95.34-4.38-2-10,4.1-6.93,5.74-14.97,14-18v-1c-3.41.41-5.61,1.19-7.52,1.19-1.2,0-2.28-.3-3.48-1.19,9.67-7.67,19.33-15.33,29-23,13.33-1.67,26.67-3.33,40-5,25-7,50-14,75-21,20-1.33,40-2.67,60-4,34.38-10.92,51.61-52,92-54,.88-.04,1.74-.06,2.58-.06M385,1578.06h1c10.31-9.86,16.76-28.72,29-36,18.3-10.89,41.48-6,55-21-4.18-8.5-5.3-21.05-13-26-6.67-1.33-13.33-2.67-20-4-15.89-6.57-26.82-24.75-43-30-6.39,8.41-14.38,105.55-9,117M467.58,0h0c-1.14,0-2.31.03-3.47.09-29.26,1.45-48.17,18.24-64.85,33.05-9.95,8.84-19.39,17.22-29.84,21.12l-26.19,1.75-31.43,2.1c-1.24.08-2.46.29-3.66.63l-55,15.4-18.71,5.24-20.89,2.61-17.78,2.22c-3.27.41-6.37,1.71-8.95,3.76l-29,23c-4.39,3.48-6.9,8.8-6.81,14.4.04,2.16.46,4.27,1.22,6.23-.6,1.24-1.17,2.39-1.72,3.31-2.89,4.88-3.31,10.84-1.13,16.08.23.55.46,1.06.68,1.55-.35,4.08.7,8.22,3.07,11.69,1.61,2.36,3.74,4.26,6.17,5.61,2.55,7.22,6.12,16.59,9.72,23.53,1.48,2.86,3.71,5.27,6.44,6.98l1.78,1.11,1.37.86c.56,1.76,1.07,3.74,1.6,5.77.64,2.47,1.33,5.15,2.24,7.92-.75,1.76-1.23,3.65-1.39,5.6-.41,4.93,1.24,9.82,4.54,13.5,4.06,4.52,9.3,7.27,13.93,9.69,1.13.59,2.69,1.41,3.68,2,4.14,5.99,8.25,11.78,12.24,17.38,17.71,24.91,33,46.43,44.79,76.48.95,2.43,2.13,4.49,3.42,6.23-5.75,1.79-10.27,6.35-11.96,12.21-.91,3.15-.92,6.42-.13,9.48-.3,1.15-.48,2.33-.54,3.51-.06.08-.11.17-.16.25-6.23.74-12.94,2.32-18.47,6.99-5.76,4.86-7.88,12.79-5.32,19.87.15.41.31.82.49,1.22-2,1.43-3.72,3.27-5.01,5.42-2.61,4.36-3.25,9.62-1.77,14.48.34,1.1.76,2.2,1.26,3.27-3.13,3.24-5.04,7.65-5.04,12.49v.08c-.66,1.88-1,3.88-1,5.92v1c0,.22,0,.45.01.67-2.53,3.12-4.01,7.09-4.01,11.33v1c0,1.48.18,2.94.53,4.35-.24.18-.49.37-.73.56-5.78,4.59-8.17,12.25-6.03,19.31.99,3.26,2.85,6.09,5.29,8.26-.1,1.2-.08,2.42.06,3.65.59,4.93,3.17,9.35,7.06,12.27-.54,3.68.07,7.49,1.83,10.89l1.69,3.26c-1.42.63-2.76,1.44-4,2.44-4.22,3.4-6.69,8.52-6.71,13.95-.01,2.57-1.74,8-3.27,12.79-1.49,4.66-3.17,9.94-4.33,15.49-1.68,1.94-2.96,4.24-3.69,6.77l-5.41,1.03h-.3c-7.16,0-13.64,4.24-16.5,10.8-2.86,6.56-1.56,14.2,3.31,19.44.5.54,1.02,1.06,1.55,1.55-3.92,2.49-6.85,6.47-7.92,11.27,0,.02,0,.03-.01.05-3.23,3.16-5.23,7.49-5.41,12.19,0,.15-.01.29-.01.44-5.04,3.89-7.79,10.31-6.8,16.93.31,2.04.95,3.96,1.86,5.7-4.78,2.73-8.15,7.58-8.9,13.24-.02.11-.03.21-.09.49-.71,3.58-.51,6.64.15,9.2l-.32.64c-1.92,3.85-2.37,8.17-1.41,12.21-2.47,2.06-4.38,4.77-5.47,7.86-2.91,4.37-3.8,9.85-2.3,15.01,1.09,3.76,3.36,6.98,6.36,9.28-.07.74-.09,1.48-.07,2.23l-4.74,4.74c-3.38,3.38-5.27,7.95-5.27,12.73v1c0,2.99.74,5.88,2.1,8.44l-5.83,5.83c-3.38,3.38-5.27,7.95-5.27,12.73v.75c-.28.55-.54,1.11-.77,1.7-1.94,4.97-1.54,10.39.82,14.89.17,2.22.74,4.41,1.72,6.44-.51,1.67-.77,3.43-.77,5.21v1c0,6.13,3.12,11.84,8.29,15.15,1.31.84,2.7,1.49,4.14,1.96,0,.03-.01.06-.02.09-1.34,6.24.71,12.72,5.41,17.04.34.31.65.62.97.94l-.88,1.76c-2.93,5.87-2.45,12.86,1.28,18.27,2.64,3.83,6.61,6.43,11.02,7.38.88.76,1.83,1.43,2.82,2.01,1.08,2.85,2.38,5.13,3.55,6.89-.73,2.3-2.15,6.17-4.96,12.39-3.63,8.05-8.27,17.21-12.76,26.07-6.83,13.48-12.72,25.13-15.06,32.78-5.84,19.09-8.28,39.14-10.64,58.54-2.42,19.85-4.7,38.61-10.3,56.29-1.73,5.45-.76,11.4,2.61,16.03,4.56,6.27,5.42,18.7,6.24,30.72.95,13.8,1.93,28.07,7.95,41.19.48,1.04,1.05,2.03,1.71,2.96l1.11,1.55,7.25,10.15,14.14,44.31c.2.62.43,1.22.69,1.81,3.3,7.46,6.96,13.88,10.5,20.09,6.58,11.54,12.26,21.51,15.29,37.06,2.61,13.43,1.84,27.69,1.02,42.79-1.02,18.8-2.08,38.25,3.23,58.3l16.99,65.96c.24.92.55,1.82.92,2.69l15.79,36.32,3.06,7.04,2.98,32.03.75,8.1c.04.48.11.95.19,1.42,2.84,16.27,6.85,32.42,10.73,48.03,10.09,40.61,19.62,78.98,9.56,118.43-3.49,13.68-15.45,33.76-30.47,51.14-15.36,17.78-32.14,30.78-43.78,33.93-.22.06-.74.16-1.72.16-2.78,0-6.42-.8-9.95-1.57-1.38-.3-2.81-.62-4.23-.89-1.12-.22-2.27-.33-3.41-.33-.46,0-.92.02-1.38.05l-11.56.89-13.07,1.01c-1.78-.14-3.69-.31-5.69-.48-7.78-.68-16.59-1.45-25.87-1.45-17.87,0-31.99,3.03-43.18,9.25-2.5,1.39-4.64,3.36-6.23,5.75l-6.07,9.11c-.87.57-1.8,1.16-2.76,1.77-6.09,3.88-13.66,8.7-19.34,16.24-7.53,10.01-9.7,22.25-6.27,35.41.44,1.67,1.11,3.27,2,4.75.68,1.13,1.41,2.15,2.16,3.09-.85,1.67-1.76,3.39-2.67,5.14-7.26,13.84-16.3,31.06-16.07,52.67.04,4.12,1.5,8.1,4.12,11.27,4.53,5.48,14.29,14.9,20.56,19.29,3.1,2.17,6.71,3.25,10.32,3.25s7.5-1.17,10.66-3.5c3.04-2.23,6.02-4.82,8.91-7.32,1.85-1.6,4.16-3.6,6.36-5.34,11.24,5.49,23.4,8.08,33.5,9.26l.37,1.19c1.45,4.7,4.76,8.61,9.16,10.81l2.67,1.33,1.33.67c2.51,1.25,5.26,1.9,8.05,1.9.58,0,1.15-.03,1.73-.08,12.8-1.24,25.63-8.91,34.67-15.66,3.73,2.8,8.52,5.94,14.69,7.32,4.27.95,8.66,1.43,13.05,1.43,21.51,0,39.07-11.07,53.18-19.96,4.32-2.72,8.39-5.29,11.69-6.93,2.21-1.06,9.99-2.37,14.64-3.15,11.6-1.96,22.55-3.8,30.23-9.63,7.86-5.96,11.47-14.08,14.11-20,1.1-2.47,2.24-5.03,3.19-6.24,1.82-2.32,5.11-4.87,8.59-7.58,7.63-5.92,17.11-13.29,22.03-26.04,3.8-9.85,6.55-20.02,9.2-29.85,3.13-11.58,6.09-22.55,10.49-32.24l6.4-8.36,5.42-7.08c.55-.71,1.04-1.47,1.47-2.26,8.11-14.75,14.85-31.94,21.06-48.29.75-1.98,1.15-4.07,1.17-6.19l.68-61.61c.9,1.35,1.57,2.56,1.76,3.39,1.2,5.28,4.71,9.75,9.56,12.15,3.85,1.91,8.02,2.88,12.4,2.88,2.1,0,4-.22,5.64-.49l.98,1.47c1.56,2.34,3.64,4.28,6.09,5.67,4.43,2.51,9.23,3.79,14.29,3.79,2.73,0,5.08-.37,6.79-.63.62-.1,1.43-.22,1.82-.25,14.29,3.4,23.33,5.13,32.94,5.13,8.4,0,16.14-1.34,27.86-3.36,2.76-.48,5.79-1,9.17-1.57,5.24-.88,9.83-4.03,12.53-8.61,1.92-3.25,3.85-6.76,5.89-10.48,5.12-9.31,12.4-22.53,19.31-29.56l2.68.47c.34.39.67.77.99,1.13,5.82,6.66,7.79,8.91,7.62,19-.11,6.98,3.82,13.4,10.09,16.46,2.51,1.23,5.21,1.83,7.9,1.83,2.44,0,4.87-.5,7.14-1.47.32.35.65.71,1,1.06,3.68,3.76,7.17,6.24,9.72,8.05.43.31.94.67,1.39,1,.03.76,0,1.94-.16,3.68-.48,5.05,1.2,10.06,4.61,13.81,3.41,3.75,8.24,5.89,13.31,5.89h1c2.45,0,4.85-.5,7.08-1.45-.12,1.07-.27,1.99-.42,2.62-2.11,7.58.94,15.65,7.55,19.93,5.51,3.58,12.98,5.39,22.18,5.39,1.57,0,3.28-.05,5.06-.19.61.7,1.28,1.4,2.01,2.08-1.18,11.59-9.62,21.03-22.17,34.13-11.28,11.78-22.95,23.96-27.62,40.64-.44,1.58-.67,3.21-.67,4.86v19.64l-7.39,27.72c-.53,1.98-.71,4.03-.55,6.07l1.43,17.86.34,4.24c-1.9,7.3-4.98,15.84-8.23,24.83-8.52,23.61-18.17,50.38-14.4,75.33,1.78,11.79,4.61,23.22,7.35,34.27,6.13,24.74,11.92,48.12,5.12,72.14-1.52,5.37-.46,11.13,2.86,15.61,25.02,33.78,44.81,60.5,91.13,78.74.51.55,1.31,1.57,1.92,2.34,2.39,3.03,5.67,7.18,10.81,10.42,11.75,7.41,23.41,7.67,32.78,7.87,3.78.08,7.36.16,10.86.66.28.17.7.44,1.03.65,3.61,2.33,9.65,6.23,20.35,6.58.2,0,.39,0,.59,0,6.77,0,13-3.81,16.07-9.89,5.25-10.39,5.07-20.05,4.49-28.7.78-.62,1.52-1.21,2.24-1.75,3.17,2.05,7.28,3.95,12.8,5.01,1.13.22,2.27.32,3.4.32,3.59,0,7.13-1.08,10.15-3.13,3.96-2.7,6.68-6.88,7.55-11.59,9.32-50.34-12.79-84.14-30.55-111.3-1.74-2.66-3.38-5.16-4.98-7.68-2.47-3.87-4.13-11.53-5.73-18.93-2.21-10.26-4.5-20.86-10.19-29.93-1.85-2.96-4.07-5.33-6.03-7.43-.82-.88-2.02-2.16-2.56-2.88-.78-2.47-.71-5.51-.54-10.46.21-6.01.48-13.49-1.66-22.05-7.9-31.58-4.85-76.17,8.57-125.55,10.39-38.22,26.79-77.17,42.68-101.81,6.82-1.23,14.48-2.41,22.93-3.52-2.54,4.11-5.44,8.18-8.46,12.43-2.78,3.92-5.63,7.92-8.28,12.09-2.94.51-5.77,1.75-8.21,3.72-8.71,7.01-13.56,16.6-14.43,28.51-.6,8.28.83,16.45,2.1,23.66.8,4.57,1.56,8.88,1.62,12.21.15,7.91,5.45,14.78,13.05,16.96l3.5,1,3.5,1c1.63.47,3.29.69,4.94.69,2.36,0,4.7-.46,6.87-1.36.46,1.74,1.1,3.55,2.01,5.38.51,1.03,1.12,2,1.81,2.91.18.23.33.43.45.6,3.59,4.84,7.15,7.17,13.14,8.6.32.08.71.17,1.2.3,1.48.38,2.99.57,4.5.57,3.27,0,6.51-.89,9.35-2.62,2.69-1.64,5.08-3.33,7.25-4.92,7.93,2.69,16.49,3.33,22.83,3.33,2.59,0,5.19-.1,7.77-.31,2.23,5.79,7.35,10.12,13.63,11.24,2.44.43,4.9.65,7.32.65,10.21,0,18-3.8,23.69-6.58,2.4-1.17,5.38-2.62,6.51-2.62.15,0,.35.04.6.11,1.65.48,3.34.72,5.03.72,2.68,0,5.35-.6,7.81-1.78,11.43-5.5,18.07-18.23,25.1-31.71,4.87-9.33,10.92-20.94,16.38-24.74,3.52-2.45,9.01-4.28,14.83-6.22,7.5-2.5,16-5.32,23.88-10.58,3.1-2.07,6.66-4.41,10.77-7.11,19.09-12.53,47.94-31.48,72.82-51.67,32.83-26.64,50.29-48.27,54.93-68.08,5.14-21.89,3.9-48.35-3.68-78.66-5.72-22.87-14.86-46.61-25.08-65.15-1.57-2.84-3.56-5.62-5.49-8.3-1.69-2.35-4.79-6.67-5.45-8.56-.51-5.11,1.76-13.56,3.78-21.04,2.04-7.55,4.14-15.37,4.39-22.8.29-8.6-1.74-17.11-3.89-26.13-2.35-9.88-4.79-20.09-3.36-28.44,1.6-9.34,4.81-16.96,8.53-25.78,2.33-5.53,4.74-11.25,6.84-17.67,5.97-18.28,10.34-35.71,14.56-52.56,7.43-29.68,14.45-57.71,28.96-83.1,2.67-4.67,7.08-9.59,11.74-14.8,7.87-8.79,16.79-18.75,21.57-32.04,6.84-19.02,7.66-37.04,8.38-52.93.89-19.62,1.59-35.11,12.18-49.48,5.28-7.16,4.53-17.11-1.76-23.4l-1.01-1.01c-3.46-3.46-8.07-5.27-12.73-5.27-3.02,0-6.06.76-8.82,2.32-9.5,5.35-15.71,12.43-20.7,18.13-2.28,2.6-4.33,4.94-6.43,6.86-3.81.47-9.12,1.28-14,4.09-1.22.7-2.35,1.54-3.38,2.51l-26.84,25.29-25.16,23.71c-.97.91-1.83,1.93-2.58,3.03-3.23,4.79-7.88,13.07-13.78,23.57-4.84,8.61-10.17,18.11-15.48,27.01l-.27-1.57-5.81-33.98c-.15-.9-.38-1.79-.66-2.65-.59-1.77-1.36-4.33-2.17-7.04-2.92-9.73-6.56-21.85-11.24-30.13-.31-.55-.65-1.09-1.02-1.61l-7.97-11.16c-1.87-8.13-3.49-18.06-5.06-27.69-2.23-13.65-4.34-26.54-7.35-36.77-2.61-8.86-7.07-18.07-11.39-26.98-3.08-6.35-6.26-12.92-7.77-17.54-1-3.06-2.49-8.87-4.06-15.03-6.98-27.32-12.62-47.44-21.71-57.46-20.27-22.36-41.19-49.02-60.5-77.11-5.38-7.82-13.86-13.42-21.35-18.37-3.58-2.36-7.27-4.8-9.21-6.6-3.31-3.08-9.82-13.71-16.31-29.76-3.78-9.36-6.93-19.02-8.92-27.13,3.91-1.4,7.28-4.13,9.45-7.8.56-.95,1.03-1.94,1.4-2.96l.72-.39c5.78-3.15,9.38-9.22,9.38-15.8v-5c0-1.97-.32-3.87-.9-5.64.15-.17.31-.35.46-.52,4.1-4.7,5.4-11.07,3.73-16.84.85-2.93.95-6.07.23-9.13-1.14-4.83-4.2-8.91-8.38-11.37-1.25-3.89-3.82-7.33-7.4-9.63-2.54-1.63-5.38-2.57-8.27-2.8-.24-.27-.49-.53-.74-.79-1.32-1.32-2.82-2.41-4.44-3.25.46-1.6.71-3.28.71-5.02v-8c0-.75-.05-1.5-.14-2.25,7.82-4.09,16.3-10.08,21.46-21.15.41-.88.75-1.8,1.02-2.74.73-2.62,1.04-4.98,1.03-7.12,6.44-1.11,16.06-1.72,21.97-2.09,3.57-.23,6.95-.44,10.19-.71,7.67-.65,14.08-6.1,15.95-13.57l1-4c.54-2.15.67-4.39.4-6.59l-1-8c-.77-6.12-4.62-11.43-10.2-14.05-3.33-1.57-6.98-2.64-10.82-3.36,2.24-5.95,1.19-12.69-2.86-17.68-1.57-1.94-3.57-4.18-6.18-6.29-.56-3.79-2.31-7.34-5.08-10.11-2.43-2.43-5.47-4.08-8.74-4.82-.14-4.59-2-8.78-4.99-11.9,5.26-1.2,9.73-4.71,12.14-9.58,2.01-4.07,2.39-8.7,1.15-12.97.46-1.6.71-3.28.71-5v-1c0-2.27-.43-4.47-1.21-6.5,1.26-3.25,1.56-6.83.81-10.31-.82-3.78-2.82-7.15-5.65-9.66-.02-.3-.06-.6-.1-.9-.35-2.63-1.27-5.11-2.65-7.29.33-1.08.57-2.2.7-3.35l1-9c.81-7.27-2.87-14.31-9.3-17.8-.2-.11-.41-.22-.61-.33.13-2.7-.35-5.44-1.46-8-.13-.29-.26-.58-.4-.86,1.41-2.84,2.06-6.04,1.83-9.27-.34-4.8-2.59-9.26-6.23-12.39-.68-1.72-1.63-3.33-2.83-4.79l.52-1.97c.88-3.33.77-6.79-.24-9.98,2.57-.61,5.87-1.19,10.17-1.75,5.32-.7,10.06-3.74,12.91-8.29,7.12-11.36,17.82-19.63,29.15-28.38,10.38-8.03,21.66-16.74,31.04-28.62,9.98,11.73,21.8,23.54,34.87,29.72.32.15.64.29.97.42,3.57,1.44,7.39,2.16,11.37,2.16,5.4,0,9.94-1.3,13.59-2.35,1.25-.36,2.43-.7,3.23-.85,5.38-1.06,9.98-4.51,12.51-9.37,7.47-14.4,7.79-24.54,8.11-34.34.17-5.19.34-10.56,1.63-17.77,5.81-32.33.33-57.91-16.76-78.19-14.39-17.08-34.62-27.49-54.19-37.55-9.49-4.88-19.3-9.93-27.98-15.55-5.05-3.27-9.8-8.81-14.83-14.67-7.93-9.24-17.39-20.27-31.84-26.78-1.11-3.42-3.23-6.46-6.11-8.69-3.17-2.45-7.05-3.76-11.01-3.76-.03,0-.07,0-.1,0-5.24-.79-22.04-5.86-33.58-9.89-.79-2.78-2.24-5.39-4.34-7.57-3.47-3.61-8.19-5.53-12.99-5.53,0,0-.02,0-.02,0-1.02-2.88-2.77-5.51-5.17-7.59-3.33-2.89-7.54-4.41-11.81-4.41-1.18,0-2.36.12-3.54.35-2.96-2.12-6.58-3.35-10.46-3.35h-1c-1.18,0-2.35.12-3.5.34-1.15-.23-2.33-.34-3.5-.34-2.13,0-4.28.38-6.32,1.15l-6.39,2.4c-2.26-1-4.74-1.54-7.29-1.54h-3c-3.95,0-7.78,1.3-10.92,3.69-5.76,4.4-9.45,10.31-12.42,15.06-1.03,1.66-2.55,4.08-3.41,5.09-4.54,2.57-8.82,3.96-13.73,5.56-8.2,2.66-18.05,5.87-27.66,14.93-2.87.35-5.54.89-8.02,1.38-3.37.67-6.28,1.25-8.9,1.25-1.27,0-2.39-.13-3.53-.42-5.02-1.27-10.35-2.63-15.87-4.05-23.02-5.89-49.12-12.57-70.85-17.12-6.06-1.27-12.46-1.89-19.57-1.89-11.83,0-23.69,1.73-35.17,3.41-10.91,1.59-21.22,3.1-30.89,3.1-6.28,0-11.73-.66-16.53-2.02-.26-3.35-.89-7.67-2.72-12.43-1.15-2.99-3.06-5.61-5.56-7.61l-7.52-6.02c-4.5-7.24-10.16-15.11-18.04-21.49C493.46,4.21,481.31,0,467.58,0h0ZM402.37,1528.86c.18-2.67.38-5.46.61-8.37.91-11.57,1.95-21.47,2.97-29.42,6.77,6.03,14.44,12.6,24.17,16.62,1.08.45,2.2.79,3.34,1.02l11.11,2.22,2.79.56c.26.65.54,1.39.81,2.16-3.06.92-6.78,1.69-11.24,2.57-9.62,1.9-20.52,4.05-31.15,10.38-1.19.71-2.33,1.47-3.42,2.27h0Z"/>
  </g>
</svg>