<?xml version="1.0" encoding="UTF-8"?>
<svg xmlns="http://www.w3.org/2000/svg" viewBox="0 0 640 640">
  <defs>
    <linearGradient id="g" x1="0" y1="0" x2="1" y2="1">
      <stop offset="0" stop-color="#243b86"/>
      <stop offset=".38" stop-color="#48c4c6"/>
      <stop offset=".7" stop-color="#ffd75a"/>
      <stop offset="1" stop-color="#e85f48"/>
    </linearGradient>
  </defs>
  <circle cx="320" cy="320" r="304" fill="url(#g)"/>
  <circle cx="320" cy="320" r="286" fill="none" stroke="#14172f" stroke-width="28"/>
  <g transform="translate(82 82) scale(.745)">
    <path fill="#fffdf0" d="M638.36,291.43c0,11.51-1.1,23.23-3.29,35.14-2.19,11.92-5.41,23.43-9.66,34.53-4.25,11.1-9.52,21.65-15.83,31.65-6.31,10.01-13.43,18.98-21.37,26.92.82,7.4,1.23,14.66,1.23,21.78,0,16.17-2.12,32.13-6.37,47.89-4.25,15.76-10.35,30.69-18.29,44.8-7.95,14.12-17.61,27.13-28.98,39.05-11.37,11.92-24.05,22.27-38.02,31.04s-29.33,15.62-46.03,20.55c-16.72,4.93-34.26,7.4-52.62,7.4-13.98,0-27.61-1.51-40.9-4.52-13.3-3.02-26.1-7.26-38.44-12.74-24.94,11.23-51.24,16.85-78.92,16.85s-52.75-5.28-76.04-15.83c-23.29-10.55-43.44-24.66-60.42-42.34-16.99-17.67-30.28-38.02-39.87-61.04-9.59-23.02-14.38-46.86-14.38-71.52,0-3.83.27-7.4.82-10.69.54-3.29.82-6.85.82-10.68-15.9-16.99-28.23-36.59-36.99-58.78-8.77-22.2-13.16-45.35-13.16-69.47s4.11-47.06,12.33-68.03c8.22-20.96,19.25-39.59,33.09-55.9,13.84-16.3,30.01-29.87,48.51-40.69,18.5-10.82,38.02-18.29,58.57-22.4,8.22-14.25,18.22-27.34,30-39.25,11.78-11.92,24.73-22.13,38.84-30.62,14.11-8.49,29.39-15.07,45.83-19.73,16.44-4.66,33.56-6.99,51.38-6.99s34.53,2.33,50.97,6.99c16.44,4.67,31.78,11.24,46.03,19.73,14.25,8.5,27.27,18.7,39.05,30.62,11.78,11.92,21.78,25.01,30,39.25,20.55,4.11,40.01,11.71,58.37,22.81,18.35,11.1,34.46,24.81,48.3,41.11,13.84,16.31,24.87,34.94,33.09,55.9,8.22,20.97,12.33,43.37,12.33,67.2ZM320.21,58.78c-19.46,0-37.55,3.63-54.26,10.89-16.72,7.26-31.52,17.2-44.39,29.8l-2.88,2.88c20.28,3.02,38.77,8.63,55.49,16.85,16.71,8.22,32.06,18.5,46.04,30.83,13.7-12.33,28.98-22.61,45.83-30.83,16.85-8.22,35.41-13.84,55.7-16.85-1.1-.82-2.05-1.78-2.88-2.88-12.88-12.6-27.68-22.54-44.39-29.8-16.72-7.26-34.8-10.89-54.26-10.89ZM320.21,233.47c-13.71,0-26.58,2.61-38.64,7.81-12.06,5.21-22.61,12.27-31.65,21.17-9.04,8.91-16.17,19.39-21.37,31.45-5.21,12.06-7.81,24.94-7.81,38.64s2.6,26.58,7.81,38.64c5.2,12.06,12.33,22.55,21.37,31.45,9.04,8.91,19.59,15.97,31.65,21.17,12.06,5.21,24.93,7.81,38.64,7.81s26.58-2.6,38.64-7.81c12.05-5.2,22.54-12.26,31.44-21.17,8.9-8.9,15.96-19.38,21.17-31.45,5.21-12.05,7.81-24.93,7.81-38.64,0-16.44-3.7-31.65-11.1-45.63s-17.27-25.49-29.6-34.53c3.29-.54,6.58-.82,9.86-.82h10.28c7.94,0,15.89.41,23.84,1.23,7.95.82,15.89,2.33,23.84,4.52,4.11-8.77,7.33-18.09,9.66-27.95,2.33-9.87,3.49-20.14,3.49-30.83,0-2.46-.2-6.3-.62-11.51-.41-5.2-1.03-10.48-1.85-15.83-.82-5.34-1.99-10-3.49-13.98-1.51-3.97-3.36-5.96-5.55-5.96-17.27,0-34.32,3.49-51.17,10.48-16.86,6.99-31.45,16.23-43.78,27.75,12.06,18.91,20.56,39.87,25.49,62.89-8.22-6.02-17.27-10.68-27.13-13.98-9.87-3.29-20.29-4.93-31.24-4.93Z"/>
  </g>
</svg>
