<?xml version="1.0" encoding="utf-8"?>
<!-- Generator: Adobe Illustrator 10.0, SVG Export Plug-In . SVG Version: 3.0.0 Build 76)  -->
<!DOCTYPE svg PUBLIC "-//W3C//DTD SVG 1.0//EN"    "http://www.w3.org/TR/2001/REC-SVG-20010904/DTD/svg10.dtd" [
	<!ENTITY ns_flows "http://ns.adobe.com/Flows/1.0/">
	<!ENTITY ns_extend "http://ns.adobe.com/Extensibility/1.0/">
	<!ENTITY ns_ai "http://ns.adobe.com/AdobeIllustrator/10.0/">
	<!ENTITY ns_graphs "http://ns.adobe.com/Graphs/1.0/">
	<!ENTITY ns_vars "http://ns.adobe.com/Variables/1.0/">
	<!ENTITY ns_imrep "http://ns.adobe.com/ImageReplacement/1.0/">
	<!ENTITY ns_sfw "http://ns.adobe.com/SaveForWeb/1.0/">
	<!ENTITY ns_custom "http://ns.adobe.com/GenericCustomNamespace/1.0/">
	<!ENTITY ns_adobe_xpath "http://ns.adobe.com/XPath/1.0/">
	<!ENTITY ns_svg "http://www.w3.org/2000/svg">
	<!ENTITY ns_xlink "http://www.w3.org/1999/xlink">
]>
<svg 
	 xmlns:x="&ns_extend;" xmlns:i="&ns_ai;" xmlns:graph="&ns_graphs;" i:viewOrigin="211.8345 480.3618" i:rulerOrigin="0 0" i:pageBounds="0 792 612 0"
	 xmlns="&ns_svg;" xmlns:xlink="&ns_xlink;" xmlns:a="http://ns.adobe.com/AdobeSVGViewerExtensions/3.0/"
	 width="187.086" height="169.479" viewBox="0 0 187.086 169.479" overflow="visible" enable-background="new 0 0 187.086 169.479"
	 xml:space="preserve">
	<metadata>
		<variableSets  xmlns="&ns_vars;">
			<variableSet  varSetName="binding1" locked="none">
				<variables></variables>
				<v:sampleDataSets  xmlns="&ns_custom;" xmlns:v="&ns_vars;"></v:sampleDataSets>
			</variableSet>
		</variableSets>
		<sfw  xmlns="&ns_sfw;">
			<slices></slices>
			<sliceSourceBounds  x="211.834" y="310.883" width="187.086" height="169.479" bottomLeftOrigin="true"></sliceSourceBounds>
		</sfw>
	</metadata>
	<g id="Layer_1" i:layer="yes" i:dimmedPercent="50" i:rgbTrio="#4F008000FFFF">
		<g>
			<path i:knockout="Off" fill-rule="evenodd" clip-rule="evenodd" fill="#FFB210" d="M187.086,169.479V0H0v169.479H187.086z"/>
			
				<path i:knockout="Off" fill-rule="evenodd" clip-rule="evenodd" fill="#FE000C" stroke="#FE000C" stroke-width="0.216" stroke-miterlimit="2.6131" d="
				M36.424,84.867c0,1.591,0.057,3.424,2.356,6.784c2.299,3.36,34.61,48.415,34.61,48.415c1.735,2.277,2.406,7.021-3.184,7.021
				c-0.572,0-31.498-0.155-38.357-0.023c-0.785,0.015-1.956-0.149-3.17-0.635c-1.681-0.673-3.317-1.896-4.396-3.544
				c-0.947-1.444-1.752-2.883-1.826-5.568V32.416c0.074-2.686,0.879-4.125,1.826-5.569c1.08-1.648,2.715-2.871,4.396-3.543
				c1.214-0.485,2.385-0.65,3.17-0.635c6.859,0.132,37.785-0.023,38.357-0.023c5.59,0,4.919,4.744,3.184,7.021
				c0,0-32.311,45.055-34.61,48.415C36.481,81.442,36.424,83.275,36.424,84.867z"/>
			
				<path i:knockout="Off" fill-rule="evenodd" clip-rule="evenodd" fill="#FE000C" stroke="#FE000C" stroke-width="0.216" stroke-miterlimit="2.6131" d="
				M164.711,133.798c0,13.873-12.377,13.224-12.377,13.224h-39.304c-4.777-0.217-7.166-3.252-9.772-5.42
				c-9.12-7.587-61.638-53.06-63.053-54.386c-1.415-1.326-1.482-1.555-1.482-2.35c0-0.795,0.067-1.024,1.482-2.35
				c1.415-1.327,53.933-46.799,63.053-54.386c2.606-2.167,4.995-5.202,9.772-5.419h39.304c0,0,12.377-0.65,12.377,13.223V133.798z"
				/>
			
				<path i:knockout="Off" fill-rule="evenodd" clip-rule="evenodd" fill="#FFB210" stroke="#FFB210" stroke-width="0.216" stroke-miterlimit="2.6131" d="
				M58.575,73.979h6.621l-0.002,9.203l7.104-9.203h7.035L71.82,84.623l8.144,12.972h-7.74l-7.03-11.199l0.002,11.199h-6.621V73.979z
				"/>
			
				<path i:knockout="Off" fill-rule="evenodd" clip-rule="evenodd" fill="#FFB210" stroke="#FFB210" stroke-width="0.216" stroke-miterlimit="2.6131" d="
				M87.517,79.472c5.958,0,9.225,3.415,9.225,9.39c0,5.977-3.267,9.392-9.225,9.392c-5.958,0-9.257-3.415-9.257-9.392
				C78.259,82.886,81.559,79.472,87.517,79.472z M87.483,94.065c2.177,0,2.965-1.673,2.965-5.248s-0.788-5.281-2.965-5.281
				c-2.145,0-2.934,1.706-2.934,5.281S85.338,94.065,87.483,94.065z"/>
			
				<path i:knockout="Off" fill-rule="evenodd" clip-rule="evenodd" fill="#FFB210" stroke="#FFB210" stroke-width="0.216" stroke-miterlimit="2.6131" d="
				M110.385,96.828C109.106,97.854,106.957,98,104.6,98c-4.348,0-6.936-3.174-6.936-8.88c0-5.772,2.609-8.676,7.201-9.111
				c2.948-0.279,4.65,0.403,5.19,0.94v-6.971h5.836c0,0-0.033,21.878-0.004,23.617h-4.927L110.385,96.828z M107.068,94.286
				c1.906,0,3.248-1.859,3.248-5.271c0-3.444-1.342-5.271-3.389-5.271c-1.978,0-3.036,1.791-3.036,5.271
				C103.891,92.564,104.915,94.286,107.068,94.286z"/>
			
				<path i:knockout="Off" fill-rule="evenodd" clip-rule="evenodd" fill="#FFB210" stroke="#FFB210" stroke-width="0.216" stroke-miterlimit="2.6131" d="
				M128.758,96.207c-0.716,0.436-2.085,1.856-5.894,1.949c-3.567,0.088-5.822-2.192-5.822-5.26c0-3.745,3.4-5.389,6.177-5.947
				c0.571-0.115,4.619-0.885,5.33-1.179c0,0,0.051-2.304-2.653-2.333c-2.309-0.025-2.43,1.975-2.43,2.072h-4.58
				c0.016-1.624-0.019-5.509-0.019-5.509s6.956-0.028,9.955-0.025c5.302,0.006,5.834,2.894,5.834,5.891l-0.046,8.096
				c0,1.291,0.034,2.518,0.205,3.681h-5.712C129.036,97.159,128.874,96.602,128.758,96.207z M127.704,89.146
				c-3.191,0.224-4.762,1.263-4.64,3.076c0.089,1.316,1.159,2.242,2.718,2.134c2.115-0.147,3.096-1.646,2.907-4.422
				c-0.016-0.248-0.035-0.533-0.092-0.814C128.3,89.14,128,89.125,127.704,89.146z"/>
			
				<path i:knockout="Off" fill-rule="evenodd" clip-rule="evenodd" fill="#FFB210" stroke="#FFB210" stroke-width="0.216" stroke-miterlimit="2.6131" d="
				M136.208,73.979h6.252v11.977l4.632-5.572h6.06l-5.593,6.9l6.161,10.312h-6.534l-4.726-7.804v7.804h-6.252V73.979z"/>
		</g>
	</g>
</svg>
