<?xml version="1.0" encoding="UTF-8"?>
<svg id="Layer_1" data-name="Layer 1" xmlns="http://www.w3.org/2000/svg" viewBox="0 0 1280 1280">
  <defs>
    <style>
      .cls-1 {
        fill: #fffef2;
      }
    </style>
  </defs>
  <path class="cls-1" d="M745.52,533.6v54.41h-106.76c-6.87,0-14.77-.55-23.7-1.65-8.93-1.09-18.14-3.3-27.62-6.59-9.48-3.3-18.75-8.04-27.82-14.22-9.07-6.18-17.17-14.28-24.32-24.32-7.15-10.03-12.92-22.32-17.31-36.89-4.4-14.56-6.6-31.87-6.6-51.94v-8.66c-6.05,7.7-13.4,13.74-22.05,18.14-8.66,4.4-18.48,6.59-29.47,6.59h-100.16v119.54h-67.6v-119.54H125.59c.54,6.05,1.51,12.85,2.88,20.4,1.37,7.56,4.33,14.63,8.86,21.23s11.26,12.16,20.2,16.69c8.92,4.53,21.23,6.8,36.89,6.8h86.56v54.41h-97.69c-13.74,0-27.76-1.92-42.04-5.77-14.29-3.84-27.34-11.19-39.16-22.05-11.82-10.85-21.51-25.83-29.06-44.93-7.56-19.1-11.34-43.9-11.34-74.4,0-23.35,2.68-43.07,8.04-59.15,5.36-16.07,12.3-29.4,20.82-39.98,8.52-10.57,17.79-18.68,27.82-24.32,10.03-5.63,19.85-9.82,29.47-12.57,9.62-2.74,18.2-4.39,25.76-4.95,7.55-.55,12.99-.83,16.28-.83h91.09v54.41h-89.03c-14.57,0-26.17,2.68-34.83,8.04-8.66,5.36-15.25,11.61-19.79,18.75-4.53,7.15-7.56,14.29-9.07,21.43-1.51,7.15-2.41,12.37-2.68,15.66h166.52v-118.3h162.81c7.97,0,15.87,1.1,23.7,3.3,7.83,2.2,15.05,5.71,21.64,10.51,6.59,4.81,12.36,10.99,17.31,18.55,4.95,7.56,8.52,16.56,10.72,27,6.04-12.91,13.4-23.29,22.05-31.12,8.66-7.83,18-13.81,28.03-17.93,10.03-4.12,20.4-6.87,31.12-8.24,10.71-1.37,21.29-2.06,31.74-2.06h104.28v54.41h-96.87c-6.87,0-14.7.55-23.49,1.65-8.8,1.1-17.04,4.33-24.73,9.69-7.69,5.36-14.15,13.74-19.37,25.14-5.23,11.41-7.83,27.28-7.83,47.61s2.27,37.17,6.8,49.67c4.53,12.51,10.51,22.19,17.93,29.06,7.42,6.87,15.73,11.48,24.94,13.81,9.2,2.34,18.48,3.5,27.82,3.5h94.8ZM336.22,650.25h-42.87c-17.59,0-30.5,3.99-38.75,11.95-8.24,7.97-12.36,20.47-12.36,37.51s4.33,28.85,12.98,37.92c8.66,9.07,19.99,13.6,34.01,13.6h46.99v32.56h-52.76c-26.38,0-46.23-7.28-59.56-21.85-13.33-14.56-19.99-35.31-19.99-62.24,0-13.46,2.06-25.35,6.18-35.65,4.12-10.3,9.75-18.96,16.9-25.97,7.14-7.01,15.52-12.37,25.14-16.07,9.61-3.71,20.05-5.57,31.32-5.57h52.76v33.8ZM301.59,252.9c-1.93,3.85-4.06,6.59-6.39,8.24-2.34,1.65-5.84,2.47-10.51,2.47-4.12,0-8.18-1.37-12.16-4.12-3.99-2.74-5.97-7.01-5.97-12.78v-56.06h18.14v51.94c0,1.1.41,1.93,1.23,2.47.83.55,1.65.83,2.48.83.55,0,1.3-.27,2.27-.83.96-.55,1.44-1.37,1.44-2.47v-51.94h18.14v51.94c0,1.1.41,1.93,1.24,2.47.83.55,1.65.83,2.47.83s1.65-.27,2.48-.83c.83-.55,1.24-1.37,1.24-2.47v-51.94h18.14v56.06c0,6.05-2,10.38-5.98,12.98-3.99,2.61-8.04,3.92-12.16,3.92-4.68,0-8.04-.83-10.1-2.47-2.06-1.65-4.06-4.39-5.98-8.24ZM423.19,650.25c-14.57,0-25.55,2.68-32.98,8.04-7.42,5.36-12.23,13.81-14.43,25.35h92.75v34.21h-91.92c2.48,10.72,7.42,18.96,14.84,24.73s17.31,8.66,29.68,8.66h47.4v32.56h-52.76c-26.66,0-46.65-7.28-59.97-21.85-13.33-14.56-19.99-35.31-19.99-62.24,0-13.46,2.06-25.35,6.18-35.65,4.13-10.3,9.82-18.96,17.11-25.97,7.28-7.01,15.73-12.37,25.35-16.07,9.62-3.71,20.06-5.57,31.33-5.57h52.76v33.8h-45.34ZM341.99,221.57c0-6.04,1.79-10.3,5.36-12.78,3.57-2.47,8.25-3.71,14.01-3.71,4.67,0,8.86.9,12.57,2.68,3.71,1.79,5.56,5.02,5.56,9.69v32.56c0,1.38.21,2.89.62,4.53.41,1.65.76,2.75,1.03,3.3h-14.43c-1.1-1.65-1.65-3.16-1.65-4.53-3.3,3.85-7.29,5.77-11.96,5.77-5.5,0-8.93-1.58-10.31-4.74-1.38-3.16-2.06-6.66-2.06-10.51,0-4.39.75-7.62,2.27-9.69,1.51-2.06,3.3-3.5,5.36-4.33,2.06-.82,4.26-1.17,6.6-1.03,2.33.14,4.33-.06,5.97-.62.83-.55,1.72-1.1,2.68-1.65.96-.55,1.44-1.37,1.44-2.47v-4.53c0-1.37-.56-2.4-1.65-3.09-1.1-.68-1.93-1.03-2.48-1.03-.82,0-1.72.35-2.68,1.03-.97.69-1.44,1.72-1.44,3.09v6.18h-14.84v-4.12ZM365.07,236.83c-2.48.55-4.61.97-6.39,1.24-1.79.28-2.68,1.93-2.68,4.95,0,2.47,1.1,3.71,3.3,3.71,1.37,0,2.68-.41,3.92-1.24s1.86-2.06,1.86-3.71v-4.95ZM360.13,417.36h70.48c7.69,0,13.94-.89,18.75-2.68,4.8-1.78,8.66-4.33,11.54-7.62,2.89-3.3,4.88-7.21,5.98-11.75,1.09-4.53,1.65-9.55,1.65-15.05,0-6.32-1.51-11.26-4.53-14.84-3.03-3.57-6.6-6.25-10.72-8.04-4.12-1.78-8.32-2.89-12.57-3.3-4.26-.41-7.76-.62-10.51-.62h-70.07v63.89ZM401.34,257.85h-16.08v-63.48h16.08v63.48ZM425.66,218.69v26.38c0,1.1.68,1.65,2.06,1.65,1.1,0,1.65-.55,1.65-1.65v-14.84h14.01v15.25c0,4.68-1.65,8.31-4.95,10.92-3.3,2.61-7.15,3.92-11.54,3.92-4.95,0-9-1.3-12.16-3.92-3.16-2.61-4.74-6.25-4.74-10.92v-26.79h-5.36v-11.95h5.36v-8.66h15.66v8.66h17.72v11.95h-17.72ZM560.45,158.51c3.57,0,7.55.76,11.95,2.27,4.39,1.51,8.52,3.78,12.37,6.8,3.85,3.03,7.01,6.87,9.48,11.54,2.47,4.68,3.71,10.3,3.71,16.9v54.41c0,3.3-.69,7.01-2.06,11.13-1.38,4.12-3.5,8.04-6.39,11.75-2.89,3.71-6.8,6.8-11.75,9.27-4.95,2.47-10.86,3.71-17.72,3.71h-103.87v-127.78h104.28ZM475.95,177.47v90.68h84.09c3.85,0,7.07-.75,9.69-2.27,2.61-1.51,4.67-3.3,6.18-5.36,1.51-2.06,2.54-4.12,3.09-6.18.55-2.06.83-3.5.83-4.33v-50.7c0-1.92-.35-4.19-1.03-6.8-.69-2.61-1.79-5.01-3.3-7.21-1.51-2.2-3.58-4.05-6.18-5.56-2.62-1.51-5.71-2.27-9.27-2.27h-84.09ZM527.47,261.97c-7.97,0-14.91-2.74-20.82-8.24-5.91-5.49-8.86-12.22-8.86-20.2,0-6.59,1.92-12.22,5.77-16.9-2.75,1.38-5.64,2.06-8.66,2.06-5.5,0-9.62-1.51-12.36-4.53-2.75-3.02-4.13-6.6-4.13-10.72,0-5.49,2.13-10.23,6.39-14.22,4.26-3.98,9.13-5.98,14.63-5.98,3.57,0,6.52.9,8.86,2.68,2.33,1.79,4.19,3.92,5.57,6.39,1.09,1.93,1.65,4.12,1.65,6.6,0,3.57-.83,6.74-2.48,9.48,4.12-2.47,8.93-3.71,14.43-3.71,4.67,0,9.48,1.1,14.43,3.3-1.65-2.47-2.48-5.49-2.48-9.07,0-4.12,1.44-7.76,4.33-10.92,2.88-3.16,6.66-4.74,11.33-4.74,5.5,0,10.37,1.93,14.63,5.77,4.26,3.85,6.39,8.52,6.39,14.01,0,4.12-1.31,7.77-3.92,10.92-2.61,3.16-6.66,4.74-12.16,4.74-3.03,0-5.77-.68-8.24-2.06,3.57,5.5,5.36,11.13,5.36,16.9,0,7.97-2.89,14.7-8.66,20.2-5.77,5.5-12.78,8.24-21.02,8.24ZM575.7,616.45c8.24,0,16,1.44,23.29,4.33,7.28,2.88,13.53,6.94,18.75,12.16,5.21,5.22,9.34,11.48,12.36,18.75,3.02,7.28,4.53,15.32,4.53,24.11v107.99h-42.04v-112.53c0-4.39-1.51-9-4.53-13.81-3.03-4.8-8.39-7.21-16.07-7.21h-46.58v133.55h-40.39v-167.35h90.68ZM504.8,221.99c-1.65,2.75-2.62,5.91-2.89,9.48h7.83c.27-1.92.54-3.64.83-5.15.27-1.51.68-2.95,1.23-4.33h-7.01ZM512.63,245.48c-1.38-2.47-2.34-5.91-2.88-10.3h-7.83c.55,3.85,1.65,7.28,3.3,10.3h7.42ZM520.46,209.62c-5.22,1.65-9.62,4.53-13.19,8.66h6.6c1.09-1.92,2.19-3.57,3.3-4.95,1.1-1.37,2.2-2.61,3.3-3.71ZM508.51,249.19c2.74,3.85,6.87,6.46,12.36,7.83-2.47-2.2-4.53-4.8-6.18-7.83h-6.18ZM525.41,221.99h-9.07c-1.38,3.03-2.2,6.18-2.47,9.48h11.54v-9.48ZM525.41,235.18h-11.54c.27,3.57,1.37,7.01,3.3,10.3h8.24v-10.3ZM525.41,210.45c-.82,1.1-1.85,2.2-3.09,3.3-1.24,1.1-2.41,2.62-3.5,4.53h6.59v-7.83ZM525.41,249.19h-5.77c1.09,1.38,2.12,2.61,3.09,3.71.96,1.1,1.86,2.06,2.68,2.88v-6.59ZM529.54,218.28h6.59c-1.1-1.92-2.2-3.43-3.3-4.53-1.1-1.09-2.2-2.2-3.3-3.3v7.83ZM529.54,231.47h11.54c-.28-3.3-1.1-6.45-2.47-9.48h-9.07v9.48ZM529.54,245.48h8.24c1.92-3.3,3.02-6.73,3.3-10.3h-11.54v10.3ZM529.54,255.79c2.19-1.65,4.25-3.85,6.18-6.59h-6.18v6.59ZM547.26,218.28c-3.3-4.12-7.7-7.01-13.19-8.66,2.74,2.2,5.08,5.09,7.01,8.66h6.18ZM534.07,257.02c5.21-1.09,9.48-3.71,12.78-7.83h-6.6c-.83,1.65-1.79,3.09-2.88,4.33-1.1,1.24-2.2,2.41-3.3,3.5ZM553.03,231.47c-.28-3.57-1.24-6.73-2.89-9.48h-7.42c1.37,3.03,2.19,6.18,2.47,9.48h7.83ZM549.73,245.48c1.65-3.02,2.74-6.45,3.3-10.3h-7.83c-.55,4.12-1.38,7.56-2.47,10.3h7.01ZM618.16,203.03h-16.08v-8.66h16.08v8.66ZM618.16,257.85h-16.08v-51.11h16.08v51.11ZM645.36,224.05c0-1.92-.21-3.77-.62-5.56-.41-1.78-1.72-2.68-3.92-2.68-2.48,0-3.71,1.38-3.71,4.12,0,1.93.75,3.3,2.27,4.12,1.51.83,3.23,1.51,5.15,2.06,1.92.55,3.92,1.03,5.98,1.44,2.06.41,3.64,1.17,4.74,2.27,1.92,1.38,3.23,3.23,3.92,5.57.68,2.34,1.03,4.74,1.03,7.21,0,6.59-1.93,11.13-5.77,13.6-3.85,2.47-8.39,3.71-13.6,3.71-12.64,0-18.96-6.73-18.96-20.2h14.43c.27,2.2.62,4.19,1.03,5.98.41,1.79,1.58,2.68,3.5,2.68,3.3,0,4.95-1.92,4.95-5.77,0-1.92-1.24-3.16-3.71-3.71-2.48-.55-5.22-1.3-8.25-2.27-3.02-.96-5.77-2.47-8.24-4.53-2.47-2.06-3.71-5.7-3.71-10.92,0-5.77,1.99-10.1,5.98-12.98,3.98-2.89,8.31-4.33,12.98-4.33,5.5,0,10.03,1.38,13.6,4.12,3.57,2.75,5.36,7.28,5.36,13.6v2.47h-14.43ZM766.54,650.25h-44.1v133.55h-44.11v-133.55h-40.81v-33.8h129.01v33.8ZM688.23,257.85v-32.97c0-2.47-.97-3.71-2.89-3.71-.82,0-1.79.28-2.88.82-1.1.55-1.65,1.51-1.65,2.89v32.97h-15.66v-50.7h14.84v4.95c3.02-3.84,6.87-5.77,11.54-5.77,3.57,0,6.6,1.1,9.07,3.3,2.48,2.2,3.71,4.81,3.71,7.83v40.39h-16.07ZM746.34,240.12c0,6.32-1.51,11.27-4.53,14.84-3.02,3.57-7.83,5.36-14.43,5.36-7.15,0-12.09-1.85-14.84-5.56-2.75-3.71-4.12-9.13-4.12-16.28v-10.72c0-6.59,1.16-12.02,3.5-16.28,2.33-4.26,7.48-6.39,15.45-6.39,6.87,0,11.75,2,14.63,5.98,2.89,3.99,4.33,8.04,4.33,12.16v13.6h-23.49v8.24c0,1.1.48,1.93,1.44,2.47.96.55,1.86.83,2.68.83s1.65-.27,2.47-.83c.83-.55,1.24-1.37,1.24-2.47v-4.95h15.66ZM730.68,220.75c0-.82-.41-1.65-1.24-2.47-.83-.82-1.79-1.24-2.88-1.24s-2,.41-2.68,1.24c-.69.83-1.03,1.65-1.03,2.47v7.01h7.83v-7.01ZM1218.3,299.07v54.41h-83.26v234.54h-66.36v-234.54h-211.86c-10.17,0-19.17,2.82-27,8.45-7.83,5.64-14.36,12.78-19.58,21.43-5.22,8.66-9.14,18.14-11.75,28.44-2.62,10.3-3.92,20.27-3.92,29.88,0,13.47,1.58,25.83,4.74,37.1,3.16,11.27,7.9,20.96,14.22,29.06,6.32,8.11,14.22,14.43,23.7,18.96s20.54,6.8,33.18,6.8c9.89,0,19.72-.75,29.47-2.27,9.75-1.51,18.4-5.22,25.97-11.13,7.55-5.91,13.74-14.97,18.55-27.2,4.81-12.22,7.22-29.06,7.22-50.49,0-9.34-.9-17.79-2.68-25.35-1.79-7.55-4.06-14.49-6.8-20.82-2.75-6.32-5.98-12.16-9.69-17.52-3.71-5.36-7.36-10.65-10.92-15.87h65.54c4.67,4.95,8.66,10.72,11.96,17.31,3.3,6.6,6.04,13.6,8.24,21.02,2.19,7.42,3.78,14.98,4.74,22.67.96,7.7,1.44,15.25,1.44,22.67,0,23.08-3.03,43.76-9.07,62.03-6.05,18.28-14.98,33.32-26.79,45.13-6.32,6.32-12.78,11.61-19.37,15.87-6.59,4.26-14.08,7.77-22.46,10.51-8.38,2.75-17.86,4.74-28.44,5.98-10.58,1.24-22.88,1.86-36.89,1.86-20.61,0-39.85-2.74-57.71-8.24-17.86-5.49-33.25-15.11-46.16-28.85-11.54-11.81-20.27-26.86-26.17-45.13-5.91-18.27-8.86-39.09-8.86-62.45,0-14.84,1.37-29.06,4.12-42.66,2.74-13.6,7.14-26.1,13.19-37.51,6.04-11.4,13.74-21.57,23.08-30.5,9.34-8.93,20.61-16.14,33.8-21.64,11.54-4.67,24.66-7.83,39.36-9.48,14.7-1.65,30.3-2.47,46.78-2.47h326.45ZM788.8,207.15v54.82c0,4.68-1.85,8.52-5.56,11.54-3.71,3.03-8.59,4.53-14.63,4.53s-10.58-1.09-13.6-3.3c-3.03-2.2-4.53-6.04-4.53-11.54v-5.36h14.01v4.53c0,1.1.47,1.93,1.44,2.47.96.55,1.86.82,2.68.82s1.71-.27,2.68-.82c.96-.55,1.44-1.37,1.44-2.47v-13.19c-1.38,1.38-2.89,2.68-4.53,3.92-1.65,1.24-3.58,1.85-5.77,1.85-3.85,0-6.87-1.44-9.07-4.33-2.2-2.89-3.3-6.39-3.3-10.51v-32.98h14.43v29.27c0,1.1.47,2,1.44,2.68.96.69,1.86,1.03,2.68,1.03s1.71-.34,2.68-1.03c.96-.68,1.44-1.58,1.44-2.68v-29.27h16.07ZM850.21,650.25c-14.29,0-25.28,2.68-32.98,8.04-7.69,5.36-12.64,13.81-14.84,25.35h93.15v34.21h-92.33c1.1,10.72,4.53,18.96,10.31,24.73,5.77,5.77,15.93,8.66,30.5,8.66h51.52v32.56h-57.29c-26.38,0-45.55-7.28-57.5-21.85-11.95-14.56-17.93-35.31-17.93-62.24,0-13.46,2.06-25.35,6.18-35.65,4.12-10.3,9.82-18.96,17.1-25.97,7.28-7.01,15.73-12.37,25.35-16.07,9.61-3.71,19.92-5.57,30.91-5.57h53.17v33.8h-45.34ZM838.68,252.9c-2.2,3.85-4.4,6.59-6.6,8.24-2.2,1.65-5.77,2.47-10.72,2.47-3.85,0-7.76-1.37-11.75-4.12-3.99-2.74-5.98-7.01-5.98-12.78v-56.06h17.72v51.94c0,1.1.48,1.93,1.44,2.47.96.55,1.86.83,2.68.83.54,0,1.3-.27,2.27-.83.96-.55,1.44-1.37,1.44-2.47v-51.94h18.14v51.94c0,1.1.41,1.93,1.24,2.47.83.55,1.65.83,2.47.83s1.65-.27,2.48-.83c.82-.55,1.23-1.37,1.23-2.47v-51.94h18.14v56.06c0,6.05-2,10.38-5.98,12.98-3.99,2.61-8.04,3.92-12.16,3.92-4.67,0-7.97-.83-9.89-2.47-1.92-1.65-3.99-4.39-6.18-8.24ZM896.38,205.5c6.32,0,11.19,1.72,14.63,5.15,3.43,3.44,5.15,7.49,5.15,12.16v20.61c0,4.68-1.72,8.66-5.15,11.95-3.44,3.3-8.31,4.95-14.63,4.95s-11.13-1.65-14.43-4.95c-3.3-3.3-4.95-7.28-4.95-11.95v-20.61c0-4.67,1.65-8.72,4.95-12.16,3.3-3.43,8.1-5.15,14.43-5.15ZM896.38,248.37c.82,0,1.65-.21,2.47-.62.83-.41,1.24-1.17,1.24-2.27v-25.14c0-1.09-.41-1.85-1.24-2.27-.83-.41-1.65-.62-2.47-.62-.56,0-1.24.21-2.06.62-.83.41-1.24,1.17-1.24,2.27v25.14c0,1.1.41,1.86,1.24,2.27.83.41,1.51.62,2.06.62ZM912.04,783.8v-167.35h101.4c17.03,0,29.26,3.99,36.68,11.95,7.42,7.97,11.13,18.96,11.13,32.98,0,6.6-.48,12.02-1.44,16.28-.97,4.26-2.48,7.83-4.53,10.72-2.06,2.89-4.61,5.36-7.63,7.42-3.02,2.06-6.46,4.33-10.3,6.8,18.14,8.52,27.2,22.26,27.2,41.22v39.98h-42.04v-32.56c0-9.89-1.44-17.93-4.33-24.11-2.89-6.18-8.32-9.27-16.28-9.27h-46.99v65.95h-42.87ZM951.2,234.76h-12.78v-13.6c0-1.1-.56-1.65-1.65-1.65-.83,0-1.24.55-1.24,1.65v36.68h-16.07v-50.7h12.78v4.12c1.37-2.2,2.74-3.64,4.12-4.33,1.37-.68,3.3-1.03,5.77-1.03,3.57,0,5.98,1.17,7.21,3.5,1.24,2.34,1.86,5.02,1.86,8.04v17.31ZM954.91,683.64h49.46c4.39,0,7.83-.55,10.3-1.65,2.48-1.1,4.26-2.47,5.36-4.12,1.1-1.65,1.79-3.43,2.06-5.36.27-1.92.41-3.71.41-5.36,0-3.85-1.31-7.62-3.92-11.33-2.62-3.71-7.36-5.56-14.22-5.56h-49.46v33.39ZM971.4,257.85h-16.08v-63.48h16.08v63.48ZM1011.79,194.37v63.48h-14.84v-4.12c-2.47,3.3-5.64,4.95-9.48,4.95s-6.8-1.58-8.86-4.74c-2.06-3.16-3.09-7.07-3.09-11.75v-18.55c0-4.67.83-8.86,2.47-12.57,1.65-3.71,4.95-5.56,9.89-5.56,1.65,0,3.36.41,5.15,1.24,1.78.82,3.09,2.06,3.92,3.71v-16.07h14.84ZM993.66,218.69c-2.48,0-3.71,1.24-3.71,3.71v20.2c0,2.47,1.23,3.71,3.71,3.71s3.71-1.24,3.71-3.71v-20.2c0-1.37-.41-2.33-1.24-2.89-.83-.55-1.65-.82-2.47-.82ZM1017.56,245.07c0-3.84,1.37-7.07,4.12-9.69,2.74-2.61,6.04-3.92,9.89-3.92s7.07,1.31,9.69,3.92c2.61,2.61,3.92,5.84,3.92,9.69s-1.31,7.15-3.92,9.89c-2.62,2.75-5.84,4.12-9.69,4.12s-7.15-1.37-9.89-4.12c-2.75-2.74-4.12-6.04-4.12-9.89ZM1020.04,245.07c0,3.3,1.1,6.12,3.3,8.45,2.19,2.34,4.94,3.5,8.24,3.5s5.97-1.17,8.04-3.5c2.06-2.33,3.09-5.15,3.09-8.45s-1.03-6.04-3.09-8.24c-2.06-2.2-4.74-3.3-8.04-3.3s-6.05,1.1-8.24,3.3c-2.2,2.2-3.3,4.95-3.3,8.24ZM1026.22,236.83h6.18c3.85,0,5.77,1.65,5.77,4.95,0,2.75-1.51,4.12-4.53,4.12l4.95,7.42h-2.88l-4.53-7.01h-2.48v7.01h-2.47v-16.49ZM1028.69,244.25h2.48c1.37,0,2.47-.14,3.3-.41.83-.27,1.24-1.09,1.24-2.47,0-1.1-.41-1.71-1.24-1.86-.83-.14-1.65-.21-2.47-.21h-3.3v4.95Z"/>
  <g>
    <path class="cls-1" d="M128.8,902.63c0-3.4.61-6.22,1.85-8.49s2.89-4.07,4.94-5.41,4.4-2.28,7.03-2.86c2.62-.56,5.32-.84,8.11-.84,4.43,0,8.02.26,10.8.78,2.79.52,5.07,1.66,6.88,3.47,1.8,1.81,3.21,4.5,4.24,8.1,1.03,3.62,2.06,8.51,3.09,14.69l8.33,51.11c.11.41.24,1.08.39,2,.16.93.37,1.85.62,2.78.25.95.51,1.77.76,2.48.26.73.5,1.08.7,1.08s.46-.34.78-1.08c.3-.71.56-1.53.76-2.48.2-.93.41-1.81.62-2.69.2-.88.3-1.42.3-1.62l8.03-52.21c.93-5.97,1.93-10.73,3.02-14.28,1.08-3.55,2.52-6.2,4.32-7.97,1.8-1.74,4.15-2.86,7.03-3.38,2.88-.52,6.59-.78,11.11-.78,6.49,0,11.79,1.29,15.92,3.86,4.11,2.58,6.17,7,6.17,13.29v92.05c0,1.01-.52,1.53-1.54,1.53h-19.31c-1.03,0-1.54-.52-1.54-1.53v-84.19c0-.19-.05-.62-.16-1.31-.1-.67-.41-.99-.93-.99s-.89.17-1.15.54-.5.75-.7,1.16c-.1.19-.23.67-.39,1.38-.15.73-.3,1.51-.46,2.33-.15.82-.3,1.64-.46,2.48-.15.82-.28,1.44-.39,1.85-.61,2.56-1.21,5.28-1.77,8.1-.57,2.84-1.37,6.59-2.4,11.29-1.02,4.67-2.29,10.64-3.78,17.9-1.5,7.26-3.48,16.56-5.94,27.89-.31,1.64-.83,3.23-1.55,4.78s-1.72,2.93-3,4.18c-1.29,1.23-3.02,2.24-5.18,2.99-2.16.78-4.89,1.16-8.18,1.16-2.98,0-5.43-.34-7.33-1.08-1.91-.71-3.48-1.62-4.72-2.69-1.23-1.1-2.15-2.3-2.78-3.64-.61-1.34-1.08-2.63-1.39-3.86l-15.44-73.53c-.11-.19-.28-.8-.54-1.77s-.59-1.51-1-1.62h-.78c-.41,0-.61.37-.61,1.08v85.57c0,1.01-.52,1.53-1.55,1.53h-19.31c-1.02,0-1.54-.52-1.54-1.53v-91.6Z"/>
    <path class="cls-1" d="M256.51,940.32c0-6.07.05-11.33.16-15.77.1-4.42.41-8.01.93-10.79.82-4.03,1.69-7.62,2.63-10.81.93-3.21,2.15-5.81,3.7-7.88,2.06-2.67,4.63-5.02,7.72-7.02,3.09-2.02,6.37-3.42,9.89-4.26,2.47-.5,5.71-.82,9.72-.93,4.02-.09,8.81-.15,14.37-.15s10.35.06,14.37.15c4.02.11,7.26.43,9.72.93,3.5.84,6.79,2.24,9.89,4.26,3.09,2,5.66,4.35,7.72,7.02,1.55,2.07,2.78,4.67,3.7,7.88.93,3.19,1.81,6.78,2.63,10.81.52,2.78.83,6.37.93,10.79.11,4.44.16,9.69.16,15.77v.93c0,6.07-.05,11.33-.16,15.74-.1,4.44-.41,8.03-.93,10.81-.82,4.03-1.7,7.62-2.63,10.81-.93,3.21-2.15,5.81-3.7,7.88-2.06,2.67-4.63,5.02-7.72,7.02-3.09,2-6.39,3.42-9.89,4.24-2.47.52-5.71.84-9.72.93-4.02.11-8.81.17-14.37.17s-10.35-.06-14.37-.17c-4.02-.09-7.26-.41-9.72-.93-3.51-.82-6.79-2.24-9.89-4.24s-5.66-4.35-7.72-7.02c-1.55-2.07-2.78-4.67-3.7-7.88-.94-3.19-1.81-6.78-2.63-10.81-.52-2.78-.83-6.37-.93-10.81-.11-4.42-.16-9.67-.16-15.74v-.93ZM296.52,904.27c-2.89.15-5.35.47-7.42.99-3.7.93-6.33,2.76-7.87,5.49-1.54,2.71-2.32,6.81-2.32,12.28v35.51c0,5.47.78,9.56,2.32,12.28,1.54,2.74,4.17,4.57,7.87,5.49,2.07.52,4.53.84,7.42.99,2.88.17,5.91.24,9.11.24s6.22-.06,9.11-.24c2.89-.15,5.35-.47,7.42-.99,3.7-.93,6.33-2.76,7.87-5.49,1.54-2.71,2.32-6.81,2.32-12.28v-35.51c0-5.47-.78-9.56-2.32-12.28-1.54-2.74-4.17-4.57-7.87-5.49-2.07-.52-4.53-.84-7.42-.99-2.89-.17-5.92-.24-9.11-.24s-6.23.06-9.11.24Z"/>
    <path class="cls-1" d="M413.9,994.23c0,1.01-.52,1.53-1.55,1.53h-19.31c-1.02,0-1.54-.52-1.54-1.53v-87.57c0-1.03-.52-1.55-1.54-1.55h-25.18c-1.03,0-1.55-.52-1.55-1.55v-16.99c0-1.01.52-1.53,1.55-1.53h75.83c1.02,0,1.54.52,1.54,1.53v16.99c0,1.03-.52,1.55-1.54,1.55h-25.18c-1.03,0-1.54.52-1.54,1.55v87.57Z"/>
    <path class="cls-1" d="M451.41,886.56c0-1.01.52-1.53,1.54-1.53h19.31c1.03,0,1.55.52,1.55,1.53v42.02c0,1.03.51,1.55,1.54,1.55h36.6c1.02,0,1.54-.52,1.54-1.55v-42.02c0-1.01.52-1.53,1.55-1.53h19.3c1.03,0,1.55.52,1.55,1.53v107.66c0,1.01-.52,1.53-1.55,1.53h-19.3c-1.03,0-1.55-.52-1.55-1.53v-42.47c0-1.03-.52-1.55-1.54-1.55h-36.6c-1.03,0-1.54.52-1.54,1.55v42.47c0,1.01-.52,1.53-1.55,1.53h-19.31c-1.02,0-1.54-.52-1.54-1.53v-107.66Z"/>
    <path class="cls-1" d="M548.56,908.66c0-7,1.9-12.69,5.71-17.06,3.81-4.39,9.33-6.57,16.53-6.57h52.36c1.34,0,2,.52,2,1.53v16.99c0,1.03-.52,1.55-1.54,1.55h-51.12c-1.03,0-1.55.56-1.55,1.7v21c0,1.03.52,1.55,1.55,1.55h47.41c1.02,0,1.54.52,1.54,1.53v17.77c0,1.03-.52,1.55-1.54,1.55h-47.41c-1.03,0-1.55.52-1.55,1.55v22.38c0,1.03.52,1.55,1.55,1.55h51.12c1.02,0,1.54.52,1.54,1.55v16.99c0,1.01-.52,1.53-1.54,1.53h-59.78c-1.85,0-3.7-.47-5.56-1.46-1.85-.97-3.5-2.24-4.94-3.79-1.44-1.53-2.6-3.25-3.47-5.17-.88-1.9-1.31-3.83-1.31-5.79v-70.88Z"/>
    <path class="cls-1" d="M639.36,885.03h57.46c2.88,0,5.71.56,8.49,1.7,2.78,1.12,5.51,3.08,8.18,5.86,4.64,4.85,7.11,12.15,7.42,21.92v3.55c0,9.07-1.09,15.66-3.24,19.77-1.44,2.07-2.94,3.94-4.48,5.64-1.55,1.7-3.66,3.27-6.33,4.72-.11.09-.24.26-.39.45-.15.22-.24.47-.24.78,0,.22.05.41.16.62,2.37,3.08,4.04,5.79,5.02,8.1.98,2.33,1.87,4.72,2.7,7.19l8.5,26.08c.2.84.58,1.57,1.15,2.24.57.69.85,1.12.85,1.31,0,.52-.31.78-.93.78h-21.31c-.62,0-1.29-.54-2.01-1.62s-1.18-1.98-1.39-2.71l-9.57-27.01c-1.44-5.77-4.37-8.96-8.8-9.58h-18.84c-1.03,0-1.54.52-1.54,1.55v37.84c0,1.01-.52,1.53-1.55,1.53h-19.31c-1.02,0-1.54-.52-1.54-1.53v-107.66c0-1.01.52-1.53,1.54-1.53ZM661.76,905.11c-1.03,0-1.54.52-1.54,1.55v25.18c0,1.01.56,1.53,1.69,1.53h27.96c1.44,0,3.04-.71,4.79-2.15,1.44-1.25,2.54-3.04,3.32-5.41s1.16-5,1.16-7.88c0-1.44-.09-2.76-.24-3.94s-.48-2.28-1-3.32c-1.65-3.4-3.61-5.26-5.87-5.56h-30.27Z"/>
    <path class="cls-1" d="M764.93,949.73c-3.2,0-6.62-.41-10.27-1.23s-6.98-2.41-9.96-4.78c-1.76-1.44-3.22-3.17-4.4-5.19-1.18-2-2.15-4.16-2.93-6.48-.78-2.3-1.34-4.67-1.7-7.11-.36-2.41-.54-4.8-.54-7.17v-2.93c0-.93.1-1.85.31-2.78.71-8.96,4.06-15.92,10.04-20.85,1.74-1.44,3.91-2.84,6.48-4.18s5.09-2,7.57-2h51.12c1.02,0,1.54.52,1.54,1.53v16.99c0,1.03-.52,1.55-1.54,1.55h-44.64c-1.44,0-2.76.65-3.93,1.94-1.18,1.27-2.04,2.5-2.55,3.62-.52,1.03-.83,2.07-.93,3.1-.11,1.01-.15,2.05-.15,3.08,0,1.64.1,3.34.3,5.1.2,1.74.93,3.3,2.16,4.63,1.13,1.12,2.7,1.79,4.71,2,2.01.22,4.2.3,6.57.3h17.29c3.19,0,6.54.45,10.04,1.31,3.5.88,6.75,2.56,9.73,5.02,1.74,1.44,3.22,3.21,4.4,5.26,1.18,2.07,2.15,4.29,2.93,6.63.78,2.37,1.31,4.85,1.63,7.43.3,2.56.46,5.04.46,7.41v3.23c0,.93-.11,1.81-.31,2.63-.83,9.37-4.11,16.58-9.89,21.62-1.74,1.44-3.89,2.86-6.41,4.24-2.52,1.4-4.92,2.09-7.18,2.09h-56.21c-1.03,0-1.55-.52-1.55-1.53v-16.99c0-1.03.52-1.55,1.55-1.55h49.73c1.54,0,2.88-.75,4.02-2.24,1.13-1.49,1.95-2.86,2.47-4.09.52-1.14.83-2.22.93-3.25.11-1.01.16-2.09.16-3.23,0-1.66-.11-3.38-.31-5.17-.2-1.81-.93-3.42-2.16-4.87-1.03-1.14-2.5-1.94-4.4-2.39-1.91-.47-4.15-.71-6.71-.71h-17.46Z"/>
    <path class="cls-1" d="M873.65,994.23v-107.66c0-1.01.52-1.53,1.55-1.53h52.66c5.88,0,10.94,1.12,15.23,3.4,4.26,2.26,7.8,5.19,10.57,8.79,2.78,3.62,4.8,7.73,6.09,12.36,1.29,4.63,1.94,9.33,1.94,14.04v37.07c0,4.03-.65,8.12-1.94,12.3-1.29,4.16-3.32,7.95-6.09,11.35-2.78,3.38-6.29,6.14-10.51,8.25s-9.26,3.17-15.14,3.17h-52.81c-1.03,0-1.55-.52-1.55-1.53ZM896.05,974.13c0,1.03.52,1.55,1.55,1.55h27.63c1.66,0,3.32-.43,5.02-1.31,1.7-.86,3.23-2,4.57-3.4,1.34-1.38,2.41-2.93,3.23-4.63.84-1.7,1.25-3.42,1.25-5.17v-41.07c0-1.87-.47-3.68-1.4-5.49s-2.11-3.4-3.55-4.78c-1.44-1.4-3.06-2.52-4.85-3.4-1.81-.88-3.64-1.31-5.49-1.31h-26.4c-1.03,0-1.55.52-1.55,1.55v67.48Z"/>
    <path class="cls-1" d="M995.98,894.15c1.23-4.03,3.49-6.55,6.78-7.58,3.3-1.01,7.77-1.53,13.44-1.53s10.47.52,13.83,1.53c3.34,1.03,5.62,3.55,6.87,7.58l31.03,100.69c0,.62-.37.93-1.08.93h-20.22c-1.03,0-1.7-.45-2.02-1.38l-8.18-26.73c-.3-1.03-.97-1.55-2-1.55h-36.29c-1.03,0-1.7.58-2,1.7l-8.18,26.43c-.32,1.01-.99,1.53-2.02,1.53h-20.07c-.82,0-1.23-.3-1.23-.93l31.36-100.69ZM1018.05,907.89c-.3-1.14-.56-1.87-.78-2.24s-.56-.54-1.08-.54-1.08.93-1.7,2.78l-10.81,35.21c0,.22-.02.37-.09.47-.04.09-.06.19-.06.3,0,.71.41,1.08,1.23,1.08h23.02c.82,0,1.23-.37,1.23-1.08,0-.11-.02-.22-.09-.3-.04-.11-.06-.26-.06-.47l-10.81-35.21Z"/>
    <path class="cls-1" d="M1093.56,995.76c-1.53,0-2.3-1.27-2.3-3.86v-34.44c-1.03-.3-2.35-.93-3.94-1.85s-2.95-2.37-4.09-4.33l-29.66-63.94c-.82-1.53-.56-2.3.78-2.3h21.32c1.23,0,2.11.6,2.63,1.85l21.92,47.55c.52,1.03,1.34,1.55,2.46,1.55.73,0,1.23-.13,1.49-.39.24-.26.58-.65.99-1.16l21.17-47.25c.6-1.44,1.49-2.15,2.63-2.15h20.85c.71,0,1.14.24,1.31.69.15.47.11.95-.09,1.46l-28.73,64.09c-1.44,1.96-2.82,3.4-4.16,4.33-1.36.93-2.58,1.55-3.73,1.85v34.44c0,2.58-.71,3.86-2.15,3.86h-18.69Z"/>
  </g>
  <g>
    <path class="cls-1" d="M240.4,1019.88c1.23-4.03,3.49-6.55,6.79-7.58,3.28-1.01,7.76-1.53,13.43-1.53s10.48.52,13.83,1.53c3.34,1.03,5.63,3.55,6.87,7.58l31.05,100.69c0,.62-.37.93-1.09.93h-20.22c-1.03,0-1.7-.45-2.01-1.38l-8.18-26.73c-.31-1.03-.98-1.55-2-1.55h-36.3c-1.02,0-1.69.58-2,1.7l-8.18,26.43c-.31,1.01-.98,1.53-2.01,1.53h-20.07c-.83,0-1.24-.3-1.24-.93l31.36-100.69ZM262.48,1033.62c-.3-1.14-.56-1.87-.76-2.24-.22-.37-.57-.54-1.09-.54s-1.08.93-1.69,2.78l-10.81,35.21c0,.22-.03.37-.09.47-.04.09-.08.19-.08.3,0,.71.41,1.08,1.24,1.08h23.01c.82,0,1.24-.37,1.24-1.08,0-.11-.03-.22-.09-.3-.04-.11-.08-.26-.08-.47l-10.81-35.21Z"/>
    <path class="cls-1" d="M321.94,1119.96v-107.66c0-1.01.52-1.53,1.54-1.53h52.67c5.87,0,10.94,1.12,15.22,3.4,4.26,2.26,7.8,5.19,10.57,8.79,2.78,3.62,4.81,7.73,6.09,12.36,1.29,4.63,1.94,9.33,1.94,14.04v37.07c0,4.03-.65,8.12-1.94,12.3-1.28,4.16-3.32,7.95-6.09,11.35-2.78,3.38-6.28,6.14-10.5,8.25s-9.27,3.17-15.14,3.17h-52.82c-1.02,0-1.54-.52-1.54-1.53ZM344.34,1099.87c0,1.03.51,1.55,1.54,1.55h27.64c1.65,0,3.32-.43,5.02-1.31,1.7-.86,3.22-2,4.56-3.4,1.34-1.38,2.42-2.93,3.24-4.63.83-1.7,1.24-3.42,1.24-5.17v-41.07c0-1.87-.46-3.68-1.39-5.49s-2.11-3.4-3.55-4.78c-1.44-1.4-3.06-2.52-4.86-3.4-1.81-.88-3.64-1.31-5.49-1.31h-26.4c-1.03,0-1.54.52-1.54,1.55v67.48Z"/>
    <path class="cls-1" d="M462.48,1098.64c.3,1.14.56,1.87.76,2.24s.57.54,1.09.54,1.08-.93,1.69-2.78l26.57-86.34c.31-1.01.98-1.53,2.01-1.53h20.07c.82,0,1.24.3,1.24.93l-31.36,100.69c-1.23,4.03-3.5,6.55-6.79,7.58-3.3,1.01-7.77,1.53-13.43,1.53s-10.48-.52-13.83-1.53c-3.35-1.03-5.63-3.55-6.87-7.58l-31.05-100.69c0-.62.37-.93,1.09-.93h20.22c1.03,0,1.7.45,2.01,1.38l26.57,86.49Z"/>
    <path class="cls-1" d="M525.34,1034.39c0-7,1.9-12.69,5.71-17.06,3.81-4.39,9.33-6.57,16.53-6.57h52.36c1.34,0,2,.52,2,1.53v16.99c0,1.03-.52,1.55-1.54,1.55h-51.12c-1.03,0-1.55.56-1.55,1.7v21c0,1.03.52,1.55,1.55,1.55h47.41c1.02,0,1.54.52,1.54,1.53v17.77c0,1.03-.52,1.55-1.54,1.55h-47.41c-1.03,0-1.55.52-1.55,1.55v22.38c0,1.03.52,1.55,1.55,1.55h51.12c1.02,0,1.54.52,1.54,1.55v16.99c0,1.01-.52,1.53-1.54,1.53h-59.78c-1.85,0-3.7-.47-5.56-1.46-1.85-.97-3.5-2.24-4.94-3.79-1.44-1.53-2.6-3.25-3.47-5.17-.88-1.9-1.31-3.83-1.31-5.79v-70.88Z"/>
    <path class="cls-1" d="M614.45,1033.47c0-4.03.36-7.47,1.08-10.36.72-2.86,1.96-5.21,3.7-7.02,1.76-1.79,4.09-3.14,7.03-4.01,2.93-.88,6.61-1.31,11.04-1.31,6.49,0,11.2,1.03,14.13,3.08,2.94,2.07,4.92,4.89,5.95,8.51l20.69,76.28c.31,1.03.83,1.55,1.55,1.55s1.08-.52,1.08-1.55v-86.34c0-1.01.52-1.53,1.55-1.53h19.3c1.03,0,1.55.52,1.55,1.53v91.45c0,2.05-.42,4.11-1.24,6.16-.83,2.07-1.93,3.98-3.32,5.73s-3.04,3.17-4.94,4.24-3.94,1.62-6.11,1.62h-14.2c-1.24,0-2.55-.32-3.94-.99s-2.7-1.55-3.94-2.63c-1.23-1.08-2.32-2.3-3.24-3.64s-1.59-2.71-2-4.16l-20.85-76.76c-.31-.93-.78-1.4-1.39-1.4-.72,0-1.09.47-1.09,1.4v86.64c0,1.01-.52,1.53-1.54,1.53h-19.31c-1.03,0-1.54-.52-1.54-1.53v-86.49Z"/>
    <path class="cls-1" d="M763.02,1119.96c0,1.01-.52,1.53-1.55,1.53h-19.31c-1.02,0-1.54-.52-1.54-1.53v-87.57c0-1.03-.52-1.55-1.54-1.55h-25.18c-1.03,0-1.55-.52-1.55-1.55v-16.99c0-1.01.52-1.53,1.55-1.53h75.83c1.02,0,1.54.52,1.54,1.53v16.99c0,1.03-.52,1.55-1.54,1.55h-25.18c-1.03,0-1.54.52-1.54,1.55v87.57Z"/>
    <path class="cls-1" d="M863.08,1010.77h19.32c1.03,0,1.55.52,1.55,1.53v73.38c0,3.7-.22,6.98-.62,9.8-.41,2.84-.99,5.13-1.7,6.87-.62,1.66-1.53,3.38-2.71,5.17-1.18,1.81-2.5,3.49-3.92,5.02-1.55,1.55-3.36,2.86-5.42,3.94-2.07,1.08-4.02,1.98-5.87,2.71-1.85.6-3.92,1.14-6.18,1.62-2.26.45-4.74.69-7.41.69h-18.07c-3.4,0-6.57-.34-9.5-1.08-2.94-.71-5.44-1.74-7.49-3.08-2.16-1.34-4.02-2.78-5.56-4.33-1.96-1.96-3.61-3.96-4.94-6.03-1.34-2.26-2.39-4.65-3.17-7.17-.78-2.52-1.16-5.23-1.16-8.12v-79.39c0-1.01.52-1.53,1.55-1.53h19.3c1.03,0,1.55.52,1.55,1.53v75.38c0,1.23.23,2.65.69,4.24s1.16,3.08,2.09,4.48,2.09,2.58,3.48,3.55,3,1.46,4.86,1.46h16.22c1.76,0,3.35-.5,4.79-1.46s2.65-2.15,3.63-3.55,1.74-2.89,2.32-4.48.85-3.06.85-4.39v-75.23c0-1.01.52-1.53,1.54-1.53Z"/>
    <path class="cls-1" d="M897.84,1010.77h57.46c2.86,0,5.71.56,8.49,1.7,2.78,1.12,5.51,3.08,8.18,5.86,4.63,4.85,7.11,12.15,7.41,21.92v3.55c0,9.07-1.08,15.66-3.23,19.77-1.44,2.07-2.95,3.94-4.48,5.64-1.55,1.7-3.66,3.27-6.33,4.72-.11.09-.24.26-.39.45-.15.22-.24.47-.24.78,0,.22.04.41.15.62,2.37,3.08,4.05,5.79,5.02,8.1.99,2.33,1.87,4.72,2.71,7.19l8.49,26.08c.22.84.58,1.57,1.16,2.24.56.69.84,1.12.84,1.31,0,.52-.3.78-.93.78h-21.3c-.62,0-1.29-.54-2.02-1.62-.71-1.08-1.18-1.98-1.38-2.71l-9.58-27.01c-1.44-5.77-4.37-8.96-8.79-9.58h-18.84c-1.03,0-1.55.52-1.55,1.55v37.84c0,1.01-.52,1.53-1.55,1.53h-19.3c-1.03,0-1.55-.52-1.55-1.53v-107.66c0-1.01.52-1.53,1.55-1.53ZM920.24,1030.84c-1.03,0-1.55.52-1.55,1.55v25.18c0,1.01.56,1.53,1.7,1.53h27.96c1.44,0,3.04-.71,4.78-2.15,1.44-1.25,2.54-3.04,3.32-5.41s1.16-5,1.16-7.88c0-1.44-.09-2.76-.24-3.94s-.47-2.28-.99-3.32c-1.66-3.4-3.62-5.26-5.88-5.56h-30.26Z"/>
    <path class="cls-1" d="M994.37,1034.39c0-7,1.9-12.69,5.71-17.06,3.81-4.39,9.33-6.57,16.52-6.57h52.36c1.34,0,2,.52,2,1.53v16.99c0,1.03-.52,1.55-1.53,1.55h-51.13c-1.03,0-1.55.56-1.55,1.7v21c0,1.03.52,1.55,1.55,1.55h47.42c1.01,0,1.53.52,1.53,1.53v17.77c0,1.03-.52,1.55-1.53,1.55h-47.42c-1.03,0-1.55.52-1.55,1.55v22.38c0,1.03.52,1.55,1.55,1.55h51.13c1.01,0,1.53.52,1.53,1.55v16.99c0,1.01-.52,1.53-1.53,1.53h-59.79c-1.85,0-3.7-.47-5.56-1.46-1.85-.97-3.49-2.24-4.93-3.79-1.44-1.53-2.61-3.25-3.47-5.17-.88-1.9-1.31-3.83-1.31-5.79v-70.88Z"/>
  </g>
  <rect class="cls-1" x="61.7" y="818.01" width="1156.59" height="33.57" rx=".25" ry=".25"/>
</svg>