<?xml version="1.0" encoding="UTF-8"?>
<svg id="Layer_1" xmlns="http://www.w3.org/2000/svg" version="1.1" viewBox="0 0 550.95 104.53">
  <!-- Generator: Adobe Illustrator 30.1.0, SVG Export Plug-In . SVG Version: 2.1.1 Build 136)  -->
  <defs>
    <style>
      .st0 {
        fill: #fff;
      }
    </style>
  </defs>
  <path class="st0" d="M52.2,0c4.8,0,9.44.62,13.9,1.87,4.46,1.25,8.63,3,12.51,5.27,3.87,2.27,7.4,4.98,10.57,8.16,3.17,3.17,5.88,6.71,8.12,10.6s3.99,8.08,5.23,12.54c1.24,4.46,1.87,9.1,1.87,13.9s-.62,9.44-1.87,13.9c-1.25,4.46-2.99,8.63-5.23,12.51s-4.95,7.4-8.12,10.57-6.69,5.88-10.57,8.12-8.04,3.99-12.51,5.23-9.1,1.87-13.9,1.87-9.49-.62-13.93-1.87c-4.44-1.25-8.6-2.99-12.47-5.23-3.87-2.24-7.4-4.95-10.57-8.12-3.17-3.17-5.88-6.69-8.12-10.57s-3.99-8.03-5.23-12.47c-1.25-4.44-1.87-9.08-1.87-13.93s.62-9.44,1.87-13.9c1.24-4.46,2.99-8.64,5.23-12.54s4.95-7.43,8.12-10.6c3.17-3.17,6.69-5.89,10.57-8.16,3.87-2.26,8.03-4.02,12.47-5.27,4.44-1.25,9.08-1.87,13.93-1.87ZM7.54,41.73c-.45,1.59-.78,3.3-.99,5.13s-.31,3.7-.31,5.61.1,3.86.31,5.74c.2,1.88.53,3.68.99,5.4h13.32c-.36-1.63-.61-3.39-.75-5.27-.14-1.88-.2-3.84-.2-5.88,0-1.9.04-3.76.14-5.57.09-1.81.23-3.53.41-5.17H7.54ZM35.34,9.45c-3.08,1.13-5.97,2.62-8.66,4.45-2.7,1.84-5.17,3.91-7.41,6.22-2.24,2.31-4.21,4.8-5.91,7.48-1.7,2.67-3.05,5.39-4.04,8.16h12.5c.54-2.36,1.28-4.7,2.21-7.03.93-2.33,1.98-4.62,3.16-6.86,1.18-2.24,2.47-4.41,3.87-6.49,1.4-2.08,2.83-4.05,4.28-5.91ZM9.45,69.87c1.22,2.9,2.74,5.68,4.55,8.33,1.81,2.65,3.87,5.09,6.18,7.31,2.31,2.22,4.85,4.2,7.61,5.95,2.76,1.75,5.71,3.14,8.84,4.18-1.72-2.17-3.26-4.19-4.62-6.05-1.36-1.86-2.62-3.76-3.77-5.71-1.16-1.95-2.21-4.03-3.16-6.25-.95-2.22-1.88-4.8-2.79-7.75h-12.85ZM26.17,41.73c.86,2.36,2.05,4.55,3.57,6.59,1.52,2.04,3.28,3.83,5.3,5.37,2.01,1.54,4.25,2.76,6.69,3.67,2.45.91,5.01,1.4,7.68,1.5-.09-3.08-1.02-5.94-2.79-8.56-1.77-2.63-4.08-4.73-6.93-6.32-1.99-1.09-4.1-1.73-6.32-1.94-2.22-.2-4.62-.31-7.2-.31ZM49.41,65.52c-1.81-.18-3.75-.58-5.81-1.19-2.06-.61-4.12-1.42-6.18-2.41-2.06-1-4.04-2.15-5.95-3.47-1.9-1.31-3.63-2.76-5.17-4.35-.05.5-.03,1.18.03,2.04.07.86.15,1.74.24,2.65.09.91.2,1.78.34,2.62.14.84.25,1.48.34,1.94,1.9,0,3.74.07,5.51.2s3.54.49,5.34,1.05c1.79.57,3.61,1.4,5.47,2.51,1.86,1.11,3.81,2.64,5.84,4.59v-6.18ZM49.41,40.78c-1.54-1.18-2.93-2.56-4.18-4.15-1.25-1.59-2.3-3.31-3.16-5.17-.86-1.86-1.53-3.79-2-5.81-.47-2.02-.71-4.04-.71-6.08,0-1.81.2-3.6.61-5.37-1.22,1.27-2.45,2.76-3.67,4.49-1.22,1.72-2.37,3.53-3.43,5.44-1.07,1.9-1.99,3.83-2.79,5.78-.79,1.95-1.35,3.81-1.67,5.57,1.54,0,3.13.07,4.76.2,1.63.14,3.33.48,5.1,1.02,1.77.54,3.58,1.34,5.44,2.38,1.86,1.04,3.76,2.45,5.71,4.21v-2.51ZM49.41,90.19c0-2.85-.45-5.53-1.36-8.02-.91-2.49-2.23-4.68-3.98-6.56-1.74-1.88-3.88-3.35-6.42-4.42-2.54-1.06-5.44-1.6-8.7-1.6.81,2.81,1.9,5.63,3.26,8.46,1.36,2.83,2.92,5.54,4.69,8.12,1.77,2.58,3.71,4.96,5.84,7.14,2.13,2.17,4.35,4.01,6.66,5.51v-8.63ZM52.2,35.21c2.17-1.59,3.83-3.75,4.96-6.49,1.13-2.74,1.7-5.61,1.7-8.6,0-2.81-.5-5.52-1.5-8.12-1-2.61-2.54-4.75-4.62-6.42-.18.18-.36.32-.54.41-.18-.09-.36-.23-.54-.41-2.09,1.68-3.63,3.82-4.62,6.42-1,2.61-1.5,5.31-1.5,8.12,0,2.99.57,5.86,1.7,8.6,1.13,2.74,2.79,4.91,4.96,6.49ZM54.98,43.29c1.95-1.77,3.85-3.17,5.71-4.21,1.86-1.04,3.67-1.84,5.44-2.38,1.77-.54,3.47-.88,5.1-1.02,1.63-.14,3.22-.2,4.76-.2-.36-1.77-.93-3.62-1.7-5.57-.77-1.95-1.69-3.87-2.75-5.78-1.07-1.9-2.21-3.71-3.43-5.44-1.22-1.72-2.45-3.22-3.67-4.49.41,1.77.61,3.56.61,5.37,0,2.04-.24,4.07-.71,6.08-.47,2.02-1.15,3.95-2.04,5.81-.88,1.86-1.94,3.58-3.16,5.17-1.22,1.59-2.61,2.97-4.15,4.15v2.51ZM78.23,41.73c-2.9,0-5.43.11-7.58.34-2.15.23-4.18.86-6.08,1.9-2.72,1.54-4.97,3.63-6.76,6.25-1.79,2.63-2.73,5.51-2.82,8.63,2.67-.09,5.23-.59,7.68-1.5,2.45-.91,4.68-2.13,6.69-3.67,2.01-1.54,3.78-3.33,5.3-5.37s2.71-4.24,3.57-6.59ZM54.98,71.7c2.04-1.95,3.99-3.48,5.85-4.59,1.86-1.11,3.68-1.95,5.47-2.51,1.79-.57,3.57-.92,5.34-1.05s3.6-.2,5.51-.2c.09-.45.2-1.1.34-1.94.14-.84.25-1.71.34-2.62.09-.91.17-1.79.24-2.65.07-.86.08-1.54.03-2.04-1.54,1.59-3.27,3.04-5.2,4.35-1.93,1.31-3.91,2.47-5.95,3.47-2.04,1-4.09,1.8-6.15,2.41-2.06.61-4,1.01-5.81,1.19v6.18ZM54.98,98.82c2.31-1.5,4.53-3.33,6.66-5.51s4.08-4.55,5.84-7.14,3.33-5.29,4.69-8.12c1.36-2.83,2.45-5.65,3.26-8.46-3.26,0-6.17.53-8.73,1.6-2.56,1.07-4.7,2.54-6.42,4.42-1.72,1.88-3.04,4.07-3.94,6.56-.91,2.49-1.36,5.16-1.36,8.02v8.63ZM82.1,69.87c-.91,2.95-1.84,5.53-2.79,7.75-.95,2.22-2,4.3-3.16,6.25-1.16,1.95-2.41,3.85-3.77,5.71-1.36,1.86-2.9,3.87-4.62,6.05,3.13-1.04,6.07-2.43,8.84-4.18,2.76-1.74,5.3-3.73,7.61-5.95,2.31-2.22,4.37-4.66,6.18-7.31,1.81-2.65,3.33-5.43,4.55-8.33h-12.85ZM69.05,9.45c1.45,1.86,2.88,3.83,4.28,5.91,1.4,2.08,2.7,4.25,3.87,6.49,1.18,2.24,2.23,4.53,3.16,6.86.93,2.33,1.64,4.68,2.14,7.03h12.57c-1.04-2.76-2.4-5.48-4.08-8.16-1.68-2.67-3.64-5.17-5.88-7.48-2.24-2.31-4.72-4.38-7.44-6.22-2.72-1.84-5.6-3.32-8.63-4.45ZM83.94,41.73c.18,1.63.32,3.35.41,5.17.09,1.81.14,3.67.14,5.57,0,2.04-.07,4-.2,5.88-.14,1.88-.39,3.64-.75,5.27h13.32c.45-1.72.78-3.52.99-5.4.2-1.88.31-3.79.31-5.74s-.1-3.77-.31-5.61c-.2-1.84-.53-3.54-.99-5.13h-12.91Z"/>
  <g>
    <path class="st0" d="M161.28,80.48c0,.62-.31.92-.92.92h-11.55c-.62,0-.92-.31-.92-.92V28.07c0-.62-.31-.92-.92-.92h-15.07c-.62,0-.92-.31-.92-.92v-10.17c0-.62.31-.92.92-.92h45.38c.62,0,.92.31.92.92v10.17c0,.62-.31.92-.92.92h-15.07c-.62,0-.92.31-.92.92v52.41Z"/>
    <path class="st0" d="M183.73,16.06c0-.62.31-.92.92-.92h11.55c.62,0,.92.31.92.92v25.14c0,.62.31.92.92.92h21.91c.62,0,.92-.31.92-.92v-25.14c0-.62.31-.92.92-.92h11.55c.62,0,.92.31.92.92v64.42c0,.62-.31.92-.92.92h-11.55c-.62,0-.92-.31-.92-.92v-25.42c0-.62-.31-.92-.92-.92h-21.91c-.62,0-.92.31-.92.92v25.42c0,.62-.31.92-.92.92h-11.55c-.62,0-.92-.31-.92-.92V16.06Z"/>
    <path class="st0" d="M241.87,29.27c0-4.19,1.14-7.59,3.42-10.21,2.28-2.62,5.58-3.93,9.89-3.93h31.33c.8,0,1.2.31,1.2.92v10.17c0,.62-.31.92-.92.92h-30.59c-.62,0-.92.34-.92,1.02v12.57c0,.62.31.92.92.92h28.38c.62,0,.92.31.92.92v10.63c0,.62-.31.92-.92.92h-28.38c-.62,0-.92.31-.92.92v13.4c0,.62.31.92.92.92h30.59c.62,0,.92.31.92.92v10.17c0,.62-.31.92-.92.92h-35.77c-1.11,0-2.22-.29-3.33-.88-1.11-.58-2.1-1.34-2.96-2.26-.86-.92-1.56-1.96-2.08-3.1-.52-1.14-.79-2.29-.79-3.47V29.27Z"/>
    <path class="st0" d="M364.24,70.31v10.17c0,.62-.31.92-.92.92h-26.8c-.43,0-.8-.03-1.11-.09-5.12-.43-8.75-1.93-10.91-4.48-2.16-2.56-3.23-6.42-3.23-11.6V16.06c0-.62.31-.92.92-.92h11.55c.62,0,.92.31.92.92v50.28c0,2.03,1.2,3.05,3.61,3.05h25.05c.62,0,.92.31.92.92Z"/>
    <path class="st0" d="M385.6,20.58c.74-2.4,2.09-3.91,4.07-4.53,1.97-.62,4.65-.92,8.04-.92s6.27.31,8.27.92c2,.62,3.37,2.13,4.11,4.53l18.58,60.26c0,.37-.22.55-.65.55h-12.11c-.62,0-1.02-.28-1.2-.83l-4.9-15.99c-.19-.62-.59-.92-1.2-.92h-21.72c-.62,0-1.02.34-1.2,1.02l-4.9,15.81c-.18.62-.59.92-1.2.92h-12.02c-.49,0-.74-.19-.74-.55l18.76-60.26ZM398.81,28.81c-.18-.68-.34-1.12-.46-1.34-.12-.22-.34-.32-.65-.32s-.65.55-1.02,1.66l-6.47,21.07c0,.12-.02.22-.04.28-.03.06-.05.12-.05.19,0,.43.25.65.74.65h13.77c.49,0,.74-.22.74-.65,0-.06-.02-.12-.04-.19-.03-.06-.05-.15-.05-.28l-6.47-21.07Z"/>
    <path class="st0" d="M434.31,28.72c0-2.4.21-4.47.65-6.19.43-1.72,1.17-3.13,2.22-4.21,1.05-1.08,2.45-1.88,4.21-2.4,1.76-.52,3.96-.79,6.61-.79,3.88,0,6.7.62,8.46,1.85,1.76,1.23,2.94,2.93,3.56,5.08l12.38,45.66c.19.62.49.92.92.92s.65-.31.65-.92V16.06c0-.62.31-.92.92-.92h11.55c.61,0,.92.31.92.92v54.72c0,1.23-.25,2.47-.74,3.7-.49,1.23-1.16,2.37-1.99,3.42-.83,1.05-1.82,1.89-2.96,2.54-1.14.65-2.36.97-3.65.97h-8.5c-.74,0-1.52-.2-2.36-.6-.83-.4-1.62-.92-2.36-1.57s-1.39-1.37-1.94-2.17c-.55-.8-.96-1.63-1.2-2.5l-12.48-45.94c-.18-.55-.46-.83-.83-.83-.43,0-.65.28-.65.83v51.85c0,.62-.31.92-.92.92h-11.55c-.62,0-.92-.31-.92-.92V28.72Z"/>
    <path class="st0" d="M494.94,80.48V16.06c0-.62.31-.92.92-.92h31.52c3.51,0,6.55.68,9.1,2.03,2.56,1.36,4.67,3.11,6.33,5.27,1.66,2.16,2.88,4.62,3.65,7.39.77,2.77,1.16,5.58,1.16,8.41v22.18c0,2.4-.39,4.85-1.16,7.35-.77,2.5-1.99,4.76-3.65,6.79-1.66,2.03-3.76,3.68-6.29,4.94-2.53,1.26-5.54,1.9-9.06,1.9h-31.61c-.62,0-.92-.31-.92-.92ZM508.34,68.46c0,.62.31.92.92.92h16.54c.99,0,1.99-.26,3-.79,1.02-.52,1.93-1.2,2.73-2.03.8-.83,1.45-1.76,1.94-2.77.49-1.02.74-2.05.74-3.1v-24.59c0-1.11-.28-2.2-.83-3.28-.55-1.08-1.26-2.03-2.12-2.87-.86-.83-1.83-1.51-2.91-2.03-1.08-.52-2.17-.79-3.28-.79h-15.8c-.62,0-.92.31-.92.92v40.39Z"/>
  </g>
</svg>