<?xml version="1.0" encoding="UTF-8"?>
<svg id="Layer_1" xmlns="http://www.w3.org/2000/svg" version="1.1" viewBox="0 0 1424.14 518.46">
  <!-- Generator: Adobe Illustrator 30.1.0, SVG Export Plug-In . SVG Version: 2.1.1 Build 136)  -->
  <defs>
    <style>
      .st0 {
        fill: #2387bf;
      }
    </style>
  </defs>
  <path class="st0" d="M0,404.57c0-12.77,1.99-24.95,5.97-36.52,3.98-11.57,9.76-21.75,17.35-30.55,7.59-8.8,16.81-15.78,27.66-20.97,10.85-5.18,23.01-7.77,36.52-7.77,10.12,0,19.88,1.75,29.29,5.24,9.4,3.5,17.72,8.38,24.95,14.64,7.23,6.27,12.95,13.74,17.17,22.42,4.21,8.68,6.33,18.08,6.33,28.2,0,11.57-2.66,20.79-7.95,27.66-5.3,6.87-12.06,12.11-20.25,15.73-8.2,3.62-17.24,5.91-27.12,6.87-9.89.97-19.41,1.45-28.56,1.45,2.65-1.45,6.02-3.07,10.12-4.88,4.1-1.81,8.01-4.16,11.75-7.05,3.73-2.89,6.99-6.69,9.76-11.39,2.77-4.7,4.16-10.67,4.16-17.9,0-6.02-.97-11.75-2.89-17.17-1.93-5.42-4.64-10.18-8.13-14.28-3.5-4.1-7.59-7.29-12.29-9.58-4.7-2.29-9.82-3.44-15.37-3.44-7.95,0-14.89,1.75-20.79,5.24-5.91,3.5-10.85,8.02-14.82,13.56-3.98,5.55-6.93,11.88-8.86,18.98-1.93,7.11-2.89,14.28-2.89,21.51,0,15.18,3.19,28.38,9.58,39.59,6.38,11.21,14.7,20.49,24.95,27.84,10.24,7.36,21.93,12.83,35.07,16.45,13.13,3.62,26.45,5.42,39.95,5.42,14.7,0,28.74-2.11,42.12-6.33,13.38-4.21,25.18-10.42,35.43-18.62,10.24-8.19,18.44-18.31,24.58-30.37,6.15-12.05,9.22-25.91,9.22-41.58,0-13.02-2.77-24.22-8.32-33.62-5.55-9.4-12.83-17.59-21.87-24.59-9.04-6.99-19.34-13.25-30.91-18.8-11.57-5.54-23.44-10.97-35.61-16.27-12.17-5.3-24.04-10.9-35.61-16.81-11.57-5.9-21.87-12.83-30.91-20.79-9.04-7.95-16.33-17.23-21.87-27.84-5.55-10.6-8.32-23.38-8.32-38.32,0-13.98,3.25-27.42,9.76-40.31,6.51-12.89,15-24.34,25.49-34.35,10.48-10,22.29-17.95,35.43-23.86,13.13-5.9,26.33-8.86,39.59-8.86,12.29,0,23.01,2.11,32.18,6.33,9.16,4.22,17.47,8.8,24.95,13.74,7.47,4.94,14.58,9.52,21.33,13.74,6.75,4.22,13.98,6.33,21.69,6.33,4.82,0,8.73-.6,11.75-1.81,3.01-1.2,5.6-2.77,7.77-4.7,2.17-1.93,4.21-4.03,6.15-6.33,1.93-2.29,4.21-4.39,6.87-6.33l3.62-1.45c1.93,0,2.89.97,2.89,2.89-.72,7.95-2.05,16.39-3.98,25.31-1.93,8.92-4.88,17.05-8.86,24.4-3.98,7.36-9.28,13.5-15.91,18.44-6.63,4.94-15,7.41-25.13,7.41-8.44,0-16.03-1.56-22.78-4.7-6.75-3.13-13.08-7.11-18.98-11.93-5.91-4.82-11.63-10-17.17-15.55-5.55-5.54-11.21-10.72-16.99-15.55-5.79-4.82-11.99-8.8-18.62-11.93-6.63-3.13-13.92-4.7-21.87-4.7-5.06,0-10.3,1.15-15.73,3.43-5.42,2.29-10.37,5.42-14.82,9.4-4.46,3.98-8.13,8.68-11.03,14.1s-4.34,11.15-4.34,17.17c0,7.23,2.59,13.98,7.77,20.25,5.18,6.27,11.81,11.99,19.89,17.17,8.07,5.19,17.05,9.82,26.94,13.92,9.88,4.1,19.52,7.77,28.92,11.03s17.95,6.03,25.67,8.32c7.71,2.29,13.5,4.16,17.35,5.6,25.55,10.61,45.19,26.03,58.93,46.28,13.74,20.25,21.57,44.35,23.5,72.31h13.38c1.45,0,3.13-.6,5.06-1.81,1.93-1.2,2.89-2.53,2.89-3.98v-149.68c-1.21-1.2-3.38-2.41-6.51-3.62-3.14-1.2-7.11-2.41-11.93-3.62l-.72-6.15c8.91,0,18.62-1.86,29.1-5.6,10.49-3.73,20.07-9.46,28.74-17.17h3.62c1.2,1.45,2.11,4.46,2.71,9.04.6,4.58.9,8.92.9,13.02v59.29c4.82-2.89,9.28-5.48,13.38-7.77,4.1-2.29,8.13-4.21,12.11-5.79,3.98-1.56,8.07-2.77,12.29-3.62,4.21-.84,8.86-1.27,13.92-1.27,11.33,0,19.89,2.23,25.67,6.69,5.79,4.46,8.68,10.07,8.68,16.81v96.17c0,1.93.54,3.62,1.63,5.06,1.08,1.45,2.41,2.71,3.98,3.8,1.57,1.08,3.13,2.05,4.7,2.89,1.56.85,2.83,1.39,3.8,1.63v5.42h-75.56v-5.42c.96-.24,2.41-.78,4.34-1.63,1.93-.84,3.73-1.81,5.42-2.89,1.68-1.08,3.19-2.17,4.52-3.25,1.32-1.08,1.99-2.11,1.99-3.07v-66.16c0-4.82-.12-9.34-.36-13.56-.24-4.21-.79-7.95-1.63-11.21-.85-3.25-2.17-5.84-3.98-7.77-1.81-1.93-4.28-2.89-7.41-2.89-5.79,0-10.49,1.08-14.1,3.25-3.62,2.17-6.39,4.7-8.32,7.59-1.93,2.89-3.25,5.73-3.98,8.5-.72,2.77-1.08,4.76-1.08,5.97v77.01c0,1.93.54,3.5,1.63,4.7,1.08,1.21,2.41,2.17,3.98,2.89,1.57.72,3.07,1.27,4.52,1.63s2.53.67,3.25.9v5.42h-80.62c0,23.62-4.46,44.35-13.38,62.19-8.92,17.84-20.61,32.78-35.07,44.83-14.46,12.06-30.97,21.15-49.53,27.3-18.56,6.15-37.48,9.22-56.76,9.22-16.63,0-33.62-2.41-50.98-7.23-17.35-4.82-33.08-11.99-47.18-21.51-14.1-9.52-25.61-21.39-34.53-35.61-8.92-14.22-13.38-30.73-13.38-49.53ZM390.11,196.32c4.09-.72,8.25-1.81,12.47-3.25,4.21-1.45,6.33-4.1,6.33-7.95,0-1.2-.06-2.41-.18-3.62-.12-1.2-.54-2.17-1.27-2.89l-45.19-122.2c-3.38-8.43-6.87-14.88-10.49-19.34-3.62-4.46-10-6.69-19.16-6.69v-7.95h103.4v6.51c-8.44.49-14.7,1.63-18.8,3.44-4.1,1.81-6.15,6.09-6.15,12.83,0,2.41.66,5.97,1.99,10.67,1.32,4.7,3.01,10,5.06,15.91,2.04,5.91,4.4,12.17,7.05,18.8,2.65,6.63,5.3,13.14,7.96,19.52,2.65,6.39,5.3,12.47,7.95,18.26,2.65,5.79,4.94,10.73,6.87,14.82,1.45,3.38,2.77,6.03,3.98,7.95,1.2,1.93,2.17,2.89,2.89,2.89,1.2,0,2.17-1.2,2.89-3.62l24.22-58.57-13.74-48.81c-.49-1.68-.97-3.37-1.45-5.06-.49-1.68-1.33-3.19-2.53-4.52-1.21-1.32-2.84-2.41-4.88-3.25-2.05-.84-4.88-1.27-8.5-1.27v-6.51h92.56v6.51c-1.93,0-4.34.42-7.23,1.27-2.89.85-5.55,2.05-7.95,3.62-2.41,1.57-4.34,3.32-5.79,5.24-1.45,1.93-1.81,3.98-1.08,6.15l28.92,94.73c1.2,1.93,1.99,3.56,2.35,4.88.36,1.33,1.27,1.99,2.71,1.99,1.2,0,2.29-.12,3.25-.36.96-.24,1.68-1.08,2.17-2.53l18.08-40.49c2.17-5.06,4.39-10.06,6.69-15,2.29-4.94,4.28-9.4,5.97-13.38,1.68-3.98,3.13-7.23,4.34-9.76,1.2-2.53,1.81-4.03,1.81-4.52.72-1.93,1.14-3.49,1.26-4.7.12-1.2.18-2.77.18-4.7,0-.96-.42-2.41-1.27-4.34-.85-1.93-2.11-3.8-3.8-5.6-1.69-1.81-3.62-3.43-5.78-4.88-2.17-1.45-4.7-2.17-7.59-2.17-3.14,0-5.67.97-7.59,2.89-1.93,1.93-4.34,4.34-7.23,7.23l-2.17,2.17c-.49,0-.72-.24-.72-.72v-1.45c0-4.34.42-8.62,1.27-12.83.84-4.21,2.29-8.07,4.34-11.57,2.04-3.49,4.7-6.33,7.95-8.5,3.25-2.17,7.29-3.25,12.11-3.25,6.75,0,13.61,1.33,20.61,3.98,6.99,2.66,13.98,3.98,20.97,3.98,2.89,0,5.79-.6,8.68-1.81,2.89-1.2,5.66-2.53,8.32-3.98,1.45,0,2.17,1.21,2.17,3.62,0,.72-.12,1.45-.36,2.17-.24.72-.36,1.33-.36,1.81-2.17,6.99-4.94,12.17-8.32,15.55-3.38,3.38-6.87,6.15-10.48,8.32-3.62,2.17-7.05,4.22-10.3,6.15-3.25,1.93-5.85,4.94-7.77,9.04l-48.09,116.42c-.49.49-.72,1.08-.72,1.81v1.81c0,2.17.78,4.28,2.35,6.33,1.57,2.05,3.37,3.92,5.42,5.6,2.04,1.69,4.16,3.2,6.33,4.52,2.17,1.33,3.85,2.23,5.06,2.71v6.15h-88.22v-6.15c3.85-.72,7.41-2.53,10.67-5.42,3.25-2.89,4.88-6.02,4.88-9.4l-18.44-64.36h-5.79l-21.69,47.36c-1.21,2.66-2.23,5.06-3.07,7.23-.85,2.17-1.27,4.22-1.27,6.15,0,2.65.84,5.12,2.53,7.41,1.68,2.29,3.62,4.22,5.79,5.79,2.17,1.57,4.16,2.84,5.97,3.8,1.81.97,2.95,1.45,3.43,1.45v6.15h-86.77v-6.15ZM639.94,285.26c-1.93-4.1-3.68-6.87-5.24-8.32-1.57-1.45-3.07-2.17-4.52-2.17-.49,0-1.87.49-4.16,1.45-2.29.97-3.92,1.69-4.88,2.17,0,1.21.78,3.62,2.35,7.23,1.56,3.62,2.35,8.2,2.35,13.74,0,12.29-2.77,23.26-8.32,32.9-5.55,9.64-12.9,17.84-22.05,24.59-9.16,6.75-19.59,11.93-31.27,15.55-11.69,3.62-23.56,5.42-35.61,5.42-9.4,0-17.6-2.04-24.58-6.15-6.99-4.1-12.78-9.28-17.35-15.55-4.58-6.26-8.02-13.07-10.3-20.43-2.29-7.35-3.56-14.28-3.8-20.79.24-12.29,3.01-23.26,8.32-32.9,5.3-9.64,12.11-17.83,20.43-24.59,8.32-6.75,17.65-11.93,28.02-15.55,10.36-3.62,20.85-5.42,31.46-5.42,6.99.49,13.02,1.45,18.08,2.89s9.58,3.38,13.56,5.79c3.98,2.41,7.77,5.42,11.39,9.04s7.47,7.84,11.57,12.65l45.92-31.09h5.06l37.96,82.07c.72,1.45,1.45,2.89,2.17,4.34.72,1.45,1.68,2.17,2.89,2.17s2.29-1.02,3.25-3.07c.96-2.04,1.93-4.16,2.89-6.33l10.12-28.92c0-6.99-2.23-11.93-6.69-14.82-4.46-2.89-9.34-4.34-14.64-4.34l-2.89-5.42,45.92-25.67h3.62l41.58,85.69c3.85-4.82,7.23-10,10.12-15.55,2.65-4.58,5.06-9.76,7.23-15.55,2.17-5.79,3.25-11.69,3.25-17.72,0-4.58-1.33-8.32-3.98-11.21-2.66-2.89-6.27-4.34-10.85-4.34-2.65,0-5.19.24-7.59.72-2.41.49-5.06,1.69-7.95,3.62,0-7.71,2.41-14.16,7.23-19.34,4.82-5.18,13.02-7.77,24.59-7.77,4.1,0,8.25.72,12.47,2.17,4.21,1.45,9.46,2.17,15.73,2.17,2.17,0,4.88-.48,8.13-1.45,3.25-.96,5.24-1.45,5.97-1.45s1.5.18,2.35.54c.84.36,1.26,1.15,1.26,2.35,0,3.38-1.33,6.45-3.98,9.22-2.66,2.77-5.73,5.49-9.22,8.13-3.5,2.66-6.93,5.49-10.3,8.5-3.38,3.02-5.91,6.45-7.59,10.3l-33.99,81.35c-.49,1.45-1.51,3.86-3.07,7.23-1.57,3.38-3.32,6.69-5.24,9.94-1.93,3.25-4.1,6.15-6.51,8.68-2.41,2.53-4.7,3.8-6.87,3.8h-2.89l-34.71-80.63-31.82,66.53c-1.93,4.1-3.74,7.23-5.42,9.4-1.69,2.17-3.13,3.25-4.34,3.25h-3.62l-50.98-99.06ZM510.87,285.26c0,4.58,1.32,10.97,3.98,19.16,2.65,8.2,6.15,16.33,10.48,24.4,4.34,8.08,9.34,15.07,15,20.97,5.66,5.91,11.63,8.86,17.9,8.86,8.43,0,15.12-2.71,20.07-8.13,4.94-5.42,7.41-12.59,7.41-21.51,0-5.3-1.08-12.11-3.25-20.43-2.17-8.32-5.37-16.45-9.58-24.4-4.22-7.95-9.46-14.82-15.73-20.61-6.27-5.78-13.5-8.68-21.69-8.68-7.47,0-13.44,2.95-17.9,8.86-4.46,5.91-6.69,13.08-6.69,21.51ZM740.45,91.11c3.85-2.17,8.37-4.94,13.56-8.32,5.18-3.37,10.24-6.63,15.18-9.76,4.94-3.13,9.4-5.84,13.38-8.14,3.98-2.29,6.69-3.43,8.13-3.43,2.65,0,4.76.97,6.33,2.89,1.56,1.93,3.01,3.98,4.34,6.15,1.32,2.17,2.77,4.22,4.34,6.15,1.56,1.93,3.55,2.89,5.97,2.89s4.46-1.02,6.15-3.07c1.68-2.04,3.43-4.34,5.24-6.87s3.8-4.88,5.97-7.05c2.17-2.17,4.94-3.25,8.32-3.25,2.89,0,5.42.54,7.59,1.63,2.17,1.08,4.28,2.29,6.33,3.62,2.04,1.33,4.16,2.53,6.33,3.62s4.58,1.63,7.23,1.63,5.48-.96,8.5-2.89c3.01-1.93,5.6-2.89,7.77-2.89-1.45,2.17-2.17,5.06-2.17,8.68v11.93c0,5.3-2.05,9.71-6.15,13.2-4.1,3.5-8.92,5.24-14.46,5.24-2.41,0-4.58-.72-6.51-2.17-1.93-1.45-3.92-3.07-5.97-4.88-2.05-1.81-4.28-3.43-6.69-4.88-2.41-1.45-5.42-2.17-9.04-2.17-4.1,0-6.75,1.45-7.95,4.34-1.21,2.89-1.81,6.39-1.81,10.48v77.73c0,2.89,1.02,5.12,3.07,6.69,2.04,1.57,4.28,2.95,6.69,4.16,2.41,1.21,4.64,2.47,6.69,3.8,2.04,1.33,3.07,3.43,3.07,6.33h-83.16c0-2.89,1.02-5,3.07-6.33,2.04-1.32,4.28-2.59,6.69-3.8,2.41-1.2,4.64-2.59,6.69-4.16,2.04-1.56,3.07-3.8,3.07-6.69v-78.46c0-3.37-1.63-6.33-4.88-8.86-3.25-2.53-6.57-3.8-9.94-3.8-3.13.72-6.51,2.17-10.12,4.34-3.62,2.17-6.03,3.25-7.23,3.25,1.2,1.93,2.65,5.6,4.34,11.03,1.68,5.42,2.53,10.91,2.53,16.45,0,12.29-2.84,23.32-8.5,33.08-5.67,9.76-12.9,18.08-21.69,24.95-8.8,6.87-18.5,12.11-29.1,15.73-10.61,3.62-20.97,5.42-31.09,5.42-8.68,0-16.81-1.45-24.4-4.34-7.59-2.89-14.28-7.05-20.07-12.47-5.78-5.42-10.3-11.81-13.56-19.16-3.25-7.35-4.88-15.6-4.88-24.77,0-10.85,2.23-21.09,6.69-30.73,4.46-9.64,10.72-18.08,18.8-25.31,8.07-7.23,17.77-13.02,29.1-17.35,11.33-4.34,23.74-6.51,37.24-6.51,11.57,0,21.39,2.41,29.47,7.23,8.07,4.82,15.24,11.45,21.51,19.89ZM638.5,109.91c0,5.3,1.14,12.24,3.43,20.79,2.29,8.56,5.66,16.87,10.12,24.95,4.46,8.08,9.82,15,16.09,20.79,6.26,5.78,13.38,8.68,21.33,8.68,4.82,0,8.86-.9,12.11-2.71,3.25-1.81,5.84-4.21,7.77-7.23,1.93-3.01,3.31-6.38,4.16-10.12.84-3.73,1.27-7.41,1.27-11.03,0-4.82-1.21-11.33-3.62-19.52-2.41-8.19-5.79-16.27-10.12-24.22-4.34-7.95-9.58-14.82-15.73-20.61-6.15-5.78-12.96-8.68-20.43-8.68-8.92,0-15.55,2.95-19.89,8.86-4.34,5.91-6.51,12.6-6.51,20.07ZM841.33,318.53c0-10.85,2.41-21.39,7.23-31.64,4.82-10.24,11.15-19.34,18.98-27.3,7.83-7.95,16.81-14.28,26.94-18.98,10.12-4.7,20.48-7.05,31.09-7.05,4.1,0,7.89.54,11.39,1.63,3.49,1.08,6.87,2.23,10.12,3.44,3.25,1.21,6.51,2.35,9.76,3.43,3.25,1.08,6.69,1.63,10.3,1.63,2.89,0,5.79-1.2,8.68-3.62,2.89-2.41,5.42-3.62,7.59-3.62,1.45,0,2.17.72,2.17,2.17,0,4.1-.67,8.26-1.99,12.47-1.33,4.22-3.14,8.02-5.42,11.39-2.29,3.38-5.12,6.15-8.5,8.32-3.38,2.17-7.23,3.25-11.57,3.25-5.3,0-9.89-1.2-13.74-3.62-3.86-2.41-7.54-5.12-11.03-8.14-3.5-3.01-7.17-5.72-11.03-8.13-3.86-2.41-8.44-3.62-13.74-3.62s-9.22,1.03-12.47,3.07c-3.25,2.05-5.91,4.76-7.95,8.13-2.05,3.38-3.5,7.17-4.34,11.39-.85,4.22-1.27,8.5-1.27,12.83,0,8.44,1.32,16.33,3.98,23.68,2.65,7.36,6.45,13.86,11.39,19.52,4.94,5.67,10.9,10.12,17.9,13.38,6.99,3.25,14.7,4.88,23.14,4.88,9.88,0,17.9-1.63,24.04-4.88,6.15-3.25,12.71-8.73,19.7-16.45.48-.72,1.2-1.08,2.17-1.08s1.45.6,1.45,1.81c0,1.93-.67,4.1-1.99,6.51-1.33,2.41-2.59,4.58-3.8,6.51-4.34,7.23-9.46,13.26-15.37,18.08-5.91,4.83-12.11,8.74-18.62,11.75-6.51,3.02-13.14,5.12-19.88,6.33-6.75,1.21-13.26,1.81-19.52,1.81-9.16,0-17.72-1.45-25.67-4.34-7.95-2.89-14.88-6.93-20.79-12.11-5.91-5.18-10.61-11.39-14.1-18.62-3.5-7.23-5.24-15.3-5.24-24.22ZM871.7,27.48c10.12-4.1,19.22-8.07,27.3-11.93,8.07-3.85,15.96-8.19,23.68-13.02h4.34c0,2.41.48,4.88,1.45,7.41.96,2.53,1.99,5.37,3.07,8.5,1.08,3.14,2.11,6.57,3.07,10.3.96,3.74,1.45,8.02,1.45,12.83v142.81c0,1.45.9,2.71,2.71,3.8,1.81,1.08,3.85,2.23,6.15,3.43,2.29,1.21,4.34,2.59,6.15,4.16,1.81,1.57,2.71,3.8,2.71,6.69h-81.35c0-2.89.9-5.12,2.71-6.69,1.81-1.57,3.85-2.95,6.15-4.16,2.29-1.2,4.34-2.35,6.15-3.43s2.71-2.35,2.71-3.8V37.24c0-2.17-.79-3.92-2.35-5.24-1.57-1.32-3.32-2.35-5.24-3.07-1.93-.72-3.98-1.14-6.15-1.27-2.17-.12-3.74-.18-4.7-.18ZM1049.94,185.11c-1.93,0-4.16,1.03-6.69,3.07-2.53,2.05-5.49,4.28-8.86,6.69-3.38,2.41-7.23,4.64-11.57,6.69-4.34,2.05-9.04,3.07-14.1,3.07-7.72,0-14.77-1.93-21.15-5.78-6.39-3.85-11.81-8.86-16.27-15-4.46-6.15-7.9-13.07-10.3-20.79-2.41-7.71-3.62-15.42-3.62-23.14,0-12.29,1.75-23.38,5.24-33.26,3.49-9.88,8.5-18.2,15-24.95,6.51-6.75,14.28-11.93,23.32-15.55,9.04-3.62,18.98-5.42,29.83-5.42,1.93,0,3.92.12,5.97.36,2.04.24,4.03.36,5.97.36,1.45,0,2.53-.06,3.25-.18.72-.12,1.08-.78,1.08-1.99v-10.85c0-7.47-1.15-13.2-3.43-17.17-2.29-3.98-7.54-5.97-15.73-5.97v-3.62c2.89,0,6.99-1.14,12.29-3.43,5.3-2.29,10.6-4.76,15.91-7.41,5.3-2.65,10.06-5.12,14.28-7.41,4.21-2.29,6.81-3.43,7.77-3.43h5.78c0,4.1.9,8.32,2.71,12.65,1.81,4.34,2.71,8.56,2.71,12.65v148.96c0,3.62,2.04,7.11,6.15,10.49,4.1,3.38,8.91,5.3,14.46,5.78v5.79c-2.89,0-6.27.24-10.12.72-3.86.49-7.59,1.08-11.21,1.81-3.62.72-6.87,1.63-9.76,2.71-2.89,1.08-4.82,2.35-5.78,3.8h-9.04c-2.17-.48-4.04-2.47-5.6-5.97-1.57-3.49-4.4-8.25-8.5-14.28ZM1008,274.06c2.41-3.13,4.58-6.87,6.51-11.21,1.93-4.34,3.67-8.55,5.24-12.65,1.57-4.1,2.77-7.71,3.62-10.85.84-3.13,1.38-5.06,1.63-5.79h4.34c1.68,3.38,5.42,5.06,11.21,5.06,3.62,0,7.71-.42,12.29-1.27,4.58-.84,9.4-1.81,14.46-2.89s10-2.04,14.82-2.89c4.82-.84,9.16-1.27,13.02-1.27,8.43,0,15.6,1.87,21.51,5.6,5.9,3.74,8.86,10.79,8.86,21.15v89.66c0,4.34.66,7.54,1.99,9.58,1.32,2.05,3.01,3.56,5.06,4.52,2.04.97,4.1,1.57,6.15,1.81,2.04.24,3.8.6,5.24,1.08v4.34c-3.86,0-7.77.42-11.75,1.27-3.98.85-7.84,1.69-11.57,2.53-3.74.85-7.29,1.69-10.67,2.53-3.38.85-6.51,1.26-9.4,1.26-3.86,0-6.57-1.02-8.13-3.07-1.57-2.05-2.84-4.34-3.8-6.87-.97-2.53-1.87-4.88-2.71-7.05-.85-2.17-2.47-3.25-4.88-3.25-1.45,0-3.74,1.08-6.87,3.25-3.13,2.17-6.93,4.52-11.39,7.05-4.46,2.53-9.4,4.82-14.82,6.87-5.42,2.05-11.15,3.07-17.17,3.07-9.64,0-18.08-3.07-25.31-9.22-7.23-6.15-10.85-14.4-10.85-24.77s1.81-20.18,5.42-28.02c3.62-7.83,8.5-14.28,14.64-19.34,6.15-5.06,13.43-8.92,21.87-11.57,8.43-2.65,17.59-4.34,27.48-5.06,4.58,0,7.95.42,10.12,1.27,2.17.85,4.7,1.27,7.59,1.27v-9.04c0-6.99-1.93-11.57-5.79-13.74-3.86-2.17-8.8-3.25-14.82-3.25-4.34,0-8.98.67-13.92,1.99-4.94,1.33-9.64,3.02-14.1,5.06-4.46,2.05-8.44,4.34-11.93,6.87-3.5,2.53-5.73,5-6.69,7.41l-6.51-1.45ZM1026.44,73.39c-3.13,0-6.33.79-9.58,2.35-3.25,1.57-6.15,3.5-8.68,5.78-2.53,2.29-4.58,4.88-6.15,7.77-1.57,2.89-2.35,5.79-2.35,8.68v50.98c0,2.89.78,6.15,2.35,9.76,1.57,3.62,3.62,6.93,6.15,9.94,2.53,3.02,5.36,5.55,8.5,7.59,3.13,2.05,6.15,3.07,9.04,3.07s6.45-.9,10.67-2.71c4.21-1.81,7.29-4.64,9.22-8.5v-58.21c0-4.1-.12-8.32-.36-12.65-.24-4.34-.97-8.25-2.17-11.75-1.21-3.49-3.07-6.38-5.6-8.68-2.53-2.29-6.21-3.43-11.03-3.43ZM1039.09,324.31c0,6.03,1.93,11.27,5.79,15.73,3.85,4.46,8.8,6.69,14.82,6.69,5.06,0,8.98-.9,11.75-2.71,2.77-1.81,4.88-4.16,6.33-7.05,1.45-2.89,2.35-6.26,2.71-10.12.36-3.85.54-7.83.54-11.93v-16.99c-1.45-2.41-3.74-4.52-6.87-6.33-3.13-1.81-6.03-2.71-8.68-2.71-4.34,0-8.13,1.15-11.39,3.43-3.25,2.29-5.97,5.12-8.13,8.5-2.17,3.38-3.86,7.17-5.06,11.39-1.21,4.22-1.81,8.26-1.81,12.11ZM1156.6,319.97c1.68,3.62,4.4,7.59,8.13,11.93,3.73,4.34,8.13,8.38,13.2,12.11,5.06,3.74,10.6,6.87,16.63,9.4,6.02,2.53,12.17,3.8,18.44,3.8,2.89,0,5.97-.18,9.22-.54,3.25-.36,6.26-1.2,9.04-2.53,2.77-1.32,5-3.13,6.69-5.42,1.68-2.29,2.53-5.24,2.53-8.86,0-4.58-2.35-8.19-7.05-10.85-4.7-2.65-10.55-4.88-17.54-6.69-6.99-1.81-14.64-3.49-22.96-5.06-8.32-1.57-15.97-3.73-22.96-6.51-6.99-2.77-12.83-6.45-17.54-11.03-4.7-4.58-7.05-10.6-7.05-18.08,0-8.43,1.38-15.91,4.16-22.42,2.77-6.51,6.56-12.05,11.39-16.63,4.82-4.58,10.54-8.01,17.17-10.3,6.63-2.29,13.79-3.44,21.51-3.44,4.34,0,8.55.6,12.65,1.81,4.1,1.21,8.13,2.47,12.11,3.8,3.98,1.33,8.01,2.59,12.11,3.8,4.1,1.21,8.32,1.81,12.65,1.81,3.13,0,6.45-1.08,9.94-3.25,3.49-2.17,6.56-3.25,9.22-3.25,1.2,0,1.81.72,1.81,2.17,0,3.86-.54,7.72-1.63,11.57-1.08,3.86-2.71,7.36-4.88,10.49-2.17,3.13-4.88,5.67-8.13,7.59-3.25,1.93-7.05,2.89-11.39,2.89-6.99,0-12.54-1.32-16.63-3.98-4.1-2.65-7.9-5.54-11.39-8.68-3.5-3.13-7.17-6.02-11.03-8.68-3.86-2.65-8.92-3.98-15.18-3.98h-2.89c-4.82,0-8.98,1.69-12.47,5.06-3.5,3.38-5.24,7.59-5.24,12.65,0,5.55,2.47,9.58,7.41,12.11,4.94,2.53,11.15,4.52,18.62,5.97,7.47,1.45,15.6,2.77,24.41,3.98,8.79,1.21,16.93,3.14,24.4,5.79,7.47,2.66,13.68,6.45,18.62,11.39,4.94,4.94,7.41,11.88,7.41,20.79,0,9.64-2.11,17.96-6.33,24.95-4.22,6.99-9.64,12.78-16.27,17.35-6.63,4.58-14.04,7.95-22.24,10.12-8.2,2.17-16.27,3.25-24.22,3.25-4.82,0-10.67-.66-17.54-1.99-6.87-1.32-13.5-3.37-19.89-6.15-6.39-2.77-11.87-6.2-16.45-10.3-4.58-4.1-6.87-9.04-6.87-14.82,0-4.58,1.81-8.91,5.42-13.02,3.62-4.1,7.23-7.47,10.85-10.12ZM1283.14,312.02c0-10.85,1.93-20.97,5.79-30.37,3.85-9.4,9.09-17.59,15.73-24.59,6.63-6.99,14.4-12.53,23.32-16.63,8.92-4.1,18.44-6.15,28.56-6.15,6.75,0,13.62,1.08,20.61,3.25,6.99,2.17,13.38,5.12,19.16,8.86,5.79,3.74,10.49,8.08,14.1,13.02,3.62,4.94,5.42,10.07,5.42,15.37-13.98,10.12-26.52,19.16-37.6,27.12-4.82,3.38-9.46,6.75-13.92,10.12-4.46,3.38-8.44,6.33-11.93,8.86-3.5,2.53-7.54,5.49-12.11,8.86,0,3.38,1.02,6.09,3.07,8.13,2.04,2.05,4.58,3.68,7.59,4.88,3.01,1.21,6.2,2.05,9.58,2.53,3.37.49,6.26.72,8.68.72,10.85,0,20.67-2.53,29.47-7.59,8.8-5.06,16.69-10.72,23.68-16.99,1.2,0,1.81.49,1.81,1.45-4.1,9.4-9.34,17.48-15.73,24.22-6.39,6.75-13.2,12.29-20.43,16.63s-14.41,7.54-21.51,9.58c-7.11,2.05-13.56,3.07-19.34,3.07-8.68,0-16.94-1.56-24.77-4.7-7.84-3.13-14.64-7.59-20.43-13.38-5.79-5.79-10.37-12.59-13.74-20.43-3.38-7.83-5.06-16.45-5.06-25.85ZM1312.06,281.65c0,4.34.72,8.62,2.17,12.83,1.45,4.22,3.13,8.08,5.06,11.57,1.93,3.5,3.98,6.33,6.15,8.5,2.17,2.17,3.85,3.25,5.06,3.25s2.29-.24,3.25-.72c4.82-3.13,9.58-6.38,14.28-9.76,4.7-3.37,8.86-6.56,12.47-9.58,3.62-3.01,6.56-5.6,8.86-7.77,2.29-2.17,3.43-3.73,3.43-4.7,0-4.1-1.21-8.01-3.62-11.75-2.41-3.73-5.42-7.05-9.04-9.94-3.62-2.89-7.54-5.18-11.75-6.87-4.22-1.68-8.13-2.53-11.75-2.53-4.82,0-8.8.85-11.93,2.53-3.13,1.69-5.67,3.92-7.59,6.69-1.93,2.77-3.25,5.79-3.98,9.04-.72,3.25-1.08,6.33-1.08,9.22Z"/>
</svg>