<?xml version="1.0" encoding="UTF-8"?>
<svg id="Layer_1" data-name="Layer 1" xmlns="http://www.w3.org/2000/svg" viewBox="0 0 45.43 20.65">
  <defs>
    <style>
      .cls-1 {
        fill: #231f20;
      }
    </style>
  </defs>
  <path class="cls-1" d="M1.86,3.19c0-.19.03-.38.09-.56s.15-.35.26-.49.26-.26.42-.35.35-.13.56-.13h2.28c.18,0,.34.07.5.22s.27.3.35.47l.02-.72h1.69v6.1l-1.76.08v-1.37c0-.25-.09-.44-.26-.58s-.39-.21-.63-.21c-.1,0-.21.01-.32.04s-.2.06-.29.12-.15.13-.21.22-.08.2-.08.32v6.16c0,.18.06.34.19.46s.28.19.48.19h.18c.06,0,.14,0,.24-.01s.21-.03.3-.08.19-.11.26-.19.11-.2.11-.34v-2.8l1.67-.13v6.62c0,.07,0,.17-.02.28s-.05.24-.11.36-.15.25-.27.36-.29.2-.51.26l-3.97,1.15s-.06.01-.1.02-.07,0-.11,0c-.09,0-.19,0-.3-.03s-.22-.07-.32-.14-.18-.18-.25-.31-.1-.31-.1-.54V3.19ZM8.32,12.41s.06,0,.12-.01.12-.03.18-.07.12-.09.18-.17.1-.19.12-.32l.94-5.56s.01-.06.02-.1,0-.07,0-.11c0-.1-.04-.21-.11-.35s-.24-.24-.48-.32V1.64h5.46v3.52c-.08,0-.16.02-.24.05s-.15.08-.21.14-.11.12-.14.2-.05.15-.03.23l.84,5.27c.02.1.09.19.21.29s.26.15.41.15c.14,0,.26-.06.38-.17s.17-.31.17-.59v-4.93c0-.19-.06-.34-.19-.44s-.29-.16-.48-.17V1.64h3.57l1.76,8.58v-4.52c0-.18-.07-.33-.22-.44s-.3-.18-.48-.21V1.64h3.2v3.42c-.2,0-.39.05-.56.16s-.29.27-.33.48v9.53h-2.88l-1.73-9.23v4.62c0,.16.05.3.14.41s.23.19.41.21v4.12c-.84.07-1.78.18-2.8.33s-2.07.33-3.14.53v-4.34c.07,0,.15-.02.22-.07s.14-.1.19-.17.09-.14.13-.22.04-.15.04-.22l-.14-1.04h-1.45l-.17,1.27c-.02.12.02.23.1.32s.18.17.29.22v4.38l-3.3.81v-4.76ZM12.66,8.81l-.51-3.57-.57,3.57h1.09ZM22.81,11.12s.09,0,.16-.01.13-.03.19-.06.13-.08.19-.15.11-.16.14-.28l.92-4.94s0-.04.01-.08.01-.08.01-.13c0-.09-.03-.18-.08-.26s-.18-.14-.38-.16V1.64h5.28v3.49c-.07,0-.15.01-.22.04s-.15.06-.21.11-.12.1-.16.17-.05.14-.04.22l.77,5.24c.02.09.08.18.19.29s.23.16.36.16c.09,0,.19-.03.3-.1s.17-.19.17-.37v-5.21c0-.14-.05-.24-.14-.32s-.22-.13-.36-.15V1.64h5.17c.17,0,.32.04.45.11s.25.18.34.3.16.27.22.42.08.31.08.47v12.06c0,.22-.04.4-.12.57s-.19.3-.32.41-.29.2-.48.25-.38.08-.59.08h-.22c-.07,0-.15,0-.23-.02-1.28-.21-2.56-.42-3.86-.63s-2.63-.36-4.01-.46v-4.1s.07,0,.14-.01.14-.03.22-.06.13-.08.19-.15.07-.16.05-.28l-.12-1.02-1.35-.05-.22.99c-.02.13,0,.25.07.37s.22.19.45.2v4.04h-2.95v-4.04ZM26.66,8.21l-.39-2.91-.57,2.91h.97ZM32.31,5.31v6.21c.16.04.32.07.5.09s.35.03.53.03c.12,0,.22-.02.29-.07s.12-.11.16-.17.05-.13.06-.2.01-.11.01-.14v-5.12c0-.16-.05-.3-.14-.43s-.22-.19-.38-.19h-1.03ZM36.37,12.06s.03.01.05.02.05,0,.09,0c.09,0,.18-.04.27-.11s.16-.24.2-.48l.79-5.01s.01-.05.02-.08,0-.07,0-.12c0-.06,0-.13-.02-.2s-.05-.14-.1-.21-.13-.13-.23-.18-.23-.09-.39-.1V1.64h5.83v4.27c-.22,0-.4.07-.54.2s-.21.31-.17.54l.77,6.06c.02.21.08.41.17.6s.24.35.45.46v5.24c-.64-.27-1.26-.52-1.87-.75s-1.25-.46-1.94-.69v-4.87h.05s.08,0,.14-.01.12-.03.17-.06.1-.08.14-.14.06-.15.05-.26l-.07-1.06-1.39-.18-.16.78v.12c0,.09.02.21.07.35s.16.27.35.36v4.84l-2.75-.77v-4.62ZM40.09,9.58l-.44-3.78-.62,3.68,1.06.1Z"/>
</svg>