<?xml version="1.0" encoding="UTF-8"?>
<svg id="Layer_1" data-name="Layer 1" xmlns="http://www.w3.org/2000/svg" viewBox="0 0 45.43 20.65">
  <defs>
    <style>
      .cls-1 {
        fill: #231f20;
      }
    </style>
  </defs>
  <path class="cls-1" d="M8.75,17.53c-.57,0-1.14-.05-1.71-.14s-1.13-.24-1.66-.43-1.03-.45-1.5-.75-.87-.67-1.21-1.08-.62-.9-.82-1.44-.3-1.15-.3-1.82v-.6c0-.47.01-.93.04-1.4s.09-.91.19-1.35.24-.86.43-1.27.44-.79.77-1.14c.54-.6,1.08-1.09,1.63-1.48s1.1-.69,1.67-.92,1.13-.38,1.71-.47,1.16-.13,1.76-.13c.27,0,.6,0,.97.02s.75.03,1.15.06.78.07,1.16.12.72.11,1.02.19.54.16.72.27.27.22.26.36l-.13.67c-.03.18-.08.39-.14.63s-.13.48-.21.71-.17.42-.27.58-.21.24-.32.24c-.08,0-.14-.05-.2-.14s-.11-.21-.16-.34-.1-.26-.16-.39-.13-.23-.22-.3c-.14-.1-.37-.2-.69-.28s-.69-.15-1.12-.2-.89-.09-1.39-.12-1.01-.04-1.51-.04c-.27,0-.55,0-.84.02s-.58.05-.87.1-.57.13-.85.22-.52.23-.74.4-.41.38-.58.63-.28.55-.34.9c-.07.41-.13.81-.17,1.2s-.06.79-.06,1.19c0,.26,0,.53.02.81s.04.56.08.83.08.53.13.78.12.47.2.65c.14.39.34.72.6,1s.54.51.86.7.66.34,1.03.45.74.2,1.12.26.75.1,1.11.12.7.02,1.01.02c.42,0,.83-.04,1.24-.12s.81-.19,1.2-.33.77-.3,1.13-.49.71-.39,1.04-.61c.03-.01.06-.03.09-.04s.06-.02.09-.02c.04,0,.07.01.1.03s.04.05.04.09c0,.09-.05.21-.15.36s-.22.31-.38.49-.32.35-.5.53-.36.35-.54.5c-.35.31-.7.58-1.05.79s-.71.39-1.09.52-.79.23-1.23.29-.93.09-1.46.09ZM16.11,9.78v-2.43c0-.23-.04-.39-.13-.48s-.18-.15-.28-.19-.2-.06-.28-.07-.13-.06-.13-.13c0-.06.04-.12.12-.17s.19-.11.31-.15.27-.09.42-.12.3-.07.44-.09.27-.05.38-.06.2-.02.25-.02c.07,0,.14,0,.22.02s.16.03.23.06.13.06.18.1.07.1.07.16c0,.01,0,.03,0,.04s0,.04,0,.06v7.29c0,.19.04.33.12.43s.17.16.27.21.19.08.27.11.12.07.12.13c0,.05-.04.1-.12.14s-.18.07-.3.09-.26.04-.4.05-.28.02-.41.03-.24,0-.34,0h-.18c-.16,0-.29,0-.41-.02s-.21-.05-.28-.11-.13-.15-.17-.27-.05-.29-.05-.5c0-.35.01-.74.04-1.18s.04-.85.04-1.24v-.38h-4.61v2.51c.01.08.03.16.04.24s.04.15.07.22.08.12.14.16.14.06.23.06h.09s.06,0,.09.02.04.04.04.08c0,.08-.07.14-.22.18s-.32.07-.51.09-.38.03-.57.04-.33,0-.41,0c-.1,0-.2,0-.31,0s-.21-.03-.3-.06-.17-.09-.22-.16-.09-.17-.09-.3c0-.07,0-.13.01-.19s.01-.13.01-.19v-6.28c0-.26-.05-.45-.15-.58s-.21-.22-.32-.29-.22-.11-.32-.14-.15-.07-.15-.13c0-.05.04-.1.12-.14s.18-.08.31-.12.26-.07.42-.1.3-.05.45-.07.29-.04.41-.05.22-.02.28-.03c.04,0,.09,0,.15,0s.11,0,.17,0c.13,0,.26.03.38.09s.18.17.18.33v3.52h4.58ZM21.98,13.66c0,.2.04.34.11.42s.15.15.23.19.16.07.23.09.11.07.11.14c0,.08-.08.14-.25.19s-.36.08-.58.1-.44.03-.65.03-.38,0-.48,0c-.07,0-.14,0-.22-.03s-.14-.05-.21-.09-.11-.1-.15-.16-.05-.14-.04-.22l.02-.65c.03-.55.04-1.08.05-1.61s.01-1.07.01-1.62c0-.17,0-.35,0-.55s0-.4,0-.61,0-.41-.01-.6-.01-.38-.02-.55l-.02-.72c0-.26-.05-.44-.12-.53s-.16-.15-.25-.18-.17-.04-.25-.04-.11-.06-.11-.16c0-.09.09-.17.26-.23s.37-.12.6-.17.44-.08.65-.1.35-.03.42-.03.15,0,.23.02.16.04.23.07.13.07.18.13.07.12.07.21c0,.03,0,.05,0,.07s0,.04,0,.06v7.15ZM23.86,7.4c0-.17-.05-.31-.14-.42s-.19-.19-.3-.26-.21-.12-.3-.15-.14-.06-.14-.08c0-.06.06-.12.18-.18s.27-.11.45-.16.37-.09.58-.12.4-.05.57-.05c.16,0,.29.03.41.08s.22.12.32.2.19.17.28.26.19.19.29.28c.25.23.47.45.67.66s.41.45.64.69c.29.31.57.6.84.88s.53.56.79.84.51.55.76.83.51.56.77.86c.02.02.04.05.07.08s.06.05.09.05c.03,0,.05-.01.06-.04s.02-.07.02-.11,0-.08,0-.13v-.43c0-.29,0-.59,0-.9s0-.63-.01-.94-.04-.61-.08-.89-.1-.54-.2-.77c-.07-.18-.17-.32-.29-.42s-.24-.17-.35-.21-.21-.08-.29-.11-.12-.06-.12-.11c.05-.08.15-.15.31-.22s.35-.13.55-.19.42-.09.64-.13.41-.05.57-.05c.14,0,.26.06.35.19s.16.29.21.5.08.44.1.71.02.54.02.82,0,.55,0,.82,0,.51,0,.73c0,.36,0,.76-.02,1.18s-.03.86-.06,1.31-.06.91-.09,1.38-.07.92-.11,1.35c-.02.07-.06.12-.13.18s-.14.08-.22.08c-.05,0-.11-.02-.18-.06s-.12-.08-.17-.14l-5.92-6.18s-.03-.04-.05-.05-.04-.02-.05-.02c-.02,0-.04,0-.05.03s-.02.04-.02.06c0,.34.01.7.03,1.08s.03.77.03,1.17c0,.2,0,.42,0,.64s0,.43,0,.6c0,.32.03.59.09.8s.14.4.23.54.2.26.31.34.21.15.31.2.17.09.23.12.09.07.09.1c0,.06-.07.11-.2.15s-.29.08-.48.11-.4.05-.62.07-.42.02-.59.02c-.19,0-.34-.03-.44-.1s-.19-.16-.24-.27-.08-.24-.1-.39-.02-.3-.02-.45c0-.5.03-1.04.09-1.61s.09-1.18.09-1.84c0-.51,0-.98-.02-1.41s-.03-.88-.05-1.34v-.07ZM34.24,10.34c.1-.17.23-.38.38-.62s.28-.5.41-.76.24-.52.33-.77.14-.46.14-.63c0-.2-.05-.36-.14-.47s-.19-.2-.31-.26-.22-.11-.31-.13-.14-.06-.14-.09c0-.07.05-.12.14-.17s.21-.09.35-.12.3-.07.47-.09.34-.04.51-.05.32-.02.46-.03.25,0,.32,0c.14,0,.27.05.37.14s.2.2.27.33.15.27.21.43.11.3.17.42c.15.38.31.77.49,1.17s.36.8.54,1.19.37.78.57,1.16.38.74.55,1.09c.21.4.41.8.61,1.21s.42.79.65,1.15.5.68.8.95.65.48,1.05.6c.05.01.12.03.2.04s.16.03.24.05.15.03.21.05.09.04.09.07c0,.1-.08.18-.25.24s-.39.11-.66.14-.57.05-.89.06-.64.01-.96.01c-.23,0-.46-.07-.66-.22s-.41-.35-.61-.61-.39-.56-.58-.9-.37-.71-.56-1.1-.38-.79-.57-1.21-.39-.82-.59-1.22h-2.07s-.11.09-.24.27-.27.4-.41.66-.27.54-.39.83-.17.55-.17.78c0,.17.04.29.13.36s.18.12.28.15.19.06.28.08.13.07.13.15c-.06.08-.16.14-.31.19s-.32.09-.5.12-.37.05-.55.06-.35.01-.48.01c-.08,0-.17,0-.28-.02s-.21-.04-.31-.07-.19-.08-.25-.15-.1-.15-.1-.25c0-.07.02-.15.07-.27s.1-.23.16-.35.12-.23.19-.34.11-.18.13-.22c.02-.05.06-.12.11-.23s.12-.24.19-.38.15-.29.22-.43.15-.29.21-.42.12-.23.16-.32l.07-.15-.13-.05c-.08-.03-.18-.08-.29-.16s-.23-.17-.34-.27-.2-.2-.28-.3-.13-.19-.14-.26c-.01-.05-.02-.14-.03-.25s.02-.25.09-.4l1.58.57ZM36.97,10.34s.04,0,.07,0,.04-.01.04-.03c0-.03,0-.05-.01-.07s-.02-.04-.03-.06l-.59-1.38s-.03-.04-.04-.07-.03-.04-.05-.04-.05.04-.09.11-.08.17-.13.28-.09.24-.14.38-.09.27-.14.39-.08.22-.1.31-.04.13-.04.15c0,.03.01.04.04.04h1.21Z"/>
</svg>