<?xml version="1.0" encoding="UTF-8"?>
<svg id="Layer_1" data-name="Layer 1" xmlns="http://www.w3.org/2000/svg" viewBox="0 0 45.43 20.65">
  <defs>
    <style>
      .cls-1 {
        fill: #231f20;
      }
    </style>
  </defs>
  <path class="cls-1" d="M12.98,11.71c0,.11.04.21.11.32s.17.17.29.2l-.1.18c-.13-.02-.27-.03-.43-.03s-.32,0-.5,0c-.13,0-.26,0-.41.01s-.29.02-.44.03l-.03-.04-.02.04c-.14,0-.28-.01-.42-.02s-.31-.02-.49-.02c-.14,0-.28,0-.42,0s-.29.02-.43.03c-.11,0-.23-.01-.34-.02s-.24-.02-.37-.02c-.19,0-.41.01-.64.04-.04-.04-.07-.08-.09-.14s-.04-.11-.04-.16v-2.74c0-.09-.03-.15-.08-.2s-.11-.07-.19-.07c-.06,0-.12.02-.18.07s-.08.11-.08.2v2.33c0,.11.02.2.06.26s.09.12.14.16c.06.05.13.08.2.1l-.1.18c-.09,0-.19-.01-.29-.02-.09,0-.18,0-.29-.01s-.21,0-.32,0c-.14,0-.27,0-.39.02s-.19.04-.22.07c.09.15.15.3.19.45s.06.31.06.47c0,.24-.05.48-.14.71s-.23.43-.4.61-.39.32-.64.42-.54.16-.85.16c-.47,0-.88-.12-1.22-.35s-.63-.54-.86-.92-.39-.82-.5-1.32-.16-1.01-.16-1.54,0-1.02,0-1.47.01-.85.02-1.18c0-.39.02-.74.03-1.07-.12,0-.23.05-.34.12s-.21.14-.3.22l-.16-.1c.14-.28.25-.57.33-.88s.14-.61.16-.93c.19.03.36.05.52.05s.3.01.43.01c.14,0,.29,0,.43-.01s.28-.03.43-.05l.13.16c-.1.75-.18,1.44-.22,2.07s-.06,1.22-.06,1.75c0,1.05.08,1.88.23,2.48s.37.96.63,1.08c.06-.07.11-.15.14-.23s.06-.16.08-.24.03-.15.03-.21,0-.12,0-.17v-6.18c0-.16-.02-.28-.07-.38s-.1-.16-.15-.21c-.06-.05-.14-.09-.22-.12l.1-.22c.17.04.34.06.51.08s.33.02.49.02c.14,0,.28,0,.41-.01s.24-.02.34-.03c.11-.02.21-.04.3-.05l.09.17c-.11.07-.19.14-.25.22s-.1.16-.13.23-.04.13-.04.19,0,.08,0,.1v5.5c0,.08,0,.16.02.24s.03.15.05.21c.02.08.05.15.08.21-.13.06-.26.13-.4.2s-.28.15-.41.24-.27.18-.39.28-.23.21-.32.32c.09.05.18.1.26.13s.19.04.32.04c.17,0,.32-.04.46-.11s.26-.16.36-.27.18-.23.23-.36.08-.25.08-.38c0-.15-.03-.28-.1-.39.07-.03.13-.07.18-.12.05-.04.1-.1.14-.17s.07-.16.07-.27v-2.69c0-.12-.04-.22-.13-.3s-.18-.15-.29-.21l.08-.17c.23,0,.44-.05.64-.15s.4-.21.59-.33c.02-.02.05-.03.08-.03.03,0,.05.01.06.04.06.14.11.24.13.3s.04.1.07.1c0,0,.03-.02.06-.05.08-.09.18-.17.3-.22s.26-.09.44-.09c.14,0,.26.03.36.09s.19.14.26.23.13.21.17.33.06.25.06.38v2.76c0,.14.04.25.11.33s.13.12.19.16c.05-.03.12-.08.18-.15s.11-.18.12-.33v-2.67s0-.03,0-.08-.02-.1-.05-.17-.07-.13-.13-.19-.14-.11-.25-.13l.09-.16c.16-.02.32-.06.48-.1.14-.04.28-.09.43-.16s.3-.16.43-.27l.18.17v3.75c0,.08.01.14.03.2s.05.1.08.14.07.07.1.1.07.04.1.06c.03-.01.06-.03.1-.06s.07-.06.11-.1.06-.09.09-.14.04-.12.04-.2v-2.97h-.54l.23-.75h.31v-.3s0-.03,0-.06-.02-.08-.04-.13-.06-.1-.11-.16-.12-.1-.21-.14l.07-.16c.08,0,.18-.02.29-.05s.23-.07.35-.12.23-.1.34-.16.2-.12.28-.18l.18.18v1.28s.09,0,.18-.01.21-.03.35-.07l.14.17-.35.69h-.31v2.95ZM10.47,6.5c.16,0,.29.03.38.1s.16.14.2.22.07.16.07.23.01.11.01.13c0,.17-.03.3-.1.39s-.14.16-.22.2-.16.07-.23.08-.11.01-.11.01c-.17,0-.3-.03-.39-.1s-.16-.14-.2-.22c-.05-.1-.08-.2-.08-.33,0-.17.03-.31.1-.4s.14-.17.23-.21c.1-.05.21-.08.33-.09ZM16.21,11.14c0,.18-.03.35-.1.5s-.15.29-.26.4-.25.21-.41.27-.33.1-.52.1c-.22,0-.42-.04-.6-.13s-.34-.2-.48-.34-.24-.32-.32-.51-.11-.41-.11-.63v-1.47c.02-.26.08-.5.18-.71.04-.09.09-.17.16-.26s.14-.16.24-.23.2-.12.33-.16.27-.06.43-.06c.19,0,.37.03.53.1s.31.16.43.29.22.27.29.44.1.36.1.56v.4l-1.53.73v.42c0,.11.03.21.1.3s.17.13.29.13c.09,0,.16-.03.21-.09s.08-.14.08-.23c0-.01,0-.04,0-.06s-.02-.06-.04-.09-.05-.06-.09-.09-.1-.05-.18-.06c0-.05.02-.1.06-.14s.09-.08.15-.12.12-.06.18-.08.12-.03.16-.03c.12,0,.22.02.31.07s.16.11.22.19.1.17.13.27.04.21.04.32ZM14.81,8.92c-.08,0-.13.04-.17.11s-.05.14-.05.22v.45l.5-.27v-.18c0-.08-.02-.16-.07-.22s-.11-.1-.2-.1ZM19.22,11.71c0,.12.05.23.12.33s.16.17.28.2l-.1.18c-.12,0-.23-.02-.33-.03s-.22-.01-.35-.01c-.19,0-.41.01-.64.04l-.1-.33c-.05.06-.1.11-.18.16-.06.04-.14.08-.24.11s-.21.05-.34.05c-.17,0-.31-.04-.43-.12s-.22-.19-.3-.32-.14-.27-.18-.43-.06-.31-.06-.46v-2.06c0-.2.05-.39.13-.55.03-.07.07-.14.12-.2s.11-.13.18-.18.16-.09.25-.13.21-.05.33-.05c.07,0,.14.02.22.04.06.02.13.05.21.09s.16.09.23.17v-.6s0-.08-.01-.13-.03-.1-.05-.15-.07-.09-.12-.14-.13-.08-.22-.1l.1-.18c.22,0,.45-.04.67-.11s.44-.18.65-.33l.17.17v5.06ZM18.04,9.37c0-.07-.02-.14-.06-.2s-.1-.1-.18-.1c-.08,0-.14.03-.19.09s-.07.13-.07.21v1.6c0,.08.02.15.06.21s.11.09.19.09c.08,0,.14-.03.18-.09s.06-.13.06-.21v-1.6ZM28.09,12.42c-.06-.09-.1-.2-.12-.33s-.03-.26-.03-.37v-2.33c0-.09-.03-.15-.08-.2s-.11-.07-.19-.07c-.06,0-.12.02-.18.07s-.08.11-.08.2v2.33c0,.11.05.22.12.32s.16.17.28.2l-.1.18c-.14-.02-.29-.04-.44-.04s-.31,0-.49,0c-.13,0-.27,0-.41.01s-.29.02-.44.03c-.07,0-.17-.02-.31-.03s-.34-.01-.61-.01h-.2c-.07,0-.14,0-.21,0l.03.03-.24-.02-.24.02-.02-.03h-.4c-.12,0-.23,0-.32,0s-.19,0-.27.01-.17,0-.25.01c-.09-.06-.15-.17-.2-.33s-.08-.33-.1-.5c-.03-.2-.04-.41-.05-.64,0-.17,0-.33,0-.49s-.01-.28-.03-.4-.04-.2-.07-.27-.08-.1-.14-.1c-.04.02-.08.03-.13.05s-.09.02-.12.03c-.05.01-.09.02-.14.03v2.83c0,.14.03.27.09.39s.16.19.31.22l-.06.17c-.31.11-.58.24-.8.39s-.42.3-.57.44c-.18.16-.33.33-.46.51l-.18-.18c.15-.37.24-.68.27-.94s.04-.47.04-.63v-5.72c0-.19-.01-.35-.03-.48s-.05-.22-.09-.29-.08-.11-.14-.14-.11-.04-.16-.04l.07-.17c.21,0,.41-.06.59-.15s.34-.18.48-.29c.16-.12.31-.25.45-.4l.16.12v3.18c.14,0,.26-.03.35-.1s.15-.16.2-.28.07-.26.09-.41.02-.33.02-.51c0-.1,0-.21.03-.34s.05-.27.08-.41.09-.28.15-.41.13-.26.21-.37.18-.2.29-.26.23-.1.36-.1c.16,0,.3.02.41.06s.2.1.27.17.12.15.15.25.05.2.05.32c0,.08,0,.17-.02.27s-.06.18-.13.23c-.02-.06-.06-.1-.12-.13s-.11-.04-.15-.04c-.09,0-.16.05-.21.15s-.09.21-.11.34-.04.24-.04.36,0,.19,0,.22c0,.25-.03.47-.08.65s-.11.32-.17.44-.12.2-.17.25-.08.08-.07.08c.11.05.2.12.28.2s.14.18.19.3.09.27.12.45.04.41.04.67c0,.47.05.81.14,1.03s.2.33.33.35c.04-.04.07-.09.09-.14s.04-.12.04-.2v-2.48c0-.24-.05-.41-.15-.53s-.21-.18-.32-.18l.05-.16c.17-.01.34-.04.51-.08.14-.04.3-.09.46-.15s.31-.16.45-.27l.17.17v3.69c.01.14.05.25.12.33s.13.13.18.16c.05-.03.12-.08.18-.16s.11-.18.12-.33v-2.64c0-.12-.03-.23-.1-.33s-.16-.17-.28-.21l.08-.17c.43,0,.85-.15,1.26-.44l.2.16s-.02.04-.03.07-.01.06-.01.09,0,.06.02.08.03.03.05.03.05-.02.08-.05c.11-.09.23-.16.36-.22s.27-.08.43-.08c.12,0,.24.02.34.06s.19.1.26.17.13.15.17.24.06.18.06.27v2.97c0,.12.04.23.11.33s.17.17.29.2l-.1.18c-.09-.02-.2-.04-.32-.04s-.25,0-.38,0c-.19,0-.41.01-.64.04ZM24.3,7.23c0-.09.02-.17.05-.26s.08-.16.14-.23.13-.12.21-.16.17-.06.26-.06c.11,0,.2.02.29.07s.15.11.21.18.1.15.13.23.04.16.04.22c0,.11-.02.2-.06.29s-.09.15-.16.21-.14.1-.21.13-.15.04-.22.04c-.11,0-.21-.02-.29-.06s-.16-.09-.21-.16-.1-.13-.13-.21-.04-.15-.04-.22ZM31.6,10.68s0,.02.03.03c.07.04.16.09.27.15s.22.15.33.26.2.26.28.43.12.4.12.66c0,.29-.05.54-.15.76s-.24.4-.41.55-.38.25-.62.33-.5.11-.79.11c-.19,0-.36-.01-.52-.02-.14,0-.27-.02-.39-.03s-.21-.02-.26-.03l-.1-.17s.09-.11.13-.2.08-.18.11-.28.06-.2.08-.3.04-.18.05-.25l.14-.08c.07.07.15.12.26.16s.21.05.31.05c.12,0,.24-.01.35-.03s.21-.06.3-.12.16-.12.21-.21.08-.19.08-.33c0-.14-.05-.27-.15-.38s-.23-.17-.38-.17c-.13,0-.23.04-.28.11s-.08.15-.08.24c0,.07.03.13.08.18s.11.07.16.07c0,.08-.05.15-.16.21s-.22.09-.36.09c-.12,0-.23-.02-.32-.07s-.17-.11-.23-.18-.11-.17-.14-.27-.05-.21-.05-.32c0-.07.01-.15.04-.23s.07-.17.12-.25.13-.16.23-.23.22-.14.36-.21c0,0,.02,0,.03,0,.02,0,.03-.02.03-.03-.1-.04-.19-.08-.3-.14s-.2-.13-.29-.23-.16-.22-.22-.37-.08-.33-.08-.55c0-.3.03-.54.08-.72s.13-.32.24-.42.25-.16.42-.2.37-.05.61-.05c.04,0,.05,0,.05-.03,0,0,0-.02-.03-.02s-.06-.01-.12-.02c-.04,0-.09-.02-.14-.04s-.1-.06-.15-.1-.08-.1-.12-.16-.05-.13-.05-.21c0-.06.01-.12.04-.17s.06-.1.11-.15.1-.08.16-.11.12-.04.18-.04c.09,0,.17.02.25.05s.16.09.22.16.12.15.16.25.06.21.06.34v.2s0,.04.01.05.02.03.04.03c.01,0,.07.01.17.04s.21.09.33.18.23.23.32.41.15.42.15.72c0,.22-.04.41-.12.57s-.17.29-.27.39-.2.18-.29.23-.14.08-.15.09c-.02,0-.03.02-.03.03ZM30.89,8.82c-.1,0-.19.04-.25.13s-.09.23-.09.42.03.34.09.44.15.15.27.15c.1,0,.18-.05.25-.15s.1-.25.1-.44-.04-.34-.11-.42-.16-.13-.27-.13ZM34.62,12.42c-.06-.05-.1-.09-.12-.13s-.02-.07-.02-.09c0,0,0-.02,0-.02s0,0,0-.01c0-.03-.02-.04-.05-.04-.02,0-.03.02-.05.05s-.04.07-.09.1-.12.07-.22.1-.24.05-.42.05c-.1,0-.21-.03-.32-.09s-.22-.17-.32-.34-.18-.39-.24-.69-.1-.67-.1-1.14.03-.85.1-1.14.15-.52.25-.69.21-.27.33-.33.24-.09.35-.09c.17,0,.3.02.38.05s.15.07.19.11.07.08.07.11.02.05.04.05c.01,0,.02-.01.02-.03s0-.04,0-.05v-.39c0-.17-.02-.3-.07-.39s-.09-.16-.14-.2c-.06-.05-.13-.08-.21-.09l.07-.2c.24-.04.43-.07.58-.11s.28-.07.37-.1.17-.06.21-.08.08-.05.11-.06.04-.03.05-.04.02-.01.04-.01c.04,0,.07.01.1.04s.04.06.05.1.02.08.02.12,0,.07,0,.1v4.89c0,.12.04.23.11.33s.17.16.29.19l-.1.18c-.21-.03-.42-.04-.62-.04-.11,0-.22,0-.33.01s-.22.02-.33.03ZM34.15,9.07s-.09.02-.13.05-.07.1-.11.18-.06.2-.07.34-.02.31-.02.52,0,.38.02.52.04.25.07.34.07.14.11.18.08.05.13.05c.07,0,.12-.02.16-.06s.07-.09.08-.14c.02-.06.03-.13.03-.2v-1.39c0-.07-.02-.14-.03-.2-.02-.05-.05-.1-.08-.14s-.09-.06-.16-.06ZM37.43,7.92c.11,0,.25.03.42.09s.34.17.5.33.3.39.41.69.17.67.17,1.14-.06.85-.17,1.14-.25.52-.41.69-.33.28-.5.34-.31.09-.42.09-.25-.03-.42-.09-.34-.17-.5-.34-.3-.39-.41-.69-.17-.67-.17-1.14.06-.85.17-1.14.25-.52.41-.69.33-.27.5-.33.31-.09.42-.09ZM37.43,9.07c-.06,0-.12.02-.16.05s-.08.09-.1.18-.04.2-.05.34-.01.31-.01.52c0,.41.02.7.07.89s.13.27.25.27.21-.09.26-.27.07-.48.07-.89c0-.21,0-.38-.02-.52s-.03-.25-.05-.34-.06-.15-.1-.18-.09-.05-.16-.05ZM38.83,12.24s.1-.02.15-.06.09-.08.13-.14.07-.11.09-.17.03-.11.03-.16v-2.6c0-.14-.02-.25-.06-.33s-.08-.14-.13-.18c-.05-.05-.11-.08-.18-.1l.06-.16c.19,0,.36-.02.51-.07s.28-.1.38-.16c.12-.07.23-.14.33-.23.09.03.14.07.16.13s.03.1.03.13v.04s.02.08.05.12c.1-.11.23-.2.38-.26s.31-.1.47-.1c.14,0,.28.03.42.09s.24.16.29.31c.1-.12.23-.22.38-.29s.31-.11.48-.11c.15,0,.29.02.42.07s.23.12.31.21.15.19.19.31.07.25.07.39v2.78c0,.12.04.23.11.32s.17.16.29.2l-.1.18c-.21-.03-.42-.04-.61-.04-.11,0-.22,0-.33,0s-.22.01-.33.04c-.04-.04-.07-.08-.09-.14s-.05-.12-.06-.19-.03-.13-.03-.2-.01-.13-.01-.18v-2.33c0-.09-.03-.15-.08-.2s-.12-.07-.19-.07c-.06,0-.12.02-.18.07s-.08.11-.08.2v2.33c0,.12.04.23.11.33s.17.16.29.19l-.1.18c-.15-.01-.3-.02-.44-.03s-.28-.01-.41-.01c-.2,0-.38,0-.53.01s-.26.02-.33.02h-.04s-.03,0-.03,0c-.14,0-.27-.02-.4-.02s-.26-.01-.37-.01c-.15,0-.31,0-.46,0s-.31.02-.46.03l-.1-.18ZM40.67,12.18s.11-.09.17-.16.1-.17.1-.3v-2.33c0-.09-.03-.15-.08-.2s-.12-.07-.19-.07c-.06,0-.12.02-.18.07s-.08.11-.08.2v2.33c0,.13.04.23.1.3s.11.13.17.16Z"/>
</svg>