<?xml version="1.0" encoding="UTF-8"?>
<svg id="Layer_1" data-name="Layer 1" xmlns="http://www.w3.org/2000/svg" viewBox="0 0 45.43 20.65">
  <defs>
    <style>
      .cls-1 {
        fill: #231f20;
      }
    </style>
  </defs>
  <path class="cls-1" d="M11.7,5.76l-2.42,1.54c-.08.05-.18.09-.29.11s-.22.03-.34.03c-.18,0-.36-.05-.55-.15s-.36-.22-.54-.36-.34-.28-.48-.43-.27-.28-.37-.38l-.21-.21c-.08-.08-.16-.15-.25-.21s-.18-.12-.28-.16-.2-.06-.3-.06c-.19,0-.35.07-.48.22s-.24.34-.33.57-.16.49-.21.77-.09.54-.11.8-.04.49-.05.69,0,.34,0,.42c0,.31.01.63.04.96s.08.65.14.96.15.6.25.88.23.51.38.72.32.36.52.48.42.18.68.18c.23,0,.44-.04.63-.13s.36-.2.49-.35.24-.32.32-.51.11-.4.11-.63v-1.2c0-.08-.03-.18-.08-.27s-.11-.19-.17-.28c-.07-.1-.15-.2-.24-.3l2.74-1.78.12.25-.6.4c.12.1.21.2.27.31s.12.2.15.29.06.17.06.24.01.12.01.15v3.09c0,.22-.01.41-.04.58s-.06.34-.12.49-.13.31-.22.46-.2.32-.34.49c-.32.4-.69.77-1.11,1.11s-.82.66-1.21.94l-.21-.23c.13-.1.26-.2.37-.32s.22-.25.3-.38.15-.28.2-.44.08-.31.08-.47v-1.7c-.17.1-.36.19-.55.28s-.39.17-.59.24-.41.13-.62.17-.43.06-.64.06c-.42,0-.8-.07-1.14-.2s-.64-.31-.91-.54-.49-.48-.68-.77-.35-.6-.47-.92-.22-.64-.27-.96-.09-.62-.09-.9v-.34c0-.32.03-.64.09-.97s.15-.65.28-.96.29-.6.48-.87.42-.51.69-.7c.2-.14.42-.29.66-.46s.5-.31.77-.45.54-.26.82-.35.55-.14.82-.14.49.04.72.13.43.2.63.33.37.27.52.41.29.26.4.36c.09.08.19.16.3.24s.23.16.35.23.25.12.38.17.26.06.38.06c.17,0,.32-.04.45-.13l.75-.47.14.25ZM6.72,7.6c.07-.04.15-.08.23-.11s.18-.05.27-.05c.1,0,.21.02.32.05s.23.1.36.19c.1.07.22.14.36.19s.28.08.4.08c.17,0,.36-.07.57-.21l.14.21-1.59,1.01c-.06.04-.13.08-.21.1s-.16.04-.25.04c-.1,0-.22-.02-.36-.06s-.29-.12-.45-.25c-.09-.07-.19-.13-.3-.18s-.22-.07-.34-.07c-.11,0-.22.03-.33.1l-.84.54-.14-.25,2.15-1.35ZM6.49,9.19c.05.2.16.39.33.56s.34.31.53.4v.2c-.18.08-.35.21-.5.37s-.28.33-.39.51h-.23c-.02-.05-.06-.13-.12-.23s-.13-.2-.22-.29-.17-.18-.27-.26-.19-.12-.29-.14l.02-.21c.08,0,.17-.03.27-.1s.19-.15.28-.24.17-.19.25-.3.13-.19.16-.27h.2ZM15.19,10.5l-2.47,1.68c-.22-.08-.44-.18-.66-.32s-.42-.29-.59-.47-.32-.38-.42-.61-.16-.47-.16-.73c0-.44,0-.81,0-1.11s0-.53.02-.72.02-.33.04-.42.03-.17.06-.21.05-.08.08-.09.06-.03.1-.06c.39-.25.79-.49,1.19-.71s.81-.44,1.22-.65c.03-.02.06-.03.09-.04s.07-.02.11-.02c.04,0,.09.02.14.06.14.12.27.26.39.41s.23.31.33.47.2.33.29.5.17.34.25.5l-2.67,1.55c.02.4.13.71.33.93s.5.33.91.33c.23,0,.45-.04.68-.13s.43-.2.61-.34l.14.21ZM13.6,8.54c-.04-.07-.09-.17-.15-.3s-.14-.25-.23-.39-.17-.26-.27-.38-.18-.21-.27-.28c-.04.11-.08.23-.1.37-.03.12-.05.27-.07.46s-.03.4-.03.64v.26c0,.09,0,.18.02.27l1.09-.64ZM19.68,11.25c.08-.04.15-.1.21-.18s.11-.17.14-.27.06-.2.08-.3.03-.2.03-.29v-2.28c-.02-.08-.04-.16-.06-.23-.02-.06-.05-.11-.08-.16s-.08-.08-.12-.08c-.01,0-.02,0-.03,0s-.02,0-.04.02l-.1.08.1.24-1.23.84c0-.05-.03-.14-.1-.27s-.14-.27-.22-.41-.17-.28-.26-.4-.15-.21-.2-.25c-.03,0-.06.03-.08.08s-.04.11-.06.19-.03.14-.04.21-.01.12-.01.15v2.2c.04.07.09.15.16.23s.14.15.23.21.17.11.27.15.19.06.28.06c.06,0,.13,0,.21-.02s.15-.05.22-.11l.31-.23.17.23-2.15,1.58-1.98-1.29v-.12c.2-.08.34-.22.45-.42s.15-.4.15-.62v-2.05c0-.05-.01-.11-.03-.17s-.05-.11-.08-.16-.08-.09-.13-.12-.11-.05-.17-.05c-.1,0-.22.05-.37.14l-.13-.21,1.79-1.09c.17.08.31.21.44.38s.23.35.32.53l1.24-.86c.15.15.3.33.43.53s.25.41.36.62l1.54-1.17c.17.12.31.27.42.48s.19.41.25.63l1.36-1.09c.14,0,.27.03.4.1s.23.16.34.27.19.23.27.36.15.25.2.37l1.41-1.11c.27.12.54.28.81.48s.54.46.8.77c-.05.03-.1.08-.14.14s-.07.13-.1.2-.04.14-.05.21-.02.11-.02.15v2.31s0,.04.02.11.04.14.08.21.09.15.16.21.16.1.26.1l.2-.16.18.2-1.51,1.3c-.2-.06-.37-.13-.52-.23-.13-.08-.24-.2-.35-.34s-.16-.32-.16-.54v-3.01s0-.09-.02-.17-.04-.18-.08-.27-.11-.19-.19-.28-.2-.16-.36-.2l-.43.34v2.88c0,.16.05.3.16.43s.23.23.37.31c-.06.04-.16.1-.28.17s-.25.17-.38.27-.26.21-.38.32-.2.21-.26.31l-1.18-1.07c.12-.1.21-.23.27-.4s.09-.34.09-.49v-2.13c0-.19-.04-.37-.13-.53s-.24-.29-.44-.38l-.44.33v2.93c0,.29.12.52.36.7-.2.1-.4.25-.61.45s-.38.4-.53.6l-1.3-1.07ZM30.05,6.37c.11-.05.23-.1.36-.15s.27-.08.4-.08c.05,0,.09.01.13.04s.08.06.12.09c.08.06.19.14.32.24s.28.2.43.31.3.21.45.31.27.18.38.24c-.05.02-.09.05-.13.1s-.07.1-.1.15-.05.11-.06.17-.02.11-.02.16v2.42c.03.13.07.25.1.34.03.09.07.17.11.24s.1.1.15.1c.02,0,.04,0,.05-.02l.04-.04.2-.16.18.17-1.38,1.32c-.15-.01-.29-.06-.42-.14-.12-.07-.23-.19-.34-.35s-.2-.39-.26-.69l-1.23,1.08s-.08.07-.12.09-.08.03-.12.03c-.03,0-.08-.01-.15-.04s-.16-.08-.26-.15-.21-.17-.32-.29-.21-.29-.31-.48-.17-.44-.23-.71-.09-.61-.09-.99c0-.18,0-.37.01-.57s.03-.4.06-.6.08-.38.13-.56.14-.32.24-.44c.17-.21.4-.41.69-.6s.61-.37.96-.53ZM30.78,8.28c0-.11-.02-.22-.06-.33s-.11-.2-.21-.28l-.49-.36s-.04-.03-.08-.06-.06-.04-.09-.04c-.06,0-.11.08-.15.24s-.07.35-.09.56c-.02.17-.03.34-.04.51s-.01.35-.01.55c0,.47.03.84.08,1.11s.12.47.19.61.15.23.23.27.15.06.21.06c.05,0,.1-.02.16-.06s.11-.1.16-.17.09-.15.13-.24.05-.18.05-.28v-2.08ZM34.02,6.19c.08.02.18.06.3.13s.23.15.33.25.2.21.27.34.12.26.13.4l1.28-1.07c.12.04.26.1.41.18s.31.18.46.29.3.24.44.38.26.29.35.45c-.05.05-.1.12-.15.21s-.07.17-.07.25v2.54s0,.1.02.16.03.12.06.17.06.1.1.13.08.06.14.06c.04,0,.08-.02.13-.06l.16-.15.14.2-1.27,1.32c-.1,0-.21-.04-.34-.12s-.25-.19-.36-.31-.2-.27-.28-.42-.11-.31-.11-.46v-2.7s0-.07-.02-.17-.04-.21-.08-.33-.11-.23-.21-.33-.22-.15-.38-.15h-.04s-.03,0-.04.02l-.34.3v2.85c0,.16.06.3.17.42s.24.23.37.31c-.07.05-.16.11-.28.2s-.24.18-.37.29-.25.21-.37.32-.21.21-.28.3l-1.14-1.17c.11-.07.18-.17.24-.29s.08-.26.08-.39v-2.66s-.01-.1-.03-.16-.05-.13-.08-.19-.08-.11-.13-.16-.11-.07-.17-.07c-.05,0-.11.02-.16.06l-.1-.17,1.2-1ZM38.89,7.35s-.01-.06-.04-.09-.08-.06-.16-.08c-.06-.02-.12-.06-.18-.13s-.12-.16-.18-.26-.1-.2-.14-.31-.06-.2-.06-.29c0-.16.03-.32.1-.47s.15-.29.26-.41.24-.22.4-.29.33-.11.51-.11c.15,0,.32.03.51.09l-.11.2s-.06-.03-.1-.03-.08,0-.13,0c-.09,0-.18.02-.27.06s-.13.13-.13.28c0,.03.01.07.04.14s.09.13.19.19c.12.06.23.13.34.2s.23.15.34.24c.02.02.05.04.1.09s.11.1.16.19.11.18.15.31.07.26.07.43l.02,2.81c0,.21.05.41.15.59s.26.32.48.41c.1-.04.18-.09.25-.16s.11-.15.15-.24.06-.19.07-.29.02-.21.02-.32v-2.13c0-.08-.01-.16-.04-.25s-.06-.17-.12-.23-.14-.1-.25-.1c-.04,0-.07,0-.11,0s-.08.01-.12.03l-.09-.17,1.59-1.01.5.41c.06.05.11.12.15.2s.07.16.09.25.04.18.04.28.01.18.01.27v3.69c0,.33-.08.64-.24.95s-.38.56-.67.76l-2.09,1.49-.27-.27c.25-.08.47-.22.67-.39s.37-.38.52-.62.25-.49.33-.77.11-.55.11-.83c0-.07,0-.15,0-.21s0-.14-.02-.21c-.08.04-.18.11-.31.22s-.26.22-.4.34-.27.24-.4.36-.22.22-.3.3c-.21-.03-.39-.09-.56-.2s-.32-.25-.44-.43-.22-.38-.29-.62-.1-.5-.1-.78v-3.04Z"/>
</svg>