<?xml version="1.0" encoding="UTF-8"?>
<svg id="Layer_1" data-name="Layer 1" xmlns="http://www.w3.org/2000/svg" viewBox="0 0 45.43 20.65">
  <defs>
    <style>
      .cls-1 {
        fill: #231f20;
      }
    </style>
  </defs>
  <path class="cls-1" d="M9.36,2.24c.11,0,.22.05.32.15s.19.2.25.3c.11.18.19.37.25.59s.08.43.08.64v12.67c0,.42-.05.75-.14.99s-.21.42-.33.53-.24.19-.36.22-.19.04-.24.04c-.09,0-.17-.03-.24-.08s-.11-.14-.11-.25c0-.07.02-.12.05-.17s.08-.08.13-.12.11-.06.17-.08.12-.04.17-.06c.11-.03.2-.08.28-.17s.14-.18.19-.29.08-.23.1-.35.03-.24.03-.35l.04-5.37c0-.15-.05-.27-.16-.37s-.22-.19-.34-.25-.21-.13-.27-.19-.11-.11-.14-.17-.05-.09-.06-.12-.01-.05-.01-.07c0-.02.01-.05.04-.08s.05-.04.08-.04c.05,0,.09,0,.12.03s.06.04.09.07.06.05.09.07.08.03.14.03c.1,0,.17-.02.23-.07s.1-.11.13-.18.05-.14.06-.21.01-.14.01-.19v-4.85c0-.41-.06-.74-.17-1s-.24-.42-.39-.49c-.1-.05-.2-.1-.3-.16s-.15-.14-.15-.27c0-.14.04-.23.13-.28s.16-.07.22-.07ZM12.74,2.22c-.09.04-.17.14-.24.28s-.13.29-.18.46-.08.34-.11.51-.04.3-.04.4v13.19c0,.11,0,.23.02.35s.03.25.06.37.07.24.12.35.12.21.2.3h-2.5c.17-.17.28-.38.35-.64s.1-.51.1-.76l.11-13.24c0-.05,0-.13-.01-.25s-.03-.24-.06-.39-.08-.3-.14-.46-.15-.32-.27-.47h2.59ZM13.55,2.24c.09,0,.17.03.25.1s.12.15.12.25c0,.11-.05.2-.15.28s-.2.13-.31.16c-.1.02-.18.08-.26.16s-.15.19-.21.31-.1.26-.14.41-.05.3-.05.46v5c0,.05,0,.11.01.19s.03.14.06.21.07.13.13.18.14.07.24.07c.06,0,.1,0,.14-.03s.06-.04.09-.07.06-.05.09-.07.07-.03.13-.03c.04,0,.06.01.08.04s.03.06.03.08-.04.08-.11.18-.22.22-.43.36c-.1.07-.21.15-.31.25s-.15.23-.15.37v5.37c0,.1,0,.21.03.34s.05.24.09.35.1.21.18.3.17.14.28.17c.04.01.09.03.14.05s.1.04.15.08.09.07.12.12.05.1.05.17c0,.12-.04.2-.12.25s-.17.08-.26.08c-.08,0-.17-.01-.27-.04s-.19-.1-.29-.22-.17-.3-.23-.53-.09-.57-.09-.99V4.14c0-.07,0-.18.02-.31s.03-.28.07-.43.08-.31.14-.46.14-.28.25-.4c.07-.07.14-.14.23-.2s.18-.09.28-.09ZM15.44,16.84c.19-.19.34-.42.45-.68s.16-.54.16-.81l.04-4.13c0-.1-.03-.2-.08-.29s-.12-.17-.2-.25c-.1-.08-.19-.16-.29-.23s-.18-.16-.26-.28c-.04-.06-.08-.11-.11-.15s-.04-.09-.04-.13c0-.08.04-.12.12-.12.04,0,.07.01.1.04s.06.06.09.09.06.06.1.09.08.04.12.04c.14,0,.25-.05.32-.15s.12-.22.12-.36v-4.41c0-.08-.02-.15-.07-.21s-.12-.09-.23-.09c-.1,0-.18.03-.26.08s-.15.12-.22.2-.12.17-.17.26-.09.18-.12.26c-.09.24-.14.5-.17.76s-.04.55-.04.86c0,.14,0,.32-.03.54s-.06.44-.13.66-.16.4-.29.56-.3.24-.51.24c-.12,0-.22-.03-.31-.1s-.13-.17-.13-.29.04-.23.12-.31.19-.13.32-.13c.07,0,.13-.03.17-.1s.06-.14.08-.24.02-.19.03-.29,0-.18,0-.24c0-.54-.07-1.07-.2-1.61s-.31-1.07-.51-1.6l.04-.28,7,.02.06.26c-.27.48-.47,1.01-.58,1.58s-.18,1.15-.18,1.74c0,.07,0,.14,0,.23s.01.16.03.24.05.14.08.19.08.08.14.08c.1,0,.21.03.33.08s.18.14.18.28-.04.25-.13.34-.21.14-.35.14c-.19,0-.34-.07-.46-.21s-.21-.32-.29-.52-.12-.41-.15-.63-.04-.41-.04-.57c0-.07,0-.17,0-.3s-.01-.28-.03-.45-.05-.34-.08-.51-.08-.34-.14-.51c-.07-.18-.17-.35-.28-.51s-.25-.23-.42-.23c-.08,0-.16.02-.25.07s-.13.11-.13.2v4.52c0,.1.04.19.11.29s.18.15.32.15c.04,0,.09-.01.13-.04s.08-.06.12-.09.07-.06.1-.09.07-.04.1-.04.07.01.09.04.04.05.04.08c0,.02-.01.06-.03.11s-.07.11-.13.17c-.12.1-.24.18-.36.26s-.23.17-.32.28c-.06.06-.11.13-.14.23s-.06.2-.06.34v4.25c0,.23.05.47.15.72s.24.45.43.62h-2.9ZM19.3,16.84c.19-.18.36-.39.51-.63s.25-.5.3-.75l.85-4.29c.04-.12.02-.23-.04-.33s-.15-.17-.26-.23c-.05-.03-.11-.06-.18-.1s-.13-.08-.19-.13-.11-.11-.15-.17-.06-.12-.06-.19c0-.04,0-.07.03-.1s.05-.05.09-.05c.03,0,.06,0,.08.03s.05.04.07.06c.07.07.14.12.2.14s.12.03.18.03c.1,0,.2-.03.3-.09s.16-.14.17-.24l.78-4.05c.01-.1.03-.19.06-.29s.04-.19.04-.26c0-.15-.01-.27-.03-.36s-.05-.18-.09-.26-.09-.15-.14-.23-.11-.16-.17-.26h3.59c-.07.1-.13.19-.19.26s-.12.15-.18.23-.1.16-.13.26-.05.22-.05.36c0,.08,0,.17.03.26s.03.19.05.29l.67,3.96c.01.1.04.18.08.24s.08.1.13.12.1.04.14.05.08.01.1.01c.06,0,.12,0,.18-.03s.11-.05.14-.1l.07-.07s.05-.03.08-.03c.04,0,.07.01.1.03s.04.06.04.1-.02.09-.05.15-.07.11-.12.17-.1.11-.16.16-.11.08-.15.1c-.15.07-.24.15-.27.23s-.03.19,0,.34l.72,4.29c.01.1.04.21.07.34s.08.24.14.35.13.21.21.29.19.13.3.15c.12,0,.21-.05.29-.13s.13-.18.18-.29.08-.23.09-.35.03-.23.03-.31v-4.33c0-.14-.05-.26-.14-.36s-.21-.17-.33-.2c-.13-.04-.25-.1-.35-.2s-.15-.22-.15-.39c0-.04,0-.07.03-.1s.05-.05.08-.05c.03,0,.06.02.1.06s.07.06.09.08c.12.1.23.14.33.14.07,0,.13-.02.18-.06s.09-.09.12-.14.05-.12.06-.18.02-.12.02-.18v-4.29c0-.15-.01-.27-.03-.36s-.06-.18-.12-.26-.13-.16-.23-.24-.22-.18-.37-.3h3.29c-.15.12-.28.22-.37.3s-.17.16-.23.25-.09.18-.12.28-.03.23-.03.39v4.25c0,.1.02.21.06.34s.13.18.27.18c.13,0,.25-.05.34-.14.04-.06.11-.09.19-.09.07,0,.1.04.1.13,0,.15-.06.27-.19.36s-.25.16-.37.2-.24.1-.34.19-.15.21-.15.35v4.29c0,.14.04.26.13.36s.21.15.36.15c.23,0,.41-.09.54-.27s.23-.4.3-.65.11-.51.13-.77.03-.48.03-.64c0-.21,0-.47.02-.77s.06-.58.15-.85.22-.5.4-.69.43-.29.77-.29c.17,0,.32.04.45.13s.2.22.2.41-.06.32-.19.42-.28.14-.46.14h-.12c-.09,0-.16.02-.22.07s-.1.1-.14.17-.06.14-.07.23-.02.17-.02.25c0,.33.03.66.09.99s.14.66.23,1,.21.68.33,1.03.25.72.39,1.09h-8.6c.23-.2.39-.39.46-.58s.11-.36.11-.52c0-.07,0-.14-.02-.21s-.02-.15-.04-.22l-.37-2.55-.8,1.12s-.03.03-.04.06-.02.06-.02.1c0,.1.03.19.08.28s.08.18.08.29-.03.21-.09.29-.15.13-.26.13-.2-.04-.26-.13-.1-.18-.1-.29.03-.21.09-.29.09-.17.09-.28c0-.07-.01-.12-.04-.15l-.88-1.1-.47,2.52c-.01.07-.03.14-.03.2s-.01.12-.01.18c0,.18.02.33.07.46s.1.24.15.33.12.17.18.22.1.09.13.12h-2.86ZM23.26,6.12l-.88,5.51.88.98.87-.98-.87-5.51ZM33.3,16.88c.17-.15.31-.33.42-.55s.17-.45.18-.69l.06-4.4c0-.16-.05-.31-.15-.43s-.23-.2-.38-.23c-.07,0-.14-.02-.23-.05s-.17-.06-.25-.1-.14-.1-.2-.17-.08-.15-.08-.24c0-.04.01-.07.03-.09s.04-.04.07-.04c.03,0,.06.01.08.03s.05.04.08.06c.06.02.12.03.19.04s.12,0,.15,0c.1,0,.17-.01.21-.04s.07-.09.07-.19c0-.07-.02-.17-.07-.28l-1.86-4.51c-.08-.18-.19-.34-.34-.48s-.3-.26-.47-.37h3.2c-.08.05-.16.11-.23.18s-.13.15-.18.24-.08.18-.09.28,0,.2.04.3l1.25,3.46,1.48-3.43c.04-.11.07-.21.07-.3,0-.16-.05-.3-.15-.42s-.22-.22-.36-.3h3.18c-.15.08-.3.19-.44.34s-.25.3-.33.47l-2.1,4.56c-.04.11-.07.2-.07.28,0,.1.02.17.07.19s.11.04.21.04c.04,0,.1,0,.18,0s.15-.02.21-.04c.02-.01.05-.03.07-.06s.05-.03.06-.03c.07,0,.11.04.11.13,0,.1-.03.18-.08.24s-.12.12-.19.17-.16.08-.25.1-.18.04-.27.05c-.15.01-.27.08-.38.18s-.16.24-.16.41v4.4c0,.22.04.45.13.68s.22.41.41.53c.01.01.03.02.03.03s.01.01.01.03h0s0,.03-.02.04h-2.92Z"/>
</svg>