<?xml version="1.0" encoding="UTF-8"?>
<svg id="Layer_1" data-name="Layer 1" xmlns="http://www.w3.org/2000/svg" viewBox="0 0 45.43 20.65">
  <defs>
    <style>
      .cls-1 {
        fill: #231f20;
      }
    </style>
  </defs>
  <path class="cls-1" d="M6.9,4.37h2.89v10.39c0,.21-.04.41-.11.6s-.17.34-.3.48-.28.24-.47.32-.38.12-.6.12H1.91l1.1-2.68h3.26c.07,0,.14-.01.21-.04s.13-.06.19-.1.1-.1.14-.16.06-.13.06-.21v-5.78c0-.13-.04-.22-.12-.29s-.18-.09-.29-.09h-.65l1.1-2.55ZM21.6,7.71l.47-.94h2.81c.07,0,.17.01.3.03s.26.08.39.17.24.22.34.4.15.43.15.74v4.12s0,.14-.02.27-.06.26-.12.4-.17.26-.31.37-.34.16-.58.16h-3.39v2.29h-2.9v-7.04s0-.07-.02-.1-.03-.07-.06-.1-.08-.06-.14-.08-.15-.04-.25-.04h-.48v5.08h-2.78v-1.18l-.55,1.18h-2.81c-.18,0-.33-.03-.47-.1s-.25-.16-.35-.28-.17-.25-.22-.41-.07-.31-.07-.47v-2.03c0-.16.03-.29.09-.42s.14-.22.23-.31.21-.15.34-.19.27-.06.42-.06h3.42v-.36c0-.13-.04-.24-.12-.32s-.18-.12-.31-.12h-4.07l.6-1.64h5.3c.19,0,.37.04.54.11s.31.18.43.3.21.27.28.44.1.35.1.54v.1l.61-1.46h3.19l.03.96ZM13.72,10.6c-.1,0-.2.03-.29.08s-.14.14-.14.25v.39c0,.06.01.12.04.18s.06.11.1.16.09.08.14.11.11.04.16.04h.85c.1,0,.19-.03.29-.1s.15-.14.15-.23v-.61c0-.1-.03-.16-.09-.2s-.13-.06-.22-.06h-1.01ZM21.57,12.72l.48-.94h.76c.09,0,.16-.02.22-.06s.09-.09.12-.15c.03-.06.05-.13.06-.22v-2.61c0-.09-.02-.15-.07-.21s-.1-.09-.17-.12-.12-.04-.18-.05-.09,0-.11,0h-.58c-.13,0-.23.01-.3.03s-.12.05-.15.08-.05.07-.06.12v4.14ZM27.3,6.78h5.18c.32,0,.58.05.77.14s.33.21.43.34.16.27.19.41.04.25.04.34v5.4h-2.68v-1.08l-.55,1.08h-2.96c-.24,0-.43-.06-.57-.17s-.24-.24-.3-.38-.1-.28-.12-.42-.02-.23-.02-.27v-2.05c.02-.23.09-.41.21-.54s.24-.22.37-.28c.15-.06.32-.1.51-.11h3.42v-.4c0-.1-.03-.18-.08-.24s-.11-.1-.18-.12c-.08-.03-.16-.04-.26-.05h-4.03l.64-1.61ZM29.92,10.7c-.11,0-.19.02-.24.05s-.09.07-.12.12c-.03.05-.04.11-.05.17v.38c.01.12.04.22.09.28s.1.11.16.15c.06.04.14.06.23.06h.81c.11,0,.19-.01.25-.04s.11-.05.14-.09.05-.07.06-.11.01-.07.01-.09v-.6c0-.07-.01-.12-.04-.16s-.06-.07-.1-.08-.07-.03-.11-.04-.06,0-.08,0h-1.01ZM34.74,6.84h2.99v.9l.49-.9h2.72c.28,0,.5.05.66.16s.28.23.36.37.13.28.15.42.03.25.03.32v3.47c0,.08.02.14.05.19s.07.08.1.1.09.03.16.04h1.07l-.7,1.54h-3.57v-4.51c0-.11-.03-.2-.09-.26s-.13-.11-.2-.14-.15-.05-.23-.06-.13-.01-.17-.01h-.17c-.17,0-.3.02-.39.05s-.16.07-.2.11-.06.08-.07.11,0,.06,0,.06v4.65h-2.82v-4.75c0-.07-.01-.12-.04-.16s-.05-.07-.08-.08-.06-.03-.1-.04-.06,0-.07,0h-.53l.65-1.56Z"/>
</svg>