<?xml version="1.0" encoding="UTF-8"?>
<svg id="Layer_1" data-name="Layer 1" xmlns="http://www.w3.org/2000/svg" viewBox="0 0 45.43 20.65">
  <defs>
    <style>
      .cls-1 {
        fill: #231f20;
      }
    </style>
  </defs>
  <path class="cls-1" d="M12.82,8.91c.09.26.13.52.13.77,0,.21-.03.42-.08.62s-.13.4-.24.58-.22.36-.36.52-.29.32-.46.45-.34.26-.53.37-.37.2-.57.27c.41-.02.82-.06,1.22-.11s.79-.13,1.17-.24c-.04.11-.09.21-.16.31s-.14.19-.22.28h-4.7c.19-.02.4-.06.61-.11s.43-.12.65-.2.43-.19.64-.3.41-.25.59-.41.35-.33.5-.52.27-.4.37-.63c.05-.11.09-.24.11-.38s.04-.28.04-.42c0-.25-.04-.47-.13-.67s-.2-.38-.34-.52-.3-.26-.49-.34-.37-.12-.57-.12-.36.03-.53.1-.34.16-.53.28c-.23.14-.44.31-.64.5s-.38.4-.53.62-.27.45-.36.69-.13.48-.13.72v1.75h-1.18c0-.37.01-.73.02-1.08s.01-.7.01-1.06c0-.39,0-.79-.01-1.19-.02-.14-.06-.29-.13-.44s-.16-.29-.28-.41-.24-.22-.38-.3-.29-.12-.44-.12c-.12,0-.24.03-.35.08s-.21.12-.31.2-.19.17-.28.27-.17.19-.24.27c-.23.26-.4.54-.51.85s-.19.63-.23.95c-.02.15-.03.31-.03.48s0,.34,0,.52,0,.35-.01.52-.02.34-.05.5c-.17,0-.33.02-.5.03s-.33.02-.51.02c-.03,0-.07,0-.1,0s-.07,0-.1,0c.03-.34.05-.68.06-1.02s.02-.69.02-1.03c0-.46,0-.92-.03-1.39s-.04-.93-.05-1.41l1-.06c.06.12.11.24.15.37s.09.25.14.39c.15-.11.31-.21.47-.3s.34-.16.52-.22.36-.1.54-.14.37-.05.55-.05h.11s.01,0,.02,0,.02,0,.02,0c.14-.05.3-.1.46-.15s.32-.07.49-.07c.27,0,.48.09.66.26s.31.41.4.71c.23-.12.45-.24.69-.34s.46-.2.7-.27.47-.14.71-.18.48-.06.73-.06h.12s.08,0,.12,0c.11-.04.23-.06.34-.08s.23-.02.35-.02c.19,0,.38.02.57.07s.36.11.52.21.31.21.44.35.23.3.31.49ZM18.24,8.65c.11.15.19.33.24.52s.08.39.08.59c0,.32-.06.6-.19.84s-.29.44-.48.59-.42.28-.67.35-.5.12-.75.12c-.12,0-.24-.01-.36-.03s-.24-.03-.36-.03c-.09,0-.17.01-.26.03s-.18.03-.28.03c-.23,0-.47-.04-.7-.12s-.45-.19-.64-.34-.34-.33-.46-.55-.18-.47-.18-.75c0-.23.03-.45.1-.64s.15-.37.27-.52.24-.29.4-.4.31-.21.49-.28.35-.13.54-.17.37-.06.55-.06h.13s.08,0,.13,0c.09,0,.17-.02.26-.02s.17,0,.26,0c.18,0,.35.01.53.04s.35.08.51.14.32.15.47.26.27.24.39.4ZM17.36,8.85c-.15-.25-.36-.45-.6-.6s-.52-.23-.83-.23c-.22.04-.43.11-.63.22s-.38.24-.54.41-.28.35-.37.55-.14.42-.14.65.04.43.13.63.21.37.36.51.33.26.52.34.41.13.63.13c.21,0,.42-.05.62-.14s.38-.22.53-.38.28-.36.37-.58.14-.47.14-.73c0-.13-.02-.27-.05-.4s-.08-.26-.15-.37ZM23.24,8.16c.07.09.12.19.15.3s.05.22.05.33c0,.23-.05.43-.14.6s-.21.32-.35.45-.3.23-.48.32-.35.15-.52.21v.03c.17.09.33.21.48.33s.3.25.46.37.31.23.48.33.34.16.54.2c-.12,0-.25.01-.38.01s-.26,0-.38,0c-.13,0-.27,0-.39,0s-.25,0-.38-.01c-.2-.11-.39-.24-.57-.38s-.37-.27-.57-.39-.39-.23-.6-.31-.43-.13-.67-.13c-.02,0-.05,0-.08,0s-.06,0-.08,0c0,.12,0,.23,0,.33s0,.18,0,.27,0,.18,0,.28,0,.21.01.34c-.19.03-.38.04-.57.04-.07,0-.13,0-.2,0s-.14,0-.2,0c.02-.35.04-.71.06-1.07s.03-.73.03-1.1c0-.28,0-.55-.02-.81s-.04-.53-.08-.78c.06-.01.12-.02.18-.02s.12,0,.18,0c.07,0,.14,0,.2,0s.14,0,.2,0c.03,0,.05,0,.08,0s.05,0,.08,0c.03.06.06.12.08.19s.05.14.07.2c.16-.12.34-.21.53-.28s.38-.11.58-.14.4-.05.6-.05.4,0,.6,0c.09,0,.18,0,.28.01s.18.03.27.06.17.07.25.12.15.12.22.19ZM22.47,8.82c0-.12-.02-.23-.06-.33s-.09-.19-.16-.26-.16-.13-.26-.17-.22-.06-.34-.06c-.2,0-.39.06-.56.17-.15.09-.29.18-.43.3s-.26.24-.37.38-.21.29-.28.45-.13.32-.16.49c0,.06-.02.13-.03.2s-.01.14-.01.2v.08c.07,0,.14.02.22.02s.14,0,.21,0c.14,0,.29-.01.45-.04s.33-.07.49-.13.33-.13.48-.21.29-.18.41-.29.22-.23.29-.37.11-.28.11-.44ZM28.78,9.12c.06.2.09.42.09.64,0,.33-.07.62-.2.86s-.3.44-.51.6-.44.27-.7.35-.51.11-.76.11c-.22,0-.43-.02-.64-.06-.19.04-.39.06-.6.06-.26,0-.5-.05-.73-.14s-.43-.22-.61-.38-.31-.35-.41-.56-.15-.45-.15-.7c0-.29.07-.57.2-.82s.31-.47.52-.66.45-.33.72-.43.54-.16.82-.16c.08,0,.17,0,.25.01s.17.02.25.04c.09-.02.17-.03.26-.04s.17-.01.26-.01c.21,0,.42.03.62.08s.39.14.57.24.33.24.46.4.24.35.31.56ZM27.6,8.77c-.15-.22-.34-.4-.57-.53s-.47-.2-.74-.2c-.12.03-.25.06-.37.1s-.24.09-.36.14-.23.13-.33.2-.2.17-.28.28c-.11.16-.21.33-.28.53s-.11.4-.11.59.04.38.12.57.19.36.33.52.3.28.49.38.39.15.6.15.44-.05.65-.14.4-.22.56-.39.29-.36.39-.59.15-.48.15-.74c0-.15-.02-.31-.06-.45s-.11-.29-.19-.42ZM33.89,8.02c0,.06-.02.12-.04.17s-.04.1-.07.15-.05.1-.08.14-.05.1-.07.15c-.11-.06-.22-.12-.34-.18s-.24-.12-.36-.17c-.15-.06-.32-.12-.51-.16s-.38-.07-.57-.07c-.25,0-.48.05-.69.16s-.38.25-.53.43-.26.37-.34.59-.12.44-.12.66c0,.16.02.31.07.46s.11.29.19.42.19.25.31.35.26.19.41.25c.1.03.2.04.29.05s.2.01.29.01c.19,0,.37-.02.56-.06s.36-.1.54-.17.34-.16.5-.26.32-.21.46-.32c-.06.13-.11.27-.16.42s-.12.28-.19.41c-.33.05-.66.09-.99.13s-.67.06-1,.06c-.22,0-.45-.01-.67-.04s-.44-.08-.65-.15c-.16-.06-.3-.14-.42-.25s-.22-.23-.3-.37-.14-.29-.18-.45-.06-.32-.06-.47.01-.32.04-.48.07-.31.14-.46.15-.28.25-.41.22-.24.37-.33c.26-.17.55-.28.85-.34s.62-.08.94-.08c.36,0,.72.02,1.08.07s.71.09,1.05.12ZM38.43,8c-.04.12-.09.24-.13.33s-.09.19-.13.28c-.06-.02-.11-.04-.16-.07s-.11-.06-.16-.09-.11-.06-.16-.09-.11-.06-.17-.08c-.16-.06-.33-.11-.52-.16s-.37-.07-.56-.07c-.23,0-.44.05-.64.16s-.37.25-.52.42-.26.37-.35.58-.13.43-.13.65c0,.16.02.32.07.48s.11.3.2.43.19.25.31.35.26.19.42.25c.09.02.18.04.27.05s.18.01.26.01c.38,0,.73-.07,1.07-.22s.65-.34.94-.57c-.03.07-.06.14-.08.21s-.05.15-.08.22-.06.14-.08.21-.06.12-.09.17c-.28.06-.56.11-.86.14s-.61.05-.92.05c-.22,0-.44,0-.65-.02s-.43-.04-.63-.09c-.17-.05-.33-.13-.47-.24s-.26-.24-.36-.38-.17-.3-.23-.47-.08-.34-.08-.51.02-.35.05-.52.09-.33.17-.48.17-.29.29-.42.26-.24.42-.33c.24-.13.49-.22.78-.27s.57-.07.86-.07c.14,0,.28,0,.42.01s.29.02.46.03.34.03.54.06.41.05.66.07ZM43.55,8.89c.07.11.11.24.14.39s.04.29.04.44c0,.3-.06.57-.17.81s-.27.44-.46.61-.41.3-.66.39-.51.14-.77.14c-.09,0-.19,0-.29-.01s-.2-.01-.29-.01c-.12,0-.25,0-.37,0s-.24,0-.36,0c-.14,0-.27,0-.4-.02s-.26-.04-.38-.07-.24-.09-.36-.15-.22-.15-.33-.26c-.18-.18-.32-.37-.42-.59s-.14-.45-.14-.7c0-.2.04-.4.11-.6s.18-.38.3-.54.28-.32.45-.44.36-.23.55-.3c.15-.06.3-.09.45-.11s.3-.03.46-.03c.04,0,.07,0,.11,0s.07,0,.11,0c.09,0,.18,0,.27-.02s.18-.02.28-.02c.22,0,.43.02.64.05s.4.1.59.18.35.19.51.33.29.31.4.52ZM42.53,8.89c-.07-.12-.15-.23-.25-.33s-.21-.2-.33-.28-.24-.14-.37-.19-.25-.07-.37-.07c-.24,0-.47.05-.69.15s-.42.23-.59.4-.31.36-.42.58-.16.45-.16.69c0,.21.04.42.13.61s.2.37.35.52.31.27.5.36.39.13.6.13c.23,0,.46-.05.67-.15s.4-.23.57-.4.29-.37.39-.59.14-.46.14-.71c0-.12-.01-.25-.04-.37s-.07-.24-.14-.35Z"/>
</svg>