<?xml version="1.0" encoding="UTF-8"?>
<svg id="Layer_1" xmlns="http://www.w3.org/2000/svg" version="1.1" viewBox="0 0 889.86 413.5">
  <!-- Generator: Adobe Illustrator 30.1.0, SVG Export Plug-In . SVG Version: 2.1.1 Build 136)  -->
  <defs>
    <style>
      .st0 {
        fill: #ed2224;
      }

      .st1 {
        fill: none;
        stroke: #fff;
        stroke-miterlimit: 10;
        stroke-width: 4px;
      }

      .st2 {
        fill: #ec2227;
      }

      .st3 {
        fill: #fff;
      }
    </style>
  </defs>
  <g>
    <path class="st3" d="M33.48,381.56c-2.49.15-4.97.23-7.45.23-.16,0-.31-.47-.47-1.4-.16-.93.04-1.86.58-2.8.54-.93,1.59-1.55,3.14-1.86,3.41-.78,5.94-1.59,7.57-2.45,1.63-.85,2.83-2.33,3.61-4.43.78-2.1,1.17-5.32,1.17-9.67v-118.8c0-4.35-.39-7.57-1.17-9.67-.78-2.1-1.98-3.57-3.61-4.43-1.63-.85-4.16-1.67-7.57-2.45-1.55-.31-2.6-.93-3.14-1.86-.55-.93-.74-1.86-.58-2.8.15-.93.31-1.4.47-1.4,2.48,0,4.97.08,7.45.23.93.16,2.25.23,3.96.23h31.21c2.02,0,3.57-.08,4.66-.23,2.79-.15,5.59-.23,8.39-.23.15,0,.31.47.47,1.4.15.93-.08,1.86-.7,2.8-.62.93-1.86,1.55-3.73,1.86-3.88.78-6.68,1.59-8.39,2.45-1.71.85-3.03,2.33-3.96,4.43-.93,2.1-1.4,5.32-1.4,9.67v128.58c0,2.33.5,3.88,1.51,4.66,1.01.78,2.52,1.17,4.54,1.17,18.79.16,32.53-.19,41.23-1.05,8.7-.85,14.52-2.68,17.47-5.47,1.86-2.02,3.53-5.86,5.01-11.53,1.47-5.67,3.22-15.1,5.24-28.3.47-2.8,1.51-4.7,3.14-5.71,1.63-1.01,3.3-1.43,5.01-1.28,1.71.16,2.64.47,2.79.93-1.55,11.18-2.79,21.7-3.73,31.56-.93,9.86-1.25,18.13-.93,24.81.15,1.71-.12,2.99-.82,3.84-.7.85-1.67,1.28-2.91,1.28-1.55-.16-3.11-.31-4.66-.47-12.58-1.4-26.94-2.1-43.09-2.1h-56.37c-1.71,0-3.03.08-3.96.23Z"/>
    <path class="st3" d="M207.6,374.34c-12.19-6.99-21.7-16.73-28.53-29.23-6.84-12.5-10.25-26.59-10.25-42.28s4.04-30.94,12.11-44.37c8.07-13.43,19.02-24.03,32.84-31.8,13.82-7.76,28.96-11.65,45.42-11.65s29.7,3.53,42.04,10.6c12.35,7.07,22.01,16.81,29,29.23,6.99,12.43,10.48,26.32,10.48,41.7,0,17.24-3.88,32.53-11.65,45.89-7.77,13.36-18.6,23.76-32.5,31.21-13.9,7.45-29.78,11.18-47.63,11.18-15.37,0-29.16-3.49-41.35-10.48ZM290.17,368.29c8.7-5.28,15.41-12.89,20.15-22.83,4.74-9.94,7.1-21.58,7.1-34.94s-2.99-26.36-8.97-39.95c-5.98-13.59-14.25-24.81-24.81-33.66-10.56-8.85-22.13-13.28-34.71-13.28-10.72,0-20.42,2.84-29.12,8.5-8.7,5.67-15.53,13.36-20.5,23.06-4.97,9.71-7.45,20.54-7.45,32.49,0,13.2,2.99,26.71,8.97,40.53,5.98,13.82,14.17,25.27,24.57,34.36,10.4,9.08,21.82,13.63,34.24,13.63,11.65,0,21.82-2.64,30.51-7.92Z"/>
    <path class="st0" d="M487.7,289.79c-1.4,0-2.64-.5-3.73-1.51-1.09-1.01-1.55-2.76-1.4-5.24,1.08-7.14,1.47-13.66,1.17-19.57-.31-5.9-1.4-11.1-3.26-15.61-3.26-7.92-8.35-13.9-15.26-17.94-6.91-4.04-14.56-6.06-22.94-6.06-11.65,0-22.01,2.6-31.1,7.8-9.08,5.2-16.19,12.73-21.31,22.59-5.12,9.86-7.69,21.47-7.69,34.82,0,17.08,3.45,31.6,10.37,43.56,6.91,11.96,15.64,20.93,26.21,26.9,10.56,5.98,21.35,8.97,32.38,8.97,9.47,0,18.48-1.51,27.02-4.54,8.54-3.03,16.38-8.74,23.53-17.12.31-.31.97-.12,1.98.58,1.01.7,1.59,1.79,1.75,3.26.15,1.48-.55,3.14-2.1,5.01-7.45,8.85-16.93,15.92-28.42,21.2-11.49,5.28-23.84,7.92-37.04,7.92-13.98,0-26.94-3.38-38.9-10.13-11.96-6.76-21.47-16.34-28.53-28.77-7.07-12.42-10.6-26.71-10.6-42.86s3.88-31.41,11.65-44.84c7.76-13.43,18.32-23.99,31.68-31.68,13.35-7.69,27.95-11.53,43.79-11.53,10.87,0,20.73,1.79,29.58,5.36,8.85,3.57,15.45,8.19,19.8,13.86,4.35,5.67,5.74,11.53,4.19,17.59l-10.48,37.5c-.16.31-.93.47-2.33.47Z"/>
    <path class="st0" d="M508.66,381.56c-1.71.15-3.49.23-5.36.23-.16-.16-.31-.66-.47-1.51-.16-.85-.04-1.75.35-2.68.39-.93,1.2-1.55,2.45-1.86,1.4-.47,2.68-.97,3.84-1.51,1.16-.54,2.29-1.2,3.38-1.98,1.08-1.08,2.13-2.52,3.14-4.31,1.01-1.78,2.21-4.39,3.61-7.8l50.08-120.43c.62-1.86.93-3.76.93-5.71s-.31-3.61-.93-5.01l9.55,4.43-52.64,126.72c-1.71,4.04-2.37,7.03-1.98,8.97.39,1.94,1.51,3.34,3.38,4.19,1.86.85,4.97,1.67,9.32,2.45,2.02.31,3.38.93,4.08,1.86.7.93.97,1.86.82,2.8-.16.93-.39,1.4-.7,1.4-3.11,0-6.21-.08-9.32-.23-1.25-.16-2.95-.23-5.12-.23h-15.37c-1.25,0-2.25.08-3.03.23ZM537.2,331.95c1.17-2.8,2.37-4.89,3.61-6.29-.47,1.25-.47,2.25,0,3.03.47.78,1.24,1.16,2.33,1.16h64.76c1.24,0,2.06-.39,2.45-1.16.39-.78.35-1.63-.12-2.56.31,0,1.05.85,2.21,2.56,1.17,1.71,2.1,3.57,2.8,5.59.7,2.02.89,3.73.58,5.12-.62-1.24-1.36-2.06-2.21-2.45-.86-.39-2.21-.58-4.08-.58h-23.06c-7.61,0-15.18.04-22.71.12-7.53.08-15.18.04-22.94-.12-1.55,0-2.68.2-3.38.58-.7.39-1.44,1.21-2.21,2.45.15-2.17.82-4.66,1.98-7.45ZM619.54,381.56c-2.95.15-5.9.23-8.85.23-.16,0-.31-.47-.47-1.4-.16-.93.08-1.86.7-2.8.62-.93,1.94-1.55,3.96-1.86,4.19-.78,7.14-1.59,8.85-2.45,1.71-.85,2.71-2.25,3.03-4.19.31-1.94-.39-4.93-2.1-8.97l-56.14-133.01c-.47-1.24-.97-2.1-1.51-2.56-.55-.47-1.28-.93-2.21-1.4h-.23c-1.25-.31-2.02-.85-2.33-1.63-.31-.78-.31-1.51,0-2.21.31-.7.7-1.05,1.16-1.05h14.21c3.41,0,5.98.2,7.69.58,1.71.39,3.06,1.2,4.08,2.45,1.01,1.24,2.06,3.26,3.14,6.06l55.91,132.77c1.4,3.26,2.6,5.79,3.61,7.57,1.01,1.79,2.06,3.23,3.14,4.31.93.93,1.98,1.67,3.14,2.21,1.17.55,2.45,1.05,3.84,1.51.93.31,1.59.78,1.98,1.4.39.62.62,1.32.7,2.1.08.78-.04,1.63-.35,2.56-1.71,0-3.49-.08-5.36-.23-.78-.16-1.79-.23-3.03-.23h-31.68c-2.02,0-3.65.08-4.89.23Z"/>
    <path class="st0" d="M685.23,381.56c-2.49.15-4.97.23-7.45.23-.16,0-.31-.47-.47-1.4-.16-.93.04-1.86.58-2.8.54-.93,1.59-1.55,3.14-1.86,3.41-.78,5.94-1.59,7.57-2.45,1.63-.85,2.83-2.33,3.61-4.43.78-2.1,1.17-5.32,1.17-9.67v-118.8c0-4.35-.39-7.57-1.17-9.67-.78-2.1-1.98-3.57-3.61-4.43-1.63-.85-4.16-1.67-7.57-2.45-1.55-.31-2.6-.93-3.14-1.86-.55-.93-.74-1.86-.58-2.8.15-.93.31-1.4.47-1.4,2.48,0,4.97.08,7.45.23.93.16,2.25.23,3.96.23h31.21c2.02,0,3.57-.08,4.66-.23,2.79-.15,5.59-.23,8.39-.23.15,0,.31.47.47,1.4.15.93-.08,1.86-.7,2.8-.62.93-1.86,1.55-3.73,1.86-3.88.78-6.68,1.59-8.39,2.45-1.71.85-3.03,2.33-3.96,4.43-.93,2.1-1.4,5.32-1.4,9.67v128.58c0,2.33.5,3.88,1.51,4.66,1.01.78,2.52,1.17,4.54,1.17,18.79.16,32.53-.19,41.23-1.05,8.7-.85,14.52-2.68,17.47-5.47,1.86-2.02,3.53-5.86,5.01-11.53,1.47-5.67,3.22-15.1,5.24-28.3.47-2.8,1.51-4.7,3.14-5.71,1.63-1.01,3.3-1.43,5.01-1.28,1.71.16,2.64.47,2.79.93-1.55,11.18-2.79,21.7-3.73,31.56-.93,9.86-1.25,18.13-.93,24.81.15,1.71-.12,2.99-.82,3.84-.7.85-1.67,1.28-2.91,1.28-1.55-.16-3.11-.31-4.66-.47-12.58-1.4-26.94-2.1-43.09-2.1h-56.37c-1.71,0-3.03.08-3.96.23Z"/>
  </g>
  <g>
    <path class="st3" d="M31.37,201.69c-1.55.15-3.11.23-4.66.23-.31.15-.55-.27-.7-1.28-.16-1.01.08-1.98.7-2.91.62-.93,1.71-1.55,3.26-1.86,3.57-.78,6.17-1.71,7.8-2.8,1.63-1.08,2.75-2.72,3.38-4.89.62-2.17.93-5.51.93-10.02V60.29c0-4.19-.39-7.3-1.17-9.32-.78-2.02-1.98-3.49-3.61-4.43-1.63-.93-4.16-1.78-7.57-2.56-1.55-.47-2.6-1.08-3.14-1.86-.55-.78-.78-1.55-.7-2.33.08-.78.27-1.4.58-1.86,1.24,0,2.48.08,3.73.23,2.64,0,5.2.08,7.69.23h65.22c11.49,0,23.06-.7,34.71-2.1,1.71-.15,3.34-.31,4.89-.47,1.24,0,2.25.43,3.03,1.28.78.86,1.16,2.29,1.16,4.31,0,7.61.43,15.69,1.28,24.23.85,8.54,1.98,17.86,3.38,27.95-2.33.47-4.43.35-6.29-.35s-2.95-2.21-3.26-4.54c-.78-4.81-1.55-9.63-2.33-14.44-1.4-8.23-2.68-14.01-3.84-17.35-1.16-3.34-2.83-5.94-5.01-7.8-1.55-1.4-4.12-2.37-7.69-2.91-3.57-.54-9.98-.89-19.22-1.05-9.24-.15-20.54-.23-33.89-.23-2.02,0-3.46.55-4.31,1.63-.86,1.09-1.28,2.95-1.28,5.59v57.77c0,1.55.39,3.03,1.17,4.43.78,1.4,2.02,2.1,3.73,2.1,2.48,0,6.17-.08,11.06-.23,4.89-.15,9.59-.39,14.09-.7,2.33-.31,4.08-.82,5.24-1.51,1.16-.7,2.17-2.13,3.03-4.31.85-2.17,1.9-5.9,3.14-11.18.78-2.64,2.02-4.15,3.73-4.54,1.71-.39,3.18-.19,4.43.58-1.24,7.77-1.75,16.11-1.51,25.04.23,8.93.97,17.59,2.21,25.97-.31.31-1.05.55-2.21.7-1.17.16-2.29-.04-3.38-.58-1.09-.54-1.79-1.43-2.1-2.68-1.55-6.06-2.83-10.33-3.84-12.81-1.01-2.48-2.1-4.11-3.26-4.89-1.16-.78-2.99-1.32-5.47-1.63-3.26-.31-7.65-.5-13.16-.58-5.51-.08-9.51-.12-12-.12-1.71,0-2.95.62-3.73,1.86-.78,1.24-1.17,2.64-1.17,4.19v49.15c0,4.81.5,8.31,1.51,10.48,1.01,2.18,2.71,3.77,5.12,4.78,2.41,1.01,6.48,1.98,12.23,2.91,1.24.31,2.13.82,2.68,1.51.54.7.74,1.4.58,2.1-.16.7-.39,1.36-.7,1.98-3.26,0-6.6-.08-10.02-.23-1.4-.16-3.26-.23-5.59-.23h-30.75c-2.64.15-5.36.23-8.15.23Z"/>
    <path class="st3" d="M186.28,188.29c.77,2.25,1.9,3.92,3.38,5.01,1.47,1.09,3.3,1.79,5.47,2.1,1.86.16,3.06.74,3.61,1.75.54,1.01.7,2.06.47,3.14-.23,1.09-.51,1.63-.82,1.63-6.83-.47-14.29-.66-22.36-.58-8.08.08-16.54.27-25.39.58-.31,0-.58-.54-.82-1.63-.23-1.08-.04-2.13.58-3.14.62-1.01,1.94-1.59,3.96-1.75,3.41-.31,5.9-1.67,7.45-4.08,1.55-2.41,2.33-6.41,2.33-12v-57.54c0-2.17-.23-3.96-.7-5.36-.47-1.4-1.32-2.52-2.56-3.38-1.24-.85-2.88-1.43-4.89-1.75-1.24-.31-2.14-.97-2.68-1.98-.55-1.01-.78-1.98-.7-2.91.08-.93.19-1.55.35-1.86,6.83-1.24,12.5-2.6,17-4.08,4.5-1.47,8.46-3.45,11.88-5.94.62-.47,1.67-.47,3.14,0,1.47.47,2.13,1.16,1.98,2.1-.62,4.97-1.09,9.78-1.4,14.44-.31,4.66-.47,9.63-.47,14.91v53.58c0,3.57.39,6.49,1.17,8.74ZM161.12,69.84c-2.49-2.17-3.73-4.89-3.73-8.15,0-3.88,1.51-7.02,4.54-9.43,3.03-2.41,6.87-3.61,11.53-3.61,4.04,0,7.3,1.13,9.78,3.38,2.48,2.25,3.73,5.01,3.73,8.27,0,3.73-1.48,6.8-4.43,9.2-2.95,2.41-6.75,3.61-11.41,3.61-4.19,0-7.53-1.08-10.02-3.26Z"/>
    <path class="st3" d="M228.79,57.73c-.39-2.17-1.01-3.65-1.86-4.43-.85-.78-2.14-1.17-3.84-1.17-1.55-.31-2.6-.97-3.14-1.98-.55-1.01-.74-2.06-.58-3.14.15-1.08.31-1.63.47-1.63,6.06-.78,11.41-2.17,16.07-4.19,4.66-2.02,9.08-4.58,13.28-7.69,1.08,0,2.17.23,3.26.7,1.08.47,1.4,1.63.93,3.49-.78,4.35-1.4,11.57-1.86,21.66-.47,10.1-.7,20.42-.7,30.98v89.21c0,3.57.39,6.49,1.17,8.74.78,2.25,1.9,3.92,3.38,5.01,1.47,1.09,3.3,1.79,5.47,2.1,1.86.16,3.06.74,3.61,1.75.54,1.01.7,2.06.47,3.14-.23,1.09-.51,1.63-.82,1.63-6.83-.47-14.29-.66-22.36-.58-8.08.08-16.54.27-25.39.58-.31,0-.58-.54-.81-1.63-.23-1.08-.04-2.13.58-3.14.62-1.01,1.94-1.59,3.96-1.75,3.41-.31,5.9-1.67,7.45-4.08,1.55-2.41,2.33-6.41,2.33-12l-.47-111.81c0-4.35-.2-7.61-.58-9.78Z"/>
    <path class="st3" d="M317.88,188.29c.78,2.25,1.9,3.92,3.38,5.01,1.47,1.09,3.3,1.79,5.47,2.1,1.86.16,3.14.74,3.84,1.75.7,1.01.93,2.06.7,3.14-.23,1.09-.66,1.63-1.28,1.63-6.83-.47-14.29-.66-22.36-.58-8.08.08-16.54.27-25.39.58-.47,0-.82-.54-1.05-1.63-.23-1.08,0-2.13.7-3.14.7-1.01,2.06-1.59,4.08-1.75,2.33-.31,4.19-.97,5.59-1.98,1.4-1.01,2.45-2.64,3.14-4.89.7-2.25,1.05-5.32,1.05-9.2v-57.54c0-2.17-.23-3.96-.7-5.36-.47-1.4-1.32-2.52-2.56-3.38-1.25-.85-2.88-1.43-4.89-1.75-1.25-.31-2.14-.97-2.68-1.98-.55-1.01-.78-1.98-.7-2.91.08-.93.19-1.55.35-1.86,6.83-1.24,12.5-2.6,17-4.08,4.5-1.47,8.46-3.45,11.88-5.94.62-.47,1.67-.47,3.14,0,1.47.47,2.13,1.16,1.98,2.1-.62,4.97-1.09,9.78-1.4,14.44-.31,4.66-.47,9.63-.47,14.91v53.58c0,3.57.39,6.49,1.17,8.74ZM394.05,200.75c-1.55,1.08-3.38,1.86-5.47,2.33s-4.16.54-6.17.23c-4.04-.62-7.42-2.41-10.13-5.36-2.72-2.95-4.23-6.75-4.54-11.41l-2.8-56.14c-.31-7.45-2.41-13.35-6.29-17.7-3.88-4.35-8.7-6.52-14.44-6.52-8.7,0-15.45,3.81-20.27,11.41-4.82,7.61-7.22,16.77-7.22,27.49,0,1.09-.2.9-.58-.58-.39-1.47-.74-3.18-1.05-5.12-.31-1.94-.47-3.69-.47-5.24,0-6.68,1.63-13.2,4.89-19.57,3.26-6.37,7.84-11.57,13.74-15.61,5.9-4.04,12.58-6.06,20.03-6.06,8.7,0,16.15,2.91,22.36,8.73,6.21,5.82,9.63,14.09,10.25,24.81l2.79,56.84c0,2.33.39,4.16,1.17,5.47.78,1.32,1.75,2.21,2.91,2.68,1.17.47,2.45.55,3.84.23.15-.15.43.08.82.7.39.62.62,1.32.7,2.1.08.78-.27,1.55-1.05,2.33-.47,1.55-1.48,2.88-3.03,3.96ZM461.02,188.18c1.01,1.71,2.37,2.56,4.08,2.56.93,0,1.75-.12,2.45-.35.7-.23,1.24-.62,1.63-1.16.39-.54.74-1.28,1.05-2.21.93,0,1.9.31,2.91.93,1.01.62,1.51,1.94,1.51,3.96,0,2.18-.74,4.23-2.21,6.17-1.48,1.94-3.49,3.49-6.06,4.66-2.56,1.16-5.4,1.75-8.5,1.75-5.9-.16-10.48-2.1-13.74-5.82-3.26-3.73-5.2-9.55-5.82-17.47l-4.66-49.15c-.93-9.16-3.42-15.76-7.45-19.8-4.04-4.04-9.08-6.06-15.14-6.06-5.59,0-10.25,1.67-13.98,5.01-3.73,3.34-6.45,7.77-8.15,13.28-1.71,5.51-2.49,11.61-2.33,18.29,0,1.55-.23,1.63-.7.23-.47-1.4-.93-3.06-1.4-5.01-.47-1.94-.78-3.69-.93-5.24-.31-6.99,1.01-13.55,3.96-19.68,2.95-6.13,7.22-11.02,12.81-14.68,5.59-3.65,12.11-5.47,19.57-5.47,5.59,0,10.83,1.24,15.72,3.73,4.89,2.49,9.04,6.37,12.46,11.65,3.41,5.28,5.51,12.04,6.29,20.27l4.66,50.78c.31,4.19.97,7.14,1.98,8.85Z"/>
  </g>
  <circle class="st2" cx="842.68" cy="351.96" r="29.36"/>
  <polyline class="st1" points="2 92.35 2 2 92.35 2"/>
  <polyline class="st1" points="2 321.15 2 411.5 92.35 411.5"/>
  <polyline class="st1" points="887.86 92.35 887.86 2 797.5 2"/>
  <polyline class="st1" points="887.86 321.15 887.86 411.5 797.5 411.5"/>
</svg>