<?xml version="1.0" encoding="UTF-8"?>
<svg id="Layer_1" data-name="Layer 1" xmlns="http://www.w3.org/2000/svg" viewBox="0 0 640 640">
  <defs>
    <style>
      .cls-1 {
        fill: #fff;
      }
    </style>
  </defs>
  <path class="cls-1" d="M638.36,291.43c0,11.51-1.1,23.23-3.29,35.14-2.19,11.92-5.41,23.43-9.66,34.53-4.25,11.1-9.52,21.65-15.83,31.65-6.31,10.01-13.43,18.98-21.37,26.92.82,7.4,1.23,14.66,1.23,21.78,0,16.17-2.12,32.13-6.37,47.89-4.25,15.76-10.35,30.69-18.29,44.8-7.95,14.12-17.61,27.13-28.98,39.05-11.37,11.92-24.05,22.27-38.02,31.04s-29.33,15.62-46.03,20.55c-16.72,4.93-34.26,7.4-52.62,7.4-13.98,0-27.61-1.51-40.9-4.52-13.3-3.02-26.1-7.26-38.44-12.74-24.94,11.23-51.24,16.85-78.92,16.85s-52.75-5.28-76.04-15.83c-23.29-10.55-43.44-24.66-60.42-42.34-16.99-17.67-30.28-38.02-39.87-61.04-9.59-23.02-14.38-46.86-14.38-71.52,0-3.83.27-7.4.82-10.69.54-3.29.82-6.85.82-10.68-15.9-16.99-28.23-36.59-36.99-58.78-8.77-22.2-13.16-45.35-13.16-69.47s4.11-47.06,12.33-68.03c8.22-20.96,19.25-39.59,33.09-55.9,13.84-16.3,30.01-29.87,48.51-40.69,18.5-10.82,38.02-18.29,58.57-22.4,8.22-14.25,18.22-27.34,30-39.25,11.78-11.92,24.73-22.13,38.84-30.62,14.11-8.49,29.39-15.07,45.83-19.73,16.44-4.66,33.56-6.99,51.38-6.99s34.53,2.33,50.97,6.99c16.44,4.67,31.78,11.24,46.03,19.73,14.25,8.5,27.27,18.7,39.05,30.62,11.78,11.92,21.78,25.01,30,39.25,20.55,4.11,40.01,11.71,58.37,22.81,18.35,11.1,34.46,24.81,48.3,41.11,13.84,16.31,24.87,34.94,33.09,55.9,8.22,20.97,12.33,43.37,12.33,67.2ZM52.2,291.43c0,11.79,1.5,23.3,4.52,34.53,3.01,11.24,7.26,22.06,12.74,32.47,8.77-18.36,19.86-34.32,33.29-47.89,13.43-13.57,27.95-25,43.57-34.32-5.48-12.06-9.66-24.52-12.53-37.4-2.88-12.88-4.32-26.31-4.32-40.29,0-5.75.21-11.37.62-16.85.41-5.48,1.3-10.95,2.67-16.44-11.24,4.94-21.72,11.65-31.45,20.14-9.73,8.5-18.23,18.29-25.49,29.39-7.26,11.1-13.02,23.16-17.26,36.17-4.25,13.02-6.37,26.51-6.37,40.49ZM240.87,581.22c8.77,0,17.27-.82,25.49-2.47-13.98-14.52-25.49-30-34.53-46.45-9.04-16.44-15.35-33.7-18.91-51.79-7.13.82-14.11,1.24-20.96,1.24-30.15,0-60.01-7.53-89.61-22.61,2.19,16.44,7.19,32,15,46.66,7.81,14.66,17.88,27.61,30.21,38.84,12.33,11.24,26.44,20.14,42.34,26.72,15.89,6.58,32.89,9.87,50.97,9.87ZM191.96,430.78c5.75,0,11.37-.41,16.85-1.24.82-11.51,2.6-22.74,5.34-33.7,2.73-10.95,6.58-21.64,11.51-32.06-9.87-5.75-19.19-12.4-27.95-19.93-8.77-7.53-16.72-15.69-23.84-24.46-16.17,8.77-30.07,20.28-41.72,34.53-11.65,14.25-19.93,30.28-24.87,48.09,11.51,8.77,24.8,15.76,39.87,20.96,15.07,5.21,30.01,7.81,44.81,7.81ZM180.86,198.53c0,10.69,1.16,20.97,3.49,30.83,2.33,9.86,5.55,19.18,9.66,27.95,7.67-2.19,15.41-3.7,23.22-4.52,7.81-.82,15.69-1.23,23.63-1.23h10.48c3.42,0,6.78.27,10.07.82,2.46-11.51,5.89-22.47,10.28-32.88,4.38-10.41,9.59-20.41,15.62-30-12.06-11.23-26.04-20.28-41.93-27.13-15.89-6.85-33.7-10.55-53.43-11.1h-3.29c-2.47,7.68-4.39,15.49-5.75,23.43-1.38,7.95-2.05,15.89-2.05,23.84ZM320.21,58.78c-19.46,0-37.55,3.63-54.26,10.89-16.72,7.26-31.52,17.2-44.39,29.8l-2.88,2.88c20.28,3.02,38.77,8.63,55.49,16.85,16.71,8.22,32.06,18.5,46.04,30.83,13.7-12.33,28.98-22.61,45.83-30.83,16.85-8.22,35.41-13.84,55.7-16.85-1.1-.82-2.05-1.78-2.88-2.88-12.88-12.6-27.68-22.54-44.39-29.8-16.72-7.26-34.8-10.89-54.26-10.89ZM320.21,233.47c-13.71,0-26.58,2.61-38.64,7.81-12.06,5.21-22.61,12.27-31.65,21.17-9.04,8.91-16.17,19.39-21.37,31.45-5.21,12.06-7.81,24.94-7.81,38.64s2.6,26.58,7.81,38.64c5.2,12.06,12.33,22.55,21.37,31.45,9.04,8.91,19.59,15.97,31.65,21.17,12.06,5.21,24.93,7.81,38.64,7.81s26.58-2.6,38.64-7.81c12.05-5.2,22.54-12.26,31.44-21.17,8.9-8.9,15.96-19.38,21.17-31.45,5.21-12.05,7.81-24.93,7.81-38.64,0-16.44-3.7-31.65-11.1-45.63s-17.27-25.49-29.6-34.53c3.29-.54,6.58-.82,9.86-.82h10.28c7.94,0,15.89.41,23.84,1.23,7.95.82,15.89,2.33,23.84,4.52,4.11-8.77,7.33-18.09,9.66-27.95,2.33-9.87,3.49-20.14,3.49-30.83,0-2.46-.2-6.3-.62-11.51-.41-5.2-1.03-10.48-1.85-15.83-.82-5.34-1.99-10-3.49-13.98-1.51-3.97-3.36-5.96-5.55-5.96-17.27,0-34.32,3.49-51.17,10.48-16.86,6.99-31.45,16.23-43.78,27.75,12.06,18.91,20.56,39.87,25.49,62.89-8.22-6.02-17.27-10.68-27.13-13.98-9.87-3.29-20.29-4.93-31.24-4.93ZM238.82,332.54c0-3.56.27-7.12.82-10.69.54-3.56,1.23-6.99,2.05-10.28h34.12c-.82,6.58-1.23,13.57-1.23,20.97s.41,14.53,1.23,21.37h-34.12c-.82-3.56-1.51-7.05-2.05-10.48-.55-3.43-.82-7.06-.82-10.89ZM262.66,274.99c9.31-8.77,20.41-15.48,33.3-20.14-3.56,6.03-6.72,12.27-9.45,18.7-2.75,6.44-5.07,13.23-6.99,20.35h-30.42c1.65-3.56,3.63-6.85,5.96-9.86,2.32-3.02,4.86-6.03,7.6-9.04ZM279.51,371.59c1.92,6.85,4.24,13.5,6.99,19.93,2.73,6.45,5.75,12.68,9.04,18.71-9.59-3.02-18.64-7.88-27.13-14.59-8.5-6.71-14.94-14.73-19.32-24.05h30.42ZM319.79,556.56c15.62-10.41,28.36-23.43,38.23-39.05,9.86-15.62,16.44-32.06,19.73-49.32-10.42-4.11-20.55-9.18-30.42-15.21-9.86-6.03-19.05-13.01-27.54-20.97-8.22,7.67-17.2,14.59-26.92,20.76-9.73,6.17-20.08,11.31-31.03,15.42,3.56,17.27,10.21,33.7,19.93,49.32,9.73,15.62,22.41,28.64,38.02,39.05ZM293.9,353.91c-1.1-6.3-1.65-13.42-1.65-21.37,0-3.56.13-7.12.41-10.69.27-3.56.68-6.99,1.24-10.28h52.2c.54,3.29.96,6.72,1.23,10.28.27,3.56.41,7.13.41,10.69,0,7.95-.55,15.07-1.65,21.37h-52.2ZM298.42,293.9c2.19-7.94,5.07-15.41,8.64-22.4,3.56-6.99,7.81-13.63,12.74-19.93,9.87,12.33,17.13,26.44,21.79,42.34h-43.16ZM319.79,413.51c-10.14-12.88-17.26-26.85-21.37-41.93h43.16c-4.39,15.35-11.65,29.33-21.79,41.93ZM360.49,293.9c-3.84-14.52-9.32-27.54-16.44-39.05,9.59,3.02,18.7,7.95,27.33,14.8,8.63,6.85,15.27,14.94,19.94,24.25h-30.83ZM377.75,390.08c-4.93,4.66-10.14,8.63-15.62,11.92-5.48,3.29-11.37,6.03-17.67,8.22,6.85-11.78,12.19-24.66,16.03-38.64h30.83c-3.84,7.13-8.37,13.3-13.57,18.5ZM401.6,332.54c0,3.84-.28,7.47-.82,10.89-.55,3.43-1.24,6.92-2.05,10.48h-34.53c.55-3.56.96-7.12,1.24-10.69.27-3.56.41-7.12.41-10.68s-.14-7.12-.41-10.69c-.28-3.56-.69-6.99-1.24-10.28h34.53c.82,3.29,1.5,6.72,2.05,10.28.54,3.56.82,7.13.82,10.69ZM480.92,554.5c16.44-11.78,29.39-25.9,38.84-42.34,9.45-16.44,15.27-34.11,17.47-53.02-13.15,7.4-27.61,13.09-43.37,17.06-15.76,3.97-31.03,5.96-45.83,5.96-3.84,0-7.4-.13-10.69-.41-3.29-.27-6.72-.55-10.28-.82-3.84,17.81-10.28,35.14-19.32,52-9.04,16.85-20.69,32.13-34.94,45.83,9.04,1.65,17.81,2.47,26.31,2.47,14.25,0,28.29-2.19,42.13-6.58,13.84-4.38,27.06-11.1,39.67-20.14ZM430.78,429.54c5.75.82,11.51,1.24,17.27,1.24,15.34,0,30.42-2.6,45.21-7.81,14.8-5.2,27.95-12.19,39.46-20.96-4.66-17.27-12.95-33.16-24.87-47.68-11.92-14.52-25.69-26.03-41.31-34.53-7.13,8.77-15.15,16.85-24.05,24.25-8.91,7.4-18.29,13.98-28.16,19.73,4.66,10.42,8.43,21.11,11.31,32.06,2.88,10.96,4.58,22.2,5.14,33.7ZM553.27,329.66c3.29,4.66,6.3,9.39,9.04,14.18,2.74,4.8,5.48,9.66,8.22,14.59,5.48-10.41,9.72-21.17,12.74-32.27,3.01-11.1,4.52-22.67,4.52-34.74,0-14.25-2.12-27.88-6.37-40.9-4.25-13.01-10.01-24.93-17.27-35.76-7.26-10.82-15.76-20.48-25.49-28.98-9.73-8.49-20.08-15.35-31.03-20.56,1.92,10.42,2.88,21.52,2.88,33.3,0,13.98-1.44,27.41-4.32,40.29-2.88,12.88-7.06,25.48-12.53,37.82,11.51,6.31,22.26,13.84,32.27,22.61,10,8.77,19.11,18.91,27.33,30.42Z"/>
</svg>