<?xml version="1.0" encoding="UTF-8"?>
<svg id="Layer_1" xmlns="http://www.w3.org/2000/svg" version="1.1" viewBox="0 0 794.54 178.74">
  <!-- Generator: Adobe Illustrator 30.1.0, SVG Export Plug-In . SVG Version: 2.1.1 Build 136)  -->
  <defs>
    <style>
      .st0 {
        fill: #fff;
      }
    </style>
  </defs>
  <g>
    <path class="st0" d="M33.09,160.23c0-.13.07-.2.2-.2h2.47c.13,0,.2.07.2.2v5.38c0,.13.07.2.2.2h4.69c.13,0,.2-.07.2-.2v-5.38c0-.13.07-.2.2-.2h2.47c.13,0,.2.07.2.2v13.8c0,.13-.07.2-.2.2h-2.47c-.13,0-.2-.07-.2-.2v-5.44c0-.13-.07-.2-.2-.2h-4.69c-.13,0-.2.07-.2.2v5.44c0,.13-.07.2-.2.2h-2.47c-.13,0-.2-.07-.2-.2v-13.8Z"/>
    <path class="st0" d="M46.14,163.91h5.58c.5,0,.93.11,1.28.33s.63.5.85.84.38.73.48,1.15c.1.42.15.84.15,1.27v6.53c0,.13-.07.2-.2.2h-6.91c-.4,0-.72-.12-.97-.37-.25-.24-.45-.53-.58-.86s-.23-.66-.29-.99c-.05-.33-.08-.58-.08-.75,0-.32.04-.67.12-1.05s.2-.74.38-1.06c.17-.32.4-.6.67-.82.28-.22.61-.34,1.01-.34h3.31c.34,0,.62-.08.82-.25s.31-.36.31-.58c0-.18-.07-.37-.2-.55s-.3-.28-.51-.28h-5.21c-.13,0-.2-.07-.2-.2v-2.02c0-.13.07-.2.2-.2ZM51.86,171.91c.13,0,.2-.07.2-.2v-1.19c0-.13-.07-.2-.2-.2h-3.52c-.19,0-.34.08-.46.23-.12.15-.18.32-.18.5,0,.22.07.42.2.59.13.17.32.26.55.26h3.4Z"/>
    <path class="st0" d="M61.93,173.23c-.28.75-.86,1.13-1.76,1.13s-1.46-.38-1.74-1.13l-3.42-9.21v-.06c0-.07.03-.1.1-.1h2.28c.08,0,.13.01.16.04s.05.08.08.16l2.3,6.28s.05.1.1.22c.05.12.11.18.16.18s.11-.06.16-.18c.05-.12.09-.19.1-.22l2.34-6.28c.03-.08.05-.13.08-.16s.08-.04.16-.04h2.28c.07,0,.1.03.1.1v.06l-3.44,9.21Z"/>
    <path class="st0" d="M67.67,170.42c0,.2.05.38.16.54.11.17.25.31.43.44.18.13.39.22.64.3.25.07.51.11.79.11h4.71c.13,0,.2.07.2.2v2.02c0,.13-.07.2-.2.2h-3.35c-1.11,0-2.04-.09-2.78-.28-.75-.18-1.35-.48-1.8-.88-.46-.4-.78-.91-.97-1.53-.19-.62-.29-1.37-.29-2.24,0-1.06.16-1.93.48-2.62.32-.69.75-1.24,1.27-1.65.52-.41,1.11-.7,1.76-.86s1.31-.25,1.97-.25c.82,0,1.52.1,2.12.29s1.08.46,1.46.81.66.78.84,1.28c.18.5.27,1.06.27,1.68v2.06c0,.13-.07.2-.2.2h-7.32c-.13,0-.2.07-.2.2ZM72.96,167.91c.13,0,.2-.07.2-.2,0-.5-.23-.9-.69-1.2s-1.11-.45-1.94-.45c-.26,0-.56.04-.88.12-.32.08-.63.19-.93.33s-.54.31-.74.51c-.2.21-.3.43-.3.68,0,.13.07.2.2.2h5.09Z"/>
    <path class="st0" d="M83.02,163.91h5.58c.5,0,.93.11,1.28.33s.63.5.85.84.38.73.48,1.15c.1.42.15.84.15,1.27v6.53c0,.13-.07.2-.2.2h-6.91c-.4,0-.72-.12-.97-.37-.25-.24-.45-.53-.58-.86s-.23-.66-.29-.99c-.05-.33-.08-.58-.08-.75,0-.32.04-.67.12-1.05s.2-.74.38-1.06c.17-.32.4-.6.67-.82.28-.22.61-.34,1.01-.34h3.31c.34,0,.62-.08.82-.25s.31-.36.31-.58c0-.18-.07-.37-.2-.55s-.3-.28-.51-.28h-5.21c-.13,0-.2-.07-.2-.2v-2.02c0-.13.07-.2.2-.2ZM88.74,171.91c.13,0,.2-.07.2-.2v-1.19c0-.13-.07-.2-.2-.2h-3.52c-.19,0-.34.08-.46.23-.12.15-.18.32-.18.5,0,.22.07.42.2.59.13.17.32.26.55.26h3.4Z"/>
    <path class="st0" d="M99.53,176.01h5.34c.17,0,.3-.05.4-.14s.16-.2.21-.33c.05-.13.07-.26.08-.42,0-.15,0-.29,0-.41v-.5h-2.95c-.51,0-1.03-.11-1.53-.32-.51-.21-.97-.52-1.38-.94-.41-.42-.74-.92-1-1.52s-.39-1.29-.39-2.07v-1.27c0-.54.08-1.06.24-1.56.16-.5.4-.95.73-1.34.33-.39.76-.7,1.28-.94.52-.24,1.14-.36,1.85-.36h4.57c.33,0,.59.08.79.23.2.15.3.4.3.74v10.61c0,.28-.07.58-.21.9s-.33.62-.56.89c-.24.27-.51.49-.83.67-.32.18-.65.27-1.01.27h-5.94c-.13,0-.2-.07-.2-.2v-1.82c0-.13.07-.2.2-.2ZM101.12,170.32c.1.33.27.61.5.83.24.22.56.39.96.5.4.11.91.16,1.51.16h1.27c.13,0,.2-.07.2-.2v-5.09c0-.13-.07-.2-.2-.2h-2.59c-.63,0-1.09.2-1.38.61-.28.41-.43.97-.43,1.68v.51c0,.46.05.86.15,1.19Z"/>
    <path class="st0" d="M114.65,163.91c.13,0,.2.07.2.2v2.02c0,.13-.07.2-.2.2h-1.9c-.12,0-.22.03-.32.1-.09.07-.18.14-.25.23-.07.09-.13.18-.17.28s-.06.19-.06.27v6.83c0,.13-.07.2-.2.2h-2.22c-.13,0-.2-.07-.2-.2v-7.52c0-.34.07-.67.21-.99.14-.32.33-.59.56-.83.24-.24.51-.42.83-.56.32-.14.65-.21,1.01-.21h2.69Z"/>
    <path class="st0" d="M117.86,170.42c0,.2.05.38.16.54.11.17.25.31.43.44.18.13.39.22.64.3.25.07.51.11.79.11h4.71c.13,0,.2.07.2.2v2.02c0,.13-.07.2-.2.2h-3.35c-1.11,0-2.04-.09-2.78-.28-.75-.18-1.35-.48-1.8-.88-.46-.4-.78-.91-.97-1.53-.19-.62-.29-1.37-.29-2.24,0-1.06.16-1.93.48-2.62.32-.69.75-1.24,1.27-1.65.52-.41,1.11-.7,1.76-.86s1.31-.25,1.97-.25c.82,0,1.52.1,2.12.29s1.08.46,1.46.81.66.78.84,1.28c.18.5.27,1.06.27,1.68v2.06c0,.13-.07.2-.2.2h-7.32c-.13,0-.2.07-.2.2ZM123.14,167.91c.13,0,.2-.07.2-.2,0-.5-.23-.9-.69-1.2s-1.11-.45-1.94-.45c-.26,0-.56.04-.88.12-.32.08-.63.19-.93.33s-.54.31-.74.51c-.2.21-.3.43-.3.68,0,.13.07.2.2.2h5.09Z"/>
    <path class="st0" d="M127.62,163.91h5.58c.5,0,.93.11,1.28.33s.63.5.85.84.38.73.48,1.15c.1.42.15.84.15,1.27v6.53c0,.13-.07.2-.2.2h-6.91c-.4,0-.72-.12-.97-.37-.25-.24-.45-.53-.58-.86s-.23-.66-.29-.99c-.05-.33-.08-.58-.08-.75,0-.32.04-.67.12-1.05s.2-.74.38-1.06c.17-.32.4-.6.67-.82.28-.22.61-.34,1.01-.34h3.31c.34,0,.62-.08.82-.25s.31-.36.31-.58c0-.18-.07-.37-.2-.55s-.3-.28-.51-.28h-5.21c-.13,0-.2-.07-.2-.2v-2.02c0-.13.07-.2.2-.2ZM133.34,171.91c.13,0,.2-.07.2-.2v-1.19c0-.13-.07-.2-.2-.2h-3.52c-.19,0-.34.08-.46.23-.12.15-.18.32-.18.5,0,.22.07.42.2.59.13.17.32.26.55.26h3.4Z"/>
    <path class="st0" d="M140.9,171.61c0,.13.07.2.2.2h1.66c.11.01.16.08.16.2v2.02c0,.13-.07.2-.2.2h-2.49c-.5,0-.92-.15-1.25-.46-.33-.3-.5-.66-.5-1.07v-6.18c0-.13-.07-.2-.2-.2h-1.05c-.13,0-.2-.07-.2-.2v-2.02c0-.13.07-.2.2-.2h1.05c.13,0,.2-.07.2-.2v-2.47c0-.13.07-.2.2-.2h2.02c.13,0,.2.07.2.2v2.47c0,.13.07.2.2.2h1.62c.13,0,.2.07.2.2v2.02c0,.13-.07.2-.2.2h-1.62c-.13,0-.2.07-.2.2v5.09Z"/>
    <path class="st0" d="M149.94,171.81h5.44c.18,0,.33-.03.44-.09.11-.06.19-.14.25-.23.06-.09.1-.19.11-.31.01-.11.02-.21.02-.31,0-.17-.04-.34-.13-.51-.09-.17-.26-.26-.52-.26h-3.11c-.48,0-.88-.08-1.21-.23-.33-.15-.59-.36-.79-.63s-.34-.59-.44-.97c-.09-.38-.14-.79-.14-1.24,0-.66.08-1.19.23-1.6s.38-.73.69-.95.71-.38,1.19-.46c.48-.08,1.06-.12,1.73-.12h4.28c.13,0,.2.07.2.2v2.02c0,.13-.07.2-.2.2h-5.19c-.21,0-.36.08-.46.23-.09.15-.14.32-.14.5,0,.17.05.34.15.51s.25.26.45.26h2.89c.51,0,.96.06,1.33.17.37.11.67.3.9.56.23.26.4.62.51,1.08s.17,1.03.17,1.71c0,.2-.03.46-.09.78-.06.32-.17.64-.33.95-.16.31-.38.58-.66.8-.28.22-.65.34-1.1.34h-6.47c-.13,0-.2-.07-.2-.2v-2.02c0-.13.07-.2.2-.2Z"/>
    <path class="st0" d="M163.48,171.61c0,.13.07.2.2.2h1.66c.11.01.16.08.16.2v2.02c0,.13-.07.2-.2.2h-2.49c-.5,0-.92-.15-1.25-.46-.33-.3-.5-.66-.5-1.07v-6.18c0-.13-.07-.2-.2-.2h-1.05c-.13,0-.2-.07-.2-.2v-2.02c0-.13.07-.2.2-.2h1.05c.13,0,.2-.07.2-.2v-2.47c0-.13.07-.2.2-.2h2.02c.13,0,.2.07.2.2v2.47c0,.13.07.2.2.2h1.62c.13,0,.2.07.2.2v2.02c0,.13-.07.2-.2.2h-1.62c-.13,0-.2.07-.2.2v5.09Z"/>
    <path class="st0" d="M167.4,163.91h5.58c.5,0,.93.11,1.28.33s.63.5.85.84.38.73.48,1.15c.1.42.15.84.15,1.27v6.53c0,.13-.07.2-.2.2h-6.91c-.4,0-.72-.12-.97-.37-.25-.24-.45-.53-.58-.86s-.23-.66-.29-.99c-.05-.33-.08-.58-.08-.75,0-.32.04-.67.12-1.05s.2-.74.38-1.06c.17-.32.4-.6.67-.82.28-.22.61-.34,1.01-.34h3.31c.34,0,.62-.08.82-.25s.31-.36.31-.58c0-.18-.07-.37-.2-.55s-.3-.28-.51-.28h-5.21c-.13,0-.2-.07-.2-.2v-2.02c0-.13.07-.2.2-.2ZM173.12,171.91c.13,0,.2-.07.2-.2v-1.19c0-.13-.07-.2-.2-.2h-3.52c-.19,0-.34.08-.46.23-.12.15-.18.32-.18.5,0,.22.07.42.2.59.13.17.32.26.55.26h3.4Z"/>
    <path class="st0" d="M178.88,178.06c-.07,0-.1-.03-.1-.08v-.06l1.39-3.66v-.02s-.05-.04-.14-.04-.2-.01-.32-.04-.24-.08-.37-.17-.22-.23-.29-.43l-3.21-9.44s-.02-.04-.02-.08c0-.09.05-.14.14-.14h2.3c.12,0,.2.05.24.14l2.1,6.59s.03.1.06.19c.03.09.06.17.11.26.05.09.1.17.15.24.05.07.11.11.16.11s.11-.03.16-.1c.05-.07.1-.14.14-.23.04-.09.08-.17.11-.26.03-.09.06-.15.07-.19l2.51-6.63c.03-.08.1-.12.22-.12h2.38c.13,0,.2.05.2.14,0,.03,0,.05-.02.08l-5.29,13.78c-.04.11-.15.16-.32.16h-2.36Z"/>
    <path class="st0" d="M199.52,166.71c-.46-.26-1.01-.39-1.67-.39-.22,0-.45,0-.67.03-.22.02-.43.06-.6.12s-.33.15-.45.27c-.12.12-.18.27-.18.46v6.83c0,.13-.07.2-.2.2h-2.02c-.13,0-.2-.07-.2-.2v-13.8c0-.13.07-.2.2-.2h2.02c.13,0,.2.07.2.2v3.68h3.44c.41,0,.81.08,1.2.23s.73.36,1.03.63.54.58.72.94c.18.36.28.73.28,1.13v7.19c0,.13-.07.2-.2.2h-2.02c-.13,0-.2-.07-.2-.2v-6.06c0-.58-.23-1-.68-1.26Z"/>
    <path class="st0" d="M205.98,170.42c0,.2.05.38.16.54.11.17.25.31.43.44.18.13.39.22.64.3.25.07.51.11.79.11h4.71c.13,0,.2.07.2.2v2.02c0,.13-.07.2-.2.2h-3.35c-1.11,0-2.04-.09-2.78-.28-.75-.18-1.35-.48-1.8-.88-.46-.4-.78-.91-.97-1.53-.19-.62-.29-1.37-.29-2.24,0-1.06.16-1.93.48-2.62.32-.69.75-1.24,1.27-1.65.52-.41,1.11-.7,1.76-.86s1.31-.25,1.97-.25c.82,0,1.52.1,2.12.29s1.08.46,1.46.81.66.78.84,1.28c.18.5.27,1.06.27,1.68v2.06c0,.13-.07.2-.2.2h-7.32c-.13,0-.2.07-.2.2ZM211.27,167.91c.13,0,.2-.07.2-.2,0-.5-.23-.9-.69-1.2s-1.11-.45-1.94-.45c-.26,0-.56.04-.88.12-.32.08-.63.19-.93.33s-.54.31-.74.51c-.2.21-.3.43-.3.68,0,.13.07.2.2.2h5.09Z"/>
    <path class="st0" d="M220.42,163.91c.13,0,.2.07.2.2v2.02c0,.13-.07.2-.2.2h-1.9c-.12,0-.22.03-.32.1-.09.07-.18.14-.25.23-.07.09-.13.18-.17.28s-.06.19-.06.27v6.83c0,.13-.07.2-.2.2h-2.22c-.13,0-.2-.07-.2-.2v-7.52c0-.34.07-.67.21-.99.14-.32.33-.59.56-.83.24-.24.51-.42.83-.56.32-.14.65-.21,1.01-.21h2.69Z"/>
    <path class="st0" d="M223.62,170.42c0,.2.05.38.16.54.11.17.25.31.43.44.18.13.39.22.64.3.25.07.51.11.79.11h4.71c.13,0,.2.07.2.2v2.02c0,.13-.07.2-.2.2h-3.35c-1.11,0-2.04-.09-2.78-.28-.75-.18-1.35-.48-1.8-.88-.46-.4-.78-.91-.97-1.53-.19-.62-.29-1.37-.29-2.24,0-1.06.16-1.93.48-2.62.32-.69.75-1.24,1.27-1.65.52-.41,1.11-.7,1.76-.86s1.31-.25,1.97-.25c.82,0,1.52.1,2.12.29s1.08.46,1.46.81.66.78.84,1.28c.18.5.27,1.06.27,1.68v2.06c0,.13-.07.2-.2.2h-7.32c-.13,0-.2.07-.2.2ZM228.91,167.91c.13,0,.2-.07.2-.2,0-.5-.23-.9-.69-1.2s-1.11-.45-1.94-.45c-.26,0-.56.04-.88.12-.32.08-.63.19-.93.33s-.54.31-.74.51c-.2.21-.3.43-.3.68,0,.13.07.2.2.2h5.09Z"/>
    <path class="st0" d="M238.59,160.03h2.02c.13,0,.2.07.2.2v2.02c0,.13-.07.2-.2.2h-2.02c-.13,0-.2-.07-.2-.2v-2.02c0-.13.07-.2.2-.2ZM238.39,164.11c0-.13.07-.2.2-.2h2.02c.13,0,.2.07.2.2v9.92c0,.13-.07.2-.2.2h-2.02c-.13,0-.2-.07-.2-.2v-9.92Z"/>
    <path class="st0" d="M244.88,173.59c0,.42-.19.63-.55.63h-1.33c-.19,0-.32-.08-.41-.24-.09-.16-.13-.34-.13-.55v-8.21c0-.33.14-.63.41-.9.27-.27.62-.41,1.04-.41h4.47c.48,0,.92.1,1.33.29s.77.45,1.08.76c.31.32.55.68.72,1.09s.26.83.26,1.27v6.71c0,.13-.07.2-.22.2h-2c-.13,0-.2-.07-.2-.2v-6.29c0-.33-.05-.6-.15-.81-.1-.21-.24-.38-.42-.5-.18-.12-.39-.2-.62-.25-.24-.05-.5-.07-.77-.07h-1.92c-.15,0-.28.05-.41.16s-.19.22-.19.34v6.99Z"/>
    <path class="st0" d="M258.92,163.06c0-.9.24-1.63.73-2.19.49-.56,1.19-.84,2.12-.84h6.71c.17,0,.26.07.26.2v2.18c0,.13-.07.2-.2.2h-6.55c-.13,0-.2.07-.2.22v2.69c0,.13.07.2.2.2h6.08c.13,0,.2.07.2.2v2.28c0,.13-.07.2-.2.2h-6.08c-.13,0-.2.07-.2.2v2.87c0,.13.07.2.2.2h6.55c.13,0,.2.07.2.2v2.18c0,.13-.07.2-.2.2h-7.66c-.24,0-.48-.06-.71-.19-.24-.12-.45-.29-.63-.48-.18-.2-.33-.42-.45-.66-.11-.24-.17-.49-.17-.74v-9.09Z"/>
    <path class="st0" d="M270.36,160.23c0-.13.07-.2.2-.2h6.31c.74,0,1.37.12,1.88.35.51.23.93.55,1.25.96.32.41.55.9.69,1.46.15.57.22,1.19.22,1.86s-.07,1.33-.22,1.9c-.15.57-.38,1.06-.69,1.46-.32.41-.73.72-1.25.94s-1.14.33-1.88.33h-3.44c-.13,0-.2.07-.2.2v4.53c0,.13-.07.2-.2.2h-2.47c-.13,0-.2-.07-.2-.2v-13.8ZM273.43,162.6c-.13,0-.2.07-.2.2v3.72c0,.13.07.2.2.2h3.78c.24,0,.43-.08.56-.25s.24-.36.31-.58.11-.45.13-.68c.02-.23.03-.41.03-.54s-.01-.31-.03-.54c-.02-.23-.06-.46-.13-.68-.07-.22-.17-.42-.31-.58-.14-.16-.33-.25-.56-.25h-3.78Z"/>
    <path class="st0" d="M281.84,164.45c0-.57.08-1.1.24-1.6.08-.29.19-.54.33-.74.14-.2.28-.39.43-.56.41-.47.9-.84,1.46-1.11.57-.26,1.17-.4,1.82-.4h5.25c.13,0,.2.07.2.2v2.18c0,.13-.07.2-.2.2h-5.13c-.51.11-.9.37-1.15.8-.25.43-.38.99-.38,1.67v5.01c.04.46.19.83.45,1.1s.62.43,1.08.47h5.13c.13,0,.2.07.2.2v2.18c0,.13-.07.2-.2.2h-5.07c-.4,0-.75-.04-1.05-.11-.3-.07-.57-.15-.79-.25-.5-.18-.95-.49-1.35-.9-.4-.42-.72-.91-.97-1.5-.07-.14-.13-.34-.2-.58-.07-.24-.1-.54-.1-.9v-5.54Z"/>
    <path class="st0" d="M293.08,167.12c0-.78,0-1.45.02-2.02s.05-1.03.12-1.39c.11-.51.22-.98.34-1.39.12-.41.28-.75.48-1.01.26-.34.59-.64.99-.9.4-.26.82-.44,1.27-.54.32-.07.73-.11,1.25-.12.51-.01,1.13-.02,1.84-.02s1.33,0,1.84.02c.51.01.93.05,1.25.12.45.11.87.29,1.27.54.4.26.72.56.99.9.2.26.36.6.47,1.01s.23.87.34,1.39c.07.36.11.82.12,1.39s.02,1.24.02,2.02v.12c0,.78,0,1.45-.02,2.02s-.05,1.03-.12,1.39c-.11.51-.22.98-.34,1.39s-.28.75-.47,1.01c-.27.34-.59.64-.99.9-.4.26-.82.44-1.27.54-.32.07-.73.11-1.25.12-.51.01-1.13.02-1.84.02s-1.33,0-1.84-.02c-.51-.01-.93-.05-1.25-.12-.45-.11-.87-.29-1.27-.54-.4-.26-.73-.56-.99-.9-.2-.26-.36-.6-.48-1.01-.12-.41-.23-.87-.34-1.39-.07-.36-.11-.82-.12-1.39s-.02-1.24-.02-2.02v-.12ZM298.21,162.5c-.37.02-.69.06-.95.13-.48.12-.81.35-1.01.7s-.3.87-.3,1.57v4.55c0,.7.1,1.22.3,1.57s.53.58,1.01.7c.26.07.58.11.95.13.37.02.76.03,1.17.03s.8,0,1.17-.03c.37-.02.69-.06.95-.13.48-.12.81-.35,1.01-.7.2-.35.3-.87.3-1.57v-4.55c0-.7-.1-1.22-.3-1.57-.2-.35-.54-.58-1.01-.7-.26-.07-.58-.11-.95-.13-.37-.02-.76-.03-1.17-.03s-.8,0-1.17.03Z"/>
    <path class="st0" d="M313.25,174.03c0,.13-.07.2-.2.2h-2.47c-.13,0-.2-.07-.2-.2v-11.22c0-.13-.07-.2-.2-.2h-3.23c-.13,0-.2-.07-.2-.2v-2.18c0-.13.07-.2.2-.2h9.72c.13,0,.2.07.2.2v2.18c0,.13-.07.2-.2.2h-3.23c-.13,0-.2.07-.2.2v11.22Z"/>
    <path class="st0" d="M316.05,171.55h2.28c.13,0,.2.07.2.2v2.28c0,.05,0,.09-.02.12l-1.23,1.64s-.02.05-.03.07-.04.03-.09.03h-1.05c-.15,0-.2-.04-.16-.12l.65-1.39c.04-.07.05-.11.02-.14-.01-.01-.03-.02-.06-.02h-.51c-.13,0-.2-.07-.2-.2v-2.28c0-.13.07-.2.2-.2Z"/>
    <path class="st0" d="M335.54,170.23c0,.79-.07,1.45-.21,1.96s-.35.92-.63,1.23c-.28.3-.64.51-1.08.63-.44.12-.96.18-1.56.18h-3.52c-.61,0-1.11-.11-1.5-.33-.4-.22-.71-.5-.95-.85-.24-.35-.4-.75-.5-1.19-.09-.44-.14-.89-.14-1.36v-3.48c0-.47.08-.9.25-1.29s.39-.71.66-.98c.28-.27.6-.48.98-.62s.77-.22,1.2-.22h4c.36,0,.72.07,1.08.2.36.13.69.33.97.58.28.26.51.57.69.93.18.36.27.78.27,1.26v3.35ZM333.11,167.32c0-.16-.05-.3-.15-.42-.1-.13-.23-.23-.39-.32s-.34-.15-.53-.19c-.2-.04-.4-.06-.59-.06h-2.16c-.17,0-.34.02-.51.05-.17.03-.33.09-.46.17s-.25.18-.35.32c-.09.13-.14.29-.14.48v3.17c0,.26.06.48.17.65.11.17.25.31.42.41.17.1.36.17.55.2s.38.05.55.05h1.82c.48,0,.89-.11,1.24-.34.35-.22.53-.51.53-.85v-3.31Z"/>
    <path class="st0" d="M342.23,163.91c.13,0,.2.07.2.2v2.02c0,.13-.07.2-.2.2h-1.9c-.12,0-.22.03-.32.1-.09.07-.17.14-.25.23-.07.09-.13.18-.17.28-.04.1-.06.19-.06.27v6.83c0,.13-.07.2-.2.2h-2.22c-.13,0-.2-.07-.2-.2v-7.52c0-.34.07-.67.21-.99.14-.32.33-.59.56-.83.24-.24.51-.42.83-.56.32-.14.65-.21,1.01-.21h2.69Z"/>
    <path class="st0" d="M361.69,172.5c-.05.36-.12.66-.21.9-.09.24-.21.44-.37.59-.16.15-.36.26-.61.33s-.57.1-.97.1h-.55c-.22,0-.46-.02-.71-.06-.25-.04-.49-.12-.7-.24-.22-.12-.41-.29-.56-.52-.16-.23-.26-.54-.3-.94l-.53-5.7c-.01-.07-.05-.11-.11-.13-.06-.02-.11-.03-.15-.03s-.09,0-.15.03c-.06.02-.1.06-.11.13l-.53,5.7c-.04.4-.14.71-.3.94-.16.23-.35.41-.56.52-.22.12-.45.2-.7.24-.25.04-.49.06-.71.06h-.55c-.4,0-.72-.03-.97-.1-.25-.07-.46-.17-.61-.33-.16-.15-.28-.35-.37-.59s-.16-.54-.21-.9l-1.21-8.41c0-.12.08-.18.24-.18h1.96c.09,0,.15.02.18.06.03.04.05.09.06.16l.93,6.73c.01.08.05.14.11.19.06.05.12.07.17.07s.11-.02.17-.07c.06-.05.1-.11.11-.19l.5-5.44c.04-.37.13-.66.26-.88s.3-.38.5-.49c.2-.11.44-.18.7-.21s.55-.04.85-.04h.51c.29,0,.57.01.84.04s.51.1.71.21c.21.11.37.28.5.49s.22.51.26.88l.49,5.44c.01.08.05.14.11.19.06.05.12.07.17.07s.11-.02.17-.07c.06-.05.1-.11.11-.19l.93-6.73c.01-.07.03-.12.06-.16.03-.04.09-.06.18-.06h1.96c.16,0,.24.05.24.14l-1.21,8.45Z"/>
    <path class="st0" d="M370.18,166.71c-.46-.26-1.01-.39-1.67-.39-.22,0-.45,0-.67.03-.22.02-.43.06-.6.12-.18.06-.33.15-.45.27s-.18.27-.18.46v6.83c0,.13-.07.2-.2.2h-2.02c-.13,0-.2-.07-.2-.2v-13.8c0-.13.07-.2.2-.2h2.02c.13,0,.2.07.2.2v3.68h3.44c.41,0,.81.08,1.2.23.39.15.73.36,1.03.63s.54.58.72.94c.19.36.28.73.28,1.13v7.19c0,.13-.07.2-.2.2h-2.02c-.13,0-.2-.07-.2-.2v-6.06c0-.58-.23-1-.68-1.26Z"/>
    <path class="st0" d="M376.64,170.42c0,.2.05.38.16.54.11.17.25.31.43.44.18.13.39.22.64.3.25.07.51.11.79.11h4.71c.13,0,.2.07.2.2v2.02c0,.13-.07.2-.2.2h-3.35c-1.11,0-2.04-.09-2.78-.28-.75-.18-1.35-.48-1.8-.88s-.78-.91-.97-1.53-.29-1.37-.29-2.24c0-1.06.16-1.93.49-2.62.32-.69.75-1.24,1.27-1.65s1.11-.7,1.76-.86,1.31-.25,1.97-.25c.82,0,1.52.1,2.12.29s1.08.46,1.46.81.66.78.84,1.28c.18.5.27,1.06.27,1.68v2.06c0,.13-.07.2-.2.2h-7.32c-.13,0-.2.07-.2.2ZM381.92,167.91c.13,0,.2-.07.2-.2,0-.5-.23-.9-.69-1.2s-1.11-.45-1.94-.45c-.26,0-.56.04-.88.12-.32.08-.63.19-.93.33s-.54.31-.74.51c-.2.21-.3.43-.3.68,0,.13.07.2.2.2h5.09Z"/>
    <path class="st0" d="M391.07,163.91c.13,0,.2.07.2.2v2.02c0,.13-.07.2-.2.2h-1.9c-.12,0-.22.03-.32.1-.09.07-.17.14-.25.23-.07.09-.13.18-.17.28-.04.1-.06.19-.06.27v6.83c0,.13-.07.2-.2.2h-2.22c-.13,0-.2-.07-.2-.2v-7.52c0-.34.07-.67.21-.99.14-.32.33-.59.56-.83.24-.24.51-.42.83-.56.32-.14.65-.21,1.01-.21h2.69Z"/>
    <path class="st0" d="M394.28,170.42c0,.2.05.38.16.54.11.17.25.31.43.44.18.13.39.22.64.3.25.07.51.11.79.11h4.71c.13,0,.2.07.2.2v2.02c0,.13-.07.2-.2.2h-3.35c-1.11,0-2.04-.09-2.78-.28-.75-.18-1.35-.48-1.8-.88s-.78-.91-.97-1.53-.29-1.37-.29-2.24c0-1.06.16-1.93.49-2.62.32-.69.75-1.24,1.27-1.65s1.11-.7,1.76-.86,1.31-.25,1.97-.25c.82,0,1.52.1,2.12.29s1.08.46,1.46.81.66.78.84,1.28c.18.5.27,1.06.27,1.68v2.06c0,.13-.07.2-.2.2h-7.32c-.13,0-.2.07-.2.2ZM399.56,167.91c.13,0,.2-.07.2-.2,0-.5-.23-.9-.69-1.2s-1.11-.45-1.94-.45c-.26,0-.56.04-.88.12-.32.08-.63.19-.93.33s-.54.31-.74.51c-.2.21-.3.43-.3.68,0,.13.07.2.2.2h5.09Z"/>
    <path class="st0" d="M409.3,173.23c-.28.75-.87,1.13-1.76,1.13s-1.46-.38-1.74-1.13l-3.42-9.21v-.06c0-.07.03-.1.1-.1h2.28c.08,0,.13.01.16.04s.05.08.08.16l2.3,6.28s.05.1.1.22c.05.12.11.18.16.18s.11-.06.16-.18c.05-.12.08-.19.1-.22l2.34-6.28c.03-.08.05-.13.08-.16s.08-.04.16-.04h2.28c.07,0,.1.03.1.1v.06l-3.44,9.21Z"/>
    <path class="st0" d="M415.04,170.42c0,.2.05.38.16.54.11.17.25.31.43.44.18.13.39.22.64.3.25.07.51.11.79.11h4.71c.13,0,.2.07.2.2v2.02c0,.13-.07.2-.2.2h-3.35c-1.11,0-2.04-.09-2.78-.28-.75-.18-1.35-.48-1.8-.88s-.78-.91-.97-1.53-.29-1.37-.29-2.24c0-1.06.16-1.93.49-2.62.32-.69.75-1.24,1.27-1.65s1.11-.7,1.76-.86,1.31-.25,1.97-.25c.82,0,1.52.1,2.12.29s1.08.46,1.46.81.66.78.84,1.28c.18.5.27,1.06.27,1.68v2.06c0,.13-.07.2-.2.2h-7.32c-.13,0-.2.07-.2.2ZM420.33,167.91c.13,0,.2-.07.2-.2,0-.5-.23-.9-.69-1.2s-1.11-.45-1.94-.45c-.26,0-.56.04-.88.12-.32.08-.63.19-.93.33s-.54.31-.74.51c-.2.21-.3.43-.3.68,0,.13.07.2.2.2h5.09Z"/>
    <path class="st0" d="M429.47,163.91c.13,0,.2.07.2.2v2.02c0,.13-.07.2-.2.2h-1.9c-.12,0-.22.03-.32.1-.09.07-.17.14-.25.23-.07.09-.13.18-.17.28-.04.1-.06.19-.06.27v6.83c0,.13-.07.2-.2.2h-2.22c-.13,0-.2-.07-.2-.2v-7.52c0-.34.07-.67.21-.99.14-.32.33-.59.56-.83.24-.24.51-.42.83-.56.32-.14.65-.21,1.01-.21h2.69Z"/>
    <path class="st0" d="M438.52,178.06c-.07,0-.1-.03-.1-.08v-.06l1.39-3.66v-.02s-.05-.04-.14-.04-.2-.01-.32-.04c-.12-.03-.24-.08-.37-.17-.12-.09-.22-.23-.29-.43l-3.21-9.44s-.02-.04-.02-.08c0-.09.05-.14.14-.14h2.3c.12,0,.2.05.24.14l2.1,6.59s.03.1.06.19c.03.09.06.17.11.26.05.09.1.17.15.24.05.07.11.11.16.11s.11-.03.16-.1c.05-.07.1-.14.14-.23.04-.09.08-.17.11-.26.03-.09.06-.15.07-.19l2.51-6.63c.03-.08.1-.12.22-.12h2.38c.13,0,.2.05.2.14,0,.03,0,.05-.02.08l-5.29,13.78c-.04.11-.15.16-.32.16h-2.36Z"/>
    <path class="st0" d="M457.01,170.23c0,.79-.07,1.45-.21,1.96s-.35.92-.63,1.23c-.28.3-.64.51-1.08.63-.44.12-.96.18-1.56.18h-3.52c-.61,0-1.11-.11-1.5-.33-.4-.22-.71-.5-.95-.85-.24-.35-.4-.75-.5-1.19-.09-.44-.14-.89-.14-1.36v-3.48c0-.47.08-.9.25-1.29s.39-.71.66-.98c.28-.27.6-.48.98-.62s.77-.22,1.2-.22h4c.36,0,.72.07,1.08.2.36.13.69.33.97.58.28.26.51.57.69.93.18.36.27.78.27,1.26v3.35ZM454.57,167.32c0-.16-.05-.3-.15-.42-.1-.13-.23-.23-.39-.32s-.34-.15-.53-.19c-.2-.04-.4-.06-.59-.06h-2.16c-.17,0-.34.02-.51.05-.17.03-.33.09-.46.17s-.25.18-.35.32c-.09.13-.14.29-.14.48v3.17c0,.26.06.48.17.65.11.17.25.31.42.41.17.1.36.17.55.2s.38.05.55.05h1.82c.48,0,.89-.11,1.24-.34.35-.22.53-.51.53-.85v-3.31Z"/>
    <path class="st0" d="M464.95,163.91h2.02c.13,0,.2.07.2.2v7.8c0,.42-.13.79-.39,1.09-.26.3-.59.55-1.01.75-.42.2-.88.34-1.41.44-.52.09-1.05.14-1.57.14s-1.07-.05-1.59-.14c-.52-.09-.99-.24-1.4-.44-.41-.2-.74-.45-1-.75-.26-.3-.39-.67-.39-1.09v-7.8c0-.13.07-.2.2-.2h2.02c.13,0,.2.07.2.2v6.95c0,.12.06.23.17.34s.26.2.44.28c.18.08.39.14.62.18.24.04.48.06.73.06s.49-.02.72-.06c.23-.04.44-.1.62-.18.18-.08.33-.17.45-.28.11-.11.17-.22.17-.34v-6.95c0-.13.07-.2.2-.2Z"/>
    <path class="st0" d="M473.99,163.91c.13,0,.2.07.2.2v2.02c0,.13-.07.2-.2.2h-1.9c-.12,0-.22.03-.32.1-.09.07-.17.14-.25.23-.07.09-.13.18-.17.28-.04.1-.06.19-.06.27v6.83c0,.13-.07.2-.2.2h-2.22c-.13,0-.2-.07-.2-.2v-7.52c0-.34.07-.67.21-.99.14-.32.33-.59.56-.83.24-.24.51-.42.83-.56.32-.14.65-.21,1.01-.21h2.69Z"/>
    <path class="st0" d="M484.25,163.71c0,.13.07.2.2.2h1.62c.13,0,.2.07.2.2v2.02c0,.13-.07.2-.2.2h-1.62c-.13,0-.2.07-.2.2v7.5c0,.13-.07.2-.2.2h-2.02c-.13,0-.2-.07-.2-.2v-7.5c0-.13-.07-.2-.2-.2h-1.05c-.13,0-.2-.07-.2-.2v-2.02c0-.13.07-.2.2-.2h1.05c.13,0,.2-.07.2-.2v-1.25c0-.29.07-.58.21-.88.14-.3.32-.56.54-.78.22-.22.46-.41.73-.55s.54-.22.8-.22h2.83c.13,0,.2.07.2.2v2.02c0,.13-.05.2-.16.2h-1.94c-.07,0-.14.03-.24.09s-.18.13-.26.22-.15.18-.21.28c-.06.1-.09.19-.09.27v.42Z"/>
    <path class="st0" d="M488.46,160.03h2.02c.13,0,.2.07.2.2v2.02c0,.13-.07.2-.2.2h-2.02c-.13,0-.2-.07-.2-.2v-2.02c0-.13.07-.2.2-.2ZM488.26,164.11c0-.13.07-.2.2-.2h2.02c.13,0,.2.07.2.2v9.92c0,.13-.07.2-.2.2h-2.02c-.13,0-.2-.07-.2-.2v-9.92Z"/>
    <path class="st0" d="M494.76,173.59c0,.42-.18.63-.55.63h-1.33c-.18,0-.32-.08-.41-.24-.09-.16-.13-.34-.13-.55v-8.21c0-.33.14-.63.41-.9s.62-.41,1.04-.41h4.47c.47,0,.92.1,1.33.29s.77.45,1.08.76c.31.32.55.68.72,1.09.17.41.26.83.26,1.27v6.71c0,.13-.07.2-.22.2h-2c-.13,0-.2-.07-.2-.2v-6.29c0-.33-.05-.6-.15-.81-.1-.21-.24-.38-.42-.5-.18-.12-.39-.2-.62-.25s-.5-.07-.77-.07h-1.92c-.15,0-.28.05-.41.16-.13.11-.19.22-.19.34v6.99Z"/>
    <path class="st0" d="M503.8,163.91h5.58c.5,0,.93.11,1.28.33.35.22.63.5.85.84s.38.73.48,1.15c.1.42.15.84.15,1.27v6.53c0,.13-.07.2-.2.2h-6.91c-.4,0-.72-.12-.97-.37-.25-.24-.45-.53-.58-.86-.14-.33-.23-.66-.29-.99-.05-.33-.08-.58-.08-.75,0-.32.04-.67.12-1.05s.2-.74.38-1.06c.17-.32.4-.6.67-.82.28-.22.61-.34,1.01-.34h3.31c.34,0,.62-.08.82-.25.2-.17.31-.36.31-.58,0-.18-.07-.37-.2-.55s-.3-.28-.51-.28h-5.21c-.13,0-.2-.07-.2-.2v-2.02c0-.13.07-.2.2-.2ZM509.52,171.91c.13,0,.2-.07.2-.2v-1.19c0-.13-.07-.2-.2-.2h-3.52c-.18,0-.34.08-.46.23-.12.15-.18.32-.18.5,0,.22.07.42.2.59.13.17.32.26.55.26h3.4Z"/>
    <path class="st0" d="M513.92,160.03h2.02c.13,0,.2.07.2.2v13.8c0,.13-.07.2-.2.2h-2.02c-.13,0-.2-.07-.2-.2v-13.8c0-.13.07-.2.2-.2Z"/>
    <path class="st0" d="M530.37,163.71v-3.48c0-.13.07-.2.2-.2h2.02c.13,0,.2.07.2.2v13.8c0,.13-.07.2-.2.2h-6.16c-.63,0-1.17-.16-1.62-.49-.45-.32-.82-.74-1.11-1.24-.29-.5-.5-1.05-.64-1.64s-.21-1.17-.21-1.72c0-.78.07-1.49.21-2.14s.35-1.2.64-1.65c.29-.46.66-.81,1.11-1.06.45-.25.99-.38,1.62-.38h3.74c.13,0,.2-.07.2-.2ZM530.37,166.52c0-.13-.07-.2-.2-.2h-2.16c-.41,0-.78.04-1.12.11-.34.07-.63.21-.87.42-.24.21-.43.49-.56.86s-.2.84-.2,1.42c0,.54.07.98.2,1.33.13.34.32.61.55.81.24.2.52.34.86.42.34.08.72.12,1.14.12h2.16c.13,0,.2-.07.2-.2v-5.09Z"/>
    <path class="st0" d="M536.37,170.42c0,.2.05.38.16.54.11.17.25.31.43.44.18.13.39.22.64.3.25.07.51.11.79.11h4.71c.13,0,.2.07.2.2v2.02c0,.13-.07.2-.2.2h-3.35c-1.11,0-2.04-.09-2.78-.28-.75-.18-1.35-.48-1.8-.88s-.78-.91-.97-1.53-.29-1.37-.29-2.24c0-1.06.16-1.93.49-2.62.32-.69.75-1.24,1.27-1.65s1.11-.7,1.76-.86,1.31-.25,1.97-.25c.82,0,1.52.1,2.12.29s1.08.46,1.46.81.66.78.84,1.28c.18.5.27,1.06.27,1.68v2.06c0,.13-.07.2-.2.2h-7.32c-.13,0-.2.07-.2.2ZM541.65,167.91c.13,0,.2-.07.2-.2,0-.5-.23-.9-.69-1.2s-1.11-.45-1.94-.45c-.26,0-.56.04-.88.12-.32.08-.63.19-.93.33s-.54.31-.74.51c-.2.21-.3.43-.3.68,0,.13.07.2.2.2h5.09Z"/>
    <path class="st0" d="M545.67,171.81h5.44c.18,0,.33-.03.44-.09.11-.06.19-.14.25-.23.06-.09.1-.19.11-.31.01-.11.02-.21.02-.31,0-.17-.04-.34-.13-.51-.09-.17-.26-.26-.52-.26h-3.11c-.48,0-.88-.08-1.21-.23-.33-.15-.59-.36-.79-.63-.2-.27-.34-.59-.43-.97-.09-.38-.14-.79-.14-1.24,0-.66.08-1.19.23-1.6.15-.41.38-.73.69-.95.31-.22.71-.38,1.19-.46.48-.08,1.06-.12,1.73-.12h4.28c.13,0,.2.07.2.2v2.02c0,.13-.07.2-.2.2h-5.19c-.21,0-.36.08-.46.23-.09.15-.14.32-.14.5,0,.17.05.34.15.51.1.17.25.26.45.26h2.89c.51,0,.96.06,1.33.17s.67.3.9.56c.23.26.4.62.51,1.08.11.46.17,1.03.17,1.71,0,.2-.03.46-.09.78-.06.32-.17.64-.33.95-.16.31-.38.58-.66.8-.28.22-.65.34-1.1.34h-6.47c-.13,0-.2-.07-.2-.2v-2.02c0-.13.07-.2.2-.2Z"/>
    <path class="st0" d="M559.21,171.61c0,.13.07.2.2.2h1.66c.11.01.16.08.16.2v2.02c0,.13-.07.2-.2.2h-2.49c-.5,0-.92-.15-1.25-.46-.33-.3-.5-.66-.5-1.07v-6.18c0-.13-.07-.2-.2-.2h-1.05c-.13,0-.2-.07-.2-.2v-2.02c0-.13.07-.2.2-.2h1.05c.13,0,.2-.07.2-.2v-2.47c0-.13.07-.2.2-.2h2.02c.13,0,.2.07.2.2v2.47c0,.13.07.2.2.2h1.62c.13,0,.2.07.2.2v2.02c0,.13-.07.2-.2.2h-1.62c-.13,0-.2.07-.2.2v5.09Z"/>
    <path class="st0" d="M562.75,160.03h2.02c.13,0,.2.07.2.2v2.02c0,.13-.07.2-.2.2h-2.02c-.13,0-.2-.07-.2-.2v-2.02c0-.13.07-.2.2-.2ZM562.56,164.11c0-.13.07-.2.2-.2h2.02c.13,0,.2.07.2.2v9.92c0,.13-.07.2-.2.2h-2.02c-.13,0-.2-.07-.2-.2v-9.92Z"/>
    <path class="st0" d="M569.05,173.59c0,.42-.18.63-.55.63h-1.33c-.18,0-.32-.08-.41-.24-.09-.16-.13-.34-.13-.55v-8.21c0-.33.14-.63.41-.9s.62-.41,1.04-.41h4.47c.47,0,.92.1,1.33.29s.77.45,1.08.76c.31.32.55.68.72,1.09.17.41.26.83.26,1.27v6.71c0,.13-.07.2-.22.2h-2c-.13,0-.2-.07-.2-.2v-6.29c0-.33-.05-.6-.15-.81-.1-.21-.24-.38-.42-.5-.18-.12-.39-.2-.62-.25s-.5-.07-.77-.07h-1.92c-.15,0-.28.05-.41.16-.13.11-.19.22-.19.34v6.99Z"/>
    <path class="st0" d="M578.1,163.91h5.58c.5,0,.93.11,1.28.33.35.22.63.5.85.84s.38.73.48,1.15c.1.42.15.84.15,1.27v6.53c0,.13-.07.2-.2.2h-6.91c-.4,0-.72-.12-.97-.37-.25-.24-.45-.53-.58-.86-.14-.33-.23-.66-.29-.99-.05-.33-.08-.58-.08-.75,0-.32.04-.67.12-1.05s.2-.74.38-1.06c.17-.32.4-.6.67-.82.28-.22.61-.34,1.01-.34h3.31c.34,0,.62-.08.82-.25.2-.17.31-.36.31-.58,0-.18-.07-.37-.2-.55s-.3-.28-.51-.28h-5.21c-.13,0-.2-.07-.2-.2v-2.02c0-.13.07-.2.2-.2ZM583.82,171.91c.13,0,.2-.07.2-.2v-1.19c0-.13-.07-.2-.2-.2h-3.52c-.18,0-.34.08-.46.23-.12.15-.18.32-.18.5,0,.22.07.42.2.59.13.17.32.26.55.26h3.4Z"/>
    <path class="st0" d="M591.38,171.61c0,.13.07.2.2.2h1.66c.11.01.16.08.16.2v2.02c0,.13-.07.2-.2.2h-2.49c-.5,0-.92-.15-1.25-.46-.33-.3-.5-.66-.5-1.07v-6.18c0-.13-.07-.2-.2-.2h-1.05c-.13,0-.2-.07-.2-.2v-2.02c0-.13.07-.2.2-.2h1.05c.13,0,.2-.07.2-.2v-2.47c0-.13.07-.2.2-.2h2.02c.13,0,.2.07.2.2v2.47c0,.13.07.2.2.2h1.62c.13,0,.2.07.2.2v2.02c0,.13-.07.2-.2.2h-1.62c-.13,0-.2.07-.2.2v5.09Z"/>
    <path class="st0" d="M594.92,160.03h2.02c.13,0,.2.07.2.2v2.02c0,.13-.07.2-.2.2h-2.02c-.13,0-.2-.07-.2-.2v-2.02c0-.13.07-.2.2-.2ZM594.72,164.11c0-.13.07-.2.2-.2h2.02c.13,0,.2.07.2.2v9.92c0,.13-.07.2-.2.2h-2.02c-.13,0-.2-.07-.2-.2v-9.92Z"/>
    <path class="st0" d="M608.66,170.23c0,.79-.07,1.45-.21,1.96s-.35.92-.63,1.23c-.28.3-.64.51-1.08.63-.44.12-.96.18-1.56.18h-3.52c-.61,0-1.11-.11-1.5-.33-.4-.22-.71-.5-.95-.85-.24-.35-.4-.75-.5-1.19-.09-.44-.14-.89-.14-1.36v-3.48c0-.47.08-.9.25-1.29s.39-.71.66-.98c.28-.27.6-.48.98-.62s.77-.22,1.2-.22h4c.36,0,.72.07,1.08.2.36.13.69.33.97.58.28.26.51.57.69.93.18.36.27.78.27,1.26v3.35ZM606.22,167.32c0-.16-.05-.3-.15-.42-.1-.13-.23-.23-.39-.32s-.34-.15-.53-.19c-.2-.04-.4-.06-.59-.06h-2.16c-.17,0-.34.02-.51.05-.17.03-.33.09-.46.17s-.25.18-.35.32c-.09.13-.14.29-.14.48v3.17c0,.26.06.48.17.65.11.17.25.31.42.41.17.1.36.17.55.2s.38.05.55.05h1.82c.48,0,.89-.11,1.24-.34.35-.22.53-.51.53-.85v-3.31Z"/>
    <path class="st0" d="M612.52,173.59c0,.42-.18.63-.55.63h-1.33c-.18,0-.32-.08-.41-.24-.09-.16-.13-.34-.13-.55v-8.21c0-.33.14-.63.41-.9s.62-.41,1.04-.41h4.47c.47,0,.92.1,1.33.29s.77.45,1.08.76c.31.32.55.68.72,1.09.17.41.26.83.26,1.27v6.71c0,.13-.07.2-.22.2h-2c-.13,0-.2-.07-.2-.2v-6.29c0-.33-.05-.6-.15-.81-.1-.21-.24-.38-.42-.5-.18-.12-.39-.2-.62-.25s-.5-.07-.77-.07h-1.92c-.15,0-.28.05-.41.16-.13.11-.19.22-.19.34v6.99Z"/>
    <path class="st0" d="M626.57,165.1c0-.33.13-.61.39-.84.26-.23.53-.35.82-.35h4.1c.34,0,.66.08.95.24.29.16.5.3.63.44l.23.23c.09.09.14.13.17.13s.06-.02.11-.07.1-.11.17-.19c.07-.08.15-.16.25-.26.1-.09.22-.17.37-.24.26-.15.53-.23.8-.25s.45-.03.52-.03h1.41c.54,0,1.04.1,1.48.31.45.21.83.46,1.16.78.32.32.57.67.75,1.06.18.39.27.77.27,1.14v6.83c0,.13-.07.2-.2.2h-2c-.15,0-.22-.07-.22-.2v-6.57c0-.21-.05-.4-.14-.56-.09-.17-.21-.31-.35-.43-.14-.12-.29-.21-.46-.27s-.32-.09-.46-.09h-1.31c-.24,0-.47.09-.7.27-.23.18-.35.44-.35.78v6.87c0,.13-.07.2-.2.2h-2.02c-.13,0-.2-.07-.2-.2v-6.87c0-.26-.13-.5-.39-.72-.26-.22-.54-.33-.84-.33h-1.82c-.15,0-.27.06-.37.18-.1.12-.15.26-.15.42v7.32c0,.13-.07.2-.2.2h-2.02c-.13,0-.2-.07-.2-.2v-8.93Z"/>
    <path class="st0" d="M643.3,163.91h5.58c.5,0,.93.11,1.28.33.35.22.63.5.85.84s.38.73.48,1.15c.1.42.15.84.15,1.27v6.53c0,.13-.07.2-.2.2h-6.91c-.4,0-.72-.12-.97-.37-.25-.24-.45-.53-.58-.86-.14-.33-.23-.66-.29-.99-.05-.33-.08-.58-.08-.75,0-.32.04-.67.12-1.05s.2-.74.38-1.06c.17-.32.4-.6.67-.82.28-.22.61-.34,1.01-.34h3.31c.34,0,.62-.08.82-.25.2-.17.31-.36.31-.58,0-.18-.07-.37-.2-.55s-.3-.28-.51-.28h-5.21c-.13,0-.2-.07-.2-.2v-2.02c0-.13.07-.2.2-.2ZM649.02,171.91c.13,0,.2-.07.2-.2v-1.19c0-.13-.07-.2-.2-.2h-3.52c-.18,0-.34.08-.46.23-.12.15-.18.32-.18.5,0,.22.07.42.2.59.13.17.32.26.55.26h3.4Z"/>
    <path class="st0" d="M654.78,178.06c-.07,0-.1-.03-.1-.08v-.06l1.39-3.66v-.02s-.05-.04-.14-.04-.2-.01-.32-.04c-.12-.03-.24-.08-.37-.17-.12-.09-.22-.23-.29-.43l-3.21-9.44s-.02-.04-.02-.08c0-.09.05-.14.14-.14h2.3c.12,0,.2.05.24.14l2.1,6.59s.03.1.06.19c.03.09.06.17.11.26.05.09.1.17.15.24.05.07.11.11.16.11s.11-.03.16-.1c.05-.07.1-.14.14-.23.04-.09.08-.17.11-.26.03-.09.06-.15.07-.19l2.51-6.63c.03-.08.1-.12.22-.12h2.38c.13,0,.2.05.2.14,0,.03,0,.05-.02.08l-5.29,13.78c-.04.11-.15.16-.32.16h-2.36Z"/>
    <path class="st0" d="M672.79,171.61c0,.13.07.2.2.2h1.66c.11.01.16.08.16.2v2.02c0,.13-.07.2-.2.2h-2.49c-.5,0-.92-.15-1.25-.46-.33-.3-.5-.66-.5-1.07v-6.18c0-.13-.07-.2-.2-.2h-1.05c-.13,0-.2-.07-.2-.2v-2.02c0-.13.07-.2.2-.2h1.05c.13,0,.2-.07.2-.2v-2.47c0-.13.07-.2.2-.2h2.02c.13,0,.2.07.2.2v2.47c0,.13.07.2.2.2h1.62c.13,0,.2.07.2.2v2.02c0,.13-.07.2-.2.2h-1.62c-.13,0-.2.07-.2.2v5.09Z"/>
    <path class="st0" d="M676.71,163.91h5.58c.5,0,.93.11,1.28.33.35.22.63.5.85.84s.38.73.48,1.15c.1.42.15.84.15,1.27v6.53c0,.13-.07.2-.2.2h-6.91c-.4,0-.72-.12-.97-.37-.25-.24-.45-.53-.58-.86-.14-.33-.23-.66-.29-.99-.05-.33-.08-.58-.08-.75,0-.32.04-.67.12-1.05s.2-.74.38-1.06c.17-.32.4-.6.67-.82.28-.22.61-.34,1.01-.34h3.31c.34,0,.62-.08.82-.25.2-.17.31-.36.31-.58,0-.18-.07-.37-.2-.55s-.3-.28-.51-.28h-5.21c-.13,0-.2-.07-.2-.2v-2.02c0-.13.07-.2.2-.2ZM682.44,171.91c.13,0,.2-.07.2-.2v-1.19c0-.13-.07-.2-.2-.2h-3.52c-.18,0-.34.08-.46.23-.12.15-.18.32-.18.5,0,.22.07.42.2.59.13.17.32.26.55.26h3.4Z"/>
    <path class="st0" d="M686.83,160.03h2.02c.13,0,.2.07.2.2v13.8c0,.13-.07.2-.2.2h-2.02c-.13,0-.2-.07-.2-.2v-13.8c0-.13.07-.2.2-.2ZM693.01,164.07c.08-.11.19-.16.34-.16h2.57c.07,0,.1.02.11.06,0,.04-.02.09-.07.14l-3.7,4.22s-.06.06-.09.1c-.03.04-.05.07-.05.1s.02.07.05.12c.03.05.06.09.09.12l3.92,5.33c.07.09.05.14-.06.14h-2.55c-.13,0-.24-.06-.34-.18l-3.44-4.67c-.09-.12-.17-.25-.24-.41-.07-.15-.1-.3-.1-.45,0-.11.03-.23.1-.39.07-.15.15-.29.26-.43l3.21-3.64Z"/>
    <path class="st0" d="M698.09,170.42c0,.2.05.38.16.54.11.17.25.31.43.44.18.13.39.22.64.3.25.07.51.11.79.11h4.71c.13,0,.2.07.2.2v2.02c0,.13-.07.2-.2.2h-3.35c-1.11,0-2.04-.09-2.78-.28-.75-.18-1.35-.48-1.8-.88s-.78-.91-.97-1.53-.29-1.37-.29-2.24c0-1.06.16-1.93.49-2.62.32-.69.75-1.24,1.27-1.65s1.11-.7,1.76-.86,1.31-.25,1.97-.25c.82,0,1.52.1,2.12.29s1.08.46,1.46.81.66.78.84,1.28c.18.5.27,1.06.27,1.68v2.06c0,.13-.07.2-.2.2h-7.32c-.13,0-.2.07-.2.2ZM703.38,167.91c.13,0,.2-.07.2-.2,0-.5-.23-.9-.69-1.2s-1.11-.45-1.94-.45c-.26,0-.56.04-.88.12-.32.08-.63.19-.93.33s-.54.31-.74.51c-.2.21-.3.43-.3.68,0,.13.07.2.2.2h5.09Z"/>
    <path class="st0" d="M715.06,178.06c-.07,0-.1-.03-.1-.08v-.06l1.39-3.66v-.02s-.05-.04-.14-.04-.2-.01-.32-.04c-.12-.03-.24-.08-.37-.17-.12-.09-.22-.23-.29-.43l-3.21-9.44s-.02-.04-.02-.08c0-.09.05-.14.14-.14h2.3c.12,0,.2.05.24.14l2.1,6.59s.03.1.06.19c.03.09.06.17.11.26.05.09.1.17.15.24.05.07.11.11.16.11s.11-.03.16-.1c.05-.07.1-.14.14-.23.04-.09.08-.17.11-.26.03-.09.06-.15.07-.19l2.51-6.63c.03-.08.1-.12.22-.12h2.38c.13,0,.2.05.2.14,0,.03,0,.05-.02.08l-5.29,13.78c-.04.11-.15.16-.32.16h-2.36Z"/>
    <path class="st0" d="M733.55,170.23c0,.79-.07,1.45-.21,1.96s-.35.92-.63,1.23c-.28.3-.64.51-1.08.63-.44.12-.96.18-1.56.18h-3.52c-.61,0-1.11-.11-1.5-.33-.4-.22-.71-.5-.95-.85-.24-.35-.4-.75-.5-1.19-.09-.44-.14-.89-.14-1.36v-3.48c0-.47.08-.9.25-1.29s.39-.71.66-.98c.28-.27.6-.48.98-.62s.77-.22,1.2-.22h4c.36,0,.72.07,1.08.2.36.13.69.33.97.58.28.26.51.57.69.93.18.36.27.78.27,1.26v3.35ZM731.11,167.32c0-.16-.05-.3-.15-.42-.1-.13-.23-.23-.39-.32s-.34-.15-.53-.19c-.2-.04-.4-.06-.59-.06h-2.16c-.17,0-.34.02-.51.05-.17.03-.33.09-.46.17s-.25.18-.35.32c-.09.13-.14.29-.14.48v3.17c0,.26.06.48.17.65.11.17.25.31.42.41.17.1.36.17.55.2s.38.05.55.05h1.82c.48,0,.89-.11,1.24-.34.35-.22.53-.51.53-.85v-3.31Z"/>
    <path class="st0" d="M741.48,163.91h2.02c.13,0,.2.07.2.2v7.8c0,.42-.13.79-.39,1.09-.26.3-.59.55-1.01.75-.42.2-.88.34-1.41.44-.52.09-1.05.14-1.57.14s-1.07-.05-1.59-.14c-.52-.09-.99-.24-1.4-.44-.41-.2-.74-.45-1-.75-.26-.3-.39-.67-.39-1.09v-7.8c0-.13.07-.2.2-.2h2.02c.13,0,.2.07.2.2v6.95c0,.12.06.23.17.34s.26.2.44.28c.18.08.39.14.62.18.24.04.48.06.73.06s.49-.02.72-.06c.23-.04.44-.1.62-.18.18-.08.33-.17.45-.28.11-.11.17-.22.17-.34v-6.95c0-.13.07-.2.2-.2Z"/>
    <path class="st0" d="M745.23,171.75c0-.13.07-.2.2-.2h2.28c.13,0,.2.07.2.2v2.28c0,.13-.07.2-.2.2h-2.28c-.13,0-.2-.07-.2-.2v-2.28Z"/>
  </g>
  <g>
    <path class="st0" d="M263.13,87.67c12.04-6.97,17.39-19.78,17.39-36.4v-21.11h14.81v21.02c0,5.35-.67,10.41-1.91,15h7.07c.76,9.94,5.83,18.15,15.29,22.45v9.84c-13.38-4.2-22.16-11.66-26.56-22.16-5.25,9.46-13.85,17.01-26.08,22.55v-11.18ZM333.25,55.95h11.56v10.51h-11.56v34.77c0,5.06-.76,8.88-2.87,11.66h-11.75V27.58h14.62v28.37Z"/>
    <path class="st0" d="M367.83,56.05v9.08h.96c11.27,0,22.55-.86,33.92-2.67v6.78c-11.75,3.73-24.65,5.83-38.88,5.83h-6.59c-2.48,0-3.82-1.34-3.82-3.82v-24.08h29.42v-8.88h-29.52v-8.98h43.75v23.88c0,2.01-1.05,2.87-2.87,2.87h-26.37ZM392.09,80.98c18.63,0,30.19,6.5,30.19,16.62s-11.56,16.53-30.19,16.53-29.9-6.4-29.9-16.53,11.37-16.62,29.9-16.62ZM392.19,105.34c8.88,0,14.62-2.96,14.62-7.74s-5.73-7.74-14.62-7.74-14.52,2.96-14.52,7.74,5.35,7.74,14.52,7.74ZM421.14,46.11h11.56v10.6h-11.56v12.04c0,4.58-.96,8.22-2.87,10.22h-11.75V27.58h14.62v18.53Z"/>
    <path class="st0" d="M465.17,39.04h13.28v9.46h-40.32v-9.46h13.18v-12.71h13.85v12.71ZM458.1,51.84c11.94,0,19.49,8.98,19.49,23.21s-7.55,22.93-19.49,22.93-19.2-8.89-19.2-22.93,7.45-23.21,19.2-23.21ZM458.2,89.1c4.01,0,6.59-5.45,6.59-14.04s-2.58-14.23-6.59-14.23-6.59,5.45-6.59,14.23,2.48,14.04,6.59,14.04ZM495.17,59.96h6.4V27.58h13.66v73.66c0,5.06-.76,8.88-2.87,11.66h-10.8v-42.61h-6.4v26.85c0,5.06-.86,8.88-2.87,11.66h-10.6V28.06h13.47v31.91Z"/>
    <path class="st0" d="M565.86,29.39c20.73,0,33.72,9.46,33.72,24.08,0,7.83-3.82,14.23-10.51,18.34v22.55h17.29v7.45c-2.01,1.91-5.64,2.87-10.7,2.87h-69.93v-10.32h17.29v-22.45c-6.78-4.2-10.51-10.51-10.51-18.44,0-14.62,12.8-24.08,33.34-24.08ZM566.15,68.18c11.08,0,18.34-6.02,18.34-14.71s-7.26-14.81-18.34-14.81-18.34,6.02-18.34,14.81,6.88,14.71,18.34,14.71ZM557.74,76.87v17.48h16.62v-17.58c-2.67.38-5.54.57-8.5.57s-5.64-.19-8.12-.48Z"/>
    <path class="st0" d="M619.55,104.2v-16.24h16.34v5.54c0,5.06-.96,8.69-2.87,10.7h-13.47ZM619.64,29.01h16.05l-2.48,50.25h-11.08l-2.48-50.25Z"/>
  </g>
  <path class="st0" d="M794.54,131.48H176.12l1.36,4.39h617.05v12.09H168.62l-8.19-26.22c-2.4.52-4.84.94-7.31,1.27-2.47.32-4.94.49-7.41.49-2.73,0-5.41-.19-8.04-.55s-5.21-.84-7.75-1.49l-7.7,26.51-122.22-.1v-12.09l113.26.1,1.17-4.39H0v-12.09h100.39l3.61-12.18c-6.17-5.72-11.06-12.48-14.67-20.24-3.61-7.76-5.41-16.18-5.41-25.28,0-5.65.73-11.11,2.19-16.37s3.54-10.2,6.24-14.78c2.7-4.58,5.91-8.74,9.65-12.48s7.89-6.95,12.48-9.65c4.58-2.7,9.5-4.78,14.77-6.24,5.26-1.46,10.75-2.18,16.47-2.18,8.51,0,16.5,1.62,23.98,4.87,7.47,3.25,14,7.67,19.59,13.26,5.59,5.59,10.01,12.12,13.26,19.59,3.25,7.47,4.87,15.46,4.87,23.98,0,9.1-1.79,17.51-5.36,25.28-3.57,7.76-8.45,14.52-14.62,20.24l3.8,12.18h603.31v12.09ZM97.66,50.59c-.84,3.57-1.3,7.15-1.36,10.72h1.56l10.72-10.72h-10.92ZM96.3,63.06c.06,1.88.21,3.7.44,5.46s.54,3.51.93,5.26h10.92l-10.72-10.72h-1.56ZM100.78,41.52c-.52,1.17-1.01,2.34-1.46,3.54s-.84,2.44-1.17,3.67h9.94l-7.31-7.21ZM98.15,75.54c.32,1.3.71,2.53,1.17,3.74s.94,2.4,1.46,3.57l7.31-7.31h-9.94ZM109.46,52.24l-9.06,9.06h9.06v-9.06ZM100.39,63.06l9.06,9.06v-9.06h-9.06ZM102.44,38.4c-.13.26-.26.49-.39.71s-.26.45-.39.65l7.8,7.89v-9.26h-7.02ZM102.44,85.97h7.02v-9.26l-7.8,7.8.78,1.46ZM109.46,28.66c-1.1,1.23-2.16,2.5-3.17,3.83s-1.97,2.73-2.88,4.16h6.04v-7.99ZM103.41,87.72c.91,1.49,1.87,2.89,2.88,4.19,1.01,1.3,2.06,2.57,3.17,3.8v-7.99h-6.04ZM111.21,28.66v7.99h7.99l-7.99-7.99ZM111.21,38.4v9.45l9.55-9.45h-9.55ZM111.21,51.95v9.36h9.45l-9.45-9.36ZM111.21,63.06v9.36l9.45-9.36h-9.45ZM111.21,85.97h9.55l-9.55-9.55v9.55ZM111.21,87.72v7.89l7.99-7.89h-7.99ZM121.35,26.51h-9.75l9.75,9.75v-9.75ZM121.35,88.11l-9.75,9.65h9.75v-9.65ZM121.35,50.59h-8.87l8.87,8.87v-8.87ZM112.48,73.78h8.87v-8.87l-8.87,8.87ZM121.35,40.35l-8.38,8.38h8.38v-8.38ZM112.96,75.54l8.38,8.38v-8.38h-8.38ZM118.62,117.16c-.78-.32-1.53-.68-2.24-1.04s-1.43-.75-2.14-1.2l-1.17,4.48h4.87l.68-2.24ZM121.35,19.3c-2.73,1.49-5.36,3.31-7.89,5.46h7.89v-5.46ZM113.45,99.61c2.4,2.08,5.04,3.93,7.89,5.56v-5.56h-7.89ZM123,18.23v6.53h8.97l-7.31-7.21-1.66.68ZM132.65,26.51h-9.65v9.55l9.65-9.55ZM123,40.45v8.28h8.38l-8.38-8.28ZM123,50.59v9.75l9.75-9.75h-9.75ZM123,73.78h9.75l-9.75-9.65v9.65ZM123,75.54v8.19l8.38-8.19h-8.38ZM123,97.76h9.65l-9.65-9.45v9.45ZM124.66,106.82l7.31-7.21h-8.97v6.43l1.66.78ZM133.43,38.4h-9.94l9.94,9.94v-9.94ZM133.43,75.93l-9.94,10.04h9.94v-10.04ZM133.43,52.34l-8.87,8.97h8.87v-8.97ZM124.56,63.06l8.87,8.97v-8.97h-8.87ZM133.43,28.27l-8.38,8.38h8.38v-8.38ZM125.05,87.72l8.38,8.38v-8.38h-8.38ZM133.43,14.33c-1.23.32-2.44.68-3.61,1.07s-2.34.84-3.51,1.36l7.12,7.02v-9.45ZM126.32,107.7c2.4.91,4.78,1.69,7.12,2.34v-9.55l-7.12,7.21ZM144.93,12.77c-3.31.13-6.53.52-9.65,1.17v9.94l9.65-9.55v-1.56ZM143.76,36.65l-8.48-8.48v8.48h8.48ZM135.28,38.4v9.65l9.65-9.65h-9.65ZM135.28,52.73v8.58h8.58l-8.58-8.58ZM135.28,63.06v8.58l8.58-8.58h-8.58ZM135.28,85.97h9.65l-9.65-9.65v9.65ZM135.28,96.2l8.48-8.48h-8.48v8.48ZM135.28,110.43c1.56.32,3.14.55,4.73.71s3.23.29,4.92.36v-1.36l-9.65-9.75v10.04ZM144.93,50.59h-9.26l9.26,9.26v-9.26ZM144.93,64.52l-9.26,9.26h9.26v-9.26ZM144.93,26.51h-8.77l8.77,8.77v-8.77ZM136.16,97.76h8.77v-8.67l-8.77,8.67ZM144.93,16.76l-8.09,7.99h8.09v-7.99ZM136.84,99.61l8.09,7.99v-7.99h-8.09ZM137.04,48.73h7.89v-7.8l-7.89,7.8ZM137.04,75.54l7.89,7.89v-7.89h-7.89ZM156.34,13.94c-3.12-.65-6.34-1.04-9.65-1.17v1.56l9.65,9.55v-9.94ZM154.68,24.76l-7.99-7.99v7.99h7.99ZM155.36,26.51h-8.67v8.77l8.67-8.77ZM156.34,38.4h-9.65l9.65,9.65v-9.65ZM154.58,48.73l-7.89-7.8v7.8h7.89ZM155.95,50.59h-9.26v9.26l9.26-9.26ZM146.69,73.78h9.26l-9.26-9.26v9.26ZM154.58,75.54h-7.89v7.89l7.89-7.89ZM156.34,85.97v-9.65l-9.65,9.65h9.65ZM146.69,97.76h8.67l-8.67-8.67v8.67ZM146.69,107.6l7.99-7.99h-7.99v7.99ZM146.69,111.5c1.69-.06,3.33-.19,4.92-.36s3.17-.39,4.73-.71v-10.04l-9.65,9.75v1.36ZM147.76,61.31h8.58v-8.58l-8.58,8.58ZM156.34,71.64v-8.58h-8.58l8.58,8.58ZM156.34,36.65v-8.48l-8.48,8.48h8.48ZM156.34,96.2v-8.48h-8.48l8.48,8.48ZM165.21,16.76c-2.14-.91-4.52-1.69-7.12-2.34v9.36l7.12-7.02ZM166.47,36.65l-8.38-8.38v8.38h8.38ZM168.13,38.4h-10.04v9.94l10.04-9.94ZM166.96,61.31l-8.87-8.97v8.97h8.87ZM158.09,72.03l8.87-8.97h-8.87v8.97ZM158.09,85.97h10.04l-10.04-10.04v10.04ZM158.09,96.1l8.38-8.38h-8.38v8.38ZM158.09,109.94c1.23-.32,2.45-.68,3.66-1.07s2.36-.81,3.46-1.27l-7.12-7.12v9.45ZM168.52,50.59h-9.65l9.65,9.75v-9.75ZM168.52,73.78v-9.65l-9.65,9.65h9.65ZM168.52,36.06v-9.55h-9.55l9.55,9.55ZM158.97,97.76h9.55v-9.45l-9.55,9.45ZM168.52,18.32c-.26-.13-.52-.26-.78-.36s-.55-.19-.88-.32l-7.12,7.12h8.77v-6.43ZM166.86,106.73c.52-.19,1.07-.45,1.66-.78v-6.34h-8.77l7.12,7.12ZM168.52,48.73v-8.28l-8.28,8.28h8.28ZM168.52,83.72v-8.19h-8.28l8.28,8.19ZM177.88,24.76c-1.17-.97-2.39-1.92-3.66-2.83s-2.55-1.75-3.85-2.53v5.36h7.5ZM179.83,26.51h-9.45v9.75l9.45-9.65v-.1ZM178.75,48.73l-8.38-8.38v8.38h8.38ZM170.37,59.45l8.87-8.87h-8.87v8.87ZM170.37,73.78h8.87l-8.87-8.87v8.87ZM170.37,83.92l8.38-8.38h-8.38v8.38ZM179.83,97.76l-9.45-9.65v9.65h9.45ZM170.37,104.97c1.3-.78,2.58-1.62,3.85-2.53,1.27-.91,2.49-1.85,3.66-2.83h-7.5v5.36ZM180.31,38.4h-9.45l9.45,9.45v-9.45ZM180.31,85.97v-9.55l-9.45,9.55h9.45ZM180.31,61.31v-9.36l-9.26,9.36h9.26ZM180.31,72.42v-9.36h-9.26l9.26,9.36ZM178.66,119.4l-1.46-4.58c-.91.52-1.8,1.01-2.68,1.46s-1.8.91-2.78,1.36l.58,1.75h6.34ZM180.31,36.65v-7.99l-7.89,7.99h7.89ZM180.31,95.62v-7.89h-7.89l7.89,7.89ZM187.92,36.65c-.84-1.43-1.74-2.79-2.68-4.06s-1.97-2.53-3.07-3.83v7.89h5.75ZM189.87,39.96c-.19-.26-.36-.52-.49-.78l-.39-.78h-6.82v9.26l7.7-7.7ZM191.13,61.31l-8.97-9.06v9.06h8.97ZM182.17,72.13l8.97-9.06h-8.97v9.06ZM182.17,85.97h6.82l.39-.78c.13-.26.29-.52.49-.78l-7.7-7.7v9.26ZM182.17,95.52c2.21-2.4,4.13-5,5.75-7.8h-5.75v7.8ZM195.03,61.31c0-3.64-.45-7.21-1.36-10.72h-10.72l10.72,10.72h1.36ZM193.67,73.78c.45-1.75.8-3.51,1.02-5.26s.34-3.57.34-5.46h-1.36l-10.72,10.72h10.72ZM193.28,48.73c-.32-1.23-.73-2.44-1.22-3.61s-.99-2.31-1.51-3.41l-7.12,7.02h9.84ZM190.55,82.65c.52-1.1,1.02-2.24,1.51-3.41s.89-2.4,1.22-3.7h-9.84l7.12,7.12Z"/>
</svg>