<?xml version="1.0" encoding="UTF-8"?>
<svg id="Layer_1" data-name="Layer 1" xmlns="http://www.w3.org/2000/svg" viewBox="0 0 640 640">
  <defs>
    <style>
      .cls-1 {
        fill: #fff;
      }
    </style>
  </defs>
  <path class="cls-1" d="M2.05,494.08c0-1.64.48-3.15,1.44-4.52.95-1.37,2.25-2.06,3.9-2.06h1.65c1.92,9.6,4.59,18.29,8.02,26.1,3.42,7.81,7.87,14.32,13.36,19.52,5.48,5.21,12.19,9.04,20.13,11.51s17.4,3.29,28.37,2.47c5.2,4.11,9.31,8.08,12.33,11.92,3.01,3.84,6.02,7.19,9.04,10.07,3.01,2.88,6.64,5.14,10.9,6.79,4.24,1.64,10.33,2.46,18.29,2.46,7.4,0,13.21-.41,17.47-1.23,4.25-.82,7.46-1.98,9.66-3.49,2.18-1.5,3.62-3.35,4.31-5.55.69-2.19,1.44-4.73,2.26-7.6.83-2.88,1.85-6.02,3.08-9.45,1.24-3.43,3.5-7.19,6.78-11.3,8.77,1.64,17.47.68,26.11-2.88,8.64-3.56,15.14-9.72,19.52-18.49,11.51,3.84,21.79,9.66,30.83,17.47,9.04,7.81,17.53,16.1,25.48,24.87v1.65c0,.82-.14,1.85-.41,3.08-.28,1.24-1.51,1.85-3.7,1.85-.82,0-1.78-.27-2.87-.82-1.38-.27-2.74-1.09-4.12-2.46-1.38-.82-3.49-2.4-6.37-4.73-2.87-2.33-5.89-4.79-9.04-7.4-3.16-2.6-6.24-5.07-9.25-7.4-3.02-2.33-5.07-3.91-6.16-4.73h-3.7c-2.2,0-3.98.34-5.34,1.03s-2.61,1.51-3.7,2.46c-1.1.97-2.26,2.13-3.49,3.49-1.24,1.38-2.95,2.61-5.14,3.7-6.85,4.11-13.01,8.63-18.5,13.57-5.48,4.93-10.96,9.52-16.44,13.77-5.48,4.25-11.51,7.81-18.08,10.68-6.58,2.88-14.39,4.32-23.43,4.32-7.68,0-14.12-.68-19.32-2.05-5.21-1.37-9.94-3.29-14.19-5.76-4.25-2.46-8.36-5.48-12.33-9.04-3.98-3.56-8.57-7.53-13.77-11.92-2.74-2.47-6.85-3.97-12.33-4.52-5.48-.55-9.59-1.23-12.33-2.05-6.86-1.65-13.3-4.52-19.32-8.64-6.03-4.11-11.24-9.04-15.62-14.8-4.39-5.75-7.81-12.05-10.28-18.91-2.46-6.85-3.7-13.84-3.7-20.97ZM281.57,536.01c-5.75,1.37-11.31.89-16.65-1.44-5.34-2.32-10.75-5.2-16.23-8.63-5.48-3.43-11.3-6.64-17.47-9.66-6.16-3.01-12.67-4.52-19.52-4.52-7.4,0-14.73.76-21.99,2.26-7.27,1.51-14.53,3.15-21.79,4.93-7.26,1.78-14.53,3.43-21.79,4.94s-14.59,2.26-21.99,2.26c-11.79,0-24.19-.89-37.2-2.67-13.01-1.78-25.07-5.27-36.17-10.48-11.1-5.21-20.28-12.47-27.54-21.79-7.26-9.31-10.89-21.51-10.89-36.58v-12.74c.82-1.65,1.65-2.6,2.46-2.88.83-.27,1.65-.41,2.46-.41,1.1,0,2.88,1.78,5.34,5.34,2.47,3.56,5.82,7.54,10.07,11.92,4.25,4.39,9.72,8.36,16.44,11.92,6.71,3.56,15.01,5.34,24.87,5.34,3.29,0,6.5-.68,9.66-2.05,3.14-1.37,6.3-2.94,9.45-4.73,3.14-1.78,6.43-3.35,9.86-4.73,3.42-1.37,7.2-2.05,11.31-2.05,3.28,0,6.64.55,10.07,1.65,3.42,1.1,6.78,2.26,10.07,3.49,3.28,1.23,6.43,2.4,9.45,3.49,3.01,1.1,5.75,1.65,8.22,1.65.27,0,1.51-.34,3.7-1.03,2.19-.68,4.45-1.5,6.78-2.47,2.32-.95,4.53-1.78,6.58-2.46,2.05-.68,3.35-1.03,3.9-1.03h12.74c17.27,0,32.34,3.77,45.22,11.3,12.87,7.54,25.07,17.88,36.58,31.03,2.47,2.47,4.59,5.83,6.37,10.07,1.78,4.25,4.32,7.88,7.61,10.89,2.46-5.75,4.45-12.33,5.96-19.73,1.5-7.4,2.52-15,3.08-22.81.54-7.81.89-15.42,1.03-22.81.13-7.39.2-13.7.2-18.91.83-1.65,1.85-3.63,3.09-5.96,1.23-2.33,2.52-4.66,3.9-6.99,1.37-2.32,2.94-4.24,4.73-5.75,1.78-1.5,3.77-2.26,5.96-2.26,1.92,0,3.56.68,4.94,2.05,1.37,1.38,2.46,3.08,3.28,5.14.83,2.05,1.38,4.18,1.65,6.37.27,2.2.42,4.11.42,5.75,0,13.98-.62,27.61-1.85,40.9-1.24,13.3-1.85,27.2-1.85,41.72v27.54l3.7,3.29c11.51-21.92,27.05-38.44,46.65-49.53s41.31-16.65,65.15-16.65h14.39l83.44,20.97h17.67c6.02,0,12.8-.34,20.35-1.03,7.53-.68,14.86-2.26,21.99-4.73,7.12-2.47,13.49-6.02,19.12-10.69,5.61-4.66,9.51-10.95,11.71-18.91,0-.82.07-2.32.21-4.52.14-2.19.41-4.59.83-7.19.41-2.6,1.09-5.14,2.05-7.6.96-2.47,2.39-4.24,4.31-5.34h1.65c1.65,0,3.09.76,4.32,2.26,1.24,1.51,2.12,3.36,2.67,5.55s.96,4.39,1.24,6.58c.27,2.19.41,3.97.41,5.34,0,13.98-2.95,27.61-8.84,40.9-5.9,13.29-13.71,25.07-23.43,35.35-9.73,10.28-20.96,18.5-33.7,24.66-12.74,6.17-26.11,9.25-40.08,9.25-6.31,0-12.61-.54-18.91-1.65-6.31-1.09-12.33-1.64-18.09-1.64-6.31,0-11.93.55-16.85,1.64-4.94,1.1-10.28,1.65-16.03,1.65s-10.83-.27-15.21-.82c-4.39-.54-8.37-1.57-11.92-3.08-3.57-1.5-6.99-3.63-10.28-6.37-3.29-2.73-6.58-6.3-9.86-10.68-.56-.27-1.38-1.24-2.47-2.88-1.1-1.65-2.19-3.29-3.28-4.94-1.11-1.65-2.2-3.15-3.29-4.52-1.1-1.37-1.78-2.05-2.05-2.05-4.39-2.19-8.3-3.15-11.72-2.88-3.43.27-6.85.48-10.28.62-3.43.14-6.92-.41-10.48-1.65s-7.81-4.45-12.74-9.66c-4.93,1.65-8.7,4.25-11.3,7.81-2.61,3.56-5.07,7.19-7.4,10.89-2.33,3.7-4.94,7.06-7.81,10.07-2.88,3.02-6.93,4.93-12.13,5.75v35.35c0,2.2-.77,4.87-2.26,8.01-1.51,3.16-3.43,6.24-5.75,9.25-2.33,3.02-4.8,5.55-7.4,7.61-2.61,2.05-5.14,3.08-7.61,3.08h-1.65c-.55-.82-1.17-2.47-1.85-4.93-.69-2.47-1.38-5.01-2.05-7.61-.69-2.6-1.31-5.07-1.85-7.4-.55-2.32-.82-3.9-.82-4.73-.56-2.46-1.18-6.78-1.85-12.95-.69-6.16-1.44-12.74-2.26-19.73-.82-6.99-1.51-13.7-2.05-20.14-.55-6.43-.82-11.02-.82-13.77ZM173.05,233.89c-.82,0-1.23.55-1.23,1.65s.41,1.64,1.23,1.64h.83c3.83,1.92,7.95,3.16,12.33,3.7,4.39.55,8.77.55,13.16,0,.82.82,1.3,1.58,1.44,2.26.13.69.2,1.3.2,1.85,0,2.46-1.51,5.14-4.52,8.01-3.02,2.88-6.44,5.55-10.28,8.02-3.84,2.47-7.67,4.66-11.51,6.58-3.84,1.92-6.57,3.02-8.22,3.29v3.7c3.29,0,6.5-.82,9.66-2.47,3.14-1.65,6.22-3.49,9.24-5.55,3.01-2.05,6.16-3.9,9.45-5.55s6.71-2.47,10.28-2.47c0,6.58-2.13,12.2-6.37,16.86-4.26,4.66-9.39,8.5-15.42,11.51-6.03,3.02-12.33,5.21-18.91,6.58-6.58,1.38-12.33,2.05-17.27,2.05-2.19,0-6.78-.75-13.76-2.26-6.99-1.5-14.33-3.49-22-5.96-7.68-2.46-14.46-5.41-20.34-8.84-5.9-3.43-8.84-7.05-8.84-10.89,0-4.11,3.7-9.18,11.1-15.21,7.4-6.02,16.03-11.85,25.9-17.47,9.87-5.61,19.66-10.41,29.4-14.39,9.72-3.96,16.78-5.96,21.17-5.96,2.46,0,5.54.27,9.24.82,3.7.55,7.4,1.38,11.1,2.47,3.7,1.1,7.19,2.61,10.48,4.52,3.29,1.92,5.89,4.11,7.81,6.58l-8.22,8.22c-1.38.55-2.81.82-4.32.82h-4.32l-.82-.82c-.28,0-.56.14-.83.41v.41c-5.75,0-11.09-1.37-16.03-4.11h-.83ZM188.26,147.15c3.01.55,5.54,1.71,7.6,3.49,2.05,1.78,3.97,3.63,5.75,5.55,1.78,1.92,3.63,3.84,5.55,5.75,1.92,1.92,4.11,3.43,6.57,4.52,0,.55.14.82.42.82h.41c1.92,2.2,3.56,3.7,4.93,4.52,1.65,2.47,2.47,4.66,2.47,6.58,0,.82-.14,1.85-.41,3.08-.28,1.24-1.24,1.85-2.88,1.85-1.38.82-3.02,1.51-4.94,2.06s-3.97,1.1-6.16,1.64l-1.65-2.05c-3.02-.82-6.1-1.23-9.24-1.23s-6.24-.41-9.25-1.24c-3.02-1.64-6.92-4.04-11.72-7.19-4.8-3.15-7.88-5.14-9.24-5.96h-3.29c2.19,4.67,5.34,8.02,9.45,10.07s8.5,3.9,13.15,5.55c3.29,1.1,6.64,1.65,10.07,1.65s6.78.69,10.07,2.05c2.46,1.38,4.66,2.81,6.58,4.32,1.92,1.51,2.87,3.08,2.87,4.73,0,2.47-.48,4.39-1.44,5.75-.97,1.38-2.81,2.88-5.55,4.52h-14.38c-12.06,0-21.73-.96-28.98-2.88-7.27-1.92-13.36-4.79-18.3-8.63-4.93-3.83-9.52-8.84-13.77-15.01-4.25-6.16-9.38-13.63-15.42-22.4l-14.38-14.38v-4.94c0-4.93,1.92-8.84,5.75-11.71,3.83-2.88,8.36-5.14,13.56-6.79,5.21-1.64,10.62-2.73,16.23-3.29,5.61-.55,10.07-.82,13.36-.82,4.38,0,11.1,1.03,20.14,3.08,9.04,2.06,18.09,5.01,27.13,8.84,9.04,3.84,16.91,8.43,23.63,13.77,6.71,5.34,10.07,11.3,10.07,17.88,0,2.2-1.24,3.9-3.7,5.14-2.47,1.23-4.94,2.4-7.4,3.49-1.65-2.73-3.98-4.79-6.99-6.16-3.02-1.37-5.21-3.29-6.58-5.76-1.37-2.46-2.6-4.17-3.7-5.14-1.1-.96-2.32-2.12-3.7-3.49-1.64-1.65-3.49-2.73-5.54-3.29-2.05-.55-3.91-1.09-5.55-1.65h-2.46c-.82.55-1.24,1.23-1.24,2.05s.69,1.23,2.06,1.23ZM186.62,319.79c-.83.82-.97,1.51-.42,2.06.55.55,1.24.41,2.06-.41l.82-.82c1.92-1.09,4.11-1.78,6.58-2.05,2.46-.27,5-.54,7.6-.82,2.6-.27,5-.82,7.2-1.65,2.18-.82,4.11-2.32,5.75-4.52,1.65,2.46,3.01,4.66,4.11,6.58,1.09,1.92,1.65,3.56,1.65,4.93v3.29l-20.97,24.66c1.92-.82,3.91-2.19,5.96-4.11,2.05-1.92,4.25-3.9,6.58-5.96,2.32-2.05,4.59-3.83,6.78-5.34,2.18-1.51,4.38-2.26,6.57-2.26,5.48,0,9.18,2.2,11.1,6.58,1.92,4.39,2.47,9.18,1.65,14.39,1.65-1.65,3.7-2.6,6.17-2.88,2.46-.27,5.2-.41,8.22-.41,1.65,0,3.29.35,4.94,1.03,1.65.69,3.28,1.44,4.93,2.26v.82l2.05,2.46.83.82c0,.55.13.97.41,1.23,0,.28.14.41.41.41-1.92,5.21-4.25,10.14-6.98,14.8-2.74,4.66-5.21,9.32-7.4,13.98-.56,1.38-.28,2.33.82,2.88,1.09.55,1.92.14,2.46-1.23,1.65-4.11,3.77-8.15,6.37-12.13,2.6-3.97,4.73-8.02,6.37-12.13.83-.55,1.44-1.09,1.85-1.65.41-.55.89-1.09,1.44-1.65l2.46-2.05c2.74,2.19,6.17,3.7,10.28,4.52,2.19,1.1,3.83,1.64,4.94,1.64v4.11c-1.38,4.39-3.02,8.43-4.94,12.13-1.92,3.7-3.98,7.19-6.16,10.48-.83.82-.97,1.58-.42,2.26.55.69,1.24.48,2.05-.62,4.94-4.66,8.64-10.28,11.1-16.85l.83-.82v-.82l.82-.82.42-.41c0-.27.06-.47.2-.62.14-.13.21-.34.21-.62l1.65-2.46,1.65-1.65c.54-.54,1.09-.82,1.64-.82,1.92.55,3.56.96,4.94,1.23,1.37.28,3.15.69,5.34,1.24h3.29c.27,0,1.16-.34,2.67-1.03,1.5-.68,3.01-1.44,4.52-2.26s2.94-1.57,4.32-2.26,2.32-1.03,2.88-1.03c.82,0,2.46.55,4.93,1.64,2.46,1.1,4.25,1.65,5.34,1.65h1.65c-.56,6.31.06,12.47,1.85,18.5,1.78,6.03,5,11.38,9.66,16.03.83.82,1.85.97,3.08.41,1.24-.55,1.44-1.23.62-2.05-4.67-4.38-7.95-9.66-9.86-15.83-1.92-6.17-2.61-12.4-2.05-18.71,2.18-.82,4.45-1.85,6.78-3.08,2.32-1.23,4.86-2.81,7.6-4.73.55.82,1.1,1.85,1.65,3.08.55,1.24,1.1,2.26,1.65,3.09,0,.55.14.96.41,1.23,0,.27.14.41.42.41,3.55,6.03,5.75,12.2,6.57,18.5.55.82,1.44.97,2.67.41,1.24-.55,1.58-1.23,1.03-2.05-.55-5.21-1.85-9.93-3.9-14.18-2.06-4.24-4.73-8.28-8.02-12.13,2.18-.82,4.17-1.57,5.95-2.26,1.78-.68,3.77-1.03,5.96-1.03,1.92,0,4.25.69,6.99,2.05,2.73,1.38,5.21,3.15,7.4,5.34s4.11,4.52,5.75,6.99c1.65,2.47,2.46,4.67,2.46,6.58v56.31c0,3.29-1.23,6.78-3.7,10.48-2.46,3.7-5.28,7.19-8.43,10.48-3.15,3.29-6.3,6.16-9.45,8.63s-5.54,4.11-7.19,4.93h-1.65c-4.11,0-7.4-1.3-9.86-3.9-2.47-2.6-4.32-5.75-5.55-9.45-1.23-3.7-2.05-7.53-2.46-11.51-.41-3.97-.62-7.19-.62-9.66-7.13-3.83-13.36-8.9-18.71-15.21-5.34-6.3-9.79-13.01-13.35-20.14-.83,3.29-3.77,8.91-8.84,16.85-5.07,7.95-10.83,16.17-17.26,24.66-6.44,8.5-12.74,15.96-18.91,22.4-6.16,6.44-10.76,9.66-13.77,9.66-2.74,0-5.41-1.71-8.02-5.14-2.6-3.43-5.07-7.74-7.4-12.95-2.33-5.21-4.52-10.89-6.57-17.06-2.05-6.16-3.85-11.98-5.34-17.47-1.51-5.48-2.67-10.34-3.5-14.59-.82-4.25-1.23-6.92-1.23-8.02,0-3.29.54-6.78,1.65-10.48,1.09-3.7,1.65-7.74,1.65-12.13v-3.29c-11.25,7.95-22.2,13.43-32.89,16.44-10.69,3.02-23.57,4.52-38.64,4.52-2.19,0-4.6-.07-7.19-.2-2.61-.13-5.01-.62-7.2-1.44s-4.11-2.05-5.75-3.7-2.46-4.11-2.46-7.4c0-4.11,1.58-7.74,4.73-10.89,3.14-3.15,5.14-7.05,5.96-11.71,1.64-6.58,3.55-13.5,5.75-20.76,2.18-7.26,5.2-13.98,9.04-20.14,3.83-6.17,8.7-11.23,14.59-15.21,5.89-3.97,13.49-5.96,22.81-5.96,3.01,0,6.3,1.65,9.86,4.93,3.56,3.29,6.85,6.85,9.86,10.69-.55.27-.96.55-1.23.82-.28.27-.69.55-1.24.82l-1.24,1.24c-1.38,1.38-2.87,2.33-4.52,2.88-1.65.55-3.29.82-4.94.82s-3.29.07-4.93.2c-1.65.14-3.29.48-4.94,1.03-.56.55-1.1,1.1-1.65,1.65-.55.55-1.1.82-1.65.82-.28,0-.55.14-.82.41v1.23ZM262.24,77.28c2.19,4.39,4.32,8.5,6.37,12.33,2.06,3.84,4.18,7.95,6.37,12.33,1.65,3.84,3.15,7.6,4.53,11.3,1.37,3.7,3.01,7.47,4.93,11.3-3.01.82-5.89,1.65-8.63,2.47-2.74.82-5.21,1.64-7.4,2.46-5.21-7.67-10.69-15-16.44-21.99-5.75-6.99-11.79-13.63-18.09-19.94-.82-.82-1.58-.96-2.26-.41-.68.55-.48,1.23.62,2.05,6.3,6.85,12.06,13.64,17.27,20.35,5.2,6.72,10.27,13.91,15.21,21.58h-.83c-3.01,2.2-4.73,3.77-5.14,4.73-.41.97-.76,1.65-1.03,2.05-.28.41-.97.55-2.05.41-1.1-.13-3.57-.2-7.4-.2-5.75,0-11.45-1.51-17.06-4.52-5.61-3.01-10.68-6.92-15.21-11.72-4.52-4.79-8.16-10.21-10.89-16.23-2.74-6.03-4.12-12.06-4.12-18.09v-1.65c0-.27.21-1.16.62-2.67.42-1.5.89-3.01,1.44-4.52.54-1.51,1.03-2.94,1.44-4.32.41-1.37.62-2.32.62-2.88,0-1.09.13-3.29.41-6.58.27-3.29.62-6.79,1.03-10.48s.82-7.19,1.24-10.48c.41-3.29.61-5.61.61-6.99,1.65-1.65,3.43-2.6,5.34-2.88,1.92-.27,4.12-.41,6.58-.41,8.49,0,17.33,2.13,26.51,6.37,9.17,4.25,17.67,9.87,25.48,16.85,7.82,6.99,14.25,14.87,19.32,23.64,5.07,8.77,7.6,17.54,7.6,26.31v10.28c0,1.38-1.03,2.47-3.08,3.29-2.05.82-4.59,1.92-7.6,3.29-2.47-3.83-4.12-8.22-4.94-13.15s-2.61-9.31-5.34-13.15c-1.38-1.65-2.46-3.56-3.29-5.75-.82-2.19-1.65-4.38-2.46-6.58-.82-1.64-1.92-3.08-3.29-4.31-1.38-1.24-2.46-2.67-3.29-4.32-.55-.82-1.44-1.09-2.66-.82-1.24.28-1.58.82-1.04,1.65ZM205.12,279.51c0-3.56,1.3-5.89,3.9-6.99,2.6-1.09,5.28-1.65,8.02-1.65,2.46,0,4.45.27,5.96.82,1.5.55,2.26,2.61,2.26,6.16,0,4.39-2.75,6.58-8.23,6.58-1.65,0-4.05-.2-7.19-.61-3.16-.41-4.73-1.85-4.73-4.32ZM221.97,204.7c0-4.38,1.5-7.32,4.52-8.84,3.01-1.5,6.3-2.26,9.87-2.26,2.46,0,5.34.41,8.63,1.24s4.94,3.43,4.94,7.81c0,2.74-1.92,5.41-5.75,8.02-3.84,2.61-6.99,3.9-9.45,3.9-2.74,0-5.55-1.03-8.43-3.08-2.88-2.05-4.32-4.32-4.32-6.79ZM225.26,237.17c0-3.29.95-6.02,2.87-8.22,1.92-2.19,4.66-3.29,8.23-3.29,2.46,0,5.81,1.03,10.06,3.08,4.25,2.06,6.79,4.32,7.61,6.79.27,1.92-.21,3.77-1.44,5.55-1.24,1.78-2.81,3.29-4.73,4.52-1.92,1.23-3.84,2.26-5.75,3.08-1.92.82-3.29,1.23-4.12,1.23-3.28,0-6.23-1.16-8.84-3.49-2.6-2.32-3.9-5.41-3.9-9.25ZM225.26,305.41c0-2.47,1.23-4.73,3.7-6.78,2.46-2.06,4.93-3.09,7.4-3.09,1.37,0,3.21.55,5.54,1.65,2.32,1.1,5,2.47,8.02,4.11v1.64c0,3.84-1.03,7.47-3.08,10.89-2.05,3.43-5.01,5.41-8.84,5.96-8.5-4.38-12.73-9.17-12.73-14.38ZM236.36,276.23c0-2.74.82-5.55,2.46-8.43,1.65-2.88,4.11-4.31,7.4-4.31,4.66,0,8.22,1.23,10.69,3.7,2.46,2.46,3.7,5.48,3.7,9.04,0,4.11-1.11,7.06-3.29,8.84-2.2,1.78-5.21,2.67-9.04,2.67-3.57,0-6.44-.89-8.64-2.67-2.19-1.78-3.28-4.73-3.28-8.84ZM242.93,167.3c0-3.29,1.44-6.02,4.32-8.22,2.87-2.19,6.23-3.29,10.07-3.29,3.29,0,6.16.82,8.63,2.46,2.47,1.65,4.12,4.11,4.94,7.4.55.55.83,1.38.83,2.47,0,1.65-.62,3.02-1.85,4.11-1.24,1.1-2.67,1.99-4.32,2.67-1.65.69-3.29,1.17-4.93,1.44-1.65.27-2.74.41-3.29.41-2.46,0-5.48-.82-9.04-2.46-3.57-1.65-5.34-3.97-5.34-6.99ZM260.61,330.07c-3.02,0-6.58-.82-10.69-2.47-.56-.55-.83-1.16-.83-1.85v-1.85c0-1.65.35-3.22,1.03-4.73.69-1.5,1.44-2.94,2.26-4.32.55.28,1.17.07,1.85-.61.68-.68,1.37-1.51,2.05-2.47.68-.96,1.44-1.85,2.25-2.67.83-.82,1.78-1.23,2.88-1.23,3.84,2.74,7.05,5.28,9.66,7.6,2.6,2.33,3.9,4.31,3.9,5.96,0,4.39-1.51,6.92-4.52,7.6-3.02.69-6.31,1.03-9.86,1.03ZM288.56,193.6c0,.55-.35,1.58-1.03,3.09-.69,1.51-1.51,3.02-2.47,4.52s-1.78,2.95-2.46,4.31c-.69,1.38-1.03,2.2-1.03,2.47-2.46.55-4.94.55-7.4,0-2.46-.54-5.21-1.09-8.23-1.65-1.37-1.37-3.01-2.94-4.93-4.73-1.92-1.78-3.15-3.08-3.7-3.9v-1.65c0-2.19.75-4.11,2.26-5.75,1.5-1.65,3.28-2.94,5.34-3.9,2.06-.96,4.18-1.71,6.37-2.26,2.19-.54,3.97-.82,5.34-.82,2.47,0,5.07.55,7.81,1.65,2.74,1.1,4.12,3.43,4.12,6.99v1.64ZM260.61,218.68c0-.82.75-2.05,2.25-3.7,1.51-1.64,2.81-3.15,3.91-4.52,2.46.55,5.14.96,8.02,1.23,2.87.27,5.81.14,8.84-.41.82,1.37,1.85,2.74,3.08,4.11,1.24,1.38,1.85,2.47,1.85,3.29v5.34c0,4.11-1.71,7.06-5.14,8.84-3.43,1.78-7.05,2.67-10.89,2.67-3.29,0-6.1-1.09-8.43-3.29-2.33-2.19-3.49-4.93-3.49-8.22v-5.34ZM263.89,258.55c0-2.73.14-5,.42-6.78.27-1.78,1.37-3.49,3.28-5.14h9.04c3.56,0,6.99.61,10.28,1.85,3.29,1.23,4.93,4.04,4.93,8.43,0,2.46-1.58,5.41-4.73,8.84-3.15,3.43-6.1,5.14-8.84,5.14-4.67,0-8.22-.89-10.69-2.67-2.46-1.78-3.7-5-3.7-9.66ZM274.99,287.73c0-4.11.96-7.33,2.88-9.66,1.92-2.33,5.48-3.49,10.69-3.49,3.28,0,5.88,1.03,7.81,3.08,1.92,2.05,2.87,4.32,2.87,6.78,0,3.84-1.51,7.19-4.52,10.07-3.02,2.88-6.16,4.32-9.45,4.32-3.57,0-6.16-.68-7.81-2.05s-2.47-4.38-2.47-9.04ZM278.28,148.8c.27-.54,1.1-1.5,2.46-2.88,1.38-1.37,2.81-2.81,4.32-4.32,1.51-1.5,2.88-2.88,4.12-4.11,1.23-1.23,2.12-2.12,2.66-2.67h1.65c3.84,0,6.92,1.1,9.25,3.29,2.32,2.19,3.49,4.93,3.49,8.22,0,4.67-1.23,7.95-3.7,9.87-2.46,1.92-6.03,2.88-10.69,2.88-2.46,0-5.34-.34-8.63-1.03-3.29-.68-4.94-3.22-4.94-7.6v-1.65ZM307.06,327.61c1.09,1.1,1.92,1.65,2.46,1.65,0,1.1.55,1.64,1.65,1.64.27.28.47.55.62.82.13.28.34.55.62.82.27.28.41.55.41.82-.83,5.48-3.02,8.63-6.58,9.45s-7.26,1.24-11.1,1.24c-1.38,0-2.94-.07-4.73-.21-1.78-.13-3.63-.54-5.54-1.23-1.92-.68-3.5-1.71-4.73-3.08-1.24-1.37-1.85-3.43-1.85-6.17,0-3.29,2.05-7.26,6.16-11.92h4.94c3.29,0,6.16.89,8.64,2.67,2.46,1.78,5.2,2.95,8.22,3.49h.83ZM319.8,175.11c0,2.46-1.04,4.04-3.09,4.73s-3.36,2.12-3.9,4.31h-12.74c-1.38-1.37-3.08-2.6-5.14-3.7-2.06-1.09-3.09-2.88-3.09-5.34v-1.65c.27-.55,1.17-1.3,2.67-2.26,1.51-.96,3.01-1.85,4.53-2.67,1.5-.82,2.94-1.5,4.32-2.05,1.37-.54,2.32-.82,2.87-.82,1.65,0,4.32.82,8.02,2.47s5.55,3.97,5.55,6.99ZM323.91,305.41c0,3.84-1.24,7.06-3.7,9.66-2.47,2.61-5.21,4.73-8.23,6.37h-4.93c-2.47-.82-4.94-1.71-7.4-2.67-2.47-.95-4.8-2.53-6.99-4.73-.56-.82-.83-1.78-.83-2.88v-2.46c.83-3.29,2.6-6.85,5.34-10.69,2.74-3.83,6.3-5.75,10.69-5.75,3.29,0,6.78,1.38,10.48,4.11,3.7,2.74,5.55,5.75,5.55,9.04ZM295.13,202.65c0-2.46,1.3-4.79,3.91-6.99,2.6-2.19,3.9-4.52,3.9-6.99v-.82h9.87c.54,1.1,1.44,1.92,2.67,2.47,1.23.55,2.46,1.23,3.7,2.05,1.23.82,2.32,1.71,3.28,2.67.96.96,1.44,2.4,1.44,4.32,0,4.39-1.38,7.47-4.11,9.25-2.75,1.78-6.17,2.67-10.28,2.67-2.46,0-5.48-.34-9.04-1.03-3.56-.68-5.34-3.22-5.34-7.6ZM303.77,241.7c-2.74-1.91-4.87-3.76-6.37-5.55-1.51-1.78-2.26-4.17-2.26-7.19,0-3.29,1.3-5.82,3.91-7.61,2.6-1.78,5.54-2.67,8.84-2.67s6.09.9,8.43,2.67c2.32,1.79,3.5,4.32,3.5,7.61,0,1.64-.35,2.95-1.04,3.9-.68.96-1.51,1.78-2.46,2.46-.97.69-1.78,1.44-2.46,2.26-.69.82-1.03,1.92-1.03,3.29v.82h-9.04ZM299.24,253.21c0-2.19.27-3.76.83-4.73.55-.96,1.78-2.12,3.7-3.49h9.86c1.65,2.2,3.77,3.77,6.37,4.73,2.6.96,3.91,2.67,3.91,5.14,0,3.56-.97,5.9-2.88,6.99-1.92,1.1-4.66,1.65-8.22,1.65-3.29,0-6.37-.62-9.25-1.85-2.87-1.24-4.32-4.04-4.32-8.43ZM339.93,87.55c.55,6.31.07,12.54-1.44,18.7-1.51,6.17-3.64,11.99-6.37,17.47-3.02,0-5.96-.41-8.84-1.23-2.88-.82-5.28-3.83-7.19-9.04v-19.32c0-6.85.13-12.74.41-17.67.27-4.93,2.73-10,7.4-15.21.82-.82,2.87-2.94,6.16-6.37,3.29-3.43,6.92-7.26,10.89-11.51,3.97-4.24,7.88-8.35,11.72-12.33,3.84-3.97,6.85-6.78,9.04-8.43,4.66-4.11,8.02-6.78,10.07-8.02,2.05-1.23,5.14-1.85,9.25-1.85h4.93c.27,5.76,1.03,11.1,2.26,16.03,1.24,4.93,2.53,9.86,3.91,14.8,1.37,4.93,2.52,9.8,3.49,14.59.96,4.8,1.44,9.8,1.44,15.01,0,5.75-.89,11.99-2.67,18.7-1.78,6.72-4.46,12.95-8.02,18.7s-7.95,10.62-13.15,14.59c-5.21,3.97-11.24,5.96-18.08,5.96v-9.04c3.01-5.2,5.61-10.48,7.81-15.83,2.18-5.34,3.7-11.02,4.52-17.06.55-1.37.27-2.05-.82-2.05s-1.92.69-2.47,2.05c-1.37,6.03-3.22,11.58-5.54,16.65-2.33,5.07-5.01,10.21-8.02,15.41-1.65,1.38-3.77,2.13-6.37,2.26-2.6.14-5.14.2-7.6.2,4.38-12.6,6.57-24.66,6.57-36.17,0-1.37-.55-2.05-1.65-2.05s-1.65.69-1.65,2.05ZM316.1,144.69c0-4.11,1.57-6.79,4.73-8.02,3.14-1.23,6.37-1.85,9.65-1.85,4.38,0,8.43.69,12.13,2.05,3.7,1.38,5.55,4.52,5.55,9.45,0,1.65-.62,3.23-1.85,4.73-1.23,1.51-2.67,2.88-4.32,4.11-1.64,1.23-3.35,2.2-5.14,2.88-1.78.69-3.36,1.03-4.73,1.03s-2.95-.41-4.73-1.23c-1.78-.82-3.49-1.85-5.14-3.08-1.65-1.24-3.08-2.74-4.32-4.52-1.24-1.78-1.85-3.63-1.85-5.55ZM319.8,277.87c0-4.38,1.5-7.19,4.52-8.43,3.01-1.23,6.16-1.85,9.45-1.85,11.78,0,17.68,5.07,17.68,15.21,0,4.66-1.38,7.4-4.12,8.22-2.74.82-6.02,1.24-9.86,1.24-4.39,0-8.43-1.37-12.13-4.11-3.7-2.73-5.54-6.16-5.54-10.28ZM319.8,342.4c0-1.65.61-3.49,1.85-5.55s2.73-3.9,4.52-5.55,3.7-2.94,5.76-3.9c2.05-.96,3.9-1.3,5.54-1.03,3.84,1.1,6.58,3.15,8.22,6.16,1.65,3.02,2.47,5.75,2.47,8.22,0,4.39-1.51,7.19-4.53,8.43-3.01,1.24-6.3,1.85-9.86,1.85-2.46,0-5.41-.34-8.84-1.03-3.43-.68-5.14-3.22-5.14-7.6ZM327.2,169.35c0-1.09,1.44-2.53,4.31-4.31,2.88-1.78,4.87-2.67,5.96-2.67h2.46c3.01,0,5.68.96,8.02,2.88,2.32,1.92,3.5,4.66,3.5,8.22,0,2.46-1.03,4.18-3.09,5.14-2.05.97-4.59,1.44-7.6,1.44-.83,0-2.05-.13-3.7-.41-1.65-.27-3.23-.75-4.73-1.44-1.51-.68-2.88-1.58-4.11-2.67-1.24-1.09-1.85-2.32-1.85-3.7l.83-2.47ZM327.2,224.02c0-3.83,1.23-7.33,3.69-10.48,2.47-3.15,5.48-5.55,9.04-7.19,1.65.55,3.22,1.03,4.73,1.44,1.51.41,2.94,1.03,4.32,1.85,4.11,3.84,6.17,8.09,6.17,12.74,0,4.11-1.44,6.79-4.32,8.02-2.88,1.23-6.24,1.85-10.07,1.85-2.74,0-5.69-.34-8.84-1.03-3.16-.68-4.73-3.08-4.73-7.19ZM333.77,310.75c0-4.38,1.44-7.46,4.32-9.25,2.87-1.78,6.23-2.67,10.07-2.67,3.56,0,7.26.89,11.1,2.67,3.83,1.78,5.75,4.87,5.75,9.25,0,3.02-1.85,5.82-5.55,8.43-3.7,2.61-6.92,3.9-9.65,3.9-1.38,0-2.95-.34-4.73-1.03-1.78-.68-3.5-1.65-5.14-2.88s-3.08-2.6-4.31-4.11c-1.24-1.5-1.85-2.94-1.85-4.31ZM363.37,201c-1.38,0-3.02.69-4.94,2.06s-3.97,2.46-6.16,3.29l-8.22-2.88c-2.2-2.19-3.29-4.66-3.29-7.4,0-3.01,1.65-5.27,4.93-6.78,3.29-1.51,5.89-2.26,7.82-2.26l9.86,3.29v10.68ZM340.76,253.21c0-3.29,1.3-7.06,3.9-11.3s6.1-6.37,10.49-6.37c1.09,0,2.67.61,4.73,1.85,2.05,1.23,4.04,2.67,5.95,4.31,1.92,1.65,3.56,3.43,4.94,5.34,1.37,1.92,2.05,3.43,2.05,4.52,0,4.39-1.85,7.47-5.54,9.25-3.7,1.78-7.2,2.67-10.49,2.67-3.56,0-7.13-.62-10.68-1.85-3.57-1.24-5.34-4.04-5.34-8.43ZM477.22,445.17c1.92.55,5,1.51,9.25,2.88,4.25,1.38,8.77,2.81,13.56,4.31,4.8,1.51,9.31,3.02,13.56,4.52,4.25,1.51,7.2,2.4,8.84,2.67,4.66-1.65,8.22-2.6,10.69-2.88,2.46-.27,5.34-.41,8.63-.41,7.12,0,14.18,1.1,21.17,3.29,6.99,2.2,14.04,3.29,21.17,3.29h8.22c.27,0,1.17-.13,2.67-.41,1.51-.27,3.01-.61,4.53-1.03,1.5-.41,2.94-.82,4.32-1.23,1.37-.41,2.32-.62,2.87-.62,1.65,0,3.15.41,4.53,1.23,1.37.82,2.05,2.06,2.05,3.7,0,3.29-1.03,5.76-3.08,7.4-2.06,1.65-4.53,2.88-7.4,3.7-2.88.82-5.76,1.31-8.64,1.44-2.88.14-5.14.2-6.78.2-7.13,0-13.84-.68-20.14-2.05-6.31-1.37-13.02-2.05-20.14-2.05-2.46,0-4.73.41-6.78,1.23s-4.05,1.65-5.96,2.47-3.98,1.65-6.16,2.46c-2.19.82-4.67,1.24-7.4,1.24-3.57,0-7.13-.89-10.69-2.67-3.56-1.78-7.13-3.83-10.69-6.17-3.56-2.32-7.19-4.38-10.89-6.16-3.7-1.78-7.47-2.67-11.31-2.67-6.02,0-12.81,1.23-20.34,3.7-7.54,2.46-13.5,6.03-17.88,10.68-9.6-1.92-18.3-2.6-26.11-2.05-7.81.55-15.08,2.05-21.79,4.52s-13.29,5.9-19.72,10.28c-6.44,4.39-13.09,9.45-19.93,15.21h-6.58v-7.81c0-.27,1.03-1.44,3.08-3.49s4.53-4.38,7.4-6.99c2.88-2.6,5.89-5.21,9.04-7.81,3.15-2.6,5.96-4.58,8.43-5.96,6.58-4.66,11.99-7.67,16.23-9.04,4.25-1.37,8.5-2.12,12.74-2.26,4.25-.13,8.84-.13,13.77,0,4.94.14,11.37-.62,19.32-2.26,4.11-.82,7.67-2.05,10.68-3.7,3.01-1.65,5.89-3.22,8.64-4.73,2.73-1.5,5.61-2.88,8.64-4.11,3.01-1.24,6.57-1.85,10.68-1.85h3.7ZM355.15,160.72c0-4.11,1.71-7.81,5.14-11.1,3.42-3.29,7.05-4.93,10.89-4.93,3.29,0,6.02,1.23,8.23,3.7,2.18,2.46,3.28,5.48,3.28,9.04,0,7.95-4.52,11.92-13.56,11.92-3.02,0-6.1-.34-9.24-1.03-3.16-.68-4.73-3.22-4.73-7.6ZM358.43,333.36c0-6.85,4.25-10.28,12.74-10.28,3.29,0,6.02.82,8.23,2.47,2.18,1.64,3.28,4.25,3.28,7.81,0,3.02-1.3,5.55-3.9,7.6-2.61,2.06-5.14,3.09-7.61,3.09-3.02,0-5.89-1.03-8.63-3.09-2.74-2.05-4.12-4.58-4.12-7.6ZM377.76,207.99c-2.47,0-4.53-.82-6.17-2.47-1.64-1.64-3.28-2.88-4.93-3.7v-11.51c2.18-.55,4.04-1.23,5.54-2.05s3.35-1.24,5.55-1.24c3.29,0,6.09.82,8.43,2.47,2.32,1.65,3.49,4.39,3.49,8.22,0,2.47-1.38,4.8-4.11,6.99-2.74,2.2-5.34,3.29-7.81,3.29ZM379.4,293.9c0-4.66,1.23-8.49,3.7-11.51,2.46-3.01,6.02-4.52,10.68-4.52,4.12,0,7.4,1.51,9.87,4.52,2.46,3.02,3.7,6.85,3.7,11.51,0,4.11-1.24,7.06-3.7,8.84-2.47,1.78-5.75,2.67-9.87,2.67-9.59,0-14.38-3.83-14.38-11.51ZM382.68,227.31c0-4.38,1.44-7.6,4.32-9.66,2.88-2.05,6.23-3.08,10.07-3.08,3.29,0,6.37,1.23,9.25,3.7,2.87,2.47,4.31,5.48,4.31,9.04,0,1.65-.82,3.15-2.46,4.52s-3.49,2.61-5.54,3.7c-2.05,1.1-4.12,1.92-6.17,2.46-2.05.55-3.49.82-4.31.82-3.85,0-6.37-1.3-7.61-3.9-1.24-2.6-1.85-5.14-1.85-7.6ZM385.97,260.19c-.82-5.2.55-8.77,4.11-10.68,3.56-1.92,6.99-2.88,10.28-2.88,5.21,0,8.77,1.44,10.69,4.31,1.92,2.88,3.7,5.69,5.34,8.43,0,3.02-.9,5.49-2.67,7.4-1.78,1.92-3.91,3.29-6.37,4.11-1.38.55-2.61.82-3.7.82-1.1-.55-2.47-.82-4.12-.82-1.64-.82-4.11-2.05-7.39-3.7-3.29-1.65-5.34-3.97-6.17-6.99ZM450.92,144.69c-1.38,0-2.94.48-4.73,1.44-1.78.97-3.63,2.13-5.54,3.49-.56,0-.97.35-1.24,1.03-.28.69-.69,1.31-1.24,1.85-.55.55-.96.82-1.23.82s-.69.27-1.24.82c-3.84,3.02-7.81,5.75-11.92,8.22-4.12,2.46-8.5,4.8-13.16,6.99-1.64-2.73-3.01-5.27-4.11-7.6-1.1-2.32-2.33-4.59-3.7-6.78,2.74-5.48,6.23-10.55,10.48-15.21,4.25-4.65,9.52-8.08,15.83-10.28.83-.54,1.1-1.37.83-2.46-.28-1.09-.83-1.37-1.65-.82h-2.46c-2.2,1.65-4.32,3.15-6.37,4.52s-4.19,3.02-6.37,4.93l-2.47,2.47c-3.84,3.84-7.54,8.63-11.1,14.38-1.37-1.37-2.81-2.19-4.31-2.47-1.51-.27-2.95-.75-4.32-1.44-1.38-.68-2.54-1.85-3.5-3.49s-1.44-4.52-1.44-8.63v-5.34c7.95-9.59,16.85-17.27,26.72-23.02,9.86-5.75,20.96-8.63,33.3-8.63,2.18,0,5.68.07,10.48.2,4.79.14,10.2.48,16.23,1.03,6.02.55,12.13,1.44,18.29,2.67,6.17,1.24,11.86,2.82,17.06,4.73,5.21,1.92,9.45,4.39,12.74,7.4,3.29,3.02,4.94,6.58,4.94,10.69,0,2.74-1.92,6.03-5.76,9.86-3.84,3.84-8.7,7.81-14.59,11.92-5.89,4.11-12.47,8.22-19.73,12.33-7.26,4.11-14.25,7.74-20.96,10.89-6.72,3.16-12.74,5.69-18.09,7.6-5.34,1.92-9.24,2.88-11.71,2.88-.83,0-3.09-.27-6.79-.82-3.7-.55-5.95-.82-6.78-.82-1.65-.82-3.22-1.85-4.73-3.08-1.51-1.24-2.67-2.67-3.49-4.32l2.46-1.65c5.21-2.74,10.55-5.68,16.03-8.84,5.48-3.15,10-7.06,13.56-11.72v-.82l7.4-4.93h-1.65ZM452.56,279.51c3.56.55,6.85.14,9.86-1.23,3.01-1.37,6.17-1.78,9.45-1.24,1.38,0,2.06-.61,2.06-1.85s-.69-1.85-2.06-1.85c-3.28-.54-6.44-.2-9.45,1.03-3.01,1.23-6.3,1.85-9.86,1.85h-8.22c-.28-.55-.28-1.24,0-2.06,0-1.09.54-2.19,1.65-3.29,1.64-3.01,4.65-5.75,9.04-8.22s7.82-4.38,10.28-5.75c-4.39-1.37-8.7-2.94-12.95-4.73-4.25-1.78-8.16-4.18-11.71-7.19v-9.45c1.37,0,3.14-.55,5.34-1.65,4.11.55,8.35.89,12.73,1.03,4.39.14,8.5-1.3,12.33-4.32.82-.54.96-1.37.41-2.46-.55-1.09-1.23-1.37-2.05-.82-.55,0-.82.14-.82.41s-.28.41-.83.41c-3.28,1.37-6.51,2.4-9.65,3.08-3.16.69-6.37.76-9.66.2l-9.45-9.04v-2.05c0-2.19.96-4.11,2.87-5.75,4.12-1.37,8.29-2.81,12.54-4.32,4.24-1.5,8.7-2.53,13.35-3.08,1.37,0,2.05-.62,2.05-1.85s-.69-1.85-2.05-1.85l-.82-.82c-.28,0-.56.14-.83.41v.41c-4.39.55-8.63,1.44-12.73,2.67-4.12,1.23-8.37,2.67-12.74,4.32-2.2-.55-4.26-1.51-6.17-2.88s-2.87-3.02-2.87-4.94c0-4.38,1.92-8.01,5.75-10.89,3.83-2.88,8.29-5.2,13.36-6.99,5.07-1.78,10.27-3.01,15.62-3.7,5.34-.68,9.51-1.03,12.53-1.03,5.21,0,11.86,1.78,19.94,5.34,8.08,3.56,15.96,7.95,23.63,13.15,7.67,5.21,14.24,10.55,19.72,16.03,5.48,5.48,8.23,10.28,8.23,14.39,0,2.46-.49,4.31-1.44,5.55-.97,1.23-2.82,2.67-5.55,4.31-12.33-2.46-24.39-1.92-36.17,1.65-11.79,3.56-23.02,7.81-33.71,12.74,10.14-1.09,19.32.07,27.54,3.49,8.23,3.43,15.21,8.43,20.97,15.01,5.75,6.58,10.2,14.18,13.35,22.81,3.15,8.64,4.73,17.61,4.73,26.92v19.32c-.55,2.2-1.38,3.77-2.46,4.73-1.1.97-2.46,1.65-4.11,2.05-1.65.41-3.29.55-4.94.41-1.65-.13-3.15-.2-4.52-.2-6.03,0-11.52-1.09-16.44-3.29-4.94-2.19-9.8-4.66-14.6-7.4-4.8-2.74-9.65-5.2-14.59-7.4-4.94-2.19-10.42-3.29-16.44-3.29h-2.46c3.56,6.31,6.43,11.92,8.63,16.85,2.19,4.93,3.97,9.73,5.34,14.38,1.38,4.67,2.32,9.53,2.88,14.59.55,5.07.82,10.89.82,17.47v20.96c-1.92,3.56-3.49,5.62-4.73,6.17-1.23.55-3.08.82-5.54.82-3.29,0-6.72-.96-10.28-2.88-3.56-1.92-6.98-4.11-10.27-6.58-3.29-2.47-6.31-4.86-9.04-7.19-2.74-2.32-4.67-3.9-5.75-4.73-5.21-2.74-10.35-5.55-15.42-8.43-5.07-2.88-9.52-6.17-13.36-9.87s-6.98-8.08-9.45-13.15c-2.46-5.07-3.7-11.3-3.7-18.7,0-1.92,1.17-4.04,3.5-6.37s5-4.73,8.01-7.19c.55,1.38,1.17,2.47,1.85,3.29.68.82,1.44,1.92,2.26,3.29,0,1.1.68,1.65,2.05,1.65,1.37,1.38,2.46,2.67,3.28,3.9.83,1.24,1.92,2.26,3.29,3.09.83.82,1.51.96,2.05.41.55-.54.42-1.23-.41-2.05-2.19-2.19-4.25-4.52-6.16-6.99-1.92-2.46-3.84-5.2-5.75-8.22,1.92-1.37,3.49-2.8,4.73-4.31,1.23-1.51,2.52-2.94,3.9-4.32,4.66,2.2,8.84,4.93,12.54,8.22,3.7,3.29,7.6,6.44,11.71,9.45.83.82,1.51.97,2.06.41.54-.55.41-1.24-.42-2.06-3.01-2.19-5.82-4.73-8.43-7.6-2.6-2.88-5.41-5.41-8.43-7.6,0-.54-.27-.82-.82-.82h-1.65c-.56-.54-1.92-1.37-4.11-2.47l3.28-6.58c.55-.82,2.19-1.64,4.94-2.46,2.73-.82,5.34-1.51,7.81-2.05.83,1.37,1.71,2.61,2.67,3.7.96,1.1,2.26,1.64,3.91,1.64,0,.82.55,1.24,1.65,1.24s1.65-.68,1.65-2.06v-.82l-.83-.82c0-.27-.14-.55-.41-.82h-1.24c-.82,0-1.44-.27-1.85-.82-.41-.55-.62-.55-.62,0l-.82-1.23c-1.65-1.65-2.61-3.29-2.88-4.94-.28-1.65-.41-3.29-.41-4.93,0-2.74,1.37-6.17,4.11-10.28,0,.55.13.82.41.82h.41c4.39,3.84,9.31,6.03,14.8,6.58,5.48.55,10.41,2.05,14.8,4.52.55.82,1.38.96,2.47.41,1.09-.54,1.37-1.23.82-2.05,0-.55-.14-.82-.41-.82s-.41-.27-.41-.82c-1.38-1.09-2.81-1.85-4.32-2.26-1.51-.41-3.15-.68-4.94-.82-1.78-.13-3.49-.34-5.14-.62-1.65-.27-3.02-1.09-4.11-2.47-1.65-.82-3.77-1.3-6.37-1.44-2.61-.13-4.19-1.3-4.73-3.49,1.92-1.37,3.83-2.6,5.75-3.7,1.92-1.09,3.97-2.05,6.16-2.88h1.65ZM400.36,199.36c0-3.83,1.37-6.3,4.11-7.4,2.73-1.09,5.34-1.65,7.81-1.65,3.01,0,5.89.55,8.64,1.65,2.73,1.1,4.11,3.56,4.11,7.4,0,2.74-.89,5.41-2.67,8.01-1.78,2.61-4.32,3.91-7.6,3.91-1.38,0-2.95-.48-4.73-1.44-1.78-.96-3.36-2.05-4.73-3.29-1.38-1.23-2.54-2.53-3.5-3.9-.96-1.37-1.44-2.46-1.44-3.29ZM422.97,287.73c-3.02,0-5.34-.55-6.99-1.65-1.65-1.09-3.15-2.73-4.52-4.93l-.83-4.93c0-.55.27-1.09.83-1.65,1.37-.55,2.73-1.3,4.11-2.26,1.37-.96,2.46-2.26,3.29-3.9,1.37-.82,3.7-1.65,6.99-2.47,3.01.55,5.95,1.03,8.84,1.44,2.87.41,4.32,2.81,4.32,7.19,0,4.11-1.58,7.33-4.73,9.66-3.16,2.33-6.93,3.49-11.31,3.49ZM422.97,228.96c2.73,0,5.07.89,6.99,2.67,1.92,1.79,4.11,3.09,6.57,3.91.55,1.64.83,3.36.83,5.14v5.14c-1.38,1.38-2.88,2.4-4.53,3.08-1.64.69-3.15,1.03-4.52,1.03-2.74,0-5.69-1.71-8.84-5.14-3.16-3.43-4.73-6.51-4.73-9.25,0-4.38,2.73-6.58,8.22-6.58Z"/>
</svg>