<?xml version="1.0" encoding="UTF-8"?>
<svg id="Layer_1" data-name="Layer 1" xmlns="http://www.w3.org/2000/svg" viewBox="0 0 640 640">
  <defs>
    <style>
      .cls-1 {
        fill: #fffef2;
      }
    </style>
  </defs>
  <path class="cls-1" d="M321.57,585.5c-26.95,0-52.21-5.05-75.78-15.15-23.58-10.1-44.19-23.92-61.84-41.46-17.66-17.53-31.58-38.03-41.8-61.49-10.23-23.46-15.33-48.54-15.33-75.25,0-21.83,3.31-42.33,9.93-61.49,6.62-19.16,15.62-36.63,27-52.43-10.45,4.88-20.33,8.36-29.61,10.45-9.3,2.09-18.36,3.14-27.18,3.14-18.81,0-35.02-2.79-48.6-8.36-13.59-5.57-24.69-13.18-33.27-22.82-8.6-9.64-14.93-20.78-18.98-33.45-4.07-12.66-6.1-25.96-6.1-39.89,0-18.35,3.78-35.71,11.33-52.08,7.55-16.38,17.6-30.71,30.14-43.03,12.54-12.31,27.11-22,43.72-29.09,16.6-7.08,33.97-10.62,52.09-10.62,15.32,0,29.38,3.02,42.15,9.06,12.77,6.04,23.81,14,33.1,23.87,9.29,9.88,16.49,21.25,21.6,34.14,5.11,12.89,7.67,26.31,7.67,40.24,0,11.38-1.34,22.36-4.01,32.92-2.67,10.57-6.91,20.96-12.72,31.18,14.4-8.36,29.56-14.86,45.47-19.51,15.91-4.64,32.92-6.97,51.04-6.97,16.72,0,32.8,2.15,48.25,6.45,15.44,4.3,30.01,10.16,43.72,17.59-10.68-19.97-16.02-40.53-16.02-61.67,0-13.93,2.61-27.35,7.84-40.24,5.22-12.89,12.54-24.27,21.94-34.14,9.41-9.87,20.61-17.82,33.62-23.87,13.01-6.04,27.18-9.06,42.5-9.06,17.88,0,35.07,3.6,51.56,10.8,16.49,7.2,31.01,16.95,43.55,29.26,12.54,12.31,22.58,26.6,30.14,42.85,7.54,16.26,11.32,33.57,11.32,51.91,0,13.24-2.21,26.13-6.62,38.67-4.41,12.54-11.04,23.69-19.86,33.44-8.82,9.76-19.91,17.6-33.27,23.52-13.36,5.92-29.09,8.88-47.21,8.88-8.13,0-16.61-.87-25.43-2.61-8.83-1.74-18.11-4.93-27.87-9.58,11.15,15.56,19.8,32.81,25.96,51.74,6.15,18.93,9.24,39.19,9.24,60.79,0,26.71-5.11,51.8-15.33,75.25-10.23,23.46-24.1,43.96-41.63,61.49-17.54,17.54-38.03,31.36-61.49,41.46s-48.42,15.15-74.9,15.15ZM173.15,314.45c-5.34,9.76-9.47,19.86-12.37,30.31-2.91,10.45-4.94,21.6-6.09,33.44h51.56c.46-12.07,1.86-23.28,4.18-33.62,2.32-10.33,5.34-20.38,9.06-30.14h-46.34ZM221.93,474.36c-4.18-10.22-7.72-21.19-10.62-32.92-2.91-11.73-4.59-24.1-5.05-37.1h-51.56c2.09,26.25,9.28,49.59,21.6,70.03h45.64ZM275.93,230.83c-17.19,4.88-32.99,12.19-47.38,21.95-14.41,9.75-27.18,21.48-38.33,35.19h42.16c6.74-12.08,13.82-22.76,21.26-32.05,7.43-9.29,14.86-17.65,22.3-25.08ZM194.75,500.49c22.07,25.55,49.24,42.97,81.53,52.26-6.74-6.73-13.47-14.51-20.21-23.34-6.74-8.82-13.24-18.47-19.51-28.92h-41.81ZM307.98,314.45h-58.88c-4.18,9.29-7.72,19.16-10.63,29.61s-4.94,21.83-6.09,34.14h75.6v-63.76ZM307.98,404.33h-75.6c3.02,26.48,9.64,49.82,19.86,70.03h55.74v-70.03ZM307.98,238.15c-6.51,5.81-13.65,12.78-21.43,20.91-7.78,8.13-15.04,17.77-21.77,28.92h43.2v-49.82ZM307.98,500.49h-39.37c6.5,9.75,13.12,18.23,19.86,25.43,6.73,7.2,13.24,13.24,19.51,18.12v-43.55ZM334.11,287.97h43.9c-7.44-11.15-14.98-20.79-22.65-28.92-7.67-8.13-14.75-15.1-21.25-20.91v49.82ZM334.11,378.2h74.55c-.46-12.31-2.15-23.69-5.05-34.14s-6.56-20.32-10.97-29.61h-58.53v63.76ZM334.11,474.36h55.39c5.34-10.22,9.75-21.13,13.24-32.75,3.49-11.61,5.46-24.04,5.92-37.28h-74.55v70.03ZM334.11,544.04c6.04-4.18,12.42-10.04,19.16-17.59,6.74-7.54,13.35-16.2,19.86-25.96h-39.02v43.55ZM364.77,552.75c16.49-4.64,31.7-11.32,45.64-20.03,13.94-8.71,26.13-19.45,36.59-32.23h-41.12c-12.77,21.37-26.47,38.79-41.11,52.26ZM451.17,287.97c-10.92-13.7-23.57-25.49-37.97-35.36s-30.2-17.13-47.38-21.78c7.43,6.97,14.86,15.21,22.3,24.73,7.43,9.53,14.28,20.33,20.55,32.4h42.5ZM465.8,474.36c12.31-20.67,19.4-44.01,21.26-70.03h-50.17c-1.17,13.01-3.37,25.38-6.62,37.1-3.25,11.73-6.97,22.71-11.15,32.92h46.68ZM487.06,378.2c-.93-11.85-2.79-22.99-5.58-33.44-2.78-10.45-6.85-20.55-12.19-30.31h-46.69c3.25,9.76,6.15,19.81,8.71,30.14,2.55,10.34,4.4,21.54,5.57,33.62h50.17Z"/>
</svg>