<?xml version="1.0" encoding="UTF-8"?>
<svg id="Layer_1" data-name="Layer 1" xmlns="http://www.w3.org/2000/svg" viewBox="0 0 640 640">
  <defs>
    <style>
      .cls-1 {
        fill: #fff;
      }
    </style>
  </defs>
  <path class="cls-1" d="M321.43,1.41c28.91,0,56.89,3.83,83.89,11.46,27.02,7.64,52.31,18.42,75.92,32.33,23.59,13.91,45.08,30.63,64.46,50.13,19.36,19.51,35.95,41.07,49.73,64.66,13.76,23.6,24.47,49.04,32.12,76.32,7.63,27.28,11.46,55.52,11.46,84.71s-3.83,57.29-11.46,84.31c-7.64,27.01-18.36,52.32-32.12,75.91-13.78,23.6-30.37,45.02-49.73,64.25-19.38,19.23-40.87,35.74-64.46,49.52-23.61,13.78-48.9,24.49-75.92,32.13-27,7.64-54.98,11.46-83.89,11.46s-57.44-3.82-84.7-11.46c-27.28-7.64-52.8-18.35-76.54-32.13-23.73-13.78-45.36-30.28-64.85-49.52-19.51-19.23-36.29-40.65-50.34-64.25-14.05-23.59-24.9-48.9-32.53-75.91-7.64-27.01-11.46-55.11-11.46-84.31s3.82-57.43,11.46-84.71c7.64-27.28,18.48-52.72,32.53-76.32,14.05-23.59,30.83-45.15,50.34-64.66,19.5-19.5,41.13-36.22,64.85-50.13,23.75-13.91,49.17-24.69,76.33-32.33,27.14-7.64,55.45-11.46,84.91-11.46ZM321.43,609.13c26.47,0,51.91-3.48,76.33-10.43,24.4-6.96,47.32-16.64,68.74-29.06,21.42-12.41,40.92-27.42,58.51-45.01,17.61-17.6,32.6-37.1,45.03-58.52,12.41-21.41,22.1-44.33,29.05-68.75,6.95-24.41,10.43-49.86,10.43-76.32s-3.48-52.04-10.43-76.73c-6.95-24.69-16.64-47.74-29.05-69.16-12.43-21.41-27.42-40.99-45.03-58.72-17.59-17.73-37.09-32.94-58.51-45.63-21.42-12.68-44.34-22.51-68.74-29.47-24.42-6.95-49.87-10.43-76.33-10.43s-52.45,3.48-77.15,10.43c-24.68,6.96-47.73,16.78-69.16,29.47-21.42,12.69-40.92,27.9-58.51,45.63-17.6,17.74-32.68,37.31-45.22,58.72-12.55,21.42-22.24,44.48-29.06,69.16-6.82,24.69-10.23,50.27-10.23,76.73s3.41,51.91,10.23,76.32c6.82,24.42,16.5,47.34,29.06,68.75,12.54,21.42,27.62,40.93,45.22,58.52,17.6,17.6,37.09,32.6,58.51,45.01,21.42,12.42,44.48,22.1,69.16,29.06,24.7,6.95,50.4,10.43,77.15,10.43ZM169.62,433.16h-82.26c-7.37-16.1-13.37-32.74-18.01-49.93-4.64-17.19-7.23-35.19-7.77-54.02h90.44c0,8.46.35,16.85,1.02,25.17.68,8.33,1.7,16.72,3.07,25.17l-2.44,2.45c-5.46,5.73-8.2,11.33-8.2,16.78,0,3.83,1.23,7.85,3.69,12.08s6.27,6.34,11.46,6.34c1.09,0,2.18-.27,3.28-.81l5.74,16.78ZM174.52,201.12c-6.27,16.37-11.25,33.22-14.94,50.54-3.67,17.33-6.21,34.86-7.57,52.59H62.39c.82-18.55,3.82-36.55,9-54.02,5.18-17.46,11.73-33.83,19.64-49.11h83.49ZM179.03,458.53c18.82,43.93,44.74,81.3,77.75,112.13-32.2-7.91-61.6-21.62-88.21-41.13-26.59-19.5-48.9-43.18-66.9-71h77.36ZM260.04,67.71c-15.55,16.1-29.6,33.08-42.14,50.95-12.57,17.87-23.88,36.63-33.97,56.27h-77.35c18.27-26.46,40.45-48.83,66.5-67.12,26.05-18.27,55.05-31.64,86.96-40.1ZM400.83,304.24l-41.75-38.47c-3-3-5.86-4.91-8.6-5.73-2.72-.82-5.18-1.23-7.37-1.23-5.18,0-9,1.98-11.46,5.93-2.44,3.96-3.67,8.67-3.67,14.12v293.42c0,1.37-.69,2.73-2.05,4.09-1.37,1.37-3.14,2.05-5.32,2.05s-4.04-.68-5.53-2.05c-1.51-1.36-2.25-2.73-2.25-4.09v-293.42c0-5.46-.88-10.16-2.65-14.12-1.79-3.95-5.67-5.93-11.66-5.93-4.37,0-9.01,2.32-13.92,6.95l-42.97,38.47h-58.51c.81-17.73,3.54-35.26,8.18-52.59,4.63-17.32,10.5-34.17,17.59-50.54h61.39c3.28,10.92,9.55,20.47,18.82,28.65,9.27,8.19,20.31,12.28,33.14,12.28,5.74,0,11.32-1.09,16.78-3.28,5.46-2.18,10.43-5.18,14.94-9,4.51-3.82,8.39-8.18,11.66-13.09,3.28-4.91,5.6-10.09,6.95-15.55h60.16c7.64,16.37,13.36,33.22,17.19,50.54,3.81,17.33,6.27,34.86,7.37,52.59h-56.47ZM211.35,329.21l-27.42,24.56c-.55-4.36-.81-8.6-.81-12.69v-11.87h28.23ZM261.69,331.66c1.09-.55,2.31-.82,3.67-.82,2.18,0,3.28,2.32,3.28,6.95v95.36h-65.47c-2.46-5.73-4.58-11.93-6.34-18.62-1.79-6.69-3.35-12.75-4.71-18.21l69.57-64.66ZM268.64,537.92c-22.1-24.55-40.51-51.01-55.24-79.39h55.24v79.39ZM219.95,174.93c23.45-44.47,56.47-82.39,99.02-113.77h4.92c20.18,15.55,38.39,32.88,54.63,51.97,16.22,19.1,30.07,39.7,41.53,61.8h-48.29c-3.55-11.46-9.81-20.6-18.82-27.42-9-6.82-19.24-10.23-30.7-10.23-12.27,0-23.05,3.41-32.33,10.23-9.27,6.82-15.55,15.96-18.82,27.42h-51.15ZM373.41,337.8c0-4.63,1.07-6.95,3.28-6.95h1.63c.54,0,1.09.27,1.63.82l68.76,63.84c-.81,6.01-2.11,12.21-3.88,18.62-1.79,6.41-4.16,12.76-7.16,19.03h-64.25v-95.36ZM427.02,458.53c-7.11,14.19-15.08,27.77-23.95,40.72-8.86,12.96-18.75,25.58-29.66,37.85v-78.57h53.61ZM456.49,174.93c-9.83-19.64-21.08-38.4-33.76-56.27-12.69-17.87-26.67-34.85-41.94-50.95,32.46,8.46,61.65,21.83,87.56,40.1,25.93,18.28,47.89,40.66,65.9,67.12h-77.75ZM383.22,570.66c16.38-15.55,31.44-32.67,45.22-51.36,13.78-18.68,25.03-38.94,33.76-60.77h76.94c-18.01,27.83-40.25,51.5-66.71,71-26.45,19.51-56.19,33.22-89.21,41.13ZM456.49,352.94l-27.02-23.74h28.65l-1.63,23.74ZM488,304.24c-.83-17.73-3.02-35.26-6.55-52.59-3.55-17.32-8.32-34.17-14.32-50.54h82.24c8.46,15.28,15.01,31.65,19.66,49.11,4.63,17.46,7.9,35.47,9.81,54.02h-90.84ZM578.84,329.21c-.54,18.83-3,36.83-7.37,54.02-4.37,17.19-10.36,33.83-18.01,49.93h-81.43c2.18-5.46,3.67-11.05,4.51-16.78,1.07.55,2.44.81,4.09.81,4.09,0,7.9-1.9,11.46-5.73,3.54-3.82,5.32-8.04,5.32-12.69,0-2.45-.69-5.11-2.05-7.98-1.37-2.86-3.83-5.79-7.37-8.8l-4.09-3.27c1.35-7.91,2.37-16.02,3.07-24.35.68-8.32,1.02-16.71,1.02-25.17h90.84Z"/>
</svg>