<?xml version="1.0" encoding="UTF-8"?>
<svg id="Layer_1" data-name="Layer 1" xmlns="http://www.w3.org/2000/svg" viewBox="0 0 640 640">
  <defs>
    <style>
      .cls-1 {
        fill: #fff;
      }
    </style>
  </defs>
  <path class="cls-1" d="M298.32,218.67c-12.16,1.62-23.45,5.41-33.84,11.35-10.41,5.95-19.39,13.45-26.96,22.5-7.57,9.06-13.45,19.32-17.63,30.8-4.19,11.49-6.28,23.71-6.28,36.68s2.03,24.26,6.08,35.47c4.05,11.21,9.72,21.28,17.02,30.2,7.3,8.92,16.01,16.42,26.14,22.5,10.13,6.08,21.28,10.2,33.44,12.36l-34.86,209.15c-36.21-6.48-70.19-18.91-101.94-37.29-31.75-18.37-59.45-41.27-83.09-68.7-23.65-27.42-42.29-58.5-55.93-93.22C6.82,395.73,0,358.91,0,320c0-24.58,2.97-48.77,8.92-72.55,5.94-23.78,14.39-46.41,25.33-67.89,10.94-21.48,24.18-41.55,39.72-60.19,15.54-18.64,33.03-35.32,52.49-50.06,19.45-14.72,40.66-27.15,63.63-37.29,22.96-10.13,47.15-17.36,72.56-21.68l35.67,208.33ZM177.94,297.3c2.97-21.61,11.08-40.87,24.32-57.76,13.24-16.88,29.45-31.01,48.64-42.35l-23.51-142.27c-25.94,8.92-49.99,21.28-72.15,37.09-22.16,15.81-41.54,34.19-58.16,55.12-16.62,20.94-30.2,44.12-40.74,69.51-10.54,25.4-17.16,52.29-19.86,80.66h141.46ZM250.9,442.81c-19.19-10.27-35.33-24.39-48.44-42.36-13.11-17.96-21.28-38.44-24.52-61.41H36.48c1.89,28.37,7.91,55.47,18.04,81.27,10.13,25.81,23.57,49.45,40.33,70.93,16.75,21.48,36.41,40.26,58.98,56.34,22.56,16.08,47.08,28.44,73.56,37.09l23.51-141.86ZM427.61,320c0-12.97-2.23-25.19-6.69-36.68-4.46-11.48-10.54-21.75-18.24-30.8-7.7-9.05-16.82-16.55-27.36-22.5-10.54-5.94-21.89-9.73-34.05-11.35L378.57,10.34c24.32,3.79,47.69,10.54,70.12,20.27,22.42,9.73,43.3,21.75,62.62,36.07,19.32,14.33,36.89,30.74,52.69,49.25,15.81,18.51,29.32,38.57,40.53,60.19,11.21,21.62,19.93,44.59,26.14,68.9,6.21,24.32,9.32,49.32,9.32,74.98,0,37.29-6.42,72.96-19.25,107-12.84,34.05-30.81,64.85-53.91,92.41-23.1,27.56-50.53,50.94-82.28,70.12-31.75,19.19-66.54,32.56-104.37,40.13l-38.1-209.15c12.16-2.16,23.51-6.28,34.05-12.36,10.54-6.08,19.59-13.58,27.15-22.5,7.56-8.92,13.51-18.98,17.84-30.2,4.32-11.21,6.48-23.03,6.48-35.47ZM388.7,197.19c19.46,9.46,35.4,22.9,47.83,40.33,12.42,17.43,21.08,37.36,25.94,59.78h141.05c-2.16-26.48-8.18-52.01-18.03-76.6-9.87-24.59-23.11-47.42-39.72-68.5-16.62-21.08-36.21-39.93-58.77-56.54-22.57-16.62-47.36-30.2-74.37-40.74l-23.92,142.27ZM462.47,339.05c-3.24,22.97-11.35,43.44-24.32,61.41-12.97,17.97-29.46,32.09-49.45,42.36l23.92,141.86c26.75-8.65,51.41-21.01,73.97-37.09,22.56-16.07,42.22-34.86,58.98-56.34,16.75-21.48,30.2-45.13,40.33-70.93,10.13-25.8,16.28-52.89,18.44-81.27h-141.86Z"/>
</svg>