<?xml version="1.0" encoding="UTF-8"?>
<svg id="Layer_1" data-name="Layer 1" xmlns="http://www.w3.org/2000/svg" viewBox="0 0 640 640">
  <defs>
    <style>
      .cls-1 {
        fill: #fff;
      }
    </style>
  </defs>
  <path class="cls-1" d="M320,57.14c-35.35,0-68.58,6.51-99.68,19.52-31.1,13.02-58.57,31.18-82.42,54.46-23.83,23.29-43.23,50.97-58.16,83.03-14.95,32.06-23.91,67-26.93,104.82h258.14l-4.12,14.39H2.26v-6.99c0-29.32,3.77-57.55,11.31-84.67,7.53-27.13,18.22-52.55,32.06-76.25,13.83-23.7,30.42-45.28,49.74-64.74,19.32-19.45,40.76-36.17,64.33-50.15,23.56-13.98,48.84-24.8,75.83-32.47,26.99-7.67,55.15-11.51,84.47-11.51s57.13,3.84,84.26,11.51c27.13,7.67,52.47,18.43,76.04,32.27,23.56,13.84,45.01,30.49,64.33,49.94,19.32,19.46,35.9,41.04,49.74,64.74,13.83,23.71,24.52,49.19,32.06,76.46,7.54,27.27,11.31,55.56,11.31,84.88v6.99h-305.41l-3.7-14.39h258.55c-.56-23.84-4.26-46.86-11.1-69.05-6.86-22.2-16.24-42.95-28.16-62.27-11.93-19.32-26.04-36.99-42.34-53.02-16.3-16.03-34.26-29.8-53.85-41.31-19.59-11.51-40.55-20.41-62.89-26.72-22.34-6.3-45.28-9.45-68.85-9.45ZM3.91,360.9c0-2.46-.14-4.86-.41-7.19-.28-2.32-.41-5-.41-8.02h300.06l-4.11,15.21H3.91ZM10.07,394.61c-.55-3.01-1.17-5.68-1.85-8.02-.69-2.32-1.31-5-1.85-8.01h287.74l-4.53,16.03H10.07ZM27.75,450.92c-2.19-4.94-4.05-9.52-5.55-13.77-1.51-4.25-3.35-8.84-5.54-13.77h264.72l-7.82,27.54H27.75ZM71.31,526.96c-4.66-6.85-9.24-13.7-13.76-20.56-4.53-6.85-8.84-13.83-12.95-20.96h219.5l-11.92,41.52H71.31ZM243.96,572.18l-16.44,61.25c-21.38-6.31-41.25-14.59-59.6-24.87-18.37-10.28-35.77-22.4-52.21-36.38h128.25ZM339.73,360.9l-4.11-15.21h301.29v8.02c0,2.33-.27,4.73-.82,7.19h-296.37ZM348.77,394.61l-4.11-16.03h289.79c-.55,3.02-1.1,5.69-1.65,8.01-.55,2.33-1.1,5.01-1.65,8.02h-282.39ZM363.98,450.92l-7.4-27.54h267.18c-1.38,4.93-2.87,9.52-4.52,13.77-1.65,4.25-3.57,8.84-5.75,13.77h-249.51ZM384.12,526.96l-11.1-41.52h223.61c-4.12,7.13-8.37,14.11-12.74,20.96-4.39,6.85-9.18,13.71-14.39,20.56h-185.38ZM524.29,572.18c-16.44,13.98-33.85,26.1-52.21,36.38-18.36,10.28-38.22,18.56-59.6,24.87l-16.43-61.25h128.25Z"/>
</svg>