<?xml version="1.0" encoding="UTF-8"?>
<svg id="Layer_1" data-name="Layer 1" xmlns="http://www.w3.org/2000/svg" viewBox="0 0 640 640">
  <defs>
    <style>
      .cls-1 {
        fill: #fff;
      }
    </style>
  </defs>
  <path class="cls-1" d="M319.38,7.19c28.78,0,56.52,3.77,83.24,11.3,26.71,7.54,51.64,18.08,74.81,31.65,23.15,13.56,44.25,29.87,63.3,48.92s35.35,40.15,48.92,63.3c13.56,23.16,24.1,48.09,31.65,74.81,7.53,26.72,11.3,54.46,11.3,83.24s-3.77,56.04-11.3,82.62c-7.55,26.58-18.09,51.45-31.65,74.61-13.57,23.16-29.87,44.26-48.92,63.3-19.05,19.05-40.15,35.35-63.3,48.92-23.16,13.56-48.09,24.12-74.81,31.65-26.72,7.53-54.46,11.3-83.24,11.3s-56.04-3.77-82.62-11.3c-26.58-7.53-51.38-18.09-74.4-31.65-23.02-13.57-44.05-29.87-63.1-48.92-19.05-19.04-35.35-40.14-48.91-63.3-13.56-23.15-24.12-47.95-31.65-74.4-7.54-26.44-11.31-54.05-11.31-82.82s3.77-56.52,11.31-83.24c7.53-26.71,18.09-51.65,31.65-74.81,13.56-23.15,29.87-44.25,48.91-63.3s40.08-35.35,63.1-48.92c23.02-13.57,47.81-24.11,74.4-31.65,26.58-7.53,54.12-11.3,82.62-11.3ZM56.73,320.41c0,36.45,6.91,70.36,20.76,101.74,13.83,31.38,32.81,58.85,56.93,82.42-7.13-14.25-12.74-29.25-16.85-45.01-4.12-15.76-6.17-32.12-6.17-49.12,0-29.32,5.55-56.86,16.65-82.62,11.1-25.75,26.17-48.23,45.21-67.41,19.05-19.18,41.31-34.32,66.8-45.42,25.48-11.1,52.75-16.65,81.8-16.65,5.48,0,11.1.82,16.85,2.46,5.75,1.65,11.37,3.29,16.85,4.94-15.62-17.81-34.32-31.65-56.11-41.52-21.79-9.87-45.42-14.8-70.91-14.8-23.02,0-44.87,4.39-65.55,13.15-20.7,8.77-38.92,20.83-54.67,36.17-15.76,15.35-28.3,33.43-37.61,54.26-9.31,20.83-13.97,43.3-13.97,67.41ZM487.91,228.74c0-22.47-4.32-43.98-12.94-64.53-8.64-20.55-20.49-38.71-35.56-54.46-15.08-15.76-32.89-28.36-53.44-37.82-20.55-9.45-42.75-14.18-66.59-14.18-35.08,0-68.17,6.58-99.27,19.73s-58.3,31.24-81.59,54.26c13.7-6.85,28.08-12.06,43.16-15.62,15.07-3.56,30.69-5.34,46.86-5.34,28.78,0,55.91,5.28,81.39,15.83,25.49,10.55,47.89,24.94,67.21,43.16,19.32,18.23,34.59,39.6,45.83,64.12,11.24,24.53,16.85,50.77,16.85,78.72,0,6.85-.27,13.84-.82,20.96-.56,7.13-1.92,13.71-4.11,19.73,16.98-15.62,30.07-34.05,39.25-55.29,9.18-21.23,13.77-44.32,13.77-69.26ZM150.44,410.43c0,20.28,4.12,40.63,12.33,61.04,8.22,20.42,19.73,38.84,34.53,55.29,14.8,16.44,32.53,29.8,53.23,40.08,20.68,10.28,43.64,15.41,68.85,15.41,35.62,0,68.91-6.5,99.89-19.52,30.96-13.01,58.37-30.89,82.22-53.64-13.98,6.31-28.51,11.37-43.58,15.21-15.08,3.84-30.83,5.75-47.27,5.75-28.78,0-55.98-5.34-81.6-16.03-25.63-10.69-48.09-25.21-67.41-43.57-19.32-18.36-34.6-39.94-45.83-64.74-11.25-24.8-16.86-51.31-16.86-79.54,0-7.12.62-14.25,1.85-21.37,1.24-7.12,2.94-14.25,5.14-21.37-17.26,15.62-30.82,34.32-40.69,56.11-9.86,21.78-14.8,45.42-14.8,70.9ZM319.38,237.79c-11.24,0-21.72,2.13-31.44,6.37-9.73,4.25-18.23,10.07-25.49,17.47s-13.01,16.17-17.26,26.31c-4.26,10.14-6.37,20.97-6.37,32.47,0,10.69,2.12,20.97,6.37,30.83,4.25,9.87,10,18.5,17.26,25.9s15.76,13.36,25.49,17.88c9.72,4.52,20.2,6.78,31.44,6.78s20.97-2.05,30.83-6.17c9.86-4.11,18.56-9.79,26.11-17.06,7.53-7.26,13.56-15.83,18.08-25.69,4.53-9.86,6.79-20.41,6.79-31.65s-1.99-21.92-5.96-32.06c-3.98-10.13-9.6-18.97-16.85-26.51-7.27-7.53-15.89-13.57-25.9-18.09-10.01-4.52-21.04-6.78-33.1-6.78ZM582.04,320.41c0-36.72-6.99-71.11-20.96-103.17-13.98-32.06-33.03-60.01-57.14-83.85,7.12,14.53,12.67,29.8,16.64,45.83,3.97,16.03,5.96,32.54,5.96,49.53,0,29.33-5.48,56.8-16.44,82.42-10.96,25.63-25.97,48.09-45.01,67.41-19.05,19.32-41.37,34.53-67,45.63-25.63,11.1-52.96,16.65-82,16.65-6.03,0-11.79-.62-17.27-1.85-5.48-1.23-10.96-2.94-16.44-5.14,15.62,17.82,34.46,31.86,56.52,42.13,22.06,10.28,45.97,15.42,71.73,15.42,23.56,0,45.76-4.52,66.58-13.57,20.83-9.04,38.98-21.37,54.46-36.99,15.49-15.62,27.75-33.77,36.79-54.46,9.04-20.69,13.56-42.68,13.56-65.97Z"/>
</svg>