<?xml version="1.0" encoding="UTF-8"?>
<svg id="Layer_1" data-name="Layer 1" xmlns="http://www.w3.org/2000/svg" viewBox="0 0 640 640">
  <defs>
    <style>
      .cls-1 {
        fill: #fff;
      }
    </style>
  </defs>
  <path class="cls-1" d="M320,3.91c29.05,0,57.07,3.77,84.06,11.3,26.99,7.54,52.2,18.16,75.63,31.85,23.43,13.71,44.73,30.15,63.92,49.33,19.18,19.18,35.56,40.55,49.12,64.12,13.56,23.57,24.11,48.85,31.65,75.83,7.53,27,11.31,55.02,11.31,84.06s-3.78,57.07-11.31,84.06c-7.54,26.99-18.09,52.2-31.65,75.63-13.56,23.43-29.94,44.74-49.12,63.92s-40.49,35.55-63.92,49.12c-23.43,13.57-48.64,24.12-75.63,31.65-26.99,7.53-55.01,11.3-84.06,11.3s-57.41-3.77-84.26-11.3c-26.86-7.53-52-18.08-75.43-31.65-23.43-13.57-44.74-29.94-63.92-49.12-19.19-19.18-35.56-40.49-49.12-63.92-13.56-23.43-24.12-48.57-31.65-75.43-7.54-26.85-11.31-54.94-11.31-84.27s3.77-57.06,11.31-84.06c7.53-26.98,18.09-52.27,31.65-75.83,13.56-23.57,29.94-44.94,49.12-64.12,19.18-19.18,40.49-35.62,63.92-49.33,23.42-13.7,48.56-24.32,75.43-31.85,26.85-7.53,54.93-11.3,84.26-11.3ZM49.94,256.29c-2.74,9.6-4.73,19.93-5.96,31.03s-1.85,22.41-1.85,33.91.61,23.36,1.85,34.73c1.24,11.38,3.22,22.27,5.96,32.68h80.56c-2.19-9.87-3.7-20.48-4.52-31.86-.83-11.37-1.24-23.22-1.24-35.55,0-11.51.27-22.74.83-33.7.54-10.96,1.37-21.37,2.46-31.24H49.94ZM218.06,61.04c-18.64,6.85-36.11,15.83-52.4,26.92-16.31,11.1-31.24,23.64-44.8,37.61-13.57,13.98-25.49,29.05-35.77,45.22-10.27,16.17-18.43,32.61-24.45,49.32h75.63c3.29-14.25,7.74-28.43,13.36-42.54,5.61-14.11,11.99-27.95,19.12-41.52,7.12-13.56,14.93-26.64,23.42-39.25,8.5-12.6,17.13-24.52,25.9-35.76ZM61.45,426.46c7.4,17.54,16.57,34.32,27.54,50.36,10.96,16.03,23.43,30.76,37.4,44.18,13.98,13.43,29.32,25.42,46.04,35.97,16.71,10.55,34.52,18.98,53.44,25.28-10.42-13.15-19.73-25.34-27.95-36.58-8.23-11.23-15.83-22.74-22.81-34.53-6.99-11.78-13.36-24.39-19.12-37.82-5.75-13.42-11.38-29.04-16.85-46.86H61.45ZM162.57,256.29c5.2,14.25,12.4,27.54,21.58,39.87,9.17,12.33,19.86,23.16,32.06,32.47,12.19,9.32,25.69,16.72,40.49,22.2,14.8,5.48,30.27,8.5,46.45,9.04-.55-18.63-6.16-35.9-16.85-51.79-10.69-15.89-24.66-28.63-41.92-38.23-12.06-6.58-24.81-10.48-38.23-11.72-13.43-1.23-27.95-1.85-43.57-1.85ZM303.14,400.15c-10.96-1.09-22.68-3.49-35.14-7.19-12.47-3.7-24.94-8.56-37.4-14.59-12.47-6.03-24.46-13.01-35.97-20.97-11.51-7.94-21.93-16.71-31.24-26.31-.28,3.02-.21,7.13.21,12.33.41,5.21.88,10.55,1.44,16.03.55,5.48,1.24,10.76,2.05,15.83.82,5.07,1.51,8.98,2.05,11.72,11.51,0,22.61.41,33.3,1.23,10.69.82,21.44,2.95,32.27,6.37,10.82,3.43,21.85,8.5,33.09,15.21,11.24,6.72,23.02,15.97,35.35,27.75v-37.4ZM303.14,250.53c-9.31-7.12-17.74-15.48-25.28-25.07-7.54-9.59-13.91-20-19.12-31.24-5.21-11.23-9.24-22.95-12.13-35.14-2.87-12.19-4.31-24.46-4.31-36.79,0-10.95,1.23-21.78,3.7-32.47-7.4,7.68-14.8,16.72-22.2,27.13-7.4,10.42-14.33,21.37-20.76,32.88-6.44,11.51-12.06,23.16-16.85,34.94-4.8,11.79-8.16,23.02-10.07,33.7,9.31,0,18.91.41,28.77,1.23,9.87.82,20.14,2.88,30.83,6.17,10.69,3.29,21.64,8.09,32.89,14.39,11.23,6.31,22.74,14.8,34.52,25.48v-15.21ZM303.14,549.37c0-17.27-2.74-33.43-8.22-48.5-5.48-15.07-13.5-28.29-24.05-39.67-10.55-11.37-23.49-20.28-38.84-26.72-15.35-6.44-32.89-9.66-52.61-9.66,4.93,16.99,11.51,34.05,19.72,51.17,8.23,17.13,17.68,33.5,28.37,49.12,10.68,15.62,22.47,30,35.35,43.16,12.87,13.15,26.31,24.25,40.28,33.3v-52.2ZM320,216.83c13.15-9.59,23.15-22.67,30.01-39.25,6.84-16.58,10.27-33.91,10.27-52,0-16.99-3.02-33.36-9.04-49.12-6.03-15.76-15.35-28.7-27.95-38.84-1.1,1.1-2.19,1.92-3.29,2.47-1.1-.55-2.19-1.37-3.28-2.47-12.61,10.14-21.93,23.09-27.95,38.84-6.03,15.76-9.04,32.13-9.04,49.12,0,18.09,3.42,35.42,10.27,52,6.85,16.58,16.85,29.67,30,39.25ZM336.85,265.74c11.79-10.68,23.29-19.18,34.53-25.48,11.24-6.3,22.2-11.1,32.89-14.39,10.69-3.29,20.96-5.34,30.82-6.17,9.87-.82,19.45-1.23,28.78-1.23-2.19-10.68-5.62-21.92-10.28-33.7-4.66-11.78-10.21-23.43-16.64-34.94-6.44-11.51-13.36-22.47-20.76-32.88-7.4-10.41-14.8-19.45-22.2-27.13,2.47,10.69,3.7,21.52,3.7,32.47,0,12.33-1.44,24.6-4.32,36.79-2.87,12.2-6.98,23.91-12.33,35.14-5.34,11.24-11.72,21.65-19.12,31.24-7.4,9.59-15.76,17.95-25.08,25.07v15.21ZM477.43,256.29c-17.54,0-32.82.69-45.83,2.05-13.02,1.38-25.28,5.21-36.79,11.51-16.44,9.32-30.08,21.93-40.9,37.81-10.83,15.9-16.51,33.3-17.06,52.21,16.17-.55,31.66-3.56,46.46-9.04,14.8-5.48,28.29-12.88,40.49-22.2,12.19-9.31,22.88-20.14,32.06-32.47s16.37-25.62,21.58-39.87ZM336.85,437.56c12.33-11.78,24.11-21.03,35.36-27.75,11.23-6.71,22.26-11.78,33.09-15.21,10.82-3.42,21.58-5.55,32.27-6.37,10.69-.82,21.79-1.23,33.3-1.23.54-2.74,1.23-6.64,2.05-11.72.82-5.07,1.5-10.34,2.05-15.83.55-5.48,1.03-10.82,1.44-16.03.41-5.2.48-9.31.21-12.33-9.32,9.59-19.8,18.36-31.45,26.31-11.65,7.95-23.63,14.94-35.97,20.97-12.33,6.03-24.73,10.89-37.19,14.59-12.47,3.7-24.19,6.1-35.15,7.19v37.4ZM336.85,601.57c13.98-9.04,27.4-20.14,40.29-33.3s24.66-27.54,35.35-43.16c10.69-15.62,20.14-31.99,28.37-49.12,8.22-17.12,14.8-34.18,19.72-51.17-19.72,0-37.34,3.22-52.82,9.66-15.49,6.44-28.43,15.35-38.84,26.72-10.42,11.37-18.37,24.6-23.84,39.67-5.48,15.07-8.23,31.24-8.23,48.5v52.2ZM500.86,426.46c-5.48,17.82-11.1,33.44-16.85,46.86-5.75,13.43-12.13,26.04-19.12,37.82-6.99,11.79-14.59,23.29-22.81,34.53-8.22,11.24-17.54,23.43-27.95,36.58,18.91-6.3,36.72-14.72,53.44-25.28,16.71-10.55,32.06-22.54,46.04-35.97,13.97-13.42,26.44-28.16,37.4-44.18,10.96-16.03,20.14-32.82,27.54-50.36h-77.69ZM421.94,61.04c8.77,11.24,17.4,23.16,25.9,35.76,8.5,12.61,16.3,25.69,23.43,39.25,7.12,13.57,13.49,27.41,19.12,41.52,5.61,14.12,9.92,28.3,12.94,42.54h76.04c-6.3-16.71-14.53-33.16-24.66-49.32-10.14-16.17-21.99-31.24-35.56-45.22-13.56-13.98-28.57-26.51-45.01-37.61-16.43-11.1-33.84-20.07-52.2-26.92ZM511.96,256.29c1.09,9.87,1.92,20.28,2.46,31.24.55,10.96.83,22.2.83,33.7,0,12.33-.42,24.19-1.24,35.55-.82,11.38-2.33,21.99-4.52,31.86h80.56c2.73-10.41,4.73-21.3,5.96-32.68,1.23-11.37,1.85-22.95,1.85-34.73s-.62-22.81-1.85-33.91c-1.24-11.1-3.23-21.44-5.96-31.03h-78.1Z"/>
</svg>