<?xml version="1.0" encoding="UTF-8"?>
<svg id="Layer_1" data-name="Layer 1" xmlns="http://www.w3.org/2000/svg" viewBox="0 0 640 640">
  <defs>
    <style>
      .cls-1 {
        fill: #fff;
      }
    </style>
  </defs>
  <path class="cls-1" d="M33.3,456.88c-3.85-8.49-7.47-16.99-10.9-25.48-3.43-8.49-6.23-17.12-8.43-25.9h302.95c12.05,0,23.35-2.39,33.9-7.19,10.55-4.79,19.73-11.16,27.54-19.11,7.81-7.95,13.98-17.27,18.5-27.95,4.53-10.69,6.78-22.06,6.78-34.12s-2.19-23.77-6.57-34.32c-4.39-10.55-10.42-19.73-18.09-27.54-7.68-7.81-16.72-13.91-27.13-18.29-10.41-4.38-21.51-6.58-33.3-6.58H14.8c2.46-8.77,5.48-17.53,9.04-26.31,3.55-8.77,7.25-17.12,11.1-25.07h283.61c19.45,0,37.47,3.56,54.06,10.68,16.57,7.13,30.96,16.86,43.16,29.19s21.79,26.92,28.78,43.78c6.99,16.85,10.48,35.01,10.48,54.46s-3.57,37.61-10.69,54.46c-7.13,16.86-16.85,31.65-29.19,44.39-12.33,12.74-26.92,22.75-43.78,30.01-16.85,7.26-35.01,10.89-54.46,10.89H33.3ZM541.76,319.59c0,30.7-5.82,59.61-17.47,86.73-11.66,27.13-27.54,50.84-47.68,71.11-20.14,20.28-43.71,36.31-70.7,48.09-26.99,11.79-55.84,17.67-86.52,17.67H96.6c-7.96-7.12-15.62-15.06-23.02-23.84-7.4-8.77-14.11-17.81-20.13-27.13h265.94c23.56,0,45.69-4.59,66.38-13.77,20.69-9.18,38.7-21.58,54.06-37.2,15.34-15.62,27.47-33.91,36.38-54.88,8.9-20.96,13.36-43.22,13.36-66.8s-4.32-47.61-12.95-68.85c-8.64-21.23-20.41-39.67-35.35-55.28-14.94-15.62-32.62-27.88-53.03-36.79-20.41-8.9-42.27-13.36-65.55-13.36H55.08c6.3-9.31,13.08-18.43,20.35-27.34,7.26-8.9,15.14-16.92,23.63-24.05h223.61c30.68,0,59.39,5.83,86.12,17.47,26.71,11.65,49.94,27.68,69.67,48.09,19.72,20.42,35.2,44.33,46.45,71.73,11.23,27.41,16.85,56.87,16.85,88.37ZM321.85,6.37c26.58,0,52.62,3.77,78.1,11.3,25.49,7.54,49.46,18.08,71.94,31.65,22.47,13.57,43.16,29.87,62.07,48.92,18.91,19.05,35.2,40.22,48.91,63.5,13.7,23.3,24.31,48.37,31.86,75.22,7.53,26.86,11.3,54.67,11.3,83.44s-3.63,55.08-10.89,81.39c-7.27,26.31-17.54,51.04-30.83,74.19-13.29,23.16-29.33,44.39-48.09,63.71-18.77,19.32-39.67,35.96-62.68,49.94-23.02,13.98-47.82,24.8-74.4,32.47-26.58,7.67-54.26,11.51-83.03,11.51-32.34,0-62.96-4.46-91.87-13.36-28.92-8.9-55.84-21.58-80.77-38.02h174.28c34.53,0,67.27-6.85,98.24-20.56,30.96-13.7,58.16-32.4,81.59-56.11,23.43-23.7,41.99-51.44,55.7-83.24,13.7-31.78,20.55-65.77,20.55-101.94s-6.51-70.56-19.52-102.35c-13.02-31.78-30.9-59.53-53.64-83.24-22.75-23.7-49.47-42.34-80.16-55.9-30.69-13.57-63.57-20.35-98.65-20.35h-180.86c22.47-14.8,46.38-27.19,71.73-37.2,25.34-10,51.99-15,79.94-15h29.19ZM372.41,320.41c0,6.85-1.3,13.5-3.9,19.94-2.61,6.44-6.31,12.13-11.1,17.06-4.8,4.93-10.35,8.84-16.65,11.72-6.3,2.88-13.15,4.31-20.55,4.31s-14.32-1.44-20.75-4.31c-6.44-2.88-12.06-6.79-16.85-11.72-4.8-4.93-8.57-10.62-11.31-17.06-2.74-6.44-4.11-13.08-4.11-19.94,0-7.4,1.37-14.38,4.11-20.96,2.73-6.58,6.5-12.4,11.31-17.47,4.79-5.07,10.41-9.04,16.85-11.92,6.43-2.88,13.35-4.32,20.75-4.32s14.25,1.44,20.55,4.32c6.3,2.88,11.86,6.85,16.65,11.92,4.79,5.07,8.49,10.89,11.1,17.47,2.6,6.58,3.9,13.56,3.9,20.96Z"/>
</svg>