<svg xmlns="http://www.w3.org/2000/svg" viewBox="0 0 1400 980" role="img" aria-labelledby="title desc">
  <title id="title">STŌK copper dispenser wall concept</title>
  <desc id="desc">A flagship broth dispensary wall with copper panels, stainless spouts, glowing stock tanks, cup rail, and hydroponic greens.</desc>
  <defs>
    <linearGradient id="room" x1="0" y1="0" x2="0" y2="1">
      <stop offset="0" stop-color="#fffaf0"/>
      <stop offset=".58" stop-color="#ead2b7"/>
      <stop offset="1" stop-color="#8a4b2c"/>
    </linearGradient>
    <linearGradient id="copper" x1="0" y1="0" x2="1" y2="1">
      <stop offset="0" stop-color="#f3bd80"/>
      <stop offset=".5" stop-color="#b76635"/>
      <stop offset="1" stop-color="#5b2b1b"/>
    </linearGradient>
    <filter id="blur"><feGaussianBlur stdDeviation="16"/></filter>
  </defs>
  <rect width="1400" height="980" rx="44" fill="url(#room)"/>
  <path d="M116 156h1168v616H116z" fill="#1c1510" opacity=".12"/>
  <g transform="translate(144 126)">
    <rect x="0" y="0" width="1112" height="672" rx="38" fill="url(#copper)"/>
    <rect x="56" y="58" width="1000" height="556" rx="28" fill="#fff3df" opacity=".18"/>
    <g opacity=".42" stroke="#fffaf0" stroke-width="3">
      <path d="M188 0v672M376 0v672M564 0v672M752 0v672M940 0v672"/>
      <path d="M0 170h1112M0 338h1112M0 506h1112"/>
    </g>
    <g transform="translate(110 108)">
      <rect x="0" y="0" width="882" height="250" rx="30" fill="#20140e" opacity=".8"/>
      <g transform="translate(52 42)">
        <rect x="0" y="0" width="128" height="170" rx="22" fill="#efa83d"/>
        <rect x="170" y="0" width="128" height="170" rx="22" fill="#865033"/>
        <rect x="340" y="0" width="128" height="170" rx="22" fill="#d6a13e"/>
        <rect x="510" y="0" width="128" height="170" rx="22" fill="#7a8a5d"/>
        <rect x="680" y="0" width="128" height="170" rx="22" fill="#bf552e"/>
      </g>
      <text x="52" y="226" fill="#fffaf0" font-family="Inter,Arial,sans-serif" font-size="26" letter-spacing="6">DASHI · PHO · LAKSA · DOENJANG · RASAM</text>
    </g>
    <g transform="translate(164 404)" fill="#1c1510">
      <rect x="0" y="0" width="74" height="106" rx="34"/>
      <rect x="200" y="0" width="74" height="106" rx="34"/>
      <rect x="400" y="0" width="74" height="106" rx="34"/>
      <rect x="600" y="0" width="74" height="106" rx="34"/>
      <path d="M-40 158h818" stroke="#1c1510" stroke-width="20" stroke-linecap="round"/>
      <g fill="#fffaf0">
        <path d="M5 116h62l-8 74H13z"/>
        <path d="M205 116h62l-8 74h-46z"/>
        <path d="M405 116h62l-8 74h-46z"/>
        <path d="M605 116h62l-8 74h-46z"/>
      </g>
    </g>
  </g>
  <g opacity=".7" fill="none" stroke="#fffaf0" stroke-width="16" stroke-linecap="round" filter="url(#blur)">
    <path d="M350 606c-52-76 42-106 0-174"/>
    <path d="M552 606c-52-76 42-106 0-174"/>
    <path d="M754 606c-52-76 42-106 0-174"/>
    <path d="M956 606c-52-76 42-106 0-174"/>
  </g>
  <g transform="translate(1120 190)">
    <rect x="0" y="0" width="108" height="520" rx="54" fill="#f5fbef" opacity=".8"/>
    <g fill="#55745a">
      <ellipse cx="54" cy="92" rx="52" ry="24" transform="rotate(-22 54 92)"/>
      <ellipse cx="54" cy="176" rx="52" ry="24" transform="rotate(24 54 176)"/>
      <ellipse cx="54" cy="264" rx="52" ry="24" transform="rotate(-18 54 264)"/>
      <ellipse cx="54" cy="358" rx="52" ry="24" transform="rotate(20 54 358)"/>
      <ellipse cx="54" cy="446" rx="52" ry="24" transform="rotate(-24 54 446)"/>
    </g>
  </g>
  <text x="86" y="878" fill="#1c1510" font-family="Georgia,serif" font-size="72" letter-spacing="-3">Warmth from the wall.</text>
  <text x="90" y="926" fill="#fffaf0" font-family="Inter,Arial,sans-serif" font-size="28" letter-spacing="3">COPPER FACE · STAINLESS PATH · PRECISE POURS</text>
</svg>
