<svg xmlns="http://www.w3.org/2000/svg" viewBox="0 0 1400 980" role="img" aria-labelledby="title desc">
  <title id="title">STŌK Stock Notes concept</title>
  <desc id="desc">A research-forward Stock Notes interface beside a broth cup, QR code, flavor map, and functional mode tokens.</desc>
  <defs>
    <linearGradient id="paper" x1="0" y1="0" x2="1" y2="1">
      <stop offset="0" stop-color="#fffaf0"/>
      <stop offset="1" stop-color="#eadcc9"/>
    </linearGradient>
    <linearGradient id="broth" x1="0" y1="0" x2="0" y2="1">
      <stop offset="0" stop-color="#f1b544"/>
      <stop offset="1" stop-color="#7a3d24"/>
    </linearGradient>
  </defs>
  <rect width="1400" height="980" rx="44" fill="#1c1510"/>
  <circle cx="266" cy="238" r="210" fill="#b76635" opacity=".42"/>
  <circle cx="1110" cy="760" r="250" fill="#55745a" opacity=".34"/>
  <g transform="translate(106 104)">
    <rect x="0" y="0" width="1188" height="706" rx="38" fill="url(#paper)"/>
    <g opacity=".2" stroke="#1c1510" stroke-width="2">
      <path d="M96 104h996M96 204h996M96 304h996M96 404h996M96 504h996M96 604h996"/>
      <path d="M250 60v586M500 60v586M750 60v586M1000 60v586"/>
    </g>
    <text x="74" y="112" fill="#b76635" font-family="Inter,Arial,sans-serif" font-size="27" font-weight="700" letter-spacing="7">STOCK NOTE · 003</text>
    <text x="72" y="204" fill="#1c1510" font-family="Georgia,serif" font-size="86" letter-spacing="-5">Laksa Gold</text>
    <text x="76" y="258" fill="#6e6257" font-family="Inter,Arial,sans-serif" font-size="30">Coconut · turmeric · lemongrass · chili · aromatic warmth</text>
    <g transform="translate(76 342)">
      <rect x="0" y="0" width="212" height="76" rx="38" fill="#1c1510"/>
      <text x="58" y="49" fill="#fffaf0" font-family="Inter,Arial,sans-serif" font-size="24" letter-spacing="4">FOCUS</text>
      <rect x="232" y="0" width="196" height="76" rx="38" fill="#dce7d4"/>
      <text x="282" y="49" fill="#1c1510" font-family="Inter,Arial,sans-serif" font-size="24" letter-spacing="4">MEAL</text>
      <rect x="448" y="0" width="260" height="76" rx="38" fill="#f1d099"/>
      <text x="496" y="49" fill="#1c1510" font-family="Inter,Arial,sans-serif" font-size="24" letter-spacing="4">RECOVERY</text>
    </g>
    <g transform="translate(76 490)" fill="#1c1510" font-family="Inter,Arial,sans-serif">
      <text x="0" y="0" font-size="28" font-weight="700">Traditional context</text>
      <text x="0" y="48" font-size="24" fill="#6e6257">Southeast Asian coconut-spice broth family, interpreted as a daily cup.</text>
      <text x="0" y="118" font-size="28" font-weight="700">Evidence line</text>
      <text x="0" y="166" font-size="24" fill="#6e6257">Ingredient notes are educational; no miracle claims, no medical promises.</text>
    </g>
    <g transform="translate(860 150)">
      <ellipse cx="136" cy="240" rx="150" ry="42" fill="#301b12" opacity=".24"/>
      <path d="M4 94h264l-34 302H38z" fill="#fffaf0" stroke="#1c1510" stroke-width="8"/>
      <ellipse cx="136" cy="94" rx="132" ry="34" fill="#1c1510"/>
      <ellipse cx="136" cy="92" rx="105" ry="22" fill="url(#broth)"/>
      <text x="54" y="242" fill="#1c1510" font-family="Georgia,serif" font-size="46" letter-spacing="-2">STŌK</text>
      <rect x="88" y="274" width="96" height="96" fill="#fffaf0" stroke="#1c1510" stroke-width="5"/>
      <g fill="#1c1510">
        <rect x="100" y="286" width="18" height="18"/><rect x="130" y="286" width="18" height="18"/><rect x="160" y="286" width="12" height="42"/>
        <rect x="100" y="316" width="48" height="12"/><rect x="100" y="340" width="18" height="18"/><rect x="136" y="340" width="42" height="18"/>
      </g>
    </g>
  </g>
  <text x="86" y="878" fill="#fffaf0" font-family="Georgia,serif" font-size="72" letter-spacing="-3">Scan the broth. See the latest.</text>
  <text x="90" y="926" fill="#d6c2ae" font-family="Inter,Arial,sans-serif" font-size="28" letter-spacing="3">TRADITION · INGREDIENTS · RESEARCH · CAUTIONS</text>
</svg>
