<svg xmlns="http://www.w3.org/2000/svg" viewBox="0 0 1400 980" role="img" aria-labelledby="title desc">
  <title id="title">STŌK yatai cart concept</title>
  <desc id="desc">A handmade copper and wood broth yatai with steam, lanterns, menu cards, and warm service light.</desc>
  <defs>
    <linearGradient id="sky" x1="0" y1="0" x2="1" y2="1">
      <stop offset="0" stop-color="#fff7e8"/>
      <stop offset="0.62" stop-color="#f1dfc5"/>
      <stop offset="1" stop-color="#c98755"/>
    </linearGradient>
    <linearGradient id="copper" x1="0" y1="0" x2="1" y2="1">
      <stop offset="0" stop-color="#efb06d"/>
      <stop offset="0.45" stop-color="#b76635"/>
      <stop offset="1" stop-color="#63301d"/>
    </linearGradient>
    <radialGradient id="glow" cx="50%" cy="42%" r="55%">
      <stop offset="0" stop-color="#fff7ce" stop-opacity=".95"/>
      <stop offset="1" stop-color="#fff7ce" stop-opacity="0"/>
    </radialGradient>
    <filter id="soft" x="-20%" y="-20%" width="140%" height="140%">
      <feGaussianBlur stdDeviation="18"/>
    </filter>
  </defs>
  <rect width="1400" height="980" rx="44" fill="url(#sky)"/>
  <circle cx="704" cy="348" r="330" fill="url(#glow)"/>
  <g opacity=".28" stroke="#1c1510" stroke-width="2">
    <path d="M110 146h1180M110 254h1180M110 362h1180M110 470h1180M110 578h1180"/>
    <path d="M216 86v610M442 86v610M668 86v610M894 86v610M1120 86v610"/>
  </g>
  <g opacity=".64" fill="none" stroke="#fffaf0" stroke-width="18" stroke-linecap="round" filter="url(#soft)">
    <path d="M455 500c-62-66 44-106-6-178"/>
    <path d="M632 478c-76-92 62-142 4-242"/>
    <path d="M817 502c-70-76 56-122 8-206"/>
  </g>
  <g transform="translate(196 230)">
    <path d="M120 234h864l-72 148H76z" fill="#2b1b13" opacity=".9"/>
    <path d="M140 232h826l-46 84H96z" fill="url(#copper)"/>
    <rect x="160" y="296" width="760" height="318" rx="28" fill="#3b2418"/>
    <rect x="204" y="334" width="258" height="226" rx="20" fill="#7b4829"/>
    <rect x="496" y="334" width="374" height="226" rx="20" fill="#f7e8d2"/>
    <rect x="530" y="366" width="96" height="54" rx="12" fill="#b76635"/>
    <rect x="650" y="366" width="96" height="54" rx="12" fill="#55745a"/>
    <rect x="770" y="366" width="68" height="54" rx="12" fill="#e7a83e"/>
    <path d="M210 614h698" stroke="#1c1510" stroke-width="22" stroke-linecap="round"/>
    <circle cx="286" cy="654" r="58" fill="#1c1510"/>
    <circle cx="812" cy="654" r="58" fill="#1c1510"/>
    <circle cx="286" cy="654" r="24" fill="#f2dfc3"/>
    <circle cx="812" cy="654" r="24" fill="#f2dfc3"/>
    <path d="M178 214l156-118h472l158 118z" fill="#5d3824"/>
    <path d="M260 126h632" stroke="#efb06d" stroke-width="12" stroke-linecap="round" opacity=".78"/>
    <g fill="#fff0c8" stroke="#6d351f" stroke-width="7">
      <ellipse cx="340" cy="208" rx="44" ry="56"/>
      <ellipse cx="554" cy="190" rx="38" ry="50"/>
      <ellipse cx="764" cy="208" rx="44" ry="56"/>
    </g>
    <text x="246" y="486" fill="#fffaf0" font-family="Georgia,serif" font-size="92" letter-spacing="-5">STŌK</text>
    <text x="534" y="486" fill="#1c1510" font-family="Inter,Arial,sans-serif" font-size="36" letter-spacing="8">BROTH MAP</text>
  </g>
  <text x="86" y="878" fill="#1c1510" font-family="Georgia,serif" font-size="72" letter-spacing="-3">Yatai first. Steam visible.</text>
  <text x="90" y="926" fill="#6e6257" font-family="Inter,Arial,sans-serif" font-size="28" letter-spacing="3">HANDMADE CART · COPPER EDGE · QR STOCK NOTES</text>
</svg>
