<?xml version="1.0" encoding="UTF-8"?>
<svg id="Layer_1" data-name="Layer 1" xmlns="http://www.w3.org/2000/svg" viewBox="0 0 45.43 20.65">
  <defs>
    <style>
      .cls-1 {
        fill: #231f20;
      }
    </style>
  </defs>
  <path class="cls-1" d="M15.13,15.03c-.02.1-.03.15-.03.16,0,.08.02.14.05.16s.07.04.1.04.07.01.1.02.05.03.05.07c0,.06-.03.08-.1.08h-1.09c-.06,0-.1-.03-.1-.08,0-.01,0-.03.03-.05s.04-.03.08-.03c.16,0,.27-.1.32-.3l.28-1.13c.02-.08.04-.15.04-.22s.01-.13.01-.19c0-.18-.03-.33-.08-.45s-.12-.24-.19-.33c-.08-.1-.17-.19-.26-.26-.32.53-.59.96-.78,1.3s-.38.6-.54.81c.21,0,.41-.04.6-.13s.35-.25.47-.49c.03-.06.05-.13.06-.21s.03-.15.04-.22.03-.12.06-.17.07-.07.12-.07c.04,0,.07.03.11.08s.05.11.05.16c0,.04,0,.08-.02.13l-.04.13c-.11.3-.3.53-.58.7s-.55.25-.84.25h-.06s-.06,0-.08-.01c-.28.36-.56.66-.84.9s-.57.44-.87.58-.58.24-.86.3-.55.09-.81.09c-.33,0-.65-.06-.95-.18s-.56-.28-.79-.49-.41-.45-.55-.74-.21-.58-.21-.9c0-.25.04-.49.12-.71s.18-.43.32-.62.29-.36.47-.51.36-.27.56-.37c-.3-.33-.44-.73-.44-1.2,0-.3.06-.57.19-.81s.28-.44.48-.61.42-.29.67-.38.5-.13.75-.13c.3,0,.54.05.71.15s.29.22.38.35.13.26.14.38.02.2.02.24c0,.16-.03.31-.1.45s-.16.26-.26.35-.23.18-.37.24-.28.09-.43.09c-.2,0-.38-.05-.52-.16s-.21-.26-.21-.46c0-.08.02-.17.05-.25s.08-.15.14-.22.13-.12.21-.16.16-.06.24-.06c.1,0,.15.03.15.1,0,.04-.01.07-.04.11s-.05.06-.09.08c-.04.03-.09.05-.14.06s-.1.04-.14.06-.08.07-.11.12-.05.13-.05.23c0,.14.05.25.14.31s.21.1.33.1c.12,0,.24-.03.35-.09s.21-.14.3-.23.15-.2.2-.32.07-.23.07-.34c0-.3-.08-.53-.24-.71s-.39-.27-.68-.27c-.27,0-.5.04-.69.13s-.35.19-.48.32-.23.27-.3.42-.13.3-.17.45-.06.27-.07.39-.02.19-.02.23c0,.18.02.36.07.52s.12.31.2.43c.25-.09.51-.14.77-.14.29,0,.54.04.76.13s.4.2.55.34c.21-.13.41-.29.61-.49s.38-.41.55-.65.33-.47.48-.72.28-.48.4-.71c-.4-.1-.73-.29-.99-.58s-.39-.63-.39-1.03c0-.28.07-.54.2-.78s.3-.45.5-.63.44-.32.7-.42.52-.15.77-.15c.19,0,.36.04.52.12s.32.17.48.29c.37-.62.74-1.1,1.11-1.44s.7-.59,1-.75.55-.25.75-.29.33-.05.38-.05c.2,0,.39.04.59.13s.38.2.53.34.29.3.39.48.15.36.15.56c0,.16-.05.24-.16.24-.08,0-.14-.04-.19-.11s-.08-.15-.12-.25-.06-.19-.09-.29-.06-.18-.1-.24c-.16-.25-.32-.42-.5-.51s-.36-.14-.54-.14c-.36,0-.65.09-.88.28l-1.25,5.06c-.01.07,0,.11.03.13s.07.02.12.02c.08,0,.14-.03.17-.09s.08-.14.12-.23l1.18-2.61c.03-.06.05-.11.07-.14s.03-.07.03-.1c0-.08-.03-.14-.1-.17s-.13-.04-.17-.04c-.08,0-.12-.02-.12-.06,0-.06.04-.08.11-.08h.76c.06,0,.08.04.08.11l.18,2.49,1.3-2.5c.04-.06.08-.1.14-.1h.69c.08,0,.13.03.13.08s-.04.08-.13.08c-.08,0-.15.02-.21.06s-.09.12-.1.22l-.14,2.95c0,.08.05.12.14.12.06,0,.11-.02.16-.06s.09-.1.1-.18l.72-2.9c.02-.08,0-.13-.06-.16s-.12-.05-.17-.05c-.07,0-.11-.03-.11-.08s.04-.08.11-.08h1.96s.07,0,.08.01.02.02.02.03l.1.77c0,.07-.01.11-.06.11-.04,0-.06-.01-.06-.04s-.02-.06-.03-.1c-.06-.16-.15-.3-.29-.43s-.3-.19-.5-.19h-.3s-.03.01-.04.04-.02.05-.03.07l-.34,1.38h.36c.09,0,.17-.01.23-.04s.12-.06.16-.11.07-.08.09-.13.03-.08.05-.11c.01-.04.03-.06.05-.06s.04-.01.05-.01c.06,0,.08.04.06.12l-.29,1c0,.06-.04.08-.1.08-.04,0-.05-.07-.05-.21,0-.08-.01-.15-.04-.2s-.05-.08-.08-.1-.06-.03-.1-.04-.05,0-.07,0h-.39l-.44,1.65h.5c.17,0,.32-.04.44-.11s.24-.15.34-.24c.05-.05.09-.1.13-.14s.07-.09.11-.12c.03-.04.06-.08.1-.13s.07-.07.1-.07c.04,0,.06.01.06.04,0,.01,0,.04-.02.08s-.03.08-.04.12c-.03.06-.07.15-.12.26s-.12.25-.21.41c-.02.04-.04.06-.05.07s-.03.02-.07.02h-3c-.06,0-.08-.02-.08-.05,0-.03.02-.05.06-.07s.08-.04.13-.05.1-.04.14-.05.06-.04.06-.08l.12-2.63-1.5,2.78c-.07.13-.11.2-.13.2-.03,0-.05-.06-.06-.19l-.22-2.79-1.11,2.54s-.02.06-.02.11c0,.08.04.13.11.14s.13.03.17.03c.05,0,.07.02.07.06s-.04.06-.11.06h-1.78c-.08,0-.13-.03-.13-.08,0-.05.04-.07.13-.07.12,0,.2-.03.24-.09s.07-.12.08-.19l.2-.77c.03-.11.04-.22.04-.34,0-.2-.03-.37-.08-.52s-.12-.28-.2-.39-.15-.19-.22-.25-.12-.1-.14-.12c-.07.15-.16.33-.26.53s-.22.43-.34.66-.25.47-.38.72-.24.48-.35.71c.26-.02.48-.1.65-.24s.32-.35.45-.61c.07-.15.14-.26.2-.32s.12-.1.16-.1c.05,0,.07.04.07.12,0,.17-.06.33-.17.49s-.25.29-.41.41-.33.21-.52.28-.35.11-.49.11c-.14.27-.3.54-.47.8s-.36.52-.57.76-.43.46-.67.65-.5.35-.77.46c.24.32.36.62.36.92s-.06.53-.18.74-.27.36-.44.49-.35.21-.54.26-.36.08-.5.08-.28-.03-.41-.08-.25-.12-.35-.21-.19-.19-.25-.32-.1-.26-.1-.4c0-.11.02-.23.07-.34s.11-.21.18-.3.16-.16.25-.21.18-.08.26-.08c.08,0,.13.01.15.04s.04.05.04.08c0,.07-.02.13-.07.19s-.11.1-.19.14c-.06.03-.11.05-.17.07s-.11.05-.16.08-.09.08-.12.14-.05.14-.05.24c0,.23.09.42.27.55s.38.2.61.2c.21,0,.4-.04.57-.12s.31-.18.42-.32.2-.29.26-.46.09-.35.09-.54c0-.16-.02-.3-.06-.43s-.09-.23-.14-.32c-.12.04-.25.07-.39.09s-.28.04-.42.04c-.44,0-.85-.13-1.21-.39-.17.1-.33.22-.48.36s-.28.31-.39.49-.2.38-.27.59-.1.43-.1.67c0,.28.05.53.15.78s.24.45.41.63.38.32.61.43.49.16.76.16c.32,0,.62-.06.9-.17s.55-.26.79-.44.47-.38.67-.61.39-.45.55-.68c-.16-.13-.31-.3-.45-.51s-.21-.42-.21-.65c0-.24.04-.46.13-.66s.2-.37.34-.51.3-.25.49-.32.38-.12.58-.12c.17,0,.33.02.48.05s.28.09.38.17c.17-.2.36-.41.56-.62s.42-.4.65-.57.47-.31.72-.42.51-.16.78-.16c.35,0,.62.05.82.16s.35.23.46.36.17.26.2.38.04.19.04.22c0,.1-.02.16-.06.19s-.07.04-.1.04c-.08,0-.15-.03-.2-.09s-.09-.13-.13-.22-.07-.17-.09-.25-.05-.14-.08-.19c-.1-.14-.22-.25-.35-.31s-.28-.1-.42-.1c-.16,0-.29.02-.41.06s-.21.08-.27.12l-1.09,4.42ZM9.94,12.6c.12,0,.23-.01.34-.04s.22-.07.33-.12c-.27-.23-.59-.35-.96-.35-.11,0-.23.01-.34.04s-.23.07-.34.12c.12.12.26.21.43.26s.35.08.55.08ZM12.88,9.68c.25-.49.5-.98.77-1.45s.54-.93.82-1.39c-.34-.19-.66-.29-.96-.29-.23,0-.46.05-.67.14s-.41.22-.58.37-.3.33-.41.54-.15.42-.15.65c0,.35.1.65.31.9s.5.42.87.52ZM13.88,12.28s-.07-.06-.13-.08c-.05-.02-.12-.04-.2-.06s-.19-.03-.33-.03c-.23,0-.42.05-.59.15s-.3.22-.41.36-.19.29-.24.45-.08.29-.08.41c0,.19.05.36.14.52s.22.3.39.43c.19-.2.4-.5.63-.88s.5-.81.81-1.26ZM15.59,10.87c-.15.11-.29.24-.42.39s-.25.3-.34.44c-.12.17-.23.35-.33.53.15.12.26.27.34.44s.14.35.2.52l.55-2.33ZM16.3,5.01c-.16.11-.31.23-.43.38s-.24.3-.34.45-.2.32-.29.5-.19.34-.29.5c.16.16.29.33.39.53s.18.4.23.61l.73-2.97ZM15.74,15.56c-.06,0-.1-.03-.1-.1,0-.05.02-.07.05-.07.01,0,.02,0,.03.01s.02.01.04.01c.04,0,.09-.02.14-.07s.09-.16.13-.33c0-.01.02-.09.05-.22s.08-.3.12-.49.1-.4.15-.62.11-.43.16-.63.09-.37.12-.51.05-.23.05-.25c0-.05-.02-.09-.05-.12s-.08-.06-.12-.08-.09-.05-.12-.07-.05-.04-.05-.06c0-.04.02-.05.07-.05h1.25c.21,0,.4.04.57.13s.31.21.43.35.21.32.27.51.1.39.1.59c0,.3-.05.57-.15.83s-.24.47-.42.66-.38.33-.62.44-.48.16-.75.16h-1.35ZM16.51,15.37h.49c.25,0,.47-.07.66-.22s.33-.33.45-.53.21-.42.26-.65.08-.41.08-.56c0-.44-.09-.78-.26-1.02s-.36-.36-.58-.36h-.29l-.83,3.33ZM18.17,17.6c-.25.08-.47.2-.66.36s-.29.37-.29.63c0,.16.02.27.06.34s.08.12.13.15c.03.01.05.03.07.05s.03.05.03.08c0,.02,0,.04-.02.06s-.05.03-.11.03c-.07,0-.13-.02-.17-.07s-.08-.11-.1-.18-.04-.14-.05-.22-.01-.15-.01-.21c0-.18.04-.33.11-.46s.17-.24.29-.34.25-.17.4-.23.3-.11.45-.15c.16-.16.35-.29.57-.4s.46-.2.7-.26.48-.11.7-.14.4-.04.54-.04c.22,0,.46.02.72.06s.53.09.8.15.54.13.8.21.51.15.74.22c.16-.06.33-.1.49-.13s.34-.05.52-.05c.06,0,.18,0,.34.02s.37.06.62.14l.87-.36c-.26-.27-.49-.56-.69-.88s-.36-.64-.48-.97c-.2-.55-.36-.98-.48-1.3s-.22-.55-.29-.71c-.08-.18-.14-.3-.19-.36l-.57,2.35s-.01.06-.02.08,0,.04,0,.06c0,.07.02.12.05.15s.07.05.11.06.07.03.11.04.05.04.05.07c0,.06-.04.1-.13.1h-.87c-.06,0-.08-.03-.08-.08,0-.04.02-.07.06-.08s.09-.02.14-.04.11-.05.17-.11.11-.15.14-.28l.66-2.42.02-.08s.01-.06.01-.08c0-.11-.02-.2-.06-.25s-.09-.09-.14-.11-.1-.04-.14-.05-.06-.03-.06-.05c0-.03.02-.04.05-.04h.75c.07.05.15.14.23.28s.16.29.23.47.15.35.22.54.13.37.19.53.1.3.14.4.07.16.08.17l.45-1.89c.02-.11.02-.18,0-.23s-.04-.09-.07-.11-.06-.04-.09-.05-.04-.02-.04-.03c0-.05.02-.07.06-.07h.72s.06.01.06.04c0,.04-.01.06-.04.07s-.06.03-.1.05-.08.05-.12.1-.07.12-.1.23l-.59,2.34c.16.44.34.83.53,1.15s.39.6.6.84c.34-.11.61-.19.82-.22s.39-.05.54-.05c.3,0,.57.03.81.1s.43.15.59.25.28.21.36.33.12.24.12.34c0,.14-.03.26-.1.34s-.14.16-.24.21-.2.09-.32.11-.22.03-.31.03h-.3c-.01.12-.05.23-.11.34s-.12.2-.2.3h.12c.36,0,.66-.05.89-.14s.43-.23.6-.42c.1-.11.17-.22.22-.31s.11-.14.19-.14c.07,0,.11.05.11.14,0,.06-.02.12-.05.17-.23.3-.53.52-.88.66s-.71.21-1.07.21h-.25c-.22.18-.47.32-.76.4s-.57.12-.85.12c-.23,0-.49-.02-.77-.07s-.57-.11-.86-.19-.6-.17-.9-.26-.61-.2-.9-.31c-.49.23-.92.4-1.29.52s-.7.21-.97.27-.5.1-.67.11-.31.02-.4.02c-.23,0-.48-.02-.76-.06s-.54-.12-.78-.22-.45-.25-.61-.42-.24-.4-.24-.67c0-.1.02-.19.05-.28s.07-.18.12-.27ZM18.14,18.15c0,.24.09.43.26.58s.38.26.6.34.44.14.65.16.33.04.39.04c.4,0,.87-.08,1.41-.25s1.1-.37,1.7-.62l-.83-.29c-.08.04-.2.08-.36.15s-.35.13-.56.19-.42.12-.64.17-.43.07-.62.07c-.04,0-.09,0-.17,0s-.16-.01-.23-.03-.15-.03-.21-.05-.1-.05-.1-.1c0-.04.02-.06.05-.07s.06-.02.08-.02c.04,0,.07,0,.1.03s.07.04.11.05.1.04.17.05.16.03.28.03c.03,0,.08,0,.17-.02s.2-.04.35-.07.33-.09.54-.16.47-.17.78-.3c-.42-.15-.79-.26-1.13-.34s-.62-.13-.87-.17-.44-.06-.59-.06-.26-.01-.31-.01c-.24,0-.5.03-.78.08-.16.18-.24.38-.24.6ZM20.76,16.85c-.15,0-.32,0-.51.02s-.39.04-.59.08-.4.1-.59.17-.36.16-.5.26c.2-.04.39-.07.54-.07s.25-.01.26-.01c.32,0,.64.02.96.07s.63.1.91.16.53.13.75.19.37.11.47.15l.98-.47c-.75-.24-1.35-.39-1.78-.46s-.73-.1-.89-.1ZM19.33,11.95s.02-.07.07-.07h1.11s.07.02.07.07c0,.06-.02.08-.07.08h-.06s-.08.01-.13.04-.09.1-.13.22l-.71,2.79s.13-.1.24-.21.23-.25.37-.41.28-.34.42-.54.27-.4.39-.6.22-.39.3-.58.12-.35.12-.49c0-.06-.02-.11-.05-.13s-.07-.04-.1-.05-.07-.03-.1-.04-.05-.05-.05-.1.05-.07.14-.07h2.59s.06.01.06.04l.13.72c.03.07,0,.11-.06.11-.04,0-.06,0-.07-.03s-.02-.04-.04-.07c-.08-.16-.17-.3-.28-.42s-.26-.19-.47-.19h-.41l-.39,1.43h.45s.05,0,.08,0,.07-.02.12-.04.09-.06.13-.11.09-.12.13-.21c.01-.04.05-.05.1-.05.03,0,.04.01.04.04l-.25,1.03s-.01.03-.03.04-.04.02-.05.02c-.04,0-.06-.04-.06-.11,0-.03,0-.07-.01-.11s-.02-.09-.05-.14-.06-.08-.11-.12-.11-.05-.19-.05h-.35l-.42,1.68h.49s.07,0,.13-.01.12-.02.2-.05.16-.07.26-.13.19-.14.29-.24c.13-.14.22-.24.26-.29s.07-.07.09-.07c.04,0,.05.02.05.06,0,.04-.02.09-.06.16l-.43.79h-2.23s-.05-.03-.05-.08.03-.08.08-.08h.06c.06,0,.13-.02.21-.06s.14-.15.19-.33l.63-2.68c.02-.08.03-.16.04-.21s0-.08-.04-.08-.05.02-.06.06c-.15.3-.3.59-.46.88s-.33.58-.52.86-.39.55-.62.81-.49.52-.78.78c-.04.04-.08.07-.11.1s-.07.04-.12.04h-.35c-.06,0-.08-.04-.08-.11,0-.01,0-.04.01-.07s.01-.07.02-.1l.73-2.95c.03-.11.03-.18,0-.23s-.07-.07-.12-.07c-.09,0-.14-.03-.14-.08ZM23.04,4.58s-.02.04-.03.06-.04.03-.1.03h-.23s-.05,0-.07-.02-.02-.04-.01-.07l.56-2.23c-.06,0-.14-.02-.22-.04s-.16-.05-.24-.1l-.54,2.15c-.01.06-.02.1-.02.12,0,.04,0,.07.03.08s.04.02.06.02c.04,0,.07,0,.09.02s.04.02.04.04c0,.04-.02.05-.06.05h-.79s-.02,0-.03-.01-.02-.02-.02-.04.01-.04.03-.04.04-.01.06-.01c.03,0,.06-.01.09-.04s.06-.08.08-.17l.59-2.33c-.06-.03-.14-.08-.25-.15s-.23-.14-.36-.22-.28-.14-.43-.19-.3-.08-.45-.08c-.04,0-.13.01-.25.04s-.25.08-.39.16-.25.19-.35.34-.15.34-.15.58c0,.09.02.19.05.3s.09.21.16.3.17.17.28.23.24.1.39.1c.09,0,.19-.02.29-.06s.2-.1.28-.17.16-.16.21-.26.08-.21.08-.33c0-.17-.03-.32-.09-.44s-.17-.19-.34-.19c-.06,0-.12.01-.17.03s-.11.06-.17.13c-.06.07-.11.15-.14.24s-.08.13-.17.13c-.02,0-.04,0-.06-.03s-.03-.05-.03-.11c0-.03,0-.07.03-.13s.05-.12.1-.17.12-.11.21-.15.21-.07.36-.07c.23,0,.41.07.53.21s.18.33.18.58c0,.13-.03.25-.08.36s-.13.21-.22.29-.21.15-.33.2-.26.07-.4.07c-.32,0-.58-.11-.79-.32s-.31-.49-.31-.83c0-.17.04-.33.13-.49s.2-.3.34-.42.29-.22.46-.29.34-.11.51-.11c.22,0,.42.04.61.12s.38.17.56.27.37.2.56.3.39.16.6.2c.04-.2.14-.36.3-.48s.34-.17.56-.17c.06,0,.13.02.22.06s.13.12.13.24c0,.1-.03.19-.08.28s-.13.16-.21.22-.18.11-.28.14-.19.05-.28.05h-.05l-.16.74s.04-.05.06-.09.05-.08.09-.12.09-.07.15-.1.14-.04.23-.04c.18,0,.31.07.39.21s.11.31.11.51c0,.17-.05.36-.14.59s-.22.43-.37.62-.33.36-.52.49-.4.2-.6.2c-.05,0-.1-.01-.14-.03s-.07-.05-.07-.1c0-.03,0-.05.02-.07s.05-.03.11-.03c.03,0,.06,0,.08.01s.07.01.12.01c.06,0,.13-.02.2-.05s.14-.09.23-.16c.06-.06.13-.14.21-.24s.15-.22.22-.35.13-.29.17-.45.07-.34.07-.53c0-.09-.02-.18-.05-.28s-.1-.14-.2-.14c-.08,0-.14.03-.2.08s-.11.12-.15.19-.08.15-.11.24-.05.16-.06.22l-.22.93ZM24.65,6.24c.23,0,.41.04.54.11s.23.15.3.25.11.19.13.29.03.18.03.23c0,.16-.04.3-.12.42s-.19.21-.31.29-.26.13-.41.17-.28.07-.41.1l.11.05c.11.06.21.14.28.23s.14.19.19.32.09.26.12.41.07.32.11.51l.04.18c.06,0,.11-.04.16-.11s.08-.14.1-.2l.72-2.79c.02-.08.02-.14-.02-.17s-.07-.07-.12-.09-.09-.04-.13-.05-.06-.03-.06-.05c0-.06.02-.08.06-.08h1.2s.06,0,.06.02.01.03.01.04c0,.02-.02.04-.07.06s-.1.04-.15.06-.11.06-.16.11-.09.1-.1.17l-.66,2.8s-.01.05-.02.07,0,.03,0,.05c0,.07.02.12.05.14s.07.03.11.03.08,0,.11,0,.05.03.05.07-.03.06-.1.06h-1.04c.06.29.14.51.24.68s.2.28.31.35.2.12.29.13.14.02.16.02c.13,0,.23-.02.3-.06s.13-.08.17-.13.07-.1.08-.15.02-.08.02-.1c0-.06-.01-.12-.04-.17s-.05-.1-.08-.14-.05-.08-.08-.13-.04-.09-.04-.14c0-.06.01-.11.04-.17s.08-.09.15-.09c.06,0,.11.02.15.06s.08.09.11.15.05.12.06.19.02.12.02.17c0,.25-.09.45-.27.62s-.4.25-.65.25c-.36,0-.65-.09-.86-.26s-.37-.37-.49-.59-.19-.43-.22-.62-.05-.32-.05-.37c0-.08-.01-.19-.03-.34s-.06-.3-.11-.44-.11-.28-.2-.39-.18-.16-.3-.16h-.2l-.37,1.4c-.02.08-.02.14.01.18s.06.06.11.08.08.03.12.04.06.03.06.06c0,.04-.03.06-.1.06h-1.12c-.06,0-.08-.02-.08-.06,0-.04.02-.06.06-.07s.08-.02.13-.04.1-.05.15-.08.08-.1.11-.2l.71-2.78c.03-.1.02-.17-.01-.21s-.08-.07-.13-.08-.1-.02-.15-.03-.07-.02-.07-.05c0-.06.02-.08.07-.08h1.43ZM23.78,17.53c-.17.06-.34.12-.51.2s-.36.16-.57.25l.87.29.99-.43c-.14-.06-.28-.11-.41-.16s-.26-.1-.38-.13ZM23.66,2.03s.1,0,.17-.02.15-.04.22-.07.13-.07.19-.12.08-.11.08-.18c0-.04,0-.07-.03-.1s-.05-.05-.1-.05c-.01,0-.04,0-.09.02s-.1.03-.15.07-.11.09-.16.16-.09.17-.12.3ZM24.1,7.89s.1,0,.21-.02.21-.04.32-.1.21-.13.29-.24.13-.27.13-.47c0-.05,0-.11-.02-.19s-.04-.15-.08-.22-.11-.13-.2-.18-.21-.07-.35-.07h-.22l-.37,1.48h.31ZM24.08,18.44c.55.18,1.03.33,1.43.43s.74.18,1.01.23.48.08.62.08.23.01.25.01c.19,0,.39-.02.59-.07s.39-.12.57-.23c-.38-.04-.78-.1-1.2-.2s-.8-.2-1.15-.3-.64-.2-.87-.28-.36-.13-.37-.13l-.42.22-.47.23ZM24.98,17.23c-.13,0-.25,0-.38.03s-.25.05-.37.11l.72.26.72-.33c-.12-.04-.24-.06-.35-.06s-.23-.01-.33-.01ZM25.74,3.93c-.13,0-.25-.02-.37-.07s-.24-.07-.36-.07c-.04,0-.07.02-.09.05s-.04.11-.04.23c0,.1.02.21.05.32s.11.17.23.17c.14,0,.25-.03.33-.1s.13-.15.14-.26c.01-.08.05-.13.11-.13.05,0,.07.05.07.14,0,.14-.07.26-.2.36-.06.04-.14.07-.22.1s-.16.03-.24.03c-.13,0-.23-.02-.32-.07s-.15-.11-.21-.2-.09-.17-.11-.28-.03-.2-.03-.3c0-.12.02-.25.07-.39s.12-.26.21-.38.2-.21.33-.29.27-.12.43-.12c.09,0,.18.03.26.08s.13.14.13.25c0,.02,0,.05-.02.1s-.04.1-.08.15-.11.11-.19.17-.2.11-.35.15c.09.04.17.06.24.06s.14.01.22.01c.09,0,.19-.03.29-.08s.17-.13.2-.22c0,.01.01.03.02.06s.01.05.01.08c0,.13-.05.24-.14.31s-.23.11-.4.11ZM25.02,3.48s.01.05.04.05c.01,0,.05,0,.12-.02s.13-.04.2-.08.13-.09.19-.15.08-.15.08-.25c0-.03,0-.06-.02-.1s-.05-.06-.11-.06-.11.02-.17.07-.11.11-.16.18c-.04.05-.07.1-.11.16s-.06.13-.06.2ZM26.22,17.36s.1.04.16.06.13.06.19.1.12.08.16.12.07.08.07.11c0,.06-.02.08-.07.08s-.09-.01-.13-.04-.07-.05-.1-.09-.07-.07-.1-.11-.07-.06-.12-.08l-.21-.1c-.14.06-.27.12-.39.19s-.23.13-.33.19c.27.11.55.21.84.32s.58.2.88.29.59.16.87.23.56.11.81.13c.09-.08.17-.18.23-.29s.09-.23.09-.36c-.41-.06-.79-.18-1.15-.37s-.69-.42-.99-.69c-.12.04-.24.09-.35.14s-.23.11-.35.17ZM27.6,12.07c-.06,0-.11.02-.16.06s-.1.08-.15.12-.1.1-.15.16-.1.14-.15.24c-.02.04-.05.05-.1.05-.02,0-.04,0-.06-.03s-.02-.04,0-.08l.3-.69c.01-.06.04-.08.06-.08.02,0,.03,0,.04.01s0,.02.02.03.02.02.03.03.05.01.11.01c.02,0,.05,0,.07-.01s.06-.01.11-.01h1.33s.07,0,.09.01.05.01.07.01c.05,0,.09,0,.12-.03s.06-.03.1-.03.05.02.05.07v.68s-.01.06-.03.08-.04.03-.06.03c-.05,0-.07-.04-.07-.11,0-.06-.01-.12-.01-.19s-.03-.13-.08-.19c-.04-.04-.08-.07-.13-.11s-.13-.05-.22-.05h-.2l-.78,2.94c-.02.08-.03.15-.03.19,0,.05,0,.1.02.14s.05.07.12.07c.03,0,.05,0,.06.03s.02.03.02.05c0,.05-.03.07-.08.07h-1.08s-.07-.02-.07-.07.02-.07.07-.07h.07c.06,0,.11-.02.16-.07s.1-.15.14-.31l.77-2.96h-.3ZM28.65,6.21c.09,0,.18.01.25.04s.15.05.22.07.13.05.2.07.13.04.2.04c.04,0,.07,0,.09-.02s.05-.02.07-.02c.06,0,.08.02.08.07,0,.02,0,.05-.02.1l-.23.92c-.01.06-.04.1-.08.1-.04,0-.05-.03-.05-.08,0-.03,0-.06,0-.08s0-.06,0-.1c0-.15-.02-.28-.07-.39s-.11-.21-.19-.29-.16-.14-.25-.18-.18-.06-.25-.06c-.22,0-.41.08-.58.23s-.3.35-.41.59-.19.5-.25.78-.08.55-.08.8c0,.1,0,.21.03.33s.05.23.1.33.11.19.19.26.19.11.31.11c.16,0,.31-.04.44-.13s.25-.19.34-.31c.05-.06.09-.13.13-.21l.11-.21c.03-.06.06-.12.08-.16s.05-.06.09-.06.05.04.05.11c0,.16-.05.33-.15.49s-.21.3-.33.4c-.08.08-.18.14-.3.18s-.27.06-.45.06c-.21,0-.39-.05-.54-.14s-.27-.21-.36-.36-.17-.32-.21-.51-.07-.38-.07-.58c0-.27.05-.53.14-.79s.23-.49.39-.7.36-.37.6-.49.49-.19.76-.19ZM29.06,17.81c-.01-.08-.04-.16-.07-.24s-.08-.15-.14-.22c-.05-.05-.07-.09-.07-.13,0-.06.04-.1.11-.1.06,0,.11.02.15.07s.08.11.1.18.05.15.06.23.03.15.03.22h.23c.23,0,.42-.03.58-.09s.24-.17.24-.33c0-.13-.06-.25-.17-.35s-.26-.18-.42-.24-.34-.11-.53-.14-.35-.05-.48-.05c-.19,0-.39.02-.61.06s-.44.1-.67.18c.32.32.62.54.91.68s.54.22.76.26ZM31.46,6.52c-.08-.05-.16-.08-.23-.1s-.14-.03-.22-.03c-.14,0-.25.02-.32.06s-.13.07-.15.1c-.09.07-.17.15-.23.24s-.12.17-.16.25-.09.14-.12.2-.07.08-.1.08c-.08,0-.13-.05-.13-.14,0-.13.04-.25.12-.36s.18-.21.3-.3.25-.15.39-.2.28-.07.41-.07c.16,0,.31.02.45.07s.28.07.42.07c.11,0,.2,0,.25-.03s.1-.04.13-.06.05-.04.06-.06.03-.03.05-.03c0,0,.02,0,.03.02h.01s0,.05-.02.08l-.03.08-.77,3.03c-.02.08-.03.14-.03.18,0,.08.01.13.04.15s.05.04.08.04.05.01.08.02.04.02.04.05c0,.06-.03.08-.08.08h-1s-.07-.02-.07-.06c0-.01,0-.03.03-.05s.04-.03.08-.03c.08,0,.15-.04.19-.11s.07-.15.09-.23l.29-1.12h-1.05c-.08.12-.16.24-.23.36s-.13.24-.19.35-.1.21-.13.29-.05.14-.05.17c0,.09.01.16.04.2s.06.06.1.07.07.02.1.02.04.02.04.05c0,.06-.05.08-.14.08h-.93c-.06,0-.1-.02-.1-.06,0-.02.02-.04.05-.06s.07-.04.13-.07.11-.08.17-.13.12-.13.17-.23c.23-.39.44-.74.65-1.05s.39-.56.56-.77c.14-.18.29-.36.45-.54s.33-.34.52-.5ZM34.11,15.56c.05.1.1.2.16.29s.13.19.21.27c.12.12.27.22.44.31s.4.13.67.13c.18,0,.35-.04.51-.13s.31-.21.43-.35c.07-.09.12-.17.14-.24s.04-.13.06-.19c.01-.06.04-.13.09-.21s.11-.12.2-.12c.09,0,.14.08.14.24,0,.09-.04.21-.12.34s-.2.27-.35.4-.34.23-.56.32-.46.13-.74.13c-.08,0-.22-.01-.42-.03s-.41-.09-.64-.22-.44-.32-.65-.59-.35-.65-.43-1.14c-.06-.39-.14-.67-.23-.83s-.22-.24-.41-.24h-.18l-.35,1.35c-.01.06-.02.11-.02.17,0,.05.02.09.06.13s.09.06.14.06.08.02.08.07c0,.04-.03.06-.1.06h-1.14s-.03,0-.06-.01-.04-.02-.04-.05.01-.05.04-.06.04-.02.06-.02c.1,0,.18-.02.25-.06s.13-.16.17-.34l.66-2.65c.01-.06.02-.1.02-.13,0-.08-.02-.14-.06-.17s-.09-.06-.15-.06c-.1,0-.2.03-.3.1s-.17.16-.2.29l-.61,2.28c-.08.27-.21.49-.4.66s-.43.26-.72.26c-.11,0-.23-.01-.34-.04s-.21-.07-.3-.13-.16-.14-.21-.23-.08-.21-.08-.33c0-.09.01-.18.03-.26l.63-2.45s0-.07,0-.09-.03-.03-.05-.04-.04-.01-.06-.02-.03-.02-.03-.04c0-.04.02-.06.07-.06h.86c.06,0,.08.02.06.06,0,.02-.02.03-.04.04s-.05.01-.07.02-.06.03-.08.06-.05.08-.07.15l-.62,2.37c-.02.08-.03.17-.03.26,0,.06,0,.11.02.17s.03.11.07.16.09.09.15.12.16.05.27.05c.03,0,.07,0,.14-.02s.13-.04.2-.08.13-.11.2-.2.12-.21.16-.36l.61-2.33s.01-.06.01-.11c0-.07-.01-.12-.04-.16s-.06-.06-.1-.08-.07-.04-.1-.05-.04-.03-.04-.05c0-.03.02-.04.07-.04h2.32c.12,0,.24.02.35.05s.22.09.32.15.17.15.23.26.08.23.08.36c0,.15-.04.28-.11.4s-.16.22-.28.3-.25.15-.4.2-.3.09-.44.11c.11.06.21.12.28.19s.14.15.2.26.12.24.17.41.12.37.2.62l.04.13.04.13s.07-.02.12-.05.08-.09.11-.19l.74-2.77c.01-.06.02-.1.02-.13,0-.08-.02-.14-.05-.17s-.07-.07-.11-.08-.08-.03-.11-.04-.05-.03-.05-.06c0-.04.03-.05.1-.05h2.07s.05.02.05.05l.12.76s-.02.06-.07.06c-.04,0-.06-.01-.06-.03-.02-.08-.06-.16-.12-.23s-.12-.15-.2-.21-.16-.11-.24-.15-.17-.06-.26-.06h-.38l-.4,1.4h.56c.07,0,.13-.01.17-.04s.09-.05.12-.08c.08-.06.13-.13.15-.2s.06-.11.1-.11c0,0,.01,0,.02,0s.01.02.01.06c0,.01,0,.03,0,.05s0,.05-.02.08l-.19.9c-.01.06-.04.1-.06.1-.04,0-.05-.02-.06-.07s-.01-.09-.03-.13c-.03-.08-.07-.17-.13-.26s-.14-.13-.25-.13h-.45l-.44,1.72h.62c.24,0,.44-.07.6-.2s.28-.26.36-.38c.06-.09.1-.14.14-.14s.05.02.05.07c0,.02,0,.05-.01.07s-.02.07-.05.12l-.29.53c-.04.07-.08.11-.14.11h-2.01ZM31.75,6.62c-.15.06-.29.16-.42.28s-.26.25-.38.39-.22.29-.32.43-.17.29-.24.42h.95l.4-1.52ZM33.46,6.24c.06.06.14.17.24.35s.19.39.29.64l.55,1.41.51-1.94s.01-.07.01-.12c0-.06-.01-.11-.04-.13s-.06-.04-.1-.06-.07-.02-.1-.03-.04-.03-.04-.06c0-.05.03-.07.08-.07h.83s.06.02.06.05c0,.03-.02.05-.06.06s-.08.03-.14.05-.11.05-.16.1-.09.12-.11.22l-.59,2.25c.11.24.24.48.39.72s.33.45.53.65.42.35.66.47.5.18.77.18c.11,0,.23-.02.35-.05s.24-.08.34-.14.19-.14.25-.24.1-.21.1-.33c0-.07-.01-.13-.03-.19s-.04-.12-.06-.2c-.01-.04-.03-.08-.04-.12s-.02-.11-.02-.19c0-.06.01-.11.04-.15s.06-.06.11-.06c.07,0,.13.02.17.06s.08.1.1.16.04.13.05.2.01.12.01.16c0,.3-.06.53-.19.7s-.27.3-.44.38-.33.14-.5.16-.29.03-.36.03c-.41,0-.77-.07-1.08-.22s-.58-.32-.8-.53-.41-.43-.56-.67-.26-.43-.35-.6c-.04-.06-.09-.19-.17-.39s-.17-.41-.26-.65-.19-.46-.27-.67-.14-.37-.18-.47c-.01-.04-.02-.05-.03-.05-.01,0-.03.05-.05.15l-.59,2.37s-.02.06-.02.08v.05c0,.09.02.15.05.19s.07.05.1.05c.03,0,.06,0,.08.02s.04.02.04.04,0,.03-.03.06-.04.04-.06.04h-.78c-.06,0-.08-.02-.08-.06,0-.01.01-.03.03-.05s.06-.03.12-.03c.06,0,.12-.02.16-.05s.09-.11.12-.23l.71-2.72s.01-.04.01-.07v-.08c0-.07-.02-.12-.07-.16s-.1-.06-.15-.08-.1-.04-.14-.05-.06-.03-.06-.05c0-.04.05-.06.14-.06h.73ZM32.89,13.46c.11,0,.21-.02.32-.06s.2-.09.29-.16.15-.15.21-.24.08-.2.08-.32c0-.19-.06-.35-.17-.48s-.27-.19-.48-.19h-.23l-.41,1.45h.4Z"/>
</svg>