<?xml version="1.0" encoding="UTF-8"?>
<svg id="Layer_1" data-name="Layer 1" xmlns="http://www.w3.org/2000/svg" viewBox="0 0 45.43 20.65">
  <defs>
    <style>
      .cls-1 {
        fill: #231f20;
      }
    </style>
  </defs>
  <path class="cls-1" d="M8.43,4.3v2.6c-.08-.17-.17-.33-.28-.49s-.24-.3-.38-.42-.29-.22-.45-.29-.32-.11-.49-.11h-3.27v3.65h4.46c.13,0,.25-.02.37-.07s.23-.11.33-.18.18-.16.25-.27.12-.21.15-.31v3.21c-.02-.13-.06-.26-.13-.39s-.16-.25-.27-.35-.22-.19-.34-.25-.24-.09-.36-.09H3.56v4.45c0,.35.1.65.29.91s.47.41.83.47H.45c.15-.05.29-.12.42-.2s.25-.19.35-.31.18-.25.24-.39.09-.3.09-.46V5.71c0-.17-.03-.34-.1-.49s-.16-.28-.27-.4-.23-.22-.38-.31-.29-.16-.43-.21h8.04ZM12.83,5.63c.32,0,.64.05.96.15s.6.25.86.44.46.42.62.7.24.6.24.95c0,.24-.04.47-.12.7s-.19.43-.33.62-.3.35-.5.5-.4.26-.62.34l1.62,1.79,3.22-6.58,4.1,8.21c.08-.06.12-.14.13-.24s.02-.21.02-.32v-7.62l6.26,5.81v-4.4c0-.23-.07-.44-.22-.62s-.32-.32-.52-.41h2.67c-.21.08-.38.21-.53.39s-.22.39-.22.62v7.87l-6.25-5.78v4.36c0,.26.08.49.25.67s.37.32.6.4h-4.63c.15-.05.28-.13.4-.23s.18-.23.18-.41c0-.11-.03-.22-.09-.34l-.84-1.9h-3.05l-.67,1.47,1.62,1.75c.28.3.58.57.92.79s.69.41,1.06.57h-2.81l-1.48-1.7h-1.65c.19-.1.36-.23.51-.38s.25-.33.3-.55l-2.68-3.02h-.89v3.16c0,.09.02.17.06.25s.09.16.16.22.14.13.22.18.16.1.23.13h-2.94c.07-.03.15-.08.24-.13s.17-.12.25-.18.14-.14.19-.22.08-.16.08-.26v-6.79c0-.23-.07-.43-.22-.6s-.33-.3-.53-.37h3.84ZM11.26,9.21h1.49c.16,0,.31-.04.45-.11s.26-.18.36-.3.18-.26.23-.41.08-.3.08-.46c0-.17-.03-.34-.1-.5s-.15-.3-.27-.42-.25-.21-.4-.29-.32-.11-.5-.11h-1.35v2.59ZM17.53,10.23h2.07l-1.02-2.32-1.05,2.32ZM38.53,13.75c-.46.18-.94.34-1.42.47s-.99.2-1.5.2c-.49,0-.94-.06-1.36-.18s-.8-.28-1.14-.49-.65-.45-.91-.73-.49-.57-.67-.89-.32-.64-.41-.97-.14-.66-.14-.98c0-.65.1-1.27.3-1.84s.49-1.07.86-1.5.84-.76,1.38-1,1.16-.37,1.86-.37c.2,0,.4.01.62.04s.42.06.61.1.35.08.49.12.23.07.28.09c.16.07.32.07.49.03s.31-.13.44-.26l.24,2.51c-.18-.22-.39-.43-.62-.61s-.48-.34-.74-.47-.54-.23-.84-.31-.6-.11-.91-.11c-.36,0-.68.05-.95.15s-.52.24-.73.42-.39.38-.53.6-.26.47-.35.72-.15.51-.19.77-.06.51-.06.74c0,.41.07.81.2,1.2s.33.73.58,1.04.56.54.92.73.77.27,1.22.27c.32,0,.62-.03.91-.09s.56-.14.84-.24.54-.23.8-.38.53-.31.8-.49l-.36,1.69ZM38.67,14.25c.12-.06.23-.12.33-.17s.18-.11.25-.19.12-.16.16-.27.06-.23.06-.39v-6.46c0-.28-.07-.5-.22-.68s-.33-.32-.53-.42h5.73v2.06c-.14-.29-.32-.53-.53-.71s-.48-.28-.82-.28h-2.05v2.54h2.05c.15,0,.27-.02.38-.07s.2-.1.27-.17.14-.15.19-.24.1-.18.14-.28v2.62c-.06-.1-.12-.2-.18-.3s-.13-.18-.2-.25-.16-.13-.26-.18-.21-.07-.35-.07h-2.05v2.82h2.67c.15.01.29,0,.42-.05s.24-.11.35-.19.21-.18.3-.28.18-.21.26-.31l-.45,1.91h-5.92Z"/>
</svg>