<?xml version="1.0" encoding="UTF-8"?>
<svg id="Layer_1" data-name="Layer 1" xmlns="http://www.w3.org/2000/svg" viewBox="0 0 45.43 20.65">
  <defs>
    <style>
      .cls-1 {
        fill: #231f20;
      }
    </style>
  </defs>
  <path class="cls-1" d="M2.39,16.18c.08.07.2.14.36.23s.33.18.5.26.35.15.51.2.31.08.42.08c.11,0,.25-.01.45-.04s.4-.11.62-.24.45-.35.69-.64.45-.69.64-1.22.35-1.2.47-2,.18-1.8.18-2.97c0-.55-.02-1.03-.06-1.46s-.1-.8-.17-1.12-.16-.6-.27-.83-.22-.43-.35-.6-.29-.33-.46-.48-.35-.31-.52-.48-.31-.35-.42-.54-.17-.41-.17-.65.07-.45.22-.63.35-.27.61-.27c.11,0,.21.01.32.03s.2.06.28.12.15.13.2.22.07.2.07.33c0,.06-.01.12-.03.19s-.05.13-.1.2-.12.11-.2.15-.19.06-.31.06c-.08,0-.15,0-.2-.02.03.07.08.15.13.24s.12.16.21.24.19.13.32.18.29.07.49.07c.24,0,.44-.05.62-.16s.34-.24.48-.39.27-.31.38-.48.23-.31.34-.43c.11-.12.24-.28.4-.48s.36-.38.6-.56.52-.33.84-.46.7-.2,1.13-.2v1.7c-.24,0-.47.03-.7.09s-.44.15-.64.27-.35.28-.46.48-.18.44-.18.72c0,.23.05.52.15.86s.21.69.33,1.03.24.65.35.92.18.44.2.51c.08-.05.19-.1.34-.15s.29-.09.44-.13.29-.07.43-.09.23-.04.3-.04c-.12-.08-.25-.19-.37-.32s-.24-.27-.34-.43-.18-.33-.24-.51-.09-.36-.09-.54.04-.36.11-.54.17-.34.3-.49.27-.27.45-.36.35-.14.55-.14c.12,0,.25.02.39.06s.26.1.38.18.21.19.29.32.12.29.12.46c0,.11-.02.22-.05.33s-.08.2-.15.29c-.02-.03-.05-.08-.09-.13s-.07-.11-.12-.16-.11-.11-.18-.15-.15-.06-.24-.06c-.1,0-.18.02-.26.06s-.14.09-.19.16-.09.14-.12.21-.04.15-.04.23c0,.28.08.52.24.72s.35.38.59.54.48.3.74.41.49.22.7.32c.11-.21.22-.46.33-.74s.22-.57.31-.88.16-.61.23-.93.09-.61.09-.9-.07-.52-.21-.71-.32-.33-.53-.44-.46-.18-.72-.23-.52-.07-.78-.08l.02-1.75c.42,0,.84.08,1.25.23s.79.39,1.13.71c.28.26.51.53.71.8s.38.52.56.74.36.4.56.54.43.21.71.21.49-.04.65-.12.27-.18.35-.28c.09-.11.15-.25.17-.4-.04,0-.08.01-.11.01-.03,0-.07.01-.1.01h-.09s-.07,0-.13-.02-.12-.05-.19-.09-.12-.11-.17-.18-.07-.18-.07-.3.02-.23.07-.31.11-.16.18-.21.15-.1.24-.13.16-.04.24-.04.17.02.28.05.22.09.33.16.2.17.27.29.12.27.12.45-.02.31-.05.43-.1.24-.2.37-.25.29-.44.48-.45.44-.76.76c-.16.16-.31.34-.43.54s-.23.45-.32.76-.16.7-.2,1.17-.07,1.04-.07,1.73c0,.46.01.95.04,1.48s.08,1.05.16,1.58.18,1.02.32,1.51.31.91.53,1.28.48.67.78.89.67.34,1.08.34c.35,0,.7-.07,1.04-.2s.64-.31.9-.55l.88,1.77c-.29.33-.65.57-1.08.73s-.85.24-1.28.24c-.39,0-.73-.05-1.02-.15s-.55-.24-.77-.41-.43-.37-.62-.6-.38-.47-.58-.72c-.2-.25-.38-.48-.53-.7s-.31-.4-.46-.55-.34-.28-.54-.37-.46-.13-.77-.13c-.13,0-.26,0-.38.01s-.25.02-.38.04l-.1-.53c.2-.11.38-.23.52-.36s.26-.3.35-.49.16-.44.21-.73.07-.65.07-1.07c0-.68-.12-1.26-.35-1.73s-.5-.82-.8-1.07l-.35.98c.11.11.21.25.31.4s.19.31.27.49.14.35.18.53.07.35.07.53c0,.1-.02.26-.05.49s-.13.47-.27.74-.36.53-.65.79-.69.48-1.19.65l-.39,1.91h-1.28l-.57-2c-.46-.2-.86-.46-1.21-.77-.15-.13-.29-.28-.44-.45s-.27-.35-.38-.55-.2-.42-.27-.65-.1-.49-.1-.76c0-.38.04-.76.12-1.14s.22-.74.4-1.08l-1.05-2.55c0,.54-.02,1.08-.07,1.62s-.07,1.12-.07,1.72c0,.31.01.67.04,1.07s.05.8.09,1.18.07.72.11,1.01.08.48.12.57c.05.11.12.2.21.29s.19.16.29.22.21.11.32.15.21.06.3.07l-.15.57c-.09-.03-.22-.06-.39-.09s-.33-.04-.46-.04c-.11,0-.23.03-.34.09s-.23.15-.35.27-.26.3-.4.51-.31.48-.48.8-.37.59-.6.83-.47.43-.72.59-.51.28-.76.36-.49.12-.71.12c-.43,0-.86-.09-1.28-.28s-.81-.4-1.17-.62l.81-1.87ZM9.24,11.65c0,.55.16,1.05.45,1.48s.68.79,1.15,1.08l-1.36-3.75c-.07.15-.12.33-.17.56s-.07.44-.07.64ZM12.64,13.82l.86-2.41c-.07-.02-.14-.05-.21-.07s-.15-.03-.24-.03c-.07,0-.16.01-.26.03s-.18.05-.24.09l-.45-1.65c.06-.02.15-.05.29-.08s.28-.04.42-.04c.09,0,.19.01.31.04s.23.05.34.09.22.07.32.11.18.07.23.1l.34-1.08c-.09-.08-.21-.16-.37-.23s-.32-.13-.5-.18-.36-.09-.53-.11-.32-.04-.45-.04c-.27,0-.55.03-.83.1s-.54.18-.77.34l1.75,5.01ZM13.45,14.32c.14-.06.27-.14.41-.25s.25-.24.36-.39.19-.32.26-.5.1-.38.1-.58c0-.15-.04-.3-.13-.45s-.19-.27-.29-.38l-.7,2.55ZM15.87,7.02l-.65,1.75s.07.07.13.14.13.14.2.21.13.15.18.22.09.13.1.16l.02-2.48ZM21.62,15.07c-.24,0-.47-.02-.7-.05s-.45-.12-.67-.24-.42-.3-.6-.53-.34-.54-.48-.92-.24-.86-.32-1.42-.12-1.23-.12-2.02c0-.55.03-1.02.09-1.44s.14-.77.24-1.07.22-.56.35-.76.27-.38.42-.51c.19-.16.41-.29.65-.37s.57-.13.96-.13c.28,0,.55.04.81.11s.5.22.73.43c.13.12.25.27.37.45s.22.4.31.65.16.55.21.89.08.73.08,1.17c0,.07,0,.12,0,.18s-.01.1-.02.14c0,.05-.02.09-.02.13-.26.02-.51.06-.76.11-.21.04-.43.1-.65.16s-.41.16-.57.27c-.07.05-.14.11-.24.18s-.19.15-.27.24-.17.18-.23.28-.1.2-.1.3c0,.03,0,.06.01.07.08-.03.18-.05.28-.05.04,0,.09,0,.15.02s.12.04.17.09.1.1.14.16.06.16.06.27c0,.21-.08.37-.23.49s-.3.17-.45.17c-.15,0-.3-.04-.43-.12s-.26-.24-.4-.49c.02.14.04.31.08.51s.1.39.18.58.2.35.35.48.34.2.59.2.43-.05.57-.15.26-.24.34-.4.13-.36.16-.57.04-.43.04-.66c0-.11-.01-.22-.04-.34s-.06-.24-.1-.35-.08-.21-.12-.29-.06-.13-.07-.15v-.02c0-.07.03-.1.1-.1.02,0,.12.03.29.09s.35.17.54.33.37.38.53.65.24.64.24,1.08c0,.33-.06.64-.18.92s-.29.51-.5.71-.48.35-.78.46-.65.16-1.02.16ZM21.42,9.93c.23-.15.41-.32.54-.49s.24-.34.31-.51.12-.33.14-.48.03-.28.03-.38c0-.1-.02-.21-.07-.34s-.11-.25-.2-.36-.19-.2-.32-.28-.27-.12-.42-.12c-.24,0-.44.1-.59.3s-.27.45-.35.75-.14.62-.16.98-.04.69-.04,1.01c0,.21,0,.43.01.67s.02.43.04.58c.05-.26.16-.49.35-.7s.43-.41.73-.62ZM23.12,15.85c.34-.42.64-.81.88-1.17s.47-.73.68-1.11.43-.8.64-1.26.47-.99.78-1.6c.02-.02.03-.06.05-.1s.02-.07.02-.09-.02-.03-.05-.04-.12-.01-.24-.01c-.13,0-.33,0-.59.02s-.62.06-1.08.12c0-.02.02-.09.05-.18s.05-.2.09-.31.07-.21.1-.31.07-.14.09-.15h.1c.07,0,.16,0,.3.01s.27.02.42.03.29.03.43.04.25.03.33.04c-.08-.2-.19-.47-.32-.8s-.27-.66-.41-.99-.27-.63-.4-.89-.23-.43-.3-.5c-.08-.09-.19-.17-.34-.24s-.25-.12-.34-.13v-.46h2.96v.46c-.07.03-.17.09-.28.18s-.17.18-.17.27c0,.07.03.21.1.42s.15.42.24.64c.1.26.22.54.35.84.12-.27.23-.53.32-.77.08-.21.16-.42.23-.63s.1-.37.1-.48c0-.14-.04-.25-.13-.34s-.2-.14-.34-.16v-.44h4.73c0,.15-.01.35-.02.59s-.01.49-.02.78-.02.57-.02.86-.02.56-.02.82-.01.49-.02.69,0,.35,0,.45v1.6c0,.29,0,.58,0,.87s.01.57.02.81.03.45.05.62.06.28.1.32c.09.09.18.16.28.21s.19.09.28.11c.1.03.2.05.31.05v.5h-5.75v-.48c.16,0,.3-.06.41-.17s.16-.26.16-.43c0-.11-.03-.26-.09-.46s-.13-.41-.21-.62-.16-.41-.24-.6-.15-.33-.2-.43c-.12.24-.27.54-.43.89s-.34.72-.53,1.11-.38.79-.59,1.19-.4.77-.6,1.11-.38.64-.56.9-.33.44-.46.55l-.86-1.77ZM28.25,9.54s-.03.07-.05.1-.02.06-.02.08c0,.03.01.05.04.06,0,0,.02.01.04.01.27-.02.51-.05.72-.09.19-.02.36-.03.53-.05s.26-.03.31-.03c.05,0,.08.01.09.04s.01.04.01.06c0,.11-.03.23-.09.37s-.11.26-.15.35c-.02.03-.03.07-.05.1s-.05.04-.08.04c-.06,0-.13-.02-.21-.04s-.18-.03-.27-.04-.19-.02-.27-.03-.16-.01-.22-.01c-.07,0-.15.01-.23.03s-.13.06-.15.12c.04.12.11.3.21.54s.21.5.34.78.26.58.41.87.29.57.43.81.27.44.39.59.22.23.31.23c.1,0,.17-.08.21-.24s.07-.31.07-.46v-3.53c0-.17,0-.39-.01-.66s-.02-.54-.03-.82-.02-.54-.03-.78-.01-.42-.01-.53c0-.11,0-.22,0-.35s-.02-.25-.05-.36-.08-.2-.14-.27-.15-.11-.27-.11c-.07,0-.13.02-.18.07s-.11.1-.16.16-.09.13-.12.2-.06.13-.09.18l-1.17,2.64ZM31.28,3.22c.13,0,.25.03.35.1s.2.15.27.26.14.22.18.34.07.25.07.37c0,.13-.02.26-.06.39s-.1.25-.18.36-.17.2-.29.27-.25.1-.4.1c-.14,0-.26-.03-.38-.1s-.21-.15-.29-.26-.14-.23-.18-.36-.06-.26-.06-.4c0-.28.09-.53.26-.75s.4-.33.7-.33ZM35.03,11.67c0-.21.05-.44.14-.68s.2-.46.31-.65c.1-.15.21-.34.35-.56s.26-.44.38-.67.22-.46.3-.68.12-.43.12-.62c0-.21-.08-.38-.23-.52s-.34-.2-.56-.2c-.16,0-.32.06-.48.18s-.29.31-.4.57-.21.6-.27,1.01-.1.91-.1,1.5.04,1.09.11,1.51.17.77.3,1.04.27.47.43.6.33.2.51.2c.37,0,.63-.15.78-.44s.23-.67.23-1.14c0-.18-.02-.33-.05-.46s-.08-.24-.12-.34-.09-.18-.12-.26-.05-.15-.05-.23c0-.04.02-.07.07-.1,0,0,.09.03.26.1s.34.18.53.35.36.39.51.67.23.64.23,1.08-.09.81-.26,1.1-.38.51-.62.68-.5.28-.78.34-.52.09-.73.09c-.42,0-.8-.1-1.15-.31s-.65-.51-.9-.93-.45-.93-.59-1.55-.21-1.34-.21-2.17.09-1.53.26-2.1.39-1.02.65-1.37.54-.6.84-.75.58-.23.84-.23.47.01.67.03.36.04.51.07.28.05.4.07.23.03.34.03c.21,0,.37-.04.47-.12s.18-.12.23-.12c.07,0,.11.03.15.09s.05.12.05.2c0,.32-.06.64-.18.95s-.25.64-.4.98c-.15.36-.35.71-.57,1.04s-.45.65-.65.95-.39.56-.54.79-.23.42-.23.57c0,.08.04.12.12.12.13,0,.27.03.42.09s.23.18.23.36c0,.07-.01.15-.04.23s-.06.16-.12.23-.12.13-.21.18-.19.07-.31.07c-.22,0-.41-.09-.57-.27s-.24-.38-.24-.6ZM41.02,5.71c.42,0,.8.08,1.14.23s.64.41.89.78.44.86.58,1.48.21,1.41.21,2.35-.08,1.72-.24,2.32-.37,1.08-.64,1.42-.57.58-.91.71-.7.2-1.06.2c-.11,0-.25-.01-.42-.03s-.36-.07-.56-.16-.4-.22-.6-.4-.39-.43-.56-.75-.3-.71-.41-1.19-.16-1.06-.16-1.74c0-1.15.08-2.07.24-2.75s.37-1.22.63-1.58.55-.61.88-.72.66-.17.99-.17ZM39.83,9.62c0,.07.02.1.06.1.02,0,.05-.05.09-.14s.1-.18.2-.26c.1-.09.21-.16.34-.23s.28-.09.44-.09c.08,0,.16.02.25.05s.16.08.24.14.13.14.18.23.07.19.07.31c0,.25-.07.44-.2.57s-.28.19-.45.19c-.09,0-.16-.02-.23-.05s-.11-.08-.16-.12-.08-.09-.12-.12-.07-.05-.1-.05-.08.03-.14.09-.12.15-.18.26-.11.24-.16.39-.07.32-.07.51c0,.3.01.6.04.89s.09.55.17.77.2.41.35.54.35.21.6.21.44-.08.59-.24.26-.39.34-.69.13-.67.16-1.11.04-.94.04-1.49c0-1.1-.1-1.89-.31-2.36s-.48-.71-.84-.71c-.2,0-.38.06-.52.18s-.26.27-.35.45-.16.37-.21.58-.09.4-.11.59-.04.34-.04.46,0,.19,0,.2Z"/>
</svg>