<?xml version="1.0" encoding="UTF-8"?>
<svg id="Layer_1" data-name="Layer 1" xmlns="http://www.w3.org/2000/svg" viewBox="0 0 45.43 20.65">
  <defs>
    <style>
      .cls-1 {
        fill: #231f20;
      }
    </style>
  </defs>
  <path class="cls-1" d="M3.95,7.08c.03.07.05.14.08.2s.07.13.12.21.11.17.19.28.18.24.31.4l2.95,3.72v-2.95c0-.3-.01-.55-.02-.74s-.02-.36-.04-.5-.03-.25-.06-.35-.05-.19-.08-.28h1.26c-.03.08-.05.17-.07.26s-.04.19-.05.3-.03.23-.04.36-.01.29-.01.46v3.49c0,.25,0,.46.02.64s.03.32.05.45.04.23.07.31.05.16.08.22h-1.2c-.06-.17-.13-.33-.23-.49s-.2-.3-.32-.44l-2.77-3.53v2.56c0,.14,0,.3.01.47s.02.33.04.5.05.33.08.5.08.31.12.44h-1.38c.05-.17.09-.35.12-.54s.05-.36.07-.53.03-.31.03-.43,0-.2,0-.23v-3.9c-.15-.19-.29-.35-.41-.47-.06-.06-.13-.12-.21-.19s-.16-.14-.26-.21h1.55ZM9.82,10.25c0-.24.04-.49.11-.74s.17-.5.31-.74.31-.46.51-.67.44-.4.7-.56.56-.29.88-.38.67-.14,1.05-.14c.54,0,1.01.09,1.41.28s.74.43,1.01.74.47.66.61,1.05.2.79.2,1.21c0,.51-.09.97-.27,1.38s-.43.76-.74,1.05-.67.51-1.08.66-.85.23-1.31.23c-.35,0-.68-.04-.98-.13s-.58-.21-.83-.37-.48-.34-.67-.56-.36-.45-.5-.7-.24-.51-.31-.79-.11-.55-.11-.83ZM10.91,10.1c0,.44.08.84.23,1.18s.35.64.6.88.52.43.83.55.61.19.92.19c.36,0,.67-.08.94-.24s.49-.35.67-.58.31-.48.39-.76.13-.55.13-.81c0-.34-.06-.67-.19-1.01s-.3-.64-.52-.91-.49-.49-.81-.66-.66-.25-1.04-.25c-.32,0-.62.07-.88.2s-.49.31-.68.53-.33.48-.43.76-.15.59-.15.9ZM18,8.44c0-.38-.03-.67-.06-.87s-.07-.36-.11-.47h1.26c.42-.02.78.03,1.09.14s.57.25.77.43.36.38.45.61.15.44.15.66c0,.26-.06.5-.16.7s-.22.37-.35.51-.27.25-.4.34-.24.15-.32.19c.3.52.63,1.01,1,1.49s.75.95,1.15,1.41h-.89c-.22-.18-.42-.36-.59-.53s-.36-.36-.54-.58-.4-.48-.63-.78-.52-.67-.86-1.12v1.6c0,.13,0,.24,0,.34s0,.2.02.3.03.21.06.33.06.27.11.44h-1.32c.07-.31.11-.6.13-.86s.04-.54.04-.81v-3.45ZM18.95,10.47c.16-.04.33-.1.52-.16s.36-.15.52-.26.3-.25.41-.41.16-.37.16-.62c0-.12-.02-.26-.07-.4s-.13-.29-.25-.42-.28-.26-.49-.36-.48-.17-.81-.21v2.84ZM24.19,7.08s0,.09-.02.16-.02.14-.02.2c0,.07.02.17.03.28s.04.23.07.36.05.25.08.36.06.22.08.3l.78,2.99,1.58-4.62h.06l1.55,4.62.84-3.12c.02-.09.04-.19.07-.29s.05-.2.07-.31c.03-.11.04-.22.06-.32s.02-.19.02-.28l-.02-.32,1.26.03c-.05.11-.09.21-.12.29s-.06.15-.09.23-.05.15-.07.23-.05.18-.07.29l-1.49,5.46h-.77l-1.28-3.8-1.28,3.8h-.78l-1.28-4.87s-.03-.13-.07-.25-.08-.26-.13-.42-.11-.33-.17-.5-.13-.34-.2-.5h1.3ZM36.54,11.79c.11.25.22.47.32.66s.19.35.27.48.16.26.23.36.14.19.2.27h-1.54c0-.13-.01-.29-.05-.46s-.11-.4-.23-.66l-.37-.88h-2.28l-.33.7c-.06.12-.14.31-.22.56-.08.24-.11.49-.11.76h-1.58c.05-.06.11-.13.16-.2s.12-.16.19-.27.15-.25.25-.42.21-.39.35-.66l2.51-4.97h.05l2.2,4.75ZM33.45,10.79h1.57l-.76-1.74-.82,1.74ZM39.3,7.08c-.01.18,0,.35.07.51s.13.31.22.45l.9,1.6.89-1.57c.13-.23.22-.41.27-.56s.07-.29.06-.43h1.32c-.12.17-.23.32-.31.45s-.14.23-.18.28l-1.57,2.74v2.25s0,.06,0,.1.01.11.02.18c.01.14.06.3.15.49h-1.32c.03-.06.05-.12.07-.17s.04-.13.05-.21.03-.18.04-.3.01-.26.01-.43v-1.83l-1.45-2.59c-.08-.14-.15-.26-.21-.36s-.12-.18-.17-.25-.11-.13-.16-.18-.12-.11-.19-.16h1.48Z"/>
</svg>