<?xml version="1.0" encoding="UTF-8"?>
<svg id="Layer_1" data-name="Layer 1" xmlns="http://www.w3.org/2000/svg" viewBox="0 0 45.43 20.65">
  <defs>
    <style>
      .cls-1 {
        fill: #231f20;
      }
    </style>
  </defs>
  <path class="cls-1" d="M4.68,12.32s-.09.01-.14.04-.11.06-.15.11-.09.1-.12.17-.05.14-.05.23.02.18.07.28.11.2.2.29.2.16.33.22.29.09.47.09c.27,0,.5-.06.7-.17s.36-.26.48-.44.22-.39.29-.62.11-.46.12-.7c-.21,0-.44,0-.68-.06s-.48-.13-.72-.23-.47-.24-.69-.39-.42-.33-.58-.54-.3-.42-.41-.67-.15-.51-.15-.79c0-.11.02-.25.07-.42s.13-.34.24-.51.26-.3.43-.42.39-.18.65-.18c.33,0,.6.07.8.21s.35.3.46.48.18.36.21.54.05.3.05.38c0,.07,0,.15-.02.23s-.04.16-.09.22c-.01-.02-.04-.05-.09-.09s-.1-.07-.15-.1-.12-.06-.19-.09-.14-.04-.21-.04-.14.01-.2.04-.13.07-.18.12-.1.11-.13.19-.05.15-.05.23c0,.17.04.34.11.51s.18.32.31.45.29.24.47.33.38.13.58.13.39-.03.54-.09.29-.13.43-.2.29-.14.46-.2.36-.09.6-.09.47.03.67.1.38.15.53.25.27.21.37.33.15.23.18.34c-.23.02-.42.09-.55.2s-.24.24-.3.38-.11.29-.13.43-.03.25-.03.34c0,.06,0,.14.03.24s.06.21.11.32.12.23.21.35.2.23.33.32.3.18.49.24.41.09.67.09c.28,0,.53-.06.75-.17s.4-.27.55-.45.26-.38.34-.6.12-.43.12-.64c0-.05,0-.12-.01-.22s-.04-.2-.1-.33-.14-.26-.26-.4-.29-.29-.51-.44-.5-.3-.84-.46-.76-.31-1.25-.45c-.59-.17-1.1-.35-1.52-.54s-.76-.41-1.02-.65-.46-.52-.58-.83-.18-.66-.18-1.06c0-.14.03-.3.08-.47s.13-.35.25-.54.25-.36.42-.54.36-.33.59-.47.49-.25.78-.33.62-.13.97-.13c.26,0,.5.02.72.05s.42.08.61.13.37.11.55.17.36.12.54.17.38.1.58.13.42.05.67.05c.1,0,.22-.02.35-.05s.25-.07.37-.12.23-.1.33-.16.18-.11.24-.15c.06.13.12.27.16.43s.07.33.07.52c0,.29-.04.55-.12.79s-.19.44-.33.61-.29.3-.48.39-.37.14-.56.14c-.26,0-.5-.05-.71-.15s-.41-.23-.59-.38-.36-.31-.52-.49-.33-.34-.51-.49-.35-.27-.54-.38-.39-.15-.61-.15c-.1,0-.2.02-.29.06s-.17.09-.24.14-.12.13-.16.21-.06.16-.06.25c0,.22.06.4.17.56s.27.28.47.39.42.2.69.28.54.15.83.22.59.14.89.21.6.16.88.26c.85.29,1.48.71,1.88,1.26s.61,1.26.61,2.13c0,.43-.09.87-.28,1.3s-.47.83-.84,1.18-.85.63-1.42.85-1.24.33-2.01.33c-.52,0-1-.06-1.45-.17s-.86-.27-1.22-.47-.69-.43-.96-.7-.5-.56-.68-.87c-.14.13-.3.25-.48.38s-.38.23-.58.33-.43.17-.67.23-.48.09-.72.09c-.37,0-.69-.05-.97-.16s-.5-.24-.68-.41-.31-.34-.4-.53-.13-.37-.13-.53c0-.12.03-.26.08-.42s.14-.32.25-.47.26-.28.45-.38.41-.16.67-.16c.17,0,.32.03.47.09s.27.14.38.24.2.2.27.32.12.23.14.34c-.03-.03-.08-.06-.13-.08s-.11-.03-.16-.03ZM15.61,14.48s-.08-.03-.11-.06-.05-.07-.06-.11-.02-.08-.02-.12,0-.07,0-.1c.14-.07.26-.18.36-.32s.18-.3.25-.48.11-.37.14-.59.04-.43.04-.65v-2.44c0-.12,0-.27-.03-.45s-.05-.36-.1-.55-.12-.35-.21-.51-.2-.28-.33-.35c-.01-.04-.02-.08,0-.13s.02-.09.04-.13.04-.08.07-.11.05-.06.07-.08c.17.08.37.15.59.22s.48.1.76.1c.18,0,.38-.02.61-.05s.47-.07.72-.11.49-.08.73-.11.46-.05.65-.05c.24,0,.5.04.79.12s.56.21.8.39.46.43.62.74.25.69.25,1.16c-.21,0-.42.03-.62.1s-.38.17-.54.3-.28.28-.38.47-.14.39-.14.62c0,.11.01.22.03.34s.05.2.08.26c-.08.03-.18.07-.3.1s-.24.04-.35.04c-.06,0-.16,0-.3,0s-.3-.01-.46-.02-.33-.01-.48-.02-.28-.01-.37-.02c-.01.17-.02.36,0,.56s.04.4.1.6.14.4.25.59.26.37.45.53c-.01.08-.05.15-.12.21s-.12.1-.16.12c-.09-.03-.21-.07-.35-.12s-.28-.08-.44-.12-.3-.07-.45-.1-.28-.04-.39-.04c-.16,0-.32,0-.49.02s-.32.04-.47.07-.29.07-.42.12-.24.1-.32.16ZM19.09,11.25c.28,0,.51-.15.69-.45s.26-.74.26-1.32c0-.12-.01-.27-.03-.43s-.06-.32-.13-.46-.15-.27-.26-.37-.25-.15-.42-.15-.31.05-.41.16-.19.23-.25.37-.1.29-.12.43-.03.27-.03.36v1.72c.18.1.42.16.71.16ZM21.35,12.23c-.09,0-.17-.05-.25-.12s-.14-.15-.19-.25-.09-.21-.12-.33-.04-.24-.04-.36c0-.19.03-.37.1-.53s.16-.29.28-.41.26-.2.42-.26.34-.09.54-.09c.08,0,.17,0,.28.02s.18.03.24.06c.03-.09.07-.19.11-.3s.08-.23.11-.36.06-.25.08-.38.03-.24.03-.35c0-.12-.03-.23-.08-.32s-.12-.18-.19-.25-.15-.13-.23-.18-.15-.08-.21-.11c0-.08.02-.16.06-.25s.1-.15.17-.19c.36.09.74.18,1.16.27s.86.14,1.32.14c.38,0,.73-.03,1.04-.08s.6-.13.87-.22c.05.02.11.07.17.13s.09.13.09.21c-.16.1-.27.24-.33.4s-.08.33-.08.5c0,.15.01.29.04.43s.04.25.05.33c0,.04.02.14.06.29s.07.32.13.53.11.44.18.7.14.51.22.77.16.52.24.77.16.48.25.68.16.37.23.51.14.22.2.26c.06-.04.12-.14.16-.3s.07-.35.09-.56.03-.44.04-.67.01-.45.01-.64v-2.2c0-.36-.03-.65-.09-.87s-.13-.41-.22-.54-.17-.23-.25-.29-.15-.1-.2-.12c0-.07.03-.14.09-.2s.12-.12.18-.14c.04.04.12.09.23.14s.26.09.42.12.34.06.54.09.39.03.58.03c.13,0,.27,0,.42-.03s.28-.04.42-.07.27-.06.4-.1.24-.08.34-.12c.04.02.08.06.13.11s.07.11.07.17c-.15.09-.26.22-.35.38s-.14.35-.19.55-.07.42-.08.64-.01.43-.01.63v1.82c0,.42.02.77.06,1.06s.1.53.16.71.14.33.23.44.17.18.26.23c0,.06-.02.13-.05.2s-.08.12-.14.15c-.24-.12-.5-.21-.78-.26s-.56-.09-.85-.09c-.32,0-.63.04-.92.11s-.55.16-.77.26c-.09-.03-.21-.07-.35-.11s-.3-.08-.47-.12-.33-.07-.49-.09-.3-.04-.41-.04c-.12,0-.26,0-.41.02s-.3.03-.45.06-.3.06-.44.1-.27.1-.38.16c-.07-.02-.13-.08-.18-.15s-.07-.15-.04-.22c.09-.04.18-.11.27-.19s.16-.18.22-.28.11-.21.14-.32.05-.22.05-.32,0-.2-.03-.31-.04-.21-.06-.3c-.02-.11-.05-.22-.08-.33-.07.12-.15.23-.25.33-.08.08-.19.16-.32.22s-.28.1-.45.1-.32-.02-.46-.06-.26-.08-.36-.13-.2-.1-.28-.16-.15-.1-.2-.13c0,.1-.02.2-.03.29,0,.08-.02.17-.02.27s0,.19,0,.27c0,.14.02.27.07.39s.11.22.18.3.16.16.25.22.19.1.29.13c0,.02,0,.06-.01.09s-.02.07-.04.11-.03.07-.06.1-.05.05-.08.06c-.05-.03-.14-.06-.25-.08s-.24-.04-.37-.06-.26-.03-.38-.03-.23-.01-.3-.01c-.09,0-.2,0-.31.02s-.22.03-.33.05-.21.04-.31.07-.18.05-.24.07c-.02-.01-.04-.04-.07-.07s-.06-.07-.09-.11-.05-.08-.07-.13-.02-.08-.01-.11c.11-.05.21-.12.31-.22s.19-.2.28-.32.17-.25.25-.38.14-.27.2-.4c.14-.31.27-.64.38-1.01-.03-.03-.06-.05-.1-.07-.03-.02-.07-.04-.12-.05s-.09-.02-.14-.02-.1.01-.14.04-.09.06-.12.09-.06.08-.08.12-.03.07-.03.1c0,.04,0,.09,0,.14s.01.09.03.14ZM24.06,11.24s.07.09.11.14.08.1.13.14.1.08.16.1.12.04.19.04c.05,0,.09-.01.13-.04s.07-.06.1-.09.04-.08.06-.12.02-.07.02-.1c0,0-.01-.07-.04-.2s-.06-.29-.11-.49-.1-.4-.16-.62-.13-.43-.19-.62-.13-.35-.2-.48-.13-.19-.19-.19c-.04,0-.09.02-.14.07s-.1.11-.14.18-.09.16-.14.26-.09.19-.13.29c-.09.24-.19.5-.28.8.03.02.09.08.17.16s.16.17.25.27.17.2.25.29.13.16.17.21ZM32.1,14.48c-.07-.02-.12-.07-.16-.14s-.06-.14-.08-.2c.14-.16.27-.32.38-.46s.2-.31.27-.52.13-.46.16-.77.05-.71.05-1.2v-1.07c0-.43-.02-.8-.07-1.09s-.11-.54-.17-.74-.15-.35-.23-.45-.17-.18-.25-.22c0-.06.03-.12.07-.17s.08-.1.12-.12c.22.12.48.22.77.3s.62.11.97.11c.28,0,.56-.03.86-.08s.57-.15.81-.29c.07.02.12.06.15.12s.05.11.06.16c-.06.07-.12.17-.18.3s-.09.26-.09.38c0,.19.05.37.16.55s.24.35.39.52.31.32.48.47.32.28.45.41c.06.06.14.14.22.22s.15.17.22.26.12.17.17.25.07.15.08.2v-1.02s0-.13-.01-.26-.02-.28-.05-.46-.06-.36-.11-.55-.11-.37-.19-.54-.17-.31-.29-.42-.24-.18-.39-.2c0-.08.02-.15.06-.22s.08-.12.13-.14c.16.09.34.16.56.2s.44.07.69.07c.21,0,.42-.02.63-.05s.41-.1.6-.19c.04.04.07.09.09.15s.03.12.03.18c-.11.07-.22.15-.34.24s-.22.22-.32.38-.17.38-.23.65-.09.61-.09,1.03v1.06c0,.59.05,1.09.14,1.49s.22.71.37.95.32.4.51.5.38.14.57.14c.16,0,.31-.03.43-.09s.22-.13.3-.22.14-.18.18-.29.06-.19.06-.27-.02-.16-.05-.25-.08-.17-.15-.25-.15-.14-.25-.18-.21-.07-.33-.06c.06-.09.14-.18.24-.27s.22-.16.35-.23.27-.12.41-.15.29-.06.44-.06.31.02.48.07.32.13.47.23.26.24.36.41.14.37.14.61c0,.27-.06.52-.17.74s-.26.41-.45.56-.41.28-.65.36-.5.13-.76.13c-.28,0-.57-.04-.85-.12s-.58-.17-.88-.26-.61-.18-.93-.26-.66-.12-1.01-.12c-.25,0-.47.02-.68.07s-.41.14-.61.28c-.07-.02-.13-.07-.19-.14s-.1-.15-.12-.23c.05-.01.11-.04.17-.07s.11-.08.16-.13.09-.11.12-.17.05-.13.05-.2c0-.08-.03-.16-.08-.26s-.13-.19-.21-.28-.18-.19-.29-.28-.21-.18-.31-.26-.19-.16-.28-.23-.15-.13-.19-.17c-.13-.13-.27-.29-.42-.46s-.3-.35-.43-.53-.26-.36-.38-.55-.19-.37-.24-.54c0,.13-.02.28-.03.45,0,.14-.02.31-.02.5s0,.4,0,.64.02.47.06.72.1.48.18.71.18.44.3.62.27.34.43.46c.02.06.01.12-.02.19s-.07.12-.11.15c-.16-.06-.35-.11-.55-.15s-.41-.06-.64-.06c-.14,0-.28.01-.4.04s-.23.05-.32.07c-.11.03-.21.07-.3.11Z"/>
</svg>