<?xml version="1.0" encoding="UTF-8"?>
<svg id="Layer_1" data-name="Layer 1" xmlns="http://www.w3.org/2000/svg" viewBox="0 0 640 640">
  <defs>
    <style>
      .cls-1 {
        fill: #fff;
      }
    </style>
  </defs>
  <path class="cls-1" d="M39.05,167.71c11.51-24.93,27.19-47.75,47.06-68.44,19.87-20.69,42.34-38.36,67.41-53.03,25.07-14.66,52-26.03,80.77-34.12,28.77-8.08,57.68-12.13,86.73-12.13s55.7,3.7,82.41,11.1,51.86,17.95,75.43,31.65c23.56,13.71,45.22,30.15,64.95,49.33,19.73,19.18,36.72,40.69,50.97,64.53,14.25,23.84,25.34,49.53,33.29,77.07,7.94,27.54,11.92,56.38,11.92,86.53s-3.84,57.62-11.51,84.88c-7.68,27.27-18.43,52.76-32.27,76.45-13.84,23.71-30.49,45.29-49.94,64.74-19.46,19.46-41.04,36.11-64.74,49.94-23.71,13.84-49.19,24.6-76.45,32.27-27.27,7.67-55.56,11.51-84.88,11.51s-59.19-4.05-87.14-12.13c-27.95-8.08-53.99-19.45-78.1-34.12-24.12-14.66-46.04-32.27-65.77-52.82-19.73-20.55-36.45-43.43-50.15-68.64h214.57c-9.32-6.58-17.95-14.11-25.9-22.61-7.95-8.49-15.07-17.4-21.37-26.72H16.03c-1.64-6.3-3.22-12.81-4.73-19.52-1.51-6.71-2.95-13.22-4.32-19.52h181.68c-3.02-7.4-5.34-15-6.99-22.81s-2.88-15.27-3.7-22.4H1.23c-.55-3.56-.89-6.71-1.03-9.45-.14-2.74-.21-5.75-.21-9.04,0-3.83.06-7.4.21-10.69.13-3.29.48-6.44,1.03-9.45h177.57c.82-16.17,4.11-31.1,9.87-44.8H6.99c1.37-6.85,2.81-13.56,4.32-20.14,1.5-6.58,3.35-13.01,5.55-19.32h190.31c6.02-9.31,12.95-17.94,20.76-25.9,7.81-7.94,16.09-15.34,24.87-22.2H39.05ZM321.03,38.23c-40.01,0-77.89,8.02-113.65,24.05-35.76,16.03-67.21,38.02-94.34,65.97h256.9c25.75,0,50.08,5.14,72.96,15.41,22.88,10.28,42.95,24.12,60.22,41.52,17.26,17.41,30.89,37.75,40.9,61.04,10,23.29,15,47.96,15,73.99s-5,50.63-15,73.78c-10.01,23.16-23.64,43.44-40.9,60.83-17.26,17.41-37.34,31.18-60.22,41.31-22.88,10.14-47.21,15.21-72.96,15.21H112.22c27.13,29.05,58.64,51.45,94.54,67.21,35.9,15.76,73.99,23.64,114.27,23.64,26.03,0,51.03-3.35,75.02-10.07,23.98-6.71,46.45-16.17,67.41-28.36,20.96-12.19,40.01-26.85,57.14-43.98,17.12-17.12,31.79-36.1,43.98-56.93,12.19-20.82,21.64-43.22,28.36-67.21,6.71-23.98,10.07-48.84,10.07-74.61s-3.36-51.03-10.07-75.02c-6.72-23.98-16.17-46.45-28.36-67.41-12.2-20.96-26.86-40.08-43.98-57.34-17.13-17.26-36.17-32.06-57.14-44.39s-43.44-21.85-67.41-28.57c-23.98-6.71-48.99-10.07-75.02-10.07ZM230.19,255.26c-3.56,6.85-6.51,13.91-8.84,21.17-2.33,7.26-3.9,15.14-4.73,23.64h62.07c.55-7.94,1.64-15.62,3.29-23.02s3.15-14.66,4.52-21.79h-56.31ZM286.5,383.92c-1.92-7.12-3.56-14.66-4.93-22.61-1.37-7.94-2.33-15.48-2.88-22.61h-62.07c.82,7.13,2.4,14.59,4.73,22.4,2.32,7.81,5,15.41,8.02,22.81h57.14ZM314.04,462.43c-2.2-4.38-5-10.48-8.43-18.29-3.43-7.81-6.51-14.86-9.25-21.17h-41.1c16.99,17.82,36.58,30.97,58.78,39.46ZM297.19,215.8c2.19-6.85,4.86-13.56,8.02-20.14,3.15-6.58,6.37-13.01,9.66-19.32-11.51,4.11-22.06,9.52-31.65,16.24-9.6,6.72-18.64,14.46-27.13,23.22h41.1ZM325.96,255.26c-2.47,6.85-4.25,14.05-5.34,21.58-1.1,7.54-2.06,15.28-2.88,23.22h102.35c-.82-16.44-3.29-31.37-7.4-44.8h-86.73ZM317.74,338.7c.55,7.13,1.37,14.59,2.47,22.4,1.09,7.81,2.74,15.41,4.93,22.81h87.55c2.19-7.4,3.83-15,4.93-22.81,1.09-7.81,1.91-15.27,2.47-22.4h-102.35ZM399.13,215.8c-3.29-8.49-7.4-16.71-12.33-24.66-4.93-7.94-10.55-15.89-16.85-23.84-6.85,7.95-12.74,15.9-17.68,23.84-4.93,7.95-9.45,16.17-13.56,24.66h60.42ZM338.7,422.97c3.83,8.5,8.22,16.85,13.15,25.07s10.96,16.31,18.09,24.25c11.51-15.89,20.96-32.33,28.36-49.33h-59.6ZM441.46,422.97c-3.02,6.31-6.03,12.88-9.04,19.73-3.02,6.85-6.44,13.43-10.28,19.73,23.29-9.31,42.61-22.47,57.96-39.46h-38.64ZM479.28,215.8c-7.68-8.49-15.97-15.89-24.87-22.2-8.91-6.3-19.11-11.51-30.62-15.62,3.29,5.49,6.37,11.45,9.25,17.88,2.88,6.44,5.68,13.09,8.43,19.94h37.82ZM518.74,300.06c-1.64-16.44-5.9-31.37-12.74-44.8h-53.85c3.29,14.53,5.34,29.46,6.17,44.8h60.42ZM458.32,338.7c-.55,7.13-1.3,14.59-2.26,22.4-.96,7.81-2.26,15.41-3.9,22.81h53.85c3.83-7.4,6.85-15,9.04-22.81,2.19-7.81,3.7-15.27,4.52-22.4h-61.25Z"/>
</svg>