<?xml version="1.0" encoding="UTF-8"?>
<svg id="Layer_1" data-name="Layer 1" xmlns="http://www.w3.org/2000/svg" viewBox="0 0 640 640">
  <defs>
    <style>
      .cls-1 {
        fill: #fff;
      }
    </style>
  </defs>
  <path class="cls-1" d="M7.81,320.41c0-28.77,3.7-56.45,11.1-83.03,7.4-26.58,17.88-51.45,31.45-74.61,13.57-23.15,29.87-44.25,48.92-63.3,19.04-19.05,40.08-35.35,63.1-48.92,23.02-13.56,47.81-24.05,74.4-31.45,26.58-7.4,54.26-11.1,83.03-11.1s56.45,3.7,83.03,11.1c26.58,7.4,51.44,17.88,74.61,31.45,23.15,13.57,44.25,29.87,63.3,48.92,19.04,19.05,35.35,40.15,48.92,63.3,13.56,23.16,24.05,48.03,31.45,74.61,7.4,26.58,11.1,54.26,11.1,83.03s-3.7,56.04-11.1,82.62c-7.4,26.58-17.88,51.45-31.45,74.61-13.57,23.16-29.87,44.18-48.92,63.1-19.05,18.91-40.08,35.14-63.1,48.71-23.02,13.57-47.68,24.05-73.99,31.45-26.31,7.4-53.58,11.1-81.8,11.1s-56.52-3.63-83.24-10.89c-26.72-7.26-51.73-17.61-75.02-31.03-23.29-13.42-44.46-29.53-63.5-48.3-19.05-18.77-35.42-39.67-49.12-62.69-13.71-23.02-24.32-47.89-31.85-74.6-7.54-26.72-11.31-54.73-11.31-84.06ZM448.04,325.34c0,9.6,1.71,18.44,5.14,26.51,3.42,8.09,8.15,15.21,14.18,21.37,6.02,6.17,13.15,10.96,21.37,14.39,8.22,3.43,17.12,5.14,26.72,5.14,12.06,0,23.22-2.67,33.5-8.02,10.28-5.34,18.56-12.67,24.87-21.99,3.56-5.48,6.16-11.51,7.81-18.09,1.65-6.58,2.47-14.65,2.47-24.25-.28-34.53-7.33-67.68-21.17-99.47-13.84-31.78-32.75-59.94-56.72-84.47-23.98-24.52-52.07-44.05-84.27-58.57-32.2-14.52-66.8-21.79-103.79-21.79-24.12,0-47.41,3.16-69.88,9.45-22.48,6.31-43.51,15.21-63.1,26.72-19.6,11.51-37.41,25.35-53.44,41.52-16.03,16.17-29.74,33.98-41.1,53.43-11.38,19.46-20.21,40.49-26.51,63.1-6.31,22.61-9.45,45.97-9.45,70.08,0,15.35,1.23,30.08,3.7,44.19,2.47,14.11,6.02,28.02,10.68,41.72v-6.99c0-32.88,6.23-63.71,18.71-92.49,12.47-28.77,29.39-53.98,50.76-75.63,21.37-21.64,46.51-38.71,75.43-51.17,28.91-12.47,59.81-18.7,92.69-18.7,24.93,0,48.84,3.97,71.73,11.92,22.88,7.95,43.78,19.05,62.69,33.3-18.64.28-36.25,4.05-52.82,11.3-16.59,7.26-31.11,17.06-43.57,29.39-12.47,12.33-22.34,26.79-29.6,43.37-7.26,16.58-10.89,34.32-10.89,53.23,0,13.16,1.65,25.49,4.93,36.99,1.92-17.53,6.92-33.84,15-48.92,8.08-15.06,18.29-28.16,30.62-39.25,12.33-11.1,26.51-19.79,42.54-26.1,16.03-6.3,32.95-9.45,50.77-9.45,6.85,0,13.57.55,20.14,1.65,6.58,1.1,13.01,2.61,19.32,4.52-11.79,5.49-21.31,13.71-28.57,24.66-7.26,10.96-10.89,23.43-10.89,37.4ZM257.73,344.66c0-26.58,5.34-51.72,16.03-75.43,10.69-23.7,25.49-44.05,44.39-61.04-2.47-.54-5.07-.82-7.81-.82h-8.22c-26.04,0-50.43,4.94-73.17,14.8-22.75,9.87-42.61,23.37-59.6,40.49-17,17.13-30.35,37.13-40.08,60.01-9.73,22.88-14.59,47.34-14.59,73.37s5,52.2,15,75.22c10,23.02,23.7,42.82,41.1,59.4,17.4,16.58,37.95,29.6,61.66,39.05,23.7,9.45,49.26,14.18,76.66,14.18,33.98,0,66.04-5.41,96.19-16.23,30.14-10.82,57.27-26.24,81.39-46.24-7.68,2.19-15.35,3.77-23.02,4.73-7.68.96-15.49,1.44-23.43,1.44-25.22,0-48.92-4.79-71.11-14.38-22.2-9.59-41.52-22.67-57.96-39.25-16.44-16.58-29.46-35.97-39.05-58.16-9.59-22.2-14.38-45.9-14.38-71.11ZM404.06,328.63v-7.81c0-2.73.27-5.48.82-8.22-14.8,7.13-26.79,17.81-35.97,32.06-9.18,14.25-13.77,30.01-13.77,47.27,0,12.33,2.32,23.84,6.99,34.53,4.66,10.69,11.1,20.01,19.32,27.95s17.81,14.25,28.77,18.91c10.96,4.66,22.75,6.99,35.35,6.99,22.2,0,42.34-4.65,60.43-13.98,18.08-9.31,33.56-21.78,46.45-37.4-12.89,4.93-26.45,7.4-40.69,7.4s-28.77-2.81-41.93-8.43c-13.16-5.61-24.6-13.29-34.32-23.02-9.73-9.72-17.41-21.1-23.02-34.12-5.62-13.01-8.43-27.06-8.43-42.13Z"/>
</svg>