<?xml version="1.0" encoding="UTF-8"?>
<svg id="Layer_1" data-name="Layer 1" xmlns="http://www.w3.org/2000/svg" viewBox="0 0 640 640">
  <defs>
    <style>
      .cls-1 {
        fill: #fff;
      }
    </style>
  </defs>
  <path class="cls-1" d="M319.58,0c29.63,0,58.09,3.85,85.35,11.53,27.26,7.69,52.77,18.45,76.54,32.29,23.76,13.84,45.36,30.48,64.8,49.91,19.43,19.44,36.07,41.04,49.91,64.8,13.84,23.77,24.6,49.35,32.29,76.75,7.69,27.41,11.53,55.78,11.53,85.14s-3.85,57.67-11.53,84.93c-7.69,27.26-18.45,52.71-32.29,76.33-13.84,23.63-30.48,45.16-49.91,64.59s-41.04,36.07-64.8,49.91c-23.77,13.84-49.35,24.61-76.75,32.29-27.41,7.69-55.78,11.53-85.14,11.53s-57.67-3.85-84.93-11.53-52.71-18.45-76.33-32.29c-23.63-13.84-45.16-30.47-64.59-49.91-19.44-19.43-36.07-40.96-49.91-64.59-13.84-23.62-24.61-49.07-32.29-76.33-7.69-27.26-11.53-55.57-11.53-84.93s3.84-57.73,11.53-85.14c7.69-27.4,18.45-52.98,32.29-76.75,13.84-23.76,30.47-45.36,49.91-64.8s40.96-36.07,64.59-49.91c23.62-13.84,49.07-24.6,76.33-32.29,27.26-7.69,55.57-11.53,84.93-11.53ZM319.58,624.48c27.96,0,54.94-3.63,80.94-10.9,26-7.27,50.33-17.54,72.98-30.83,22.65-13.28,43.26-29.15,61.86-47.6,18.59-18.45,34.46-38.93,47.6-61.44,13.14-22.5,23.34-46.69,30.62-72.56,7.27-25.86,10.9-52.77,10.9-80.73s-3.64-54.94-10.9-80.94c-7.27-26-17.48-50.33-30.62-72.98-13.15-22.65-29.01-43.26-47.6-61.86-18.6-18.59-39.21-34.46-61.86-47.6-22.65-13.14-46.97-23.34-72.98-30.62-26-7.27-52.99-10.9-80.94-10.9s-54.88,3.64-80.73,10.9c-25.87,7.27-50.05,17.48-72.56,30.62-22.51,13.15-42.99,29.01-61.44,47.6-18.45,18.6-34.33,39.21-47.6,61.86-13.28,22.65-23.56,46.97-30.83,72.98-7.27,26-10.9,52.99-10.9,80.94s3.63,54.88,10.9,80.73c7.27,25.87,17.54,50.05,30.83,72.56,13.28,22.51,29.15,42.99,47.6,61.44,18.45,18.45,38.93,34.33,61.44,47.6,22.5,13.28,46.69,23.56,72.56,30.83,25.86,7.27,52.77,10.9,80.73,10.9ZM319.58,37.75c26,0,51.02,3.36,75.07,10.07,24.04,6.71,46.55,16.22,67.52,28.52,20.97,12.31,40.05,27.05,57.25,44.25,17.2,17.2,31.94,36.28,44.25,57.25,12.3,20.97,21.81,43.48,28.52,67.52,6.71,24.05,10.07,49.07,10.07,75.07s-3.36,51.03-10.07,75.07c-6.71,24.05-16.22,46.55-28.52,67.52-12.31,20.97-27.05,39.99-44.25,57.04-17.2,17.06-36.28,31.66-57.25,43.83-20.97,12.16-43.48,21.6-67.52,28.31-24.05,6.71-49.07,10.07-75.07,10.07s-50.96-3.36-74.86-10.07c-23.91-6.71-46.28-16.15-67.1-28.31-20.83-12.16-39.84-26.77-57.04-43.83-17.2-17.05-31.87-36.07-44.04-57.04-12.16-20.97-21.6-43.47-28.31-67.52-6.71-24.04-10.07-49.07-10.07-75.07s3.36-51.02,10.07-75.07c6.71-24.04,16.15-46.55,28.31-67.52,12.16-20.97,26.84-40.05,44.04-57.25,17.2-17.2,36.21-31.94,57.04-44.25,20.83-12.3,43.2-21.81,67.1-28.52,23.91-6.71,48.86-10.07,74.86-10.07ZM319.58,584.22c24.6,0,48.16-3.15,70.67-9.44,22.5-6.29,43.62-15.16,63.33-26.63,19.71-11.46,37.6-25.16,53.68-41.1,16.07-15.94,29.78-33.69,41.1-53.26,11.32-19.57,20.13-40.61,26.42-63.12,6.29-22.5,9.44-45.92,9.44-70.25s-3.15-47.81-9.44-70.46c-6.29-22.65-15.1-43.75-26.42-63.33-11.32-19.57-25.03-37.39-41.1-53.47-16.08-16.07-33.97-29.84-53.68-41.31-19.71-11.46-40.83-20.34-63.33-26.63-22.51-6.29-46.07-9.44-70.67-9.44s-47.75,3.15-70.25,9.44c-22.51,6.29-43.48,15.17-62.91,26.63-19.44,11.47-37.19,25.24-53.26,41.31-16.08,16.08-29.78,33.91-41.1,53.47-11.32,19.57-20.13,40.68-26.42,63.33-6.29,22.65-9.44,46.13-9.44,70.46,0,36.63,6.85,70.95,20.55,102.96,13.7,32.02,32.5,59.91,56.41,83.67,23.91,23.77,51.8,42.57,83.67,56.41,31.87,13.84,66.12,20.76,102.75,20.76ZM319.58,77.17c33.83,0,65.49,6.36,94.99,19.08,29.5,12.73,55.22,30.06,77.17,52.01,21.95,21.95,39.28,47.67,52.01,77.17,12.72,29.5,19.08,61.17,19.08,94.99s-6.36,65.01-19.08,94.36c-12.73,29.36-30.06,55.09-52.01,77.17-21.95,22.09-47.67,39.5-77.17,52.21-29.5,12.73-61.17,19.08-94.99,19.08s-65.01-6.36-94.36-19.08c-29.36-12.72-55.09-30.12-77.17-52.21-22.09-22.08-39.5-47.81-52.21-77.17-12.73-29.36-19.08-60.81-19.08-94.36s6.36-65.49,19.08-94.99c12.72-29.5,30.12-55.22,52.21-77.17,22.08-21.95,47.81-39.28,77.17-52.01,29.36-12.72,60.81-19.08,94.36-19.08ZM319.58,539.34c30.2,0,58.72-5.73,85.56-17.2,26.84-11.46,50.18-27.12,70.04-46.97,19.85-19.85,35.58-43.05,47.18-69.62,11.6-26.56,17.4-54.94,17.4-85.14s-5.81-58.64-17.4-85.35c-11.61-26.7-27.33-50.05-47.18-70.04-19.86-19.99-43.2-35.71-70.04-47.18-26.84-11.46-55.36-17.2-85.56-17.2s-58.16,5.73-84.72,17.2c-26.57,11.47-49.77,27.2-69.62,47.18-19.86,19.99-35.58,43.34-47.18,70.04-11.61,26.7-17.4,55.15-17.4,85.35,0,20.13,2.65,39.5,7.97,58.09,5.31,18.6,12.72,36,22.23,52.21,9.5,16.22,20.97,30.97,34.39,44.25,13.42,13.28,28.24,24.74,44.46,34.39,16.21,9.65,33.55,17.06,52.01,22.23,18.45,5.18,37.75,7.76,57.88,7.76ZM319.58,116.59c28.24,0,54.73,5.39,79.48,16.15,24.74,10.77,46.34,25.37,64.8,43.83,18.45,18.45,32.99,40.05,43.62,64.8,10.62,24.74,15.94,51.1,15.94,79.06s-5.31,54.25-15.94,78.85c-10.63,24.61-25.16,46.07-43.62,64.38-18.45,18.32-40.05,32.79-64.8,43.41-24.74,10.63-51.24,15.94-79.48,15.94s-54.25-5.31-78.85-15.94c-24.61-10.62-46.07-25.09-64.38-43.41-18.32-18.31-32.79-39.77-43.41-64.38-10.63-24.6-15.94-50.88-15.94-78.85,0-18.73,2.44-36.76,7.34-54.1,4.89-17.33,11.74-33.55,20.55-48.65,8.81-15.1,19.36-28.87,31.66-41.31,12.3-12.44,25.93-23.07,40.89-31.87,14.95-8.81,31.04-15.66,48.23-20.55,17.2-4.89,35.16-7.34,53.89-7.34ZM319.58,491.95c23.76,0,46.13-4.54,67.1-13.63,20.97-9.08,39.21-21.39,54.73-36.91,15.52-15.52,27.75-33.69,36.7-54.52,8.94-20.83,13.42-42.99,13.42-66.47s-4.48-46.13-13.42-67.1c-8.95-20.97-21.18-39.21-36.7-54.73-15.52-15.52-33.76-27.75-54.73-36.7-20.97-8.94-43.34-13.42-67.1-13.42s-45.65,4.48-66.47,13.42c-20.83,8.95-39,21.18-54.52,36.7-15.52,15.52-27.82,33.76-36.91,54.73-9.09,20.97-13.63,43.34-13.63,67.1s4.54,45.65,13.63,66.47c9.08,20.83,21.39,39,36.91,54.52,15.52,15.52,33.69,27.82,54.52,36.91,20.83,9.09,42.99,13.63,66.47,13.63ZM319.58,156.44c22.65,0,43.96,4.27,63.96,12.79,19.99,8.53,37.39,20.2,52.21,35.02,14.82,14.82,26.49,32.23,35.02,52.21,8.53,19.99,12.79,41.31,12.79,63.96s-4.27,43.83-12.79,63.54c-8.53,19.71-20.2,36.98-35.02,51.8s-32.23,26.49-52.21,35.02c-19.99,8.53-41.31,12.79-63.96,12.79s-43.83-4.26-63.54-12.79c-19.71-8.53-36.98-20.2-51.8-35.02-14.82-14.82-26.49-32.08-35.02-51.8-8.53-19.71-12.79-40.89-12.79-63.54s4.26-43.96,12.79-63.96c8.53-19.99,20.2-37.39,35.02-52.21s32.08-26.49,51.8-35.02c19.71-8.53,40.89-12.79,63.54-12.79ZM319.58,442.46c17.05,0,32.99-3.21,47.81-9.65,14.82-6.43,27.82-15.16,39-26.21,11.18-11.04,19.99-23.97,26.42-38.79,6.43-14.82,9.65-30.62,9.65-47.39s-3.22-32.99-9.65-47.81c-6.44-14.82-15.24-27.82-26.42-39-11.19-11.18-24.19-19.99-39-26.42-14.82-6.43-30.76-9.65-47.81-9.65s-32.5,3.22-47.18,9.65c-14.68,6.44-27.61,15.24-38.79,26.42-11.19,11.19-19.99,24.19-26.42,39-6.44,14.82-9.65,30.76-9.65,47.81s3.21,32.58,9.65,47.39c6.43,14.82,15.24,27.75,26.42,38.79,11.18,11.05,24.12,19.78,38.79,26.21,14.68,6.44,30.41,9.65,47.18,9.65Z"/>
</svg>