<?xml version="1.0" encoding="UTF-8" standalone="no"?>
<!-- Created with Inkscape (http://www.inkscape.org/) -->

<svg
   xmlns:dc="http://purl.org/dc/elements/1.1/"
   xmlns:cc="http://creativecommons.org/ns#"
   xmlns:rdf="http://www.w3.org/1999/02/22-rdf-syntax-ns#"
   xmlns:svg="http://www.w3.org/2000/svg"
   xmlns="http://www.w3.org/2000/svg"
   version="1.1"
   width="300"
   height="300.17133"
   id="svg6656">
  <defs
     id="defs6658" />
  <metadata
     id="metadata6661">
    <rdf:RDF>
      <cc:Work
         rdf:about="">
        <dc:format>image/svg+xml</dc:format>
        <dc:type
           rdf:resource="http://purl.org/dc/dcmitype/StillImage" />
        <dc:title></dc:title>
      </cc:Work>
    </rdf:RDF>
  </metadata>
  <g
     transform="translate(-130.00001,-453.70509)"
     id="layer1">
    <path
       d="m 280.42833,453.70509 c 13.79213,0 27.07026,1.84181 39.74872,5.48258 12.76414,3.55511 24.71443,8.60936 35.80811,15.0771 11.05082,6.51056 21.1165,14.34895 30.15419,23.4723 9.12335,9.16619 16.87608,19.2747 23.30097,30.32553 6.46773,11.09366 11.52199,23.08681 15.0771,35.97944 3.64077,12.80697 5.48258,26.12792 5.48258,39.92005 0,13.70645 -1.84181,26.98457 -5.48258,39.74871 -3.55511,12.80697 -8.60937,24.80012 -15.0771,35.97944 -6.42489,11.09366 -14.17762,21.20217 -23.30097,30.32553 -9.03769,9.03769 -19.10337,16.83323 -30.15419,23.30097 -11.09368,6.51056 -23.04397,11.56481 -35.80811,15.0771 -12.67847,3.64077 -25.95659,5.48258 -39.74872,5.48258 -13.83495,0 -27.19873,-1.84181 -40.09136,-5.48258 -12.80698,-3.51229 -24.80013,-8.56654 -35.97945,-15.0771 -11.09367,-6.46774 -21.28784,-14.26328 -30.49686,-23.30097 -9.16619,-9.12336 -17.00457,-19.23187 -23.4723,-30.32553 -6.4249,-11.17932 -11.43633,-23.12964 -15.0771,-35.80811 -3.55512,-12.76414 -5.31125,-26.08509 -5.31125,-39.92004 0,-13.79213 1.75613,-27.11308 5.31125,-39.92005 3.64077,-12.89263 8.6522,-24.88578 15.0771,-35.97944 6.46773,-11.05083 14.30611,-21.15934 23.4723,-30.32553 9.20902,-9.12335 19.40319,-16.96174 30.49686,-23.4723 11.17932,-6.46774 23.17247,-11.52199 35.97945,-15.0771 C 253.2296,455.5469 266.59338,453.70509 280.42833,453.70509 z m 0,13.87778 c -14.64876,0 -28.65506,2.18447 -41.976,6.51057 -13.27813,4.36893 -25.44261,10.40834 -36.49344,18.16105 -11.09367,7.79554 -20.94518,17.0474 -29.46888,27.75557 -8.48086,10.751 -15.16276,22.52998 -20.04569,35.29412 l 127.98401,-83.95203 127.12736,83.95203 c -4.92576,-12.76414 -11.60766,-24.54312 -20.0457,-35.29412 -8.35236,-10.70817 -18.07538,-19.96003 -29.12621,-27.75557 -11.09366,-7.75271 -23.25815,-13.79212 -36.49343,-18.16105 C 308.61223,469.76734 294.77728,467.58287 280.42833,467.58287 z m -85.32267,247.23016 c 1.24214,-1.11366 2.61279,-2.74129 4.11194,-4.79726 1.45631,-2.01314 2.4843,-3.59795 3.08395,-4.62593 0.42833,-1.32781 1.62764,-3.12678 3.59794,-5.31125 2.01314,-2.27013 4.36894,-4.66876 7.02456,-7.19589 2.61279,-2.61279 5.39692,-5.18275 8.3952,-7.70988 2.95545,-2.4843 5.69674,-4.7116 8.22387,-6.68189 1.79898,-1.58481 3.46944,-3.46945 4.96859,-5.65392 1.45633,-2.27012 2.7413,-4.11193 3.76929,-5.48258 1.11365,-0.98515 2.78411,-2.39863 4.96859,-4.11193 2.14164,-1.67048 3.76927,-3.46945 4.79726,-5.31125 0.77096,-0.89949 1.79897,-2.05597 3.08394,-3.42662 1.24214,-1.45631 2.4843,-2.82696 3.76927,-4.11193 1.24216,-1.32782 2.44147,-2.61279 3.59795,-3.76928 1.24213,-1.24214 2.31298,-2.14164 3.25527,-2.74129 0.89949,-0.64249 2.14164,-1.75614 3.76927,-3.25528 1.58483,-1.58481 3.25531,-3.16962 4.96861,-4.79726 1.79898,-1.58481 3.59795,-2.99829 5.31125,-4.28327 1.79898,-1.32781 3.34096,-2.14164 4.62593,-2.39863 l 0,76.58481 78.12679,0.34266 c -0.68533,-1.24214 -1.9703,-2.99829 -3.76929,-5.31125 -1.84182,-2.3558 -4.06909,-4.88293 -6.6819,-7.53855 -2.65562,-2.61279 -5.43976,-5.22559 -8.39519,-7.88121 -2.86979,-2.69846 -5.56824,-5.05426 -8.05255,-7.02456 -2.31295,-1.45631 -4.15476,-3.29811 -5.48258,-5.48258 -1.37065,-2.27012 -2.65561,-4.11193 -3.76927,-5.48258 -0.94236,-0.98515 -2.52713,-2.39863 -4.79726,-4.11193 -2.31297,-1.67048 -4.02627,-3.46945 -5.13992,-5.31125 -0.81383,-0.89949 -1.79896,-2.05597 -2.91261,-3.42662 -1.15649,-1.45631 -2.44148,-2.82696 -3.7693,-4.11193 -1.28495,-1.32782 -2.61277,-2.61279 -3.94058,-3.76928 -1.28498,-1.24214 -2.35581,-2.14164 -3.2553,-2.74129 -0.81382,-0.64249 -2.01313,-1.75614 -3.59794,-3.25528 -1.49914,-1.58481 -3.1696,-3.16962 -4.96858,-4.79726 -1.71333,-1.67048 -3.46944,-3.16962 -5.13992,-4.4546 -1.71332,-1.32781 -3.21245,-2.0988 -4.4546,-2.2273 l 0,-118.56082 c 3.04112,0 5.73957,1.49915 8.05254,4.4546 2.27013,2.86979 3.42662,6.21073 3.42662,9.93718 0,2.52713 -0.47118,5.01142 -1.37065,7.36722 -0.94234,2.31295 -2.48429,4.19759 -4.62593,5.65391 l 0,2.39863 c 0,1.15648 0,2.3558 0,3.59794 0.0855,1.28498 0.34264,2.18447 0.68531,2.74129 0.77097,0.94235 2.27012,1.37065 4.4546,1.37065 1.32781,0 2.82696,-0.0428 4.45459,-0.17139 1.67048,-0.21415 3.51228,-0.34266 5.4826,-0.34266 1.67048,0 3.51229,0.21415 5.48257,0.51394 2.01315,0.25702 4.15477,0.64245 6.33925,1.19931 1.24213,0.47118 2.27011,0.94235 3.08393,1.37065 0.77096,0.47117 1.58481,0.89947 2.39864,1.19931 0.89946,0.34266 1.88464,0.7282 2.91261,1.02799 1.11368,0.25702 2.56997,0.4283 4.28327,0.51393 5.35408,0 9.6802,0.38554 13.02113,1.02799 3.38378,0.59968 5.65391,0.85671 6.6819,0.85671 0.89948,0 1.75613,0 2.56995,0 0.77097,0 1.62765,0.0855 2.56998,0.17138 0.89947,0 1.92747,0.12851 3.08395,0.34266 1.11366,0.12851 2.61278,0.25703 4.45458,0.34266 l 4.11194,0 c 0.89949,0 1.97032,0 3.25528,0 1.32784,0 3.2553,0.12852 5.65391,0.34267 0.77097,0 2.22731,0.21415 4.28327,0.51393 2.01314,0.25703 3.64079,0.34266 4.79727,0.34266 0.42829,0 0.8567,0.0855 1.1993,0.17139 0.42831,0 0.77098,0 1.02799,0 0.98511,0 1.75614,-0.0855 2.2273,-0.34266 0.4283,-0.21415 1.19932,-0.34266 2.2273,-0.34266 0.55681,0 1.37064,0.0855 2.39864,0.17138 1.11365,0 2.27012,0.12851 3.4266,0.34266 1.11366,0.25703 2.14164,0.47118 3.08396,0.68533 0.89947,0.25702 1.37065,0.55681 1.37065,0.8567 0,0.81384 -0.77096,1.32782 -2.2273,1.54198 -1.37066,0.25702 -2.78411,0.34266 -4.11194,0.34266 l -2.74129,0 c 0.21416,0 0.85672,0.12851 1.88464,0.34266 0.98511,0.25703 1.54196,0.7282 1.54196,1.37065 0,0.34266 -0.59967,0.51394 -1.7133,0.51394 -1.02798,0 -2.18446,-0.0428 -3.42662,-0.17139 -1.28497,-0.21415 -2.44146,-0.4283 -3.42661,-0.68532 -1.84181,0 -4.02626,0.21415 -6.51056,0.51393 -2.52713,0.25703 -5.39692,0.59969 -8.56654,1.02799 -2.31296,0.25702 -4.88292,0.64245 -7.70988,1.19931 -2.86979,0.47118 -4.88292,0.68533 -5.99657,0.68533 -2.52713,0 -5.01142,-0.17139 -7.36722,-0.51394 -2.39863,-0.4283 -5.22558,-0.68532 -8.3952,-0.68532 -4.02627,0 -8.09537,0.29978 -12.16448,0.8567 -4.11194,0.47118 -7.83838,0.68533 -11.13649,0.68533 -2.74129,0 -5.05425,-0.21415 -6.85323,-0.68533 -1.71331,-0.55681 -3.29811,-0.8567 -4.62593,-0.8567 -1.49914,0 -2.61279,0.81383 -3.25528,2.39863 -0.59969,1.15648 -0.94235,2.35579 -1.02799,3.59794 -0.12851,1.15648 -0.25702,2.48429 -0.34266,3.9406 -0.12851,1.49915 -0.47117,3.21246 -1.02798,5.13992 -0.59969,1.9703 -1.62764,4.1976 -3.08395,6.6819 -0.81384,1.15649 -1.11365,2.3558 -0.85671,3.59795 0.21415,1.15648 0.68532,2.35579 1.37065,3.59794 0.77096,1.28497 1.71332,2.61279 2.74128,3.9406 0.98512,1.37065 1.88464,2.8698 2.56998,4.4546 0.42829,1.37065 0.68531,2.95545 0.68531,4.62593 0.0855,1.62764 0.55682,3.04112 1.37065,4.28327 2.27013,2.65562 4.36894,5.39691 6.33923,8.22387 1.92747,2.86979 3.64078,5.69674 5.13992,8.3952 1.45631,2.74129 2.74129,5.22558 3.76927,7.36722 1.11367,2.18447 1.97032,3.8121 2.56997,4.79726 1.11366,2.52713 2.95545,5.22558 5.48258,8.05254 2.61279,2.74129 4.96859,4.84009 7.02456,6.1679 1.79898,1.37065 3.85495,3.51228 6.16791,6.33924 2.35579,2.74129 4.71159,5.73957 7.02455,8.90919 2.27013,3.21246 4.4546,6.5534 6.51057,9.93718 2.14164,3.42662 3.9406,6.46774 5.31125,9.08053 0.98511,2.18447 2.0988,4.19759 3.25528,5.99657 1.24215,1.84181 2.27013,3.29811 3.08395,4.28327 1.58481,-4.75443 3.81211,-11.17933 6.6819,-19.18904 2.95545,-8.09537 6.1679,-16.87607 9.59452,-26.38492 3.38377,-9.46602 6.85322,-19.10337 10.27984,-28.95488 3.51228,-9.80868 6.76756,-18.76072 9.76585,-26.89892 2.95545,-8.18104 5.39692,-15.0771 7.36721,-20.55968 2.01314,-5.56825 3.2553,-8.73786 3.59796,-9.42318 l -131.06796,-86.008 0,29.81154 c -3.34095,0 -6.12508,1.49914 -8.39521,4.45459 -2.31295,2.8698 -3.42661,6.21074 -3.42661,9.93718 0,2.74129 0.5568,5.26842 1.71331,7.53855 1.24213,2.31296 2.78412,4.15477 4.62593,5.48258 l 0,2.05597 c 0,1.28498 -0.0855,2.61279 -0.1714,3.94061 -0.12851,1.28497 -0.47116,2.18447 -1.02797,2.74129 -0.68533,0.94234 -2.18448,1.37064 -4.4546,1.37064 -1.28499,0 -2.69847,-0.0428 -4.28328,-0.17138 -1.62762,-0.21415 -3.38378,-0.34266 -5.31124,-0.34266 -1.84181,0 -3.8121,0.21415 -5.82524,0.51393 -1.9703,0.25703 -4.02627,0.64245 -6.16791,1.19932 -1.15648,0.47117 -2.18446,0.94234 -3.08395,1.37064 -0.81383,0.47118 -1.62763,0.89948 -2.39863,1.19932 -0.81383,0.34266 -1.79896,0.72819 -2.91262,1.02798 -1.02799,0.25703 -2.3558,0.4283 -3.94061,0.51394 -5.39691,0 -9.85151,0.38553 -13.3638,1.02798 -3.42661,0.59969 -5.56824,0.85671 -6.33923,0.85671 l -3.25528,0 c -1.15649,0 -2.44146,0.0855 -3.76928,0.17139 -1.28497,0 -3.29811,0.25702 -5.99657,0.68532 l -3.59794,0 c -0.81383,0 -1.9703,0 -3.42662,0 -1.37064,0 -3.21245,0.12851 -5.48258,0.34266 -0.81382,0 -2.27013,0.0855 -4.28327,0.17139 -2.05596,0.12851 -3.8121,0.38553 -5.13992,0.68532 -0.59965,0.12851 -1.32781,0.17138 -2.2273,0.17138 -1.02798,0 -1.8418,-0.0855 -2.39862,-0.34266 -0.47106,-0.21416 -1.07071,-0.34266 -1.7132,-0.34266 -0.59965,0 -1.45631,0.0855 -2.56996,0.17139 -1.02799,0 -2.14163,0.12851 -3.25528,0.34266 -1.15649,0.25702 -2.18447,0.47117 -3.08396,0.68532 -0.94231,0.25702 -1.37064,0.55681 -1.37064,0.85671 0,0.81383 0.55682,1.41347 1.71331,1.71331 1.11365,0.25702 2.31296,0.34266 3.59794,0.34266 0.64249,0 1.28498,0 1.88464,0 0.64249,-0.0855 1.19931,-0.17139 1.54197,-0.17139 -0.47116,0 -1.24214,0.12851 -2.2273,0.34266 -1.02798,0.25703 -1.54197,0.7282 -1.54197,1.37065 0,0.34266 0.55682,0.51394 1.7133,0.51394 0.6425,0 1.41348,0 2.2273,0 0.89949,-0.0855 1.71331,-0.21415 2.39863,-0.34267 0.89949,-0.0855 1.79898,-0.25702 2.74129,-0.51393 1.67048,0 3.76928,0.12851 6.16791,0.34266 2.3558,0.12851 5.22559,0.55681 8.56653,1.19931 1.11366,0.12851 2.39863,0.29979 3.76928,0.51394 1.32781,0.12851 2.65563,0.29979 3.9406,0.51394 1.32782,0.25702 2.56996,0.47117 3.59794,0.68532 1.11366,0.12851 1.97031,0.17139 2.56996,0.17139 2.61279,0 5.18275,-0.17139 7.70988,-0.51394 2.48431,-0.4283 5.18275,-0.68532 8.05255,-0.68532 4.0691,0 8.22388,0.29978 12.3358,0.8567 4.06912,0.47118 7.75271,0.68533 10.96517,0.68533 2.82697,0 5.13993,-0.21415 6.85323,-0.68533 1.79898,-0.55681 3.29811,-0.8567 4.4546,-0.8567 1.45632,0 2.65563,0.81383 3.59794,2.39863 0.55681,1.15648 0.8567,2.35579 0.8567,3.59794 0.0855,1.15648 0.21415,2.48429 0.34266,3.9406 0.21415,1.49915 0.59969,3.21246 1.19933,5.13992 0.55681,1.9703 1.58479,4.1976 3.08394,6.6819 0.55682,0.68532 0.85672,1.58481 0.85672,2.56996 0,1.9703 -0.89948,3.98344 -2.56997,5.99657 -1.71331,2.05597 -3.16961,4.41177 -4.28327,7.02456 -0.34266,1.37065 -0.59968,2.95545 -0.68531,4.62593 0,1.62764 -0.55682,3.04112 -1.54199,4.28327 -2.18446,2.65562 -4.24043,5.39691 -6.1679,8.22387 -1.8418,2.86979 -3.5551,5.69674 -5.13991,8.3952 -1.49916,2.74129 -2.78413,5.22558 -3.76929,7.36722 -1.02797,2.18447 -1.79896,3.8121 -2.22729,4.79726 -1.37065,2.86979 -3.38378,5.43975 -5.99658,7.70988 -2.65562,2.18447 -5.05425,4.36893 -7.19589,6.51056 -3.89777,3.89778 -8.00971,8.43804 -12.3358,13.53513 -4.36893,5.13992 -8.52371,12.0788 -12.50714,20.73101 -1.37065,2.86979 -2.95545,5.52541 -4.62593,7.88121 -1.62764,2.31296 -2.61279,3.64077 -2.91262,3.9406 -0.94231,1.02799 -1.75614,1.92747 -2.39863,2.56996 -0.68532,0.59966 -1.45631,1.62764 -2.2273,3.08396 L 145.41988,580.66117 c -0.68533,4.02626 -1.15649,7.92404 -1.37065,11.65048 -0.1285,3.76928 -0.17133,7.66705 -0.17133,11.65049 0,10.19417 1.02798,20.08852 3.08395,29.64021 2.14164,9.50884 5.18275,18.58937 9.08053,27.24157 3.98343,8.69504 8.78069,16.87607 14.39177,24.50029 5.69663,7.66699 12.16437,14.60588 19.36026,20.73095 -0.68532,1.28498 -1.02799,2.82695 -1.02799,4.62593 0,1.15649 0.21417,1.9703 0.68533,2.39863 0.55682,0.34266 1.02798,0.94231 1.37064,1.71331 0.0856,0.25699 0.17133,0.55682 0.17133,0.85665 0,0.34266 0.257,0.51399 0.85666,0.51399 0.64249,0 1.28498,-0.17133 1.88463,-0.51399 C 194.37751,715.36985 194.84867,715.07002 195.10566,714.81303 z m 85.32266,25.52827 c 15.03427,0 29.46888,-2.31297 43.17533,-7.02456 13.79214,-4.66876 26.55625,-11.35065 38.20674,-20.04569 l -163.10679,0 c 11.60766,8.69504 24.37179,15.37693 38.20674,20.04569 C 250.70248,738.02833 265.22273,740.3413 280.42833,740.3413 z m 90.80526,-34.26614 c 6.93889,-6.25357 13.19247,-13.23529 18.67505,-20.90234 5.56825,-7.62422 10.3655,-15.80525 14.39178,-24.50028 3.98343,-8.65221 7.02456,-17.73273 9.08053,-27.24158 2.14164,-9.55169 3.25528,-19.4032 3.25528,-29.46887 0,-3.98344 -0.21415,-7.88122 -0.51393,-11.65049 -0.25703,-3.72644 -0.77096,-7.62422 -1.54198,-11.65049 L 370.54826,704.87585 Z"
       id="path2423"
       style="fill:#fff;fill-opacity:1;stroke:none" />
  </g>
</svg>
